<?xml version="1.0" encoding="UTF-8"?> <svg xmlns="http://www.w3.org/2000/svg" xmlns:xlink="http://www.w3.org/1999/xlink" version="1.1" id="Warstwa_1" x="0px" y="0px" viewBox="0 0 379 293" style="enable-background:new 0 0 379 293;" xml:space="preserve"> <style type="text/css"> .st0{fill:#FFFFFF;} .st1{fill:#188EF8;} .st2{opacity:0.2;fill:#0C0042;} .st3{fill:#0C39C6;} .st4{fill:#DCDCDC;} .st5{fill:#C8C8C8;} .st6{fill:#FFFFFF;stroke:#0C39C6;stroke-width:0.3102;stroke-miterlimit:10;} .st7{fill:#1A2E35;} .st8{fill:none;} .st9{fill:#F5F5F5;} .st10{fill:#E1E1E1;} .st11{fill:#ECECEC;} .st12{fill:#007CFF;} .st13{opacity:0.1;} .st14{opacity:0.2;} .st15{opacity:0.3;} .st16{opacity:0.5;} .st17{fill:#375A64;} .st18{opacity:0.6;} .st19{fill:#FFBF9D;} .st20{fill:#FF9A6C;} </style> <g> <g> <g> <g> <path class="st0" d="M209.3,125.6v71.8c0,2-1.5,3.7-3.4,3.7h-33.5c-1.9,0-3.4-1.6-3.4-3.7v-71.8c0-4.1,1.5-4.3,3.4-4.3h6.7 c0.4,0,0.7,0.4,0.7,1v0.2c0,1.3,0.7,1.3,1.6,1.3h15.5c0.9,0,1.6,0,1.6-1.3v-0.2c0-0.5,0.3-1,0.7-1h6.7 C207.8,121.2,209.3,121.8,209.3,125.6z"></path> </g> <path class="st1" d="M209.3,125.6v7H169v-7c0-4.1,1.5-4.3,3.4-4.3h6.7c0.4,0,0.7,0.4,0.7,1v0.2c0,1.3,0.7,1.3,1.6,1.3h15.5 c0.9,0,1.6,0,1.6-1.3v-0.2c0-0.5,0.3-1,0.7-1h6.7C207.8,121.2,209.3,121.8,209.3,125.6z"></path> <g> <g> <g id="u5Zjqx_00000182525085141058359830000001536730775192892074_"> <g> <path class="st0" d="M177.9,122.8C177.9,122.9,177.9,122.9,177.9,122.8c-0.1,0.1-0.1,0.1-0.1,0.1c-0.2-0.2-0.4-0.3-0.6-0.3 c-0.2,0-0.5,0.1-0.6,0.3c0,0,0,0,0,0c0,0,0,0-0.1-0.1c0,0,0,0,0,0c0,0,0,0,0,0c0,0,0,0,0,0c0,0,0.1,0,0.1-0.1 c0.1,0,0.1-0.1,0.2-0.1c0.1,0,0.2-0.1,0.3-0.1c0,0,0.1,0,0.1,0c0,0,0.1,0,0.1,0c0,0,0.1,0,0.1,0c0.1,0,0.2,0,0.2,0.1 c0.1,0,0.1,0,0.2,0.1C177.8,122.7,177.8,122.7,177.9,122.8C177.9,122.8,177.9,122.8,177.9,122.8 C177.9,122.8,177.9,122.8,177.9,122.8z"></path> <path class="st0" d="M176.8,123.1c0,0-0.1-0.1-0.1-0.1c0.1-0.1,0.3-0.2,0.4-0.2c0.2,0,0.5,0,0.6,0.2c0,0-0.1,0.1-0.1,0.1 c-0.1-0.1-0.3-0.2-0.4-0.2C177,123,176.9,123,176.8,123.1z"></path> <path class="st0" d="M177.5,123.2c0,0-0.1,0.1-0.1,0.1c-0.1-0.1-0.1-0.1-0.2-0.1c-0.1,0-0.2,0-0.2,0.1c0,0-0.1-0.1-0.1-0.1 C177,123.1,177.3,123.1,177.5,123.2z"></path> </g> <path class="st0" d="M177.3,123.4C177.3,123.5,177.3,123.5,177.3,123.4c-0.1,0.1-0.2,0.1-0.2,0 C177.1,123.4,177.2,123.3,177.3,123.4C177.3,123.3,177.3,123.4,177.3,123.4z"></path> </g> <g> <path class="st0" d="M171.6,123c0-0.1,0.1-0.3,0.3-0.3c0.1,0,0.3,0.1,0.3,0.3c0,0.1-0.1,0.3-0.3,0.3 C171.7,123.3,171.6,123.2,171.6,123z"></path> <circle class="st0" cx="172.7" cy="123" r="0.3"></circle> <path class="st0" d="M173.3,123c0-0.1,0.1-0.3,0.3-0.3c0.1,0,0.3,0.1,0.3,0.3c0,0.1-0.1,0.3-0.3,0.3 C173.4,123.3,173.3,123.2,173.3,123z"></path> <path class="st0" d="M174.1,123c0-0.1,0.1-0.3,0.3-0.3c0.1,0,0.3,0.1,0.3,0.3c0,0.1-0.1,0.3-0.3,0.3 C174.2,123.3,174.1,123.2,174.1,123z"></path> <path class="st0" d="M175,123c0-0.1,0.1-0.3,0.3-0.3c0.1,0,0.3,0.1,0.3,0.3c0,0.1-0.1,0.3-0.3,0.3 C175.1,123.3,175,123.2,175,123z"></path> </g> <g> <path class="st0" d="M206.3,123.6h-2.2v-1h2.2V123.6z M204.2,123.5h2v-0.8h-2V123.5z"></path> <rect x="204.3" y="122.8" class="st0" width="1.4" height="0.7"></rect> <rect x="206.3" y="122.8" class="st0" width="0.2" height="0.5"></rect> </g> </g> <g> <g> <polygon class="st0" points="172.9,130.7 171.7,129.5 172.9,128.4 173.1,128.6 172.1,129.5 173.1,130.5 "></polygon> </g> <g> <rect x="204.1" y="128.7" class="st0" width="2.2" height="0.2"></rect> <rect x="204.1" y="129.7" class="st0" width="2.2" height="0.2"></rect> <rect x="204.1" y="130.6" class="st0" width="2.2" height="0.2"></rect> </g> </g> </g> <g> <g> <rect x="190.8" y="169.7" transform="matrix(-1 -1.224647e-16 1.224647e-16 -1 394.6115 348.7417)" class="st1" width="13" height="9.4"></rect> <path class="st2" d="M192.5,172.1c-0.1,0.6,0.4,1.2,1.1,1.1c0.4-0.1,0.6-0.4,0.7-0.7c0.1-0.6-0.4-1.2-1.1-1.1 C192.8,171.5,192.5,171.7,192.5,172.1z"></path> <polygon class="st2" points="196.8,177 203.8,177 200.3,173 "></polygon> <g> <polygon class="st1" points="194.1,177 199.9,177 197,174.4 "></polygon> <polygon class="st3" points="194.1,177 199.9,177 197,174.4 "></polygon> </g> <rect x="190.8" y="177" class="st1" width="13" height="2.1"></rect> <rect x="190.8" y="177" class="st3" width="13" height="2.1"></rect> </g> <g> <rect x="174" y="169.7" transform="matrix(-1 -1.224647e-16 1.224647e-16 -1 361.032 348.7417)" class="st1" width="13" height="9.4"></rect> <path class="st2" d="M175.7,172.1c-0.1,0.6,0.4,1.2,1.1,1.1c0.4-0.1,0.6-0.4,0.7-0.7c0.1-0.6-0.4-1.2-1.1-1.1 C176,171.5,175.7,171.7,175.7,172.1z"></path> <polygon class="st2" points="180,177 187,177 183.5,173 "></polygon> <g> <polygon class="st1" points="177.3,177 183.1,177 180.2,174.4 "></polygon> <polygon class="st3" points="177.3,177 183.1,177 180.2,174.4 "></polygon> </g> <rect x="174" y="177" class="st1" width="13" height="2.1"></rect> <rect x="174" y="177" class="st3" width="13" height="2.1"></rect> </g> <g> <rect x="190.8" y="181.6" class="st1" width="13" height="3.4"></rect> </g> <g> <rect x="174" y="181.6" class="st4" width="13" height="3.4"></rect> </g> <g> <polygon class="st5" points="174.2,196.7 174,196.7 174,197.6 173.6,197.6 173.6,197.2 173,197.2 173,197.6 172.7,197.6 172.7,196.7 172.5,196.7 173.3,195.9 "></polygon> <g> <rect x="203.1" y="195.9" class="st5" width="2.1" height="0.3"></rect> <rect x="203.1" y="196.6" class="st5" width="2.1" height="0.3"></rect> <rect x="203.1" y="197.3" class="st5" width="2.1" height="0.3"></rect> </g> <g> <polygon class="st5" points="189.5,196.8 188.9,197.4 188.3,196.8 188.4,196.7 188.9,197.2 189.4,196.7 "></polygon> <path class="st5" d="M188.9,198.1c-0.6,0-1.1-0.5-1.1-1.1c0-0.6,0.5-1.1,1.1-1.1c0.6,0,1.1,0.5,1.1,1.1 C189.9,197.6,189.5,198.1,188.9,198.1z M188.9,196c-0.5,0-0.9,0.4-0.9,0.9c0,0.5,0.4,0.9,0.9,0.9c0.5,0,0.9-0.4,0.9-0.9 C189.8,196.5,189.4,196,188.9,196z"></path> </g> </g> <g> <g> <line class="st0" x1="179.4" y1="189.5" x2="198.3" y2="189.5"></line> <path class="st3" d="M179.4,189.5c6.3-0.2,12.6-0.2,18.9,0C192,189.7,185.7,189.7,179.4,189.5L179.4,189.5z"></path> </g> <g> <line class="st0" x1="182.1" y1="191.1" x2="195.6" y2="191.1"></line> <path class="st3" d="M182.1,191.1c4.5-0.2,9-0.2,13.5,0C191.1,191.3,186.6,191.3,182.1,191.1L182.1,191.1z"></path> </g> </g> <g> <path class="st6" d="M201.8,166.2h-25.9c-1,0-1.7-0.8-1.7-1.7V140c0-1,0.8-1.7,1.7-1.7h25.9c1,0,1.7,0.8,1.7,1.7v24.5 C203.6,165.5,202.8,166.2,201.8,166.2z"></path> <line class="st6" x1="174.8" y1="138.9" x2="203" y2="165.7"></line> <line class="st6" x1="203" y1="138.8" x2="174.2" y2="166.2"></line> </g> </g> </g> <path class="st7" d="M207.8,118.8h-37.4c-2.1,0-3.8,1.7-3.8,3.9v77c0,2.1,1.7,3.9,3.8,3.9h37.4c2.1,0,3.8-1.7,3.8-3.9v-77 C211.6,120.5,209.9,118.8,207.8,118.8z M209.2,197.3c0,2-1.5,3.7-3.4,3.7h-33.5c-1.9,0-3.4-1.6-3.4-3.7v-71.7 c0-4.1,1.5-4.3,3.4-4.3h6.7c0.4,0,0.7,0.4,0.7,1v0.2c0,1.3,0.7,1.3,1.6,1.3h15.5c0.9,0,1.6,0,1.6-1.3v-0.2c0-0.5,0.3-1,0.7-1h6.7 c1.9,0,3.4,0.5,3.4,4.3V197.3z"></path> <line class="st8" x1="169" y1="192.7" x2="168.9" y2="192.7"></line> </g> </g> <g> <g> <g> <g> <g> <path class="st9" d="M106.3,167.6c-0.1-5.7,4.5-10.4,10.1-10.5c5.7-0.1,10.4,4.5,10.5,10.2c0.1,5.7-4.5,10.4-10.1,10.5 C111.1,177.9,106.4,173.3,106.3,167.6z M121.6,167.4c0-2.7-2.3-4.9-5-4.9c-2.7,0-4.9,2.3-4.8,5c0,2.7,2.3,4.9,5,4.9 C119.4,172.3,121.6,170.1,121.6,167.4z"></path> </g> </g> </g> <g> <g> <g> <path class="st10" d="M106.3,167.6c-0.1-5.7,4.5-10.4,10.1-10.5l0.1,5.4c-2.7,0-4.9,2.3-4.8,5c0,2.7,2.3,4.9,5,4.9l0.1,5.4 C111.1,177.9,106.4,173.3,106.3,167.6z"></path> </g> </g> </g> <g> <g> <g> <path class="st11" d="M115.6,156.2c6.6-0.1,12,5.1,12.1,11.7l-6.3,0.1c-0.1-3.2-2.5-5.2-5.7-5.2L115.6,156.2z"></path> </g> </g> </g> </g> <g> <g> <g> <path class="st10" d="M179,189.2c0,0-3.7,0.1-8.3,0.1c-4.6,0-8.3,0-8.3-0.1c0,0,3.7-0.1,8.3-0.1 C175.3,189.1,179,189.1,179,189.2z"></path> </g> </g> <g> <g> <path class="st10" d="M171.7,190.4c0,0-2.1,0.1-4.6,0.1c-2.6,0-4.6,0-4.6-0.1c0,0,2.1-0.1,4.6-0.1 C169.6,190.3,171.7,190.3,171.7,190.4z"></path> </g> </g> <g> <path class="st9" d="M158.4,201.1h-4c-0.5,0-1-0.4-1-1v-4c0-0.5,0.4-1,1-1h4c0.5,0,1,0.4,1,1v4 C159.4,200.6,159,201.1,158.4,201.1z"></path> </g> <g> <g> <path class="st10" d="M179,197.8c0,0-3.7,0.1-8.3,0.1c-4.6,0-8.3,0-8.3-0.1c0,0,3.7-0.1,8.3-0.1 C175.3,197.8,179,197.8,179,197.8z"></path> </g> </g> <g> <g> <path class="st10" d="M171.7,199.1c0,0-2.1,0.1-4.6,0.1c-2.6,0-4.6,0-4.6-0.1c0,0,2.1-0.1,4.6-0.1 C169.6,199,171.7,199,171.7,199.1z"></path> </g> </g> <g> <path class="st10" d="M156.8,200.4c-0.2,0-0.3-0.1-0.4-0.2l-1.8-1.6c-0.3-0.2-0.3-0.6-0.1-0.9c0.2-0.3,0.6-0.3,0.9-0.1l1.3,1.2 l2.5-3c0.2-0.3,0.6-0.3,0.9-0.1c0.3,0.2,0.3,0.6,0.1,0.9l-2.9,3.5C157.2,200.3,157,200.3,156.8,200.4 C156.8,200.4,156.8,200.4,156.8,200.4z"></path> </g> <g> <path class="st9" d="M158.4,192h-4c-0.5,0-1-0.4-1-1v-4c0-0.5,0.4-1,1-1h4c0.5,0,1,0.4,1,1v4C159.4,191.5,159,192,158.4,192z"></path> </g> <g> <path class="st10" d="M156.8,191.2c-0.2,0-0.3-0.1-0.4-0.2l-1.8-1.6c-0.3-0.2-0.3-0.6-0.1-0.9c0.2-0.3,0.6-0.3,0.9-0.1l1.3,1.2 l2.5-3c0.2-0.3,0.6-0.3,0.9-0.1c0.3,0.2,0.3,0.6,0.1,0.9l-2.9,3.5C157.2,191.1,157,191.2,156.8,191.2 C156.8,191.2,156.8,191.2,156.8,191.2z"></path> </g> <g> <path class="st9" d="M158.4,209.8h-4c-0.5,0-1-0.4-1-1v-4c0-0.5,0.4-1,1-1h4c0.5,0,1,0.4,1,1v4 C159.4,209.3,159,209.8,158.4,209.8z"></path> </g> <g> <g> <path class="st10" d="M179,206.5c0,0-3.7,0.1-8.3,0.1c-4.6,0-8.3,0-8.3-0.1s3.7-0.1,8.3-0.1C175.3,206.5,179,206.5,179,206.5z"></path> </g> </g> <g> <g> <path class="st10" d="M171.7,207.8c0,0-2.1,0.1-4.6,0.1c-2.6,0-4.6,0-4.6-0.1s2.1-0.1,4.6-0.1 C169.6,207.7,171.7,207.7,171.7,207.8z"></path> </g> </g> <g> <path class="st10" d="M156.8,209c-0.2,0-0.3-0.1-0.4-0.2l-1.8-1.6c-0.3-0.2-0.3-0.6-0.1-0.9c0.2-0.3,0.6-0.3,0.9-0.1l1.3,1.2 l2.5-3c0.2-0.3,0.6-0.3,0.9-0.1c0.3,0.2,0.3,0.6,0.1,0.9l-2.9,3.5C157.2,209,157,209,156.8,209C156.8,209,156.8,209,156.8,209z"></path> </g> </g> </g> <g> <g> <g> <g> <g> <path class="st9" d="M246.9,105c0.8,5.2-2.9,10-8.1,10.8c-5.2,0.8-10.1-2.8-10.8-8.1c-0.8-5.2,2.9-10,8.1-10.8 C241.3,96.2,246.1,99.8,246.9,105z"></path> </g> </g> <g> <g> <path class="st11" d="M244.7,105.4c0.6,4-2.2,7.6-6.2,8.2c-4,0.6-7.7-2.2-8.2-6.1c-0.6-4,2.2-7.6,6.2-8.2 C240.4,98.6,244.1,101.4,244.7,105.4z"></path> </g> </g> <g> <g> <g> <path class="st10" d="M244.6,105.1c0,0-0.1-0.3-0.3-0.8c-0.2-0.5-0.5-1.3-1.2-2.1c-0.3-0.4-0.7-0.8-1.1-1.2 c-0.5-0.4-1-0.7-1.6-1c-0.3-0.1-0.6-0.3-0.9-0.4c-0.3-0.1-0.7-0.2-1-0.2c-0.4,0-0.7-0.1-1.1-0.1c-0.4,0-0.7,0-1.1,0.1 c-0.4,0.1-0.7,0.2-1.1,0.3c-0.4,0.1-0.7,0.3-1,0.4c-0.3,0.2-0.6,0.4-0.9,0.6c-0.3,0.2-0.5,0.4-0.8,0.7c-0.5,0.5-0.9,1-1.2,1.5 c-0.3,0.5-0.5,1-0.7,1.5c-0.3,1-0.4,1.8-0.4,2.4c0,0.6,0,0.9,0,0.9c0,0-0.1-0.3-0.2-0.9c-0.1-0.6-0.1-1.4,0.2-2.5 c0.1-0.5,0.3-1.1,0.6-1.6c0.3-0.5,0.7-1.1,1.2-1.6c0.2-0.3,0.5-0.5,0.8-0.7c0.3-0.2,0.6-0.4,1-0.6c0.3-0.2,0.7-0.3,1.1-0.5 c0.4-0.1,0.8-0.2,1.2-0.3c0.4-0.1,0.8-0.1,1.2-0.1c0.4,0,0.8,0,1.2,0.1c0.4,0.1,0.8,0.1,1.1,0.2c0.4,0.1,0.7,0.2,1,0.4 c0.6,0.3,1.2,0.7,1.7,1.1c0.5,0.4,0.9,0.9,1.2,1.3c0.6,0.9,0.9,1.7,1,2.3C244.6,104.8,244.6,105.1,244.6,105.1z"></path> </g> </g> </g> </g> <g> <g> <g> <g> <path class="st10" d="M238.9,110.6l0.2,1.3L238,112l-0.2-1.2c-1.1,0.1-2.2-0.1-2.9-0.4l0.4-1.5c0.6,0.3,1.5,0.5,2.3,0.4 l-0.3-1.9c-1.3-0.1-2.7-0.3-3-1.9c-0.2-1.2,0.5-2.3,2.2-2.8l-0.2-1.2l1.1-0.2l0.2,1.2c0.8-0.1,1.7,0,2.4,0.3l-0.3,1.5 c-0.6-0.2-1.2-0.3-1.8-0.3l0.3,1.9c1.3,0.1,2.7,0.3,3,1.9C241.3,108.9,240.6,110.1,238.9,110.6z M237,105.8l-0.3-1.6 c-0.6,0.2-0.8,0.6-0.7,1C236.1,105.6,236.5,105.7,237,105.8z M239.3,108.2c-0.1-0.4-0.4-0.6-0.9-0.6l0.2,1.5 C239.2,108.9,239.4,108.6,239.3,108.2z"></path> </g> </g> </g> </g> </g> <g> <g> <g> <g> <path class="st9" d="M224.8,85.6c-1,3.9-4.9,6.3-8.8,5.3c-3.9-1-6.3-4.9-5.3-8.8c1-3.9,4.9-6.3,8.8-5.3 C223.4,77.8,225.8,81.8,224.8,85.6z"></path> </g> </g> <g> <g> <path class="st11" d="M223.1,85.2c-0.7,3-3.7,4.8-6.7,4c-3-0.7-4.8-3.7-4-6.7c0.7-3,3.7-4.8,6.7-4 C222,79.3,223.9,82.3,223.1,85.2z"></path> </g> </g> <g> <g> <g> <path class="st10" d="M223.2,85.1c0,0,0-0.2,0-0.7c0-0.4,0-1.1-0.2-1.8c-0.1-0.4-0.3-0.8-0.5-1.2c-0.2-0.4-0.5-0.8-0.8-1.1 c-0.2-0.2-0.4-0.4-0.6-0.5c-0.2-0.2-0.4-0.3-0.7-0.5c-0.2-0.1-0.5-0.3-0.7-0.4c-0.3-0.1-0.5-0.2-0.8-0.2 c-0.3-0.1-0.6-0.1-0.8-0.1c-0.3,0-0.6,0-0.8,0c-0.3,0-0.5,0.1-0.8,0.1c-0.3,0.1-0.5,0.1-0.7,0.2c-0.5,0.2-0.9,0.4-1.2,0.7 c-0.4,0.3-0.7,0.6-0.9,0.9c-0.5,0.6-0.8,1.2-0.9,1.6c-0.2,0.4-0.2,0.6-0.3,0.6c0,0,0-0.3,0.1-0.7c0.1-0.4,0.4-1,0.9-1.7 c0.2-0.3,0.5-0.6,0.9-0.9c0.4-0.3,0.8-0.6,1.3-0.8c0.2-0.1,0.5-0.2,0.8-0.3c0.3-0.1,0.6-0.1,0.8-0.2c0.3,0,0.6,0,0.9,0 c0.3,0,0.6,0.1,0.9,0.1c0.3,0.1,0.6,0.2,0.9,0.3c0.3,0.1,0.6,0.2,0.8,0.4c0.3,0.1,0.5,0.3,0.7,0.5c0.2,0.2,0.4,0.4,0.6,0.6 c0.4,0.4,0.6,0.8,0.9,1.3c0.2,0.4,0.4,0.8,0.4,1.2c0.2,0.8,0.1,1.4,0.1,1.9C223.3,84.8,223.2,85.1,223.2,85.1z"></path> </g> </g> </g> </g> <g> <g> <g> <g> <path class="st10" d="M217.6,87.2l-0.2,0.9l-0.8-0.2l0.2-0.9c-0.8-0.2-1.6-0.7-1.9-1.2l0.7-0.9c0.3,0.4,0.9,0.8,1.5,1l0.3-1.4 c-0.9-0.4-1.8-1-1.6-2.2c0.2-0.9,1-1.5,2.4-1.3l0.2-0.9l0.8,0.2l-0.2,0.9c0.6,0.2,1.2,0.5,1.6,0.9l-0.7,0.9 c-0.4-0.3-0.8-0.6-1.2-0.7l-0.3,1.4c0.9,0.4,1.8,1,1.6,2.2C219.7,86.8,218.9,87.4,217.6,87.2z M217.6,83.3l0.3-1.2 c-0.5,0-0.7,0.2-0.8,0.5C217,82.9,217.2,83.1,217.6,83.3z M218.6,85.7c0.1-0.3-0.1-0.5-0.5-0.7l-0.3,1.2 C218.3,86.1,218.5,86,218.6,85.7z"></path> </g> </g> </g> </g> </g> <g> <g> <g> <g> <g> <path class="st9" d="M227,180.6c0.8,5.2-2.9,10-8.1,10.8c-5.2,0.8-10.1-2.8-10.8-8.1c-0.8-5.2,2.9-10,8.1-10.8 C221.4,171.8,226.2,175.4,227,180.6z"></path> </g> </g> <g> <g> <path class="st11" d="M224.7,180.9c0.6,4-2.2,7.6-6.2,8.2c-4,0.6-7.7-2.2-8.2-6.1c-0.6-4,2.2-7.6,6.2-8.2 C220.5,174.2,224.1,177,224.7,180.9z"></path> </g> </g> <g> <g> <g> <path class="st10" d="M224.7,180.7c0,0-0.1-0.3-0.3-0.8c-0.2-0.5-0.5-1.3-1.2-2.1c-0.3-0.4-0.7-0.8-1.1-1.2 c-0.5-0.4-1-0.7-1.6-1c-0.3-0.1-0.6-0.3-0.9-0.4c-0.3-0.1-0.7-0.2-1-0.2c-0.4,0-0.7-0.1-1.1-0.1c-0.4,0-0.7,0-1.1,0.1 c-0.4,0.1-0.7,0.2-1.1,0.3c-0.4,0.1-0.7,0.3-1,0.4c-0.3,0.2-0.6,0.4-0.9,0.6c-0.3,0.2-0.5,0.4-0.8,0.7 c-0.5,0.5-0.9,1-1.2,1.5c-0.3,0.5-0.5,1-0.7,1.5c-0.3,1-0.4,1.8-0.4,2.4c0,0.6,0,0.9,0,0.9c0,0-0.1-0.3-0.2-0.9 c-0.1-0.6-0.1-1.4,0.2-2.5c0.1-0.5,0.3-1.1,0.6-1.6c0.3-0.5,0.7-1.1,1.2-1.6c0.2-0.3,0.5-0.5,0.8-0.7c0.3-0.2,0.6-0.4,1-0.6 c0.3-0.2,0.7-0.3,1.1-0.5c0.4-0.1,0.8-0.2,1.2-0.3c0.4-0.1,0.8-0.1,1.2-0.1c0.4,0,0.8,0,1.2,0.1c0.4,0.1,0.8,0.1,1.1,0.2 c0.4,0.1,0.7,0.2,1,0.4c0.6,0.3,1.2,0.7,1.7,1.1c0.5,0.4,0.9,0.9,1.2,1.3c0.6,0.9,0.9,1.7,1,2.3 C224.7,180.4,224.7,180.7,224.7,180.7z"></path> </g> </g> </g> </g> <g> <g> <g> <g> <path class="st10" d="M219,186.2l0.2,1.3l-1.1,0.2l-0.2-1.2c-1.1,0.1-2.2-0.1-2.9-0.4l0.4-1.5c0.6,0.3,1.5,0.5,2.3,0.4 l-0.3-1.9c-1.3-0.1-2.7-0.3-3-1.9c-0.2-1.2,0.5-2.3,2.2-2.8l-0.2-1.2l1.1-0.2l0.2,1.2c0.8-0.1,1.7,0,2.4,0.3l-0.3,1.5 c-0.6-0.2-1.2-0.3-1.8-0.3l0.3,1.9c1.3,0.1,2.7,0.3,3,1.9C221.4,184.5,220.7,185.7,219,186.2z M217.1,181.4l-0.3-1.6 c-0.6,0.2-0.8,0.6-0.7,1C216.2,181.2,216.5,181.3,217.1,181.4z M219.4,183.8c-0.1-0.4-0.4-0.6-0.9-0.6l0.2,1.5 C219.3,184.5,219.5,184.1,219.4,183.8z"></path> </g> </g> </g> </g> </g> <g> <g> <g> <g> <g> <g> <g> <g> <g> <path class="st12" d="M259.7,205c1.3,5.4-2,10.7-7.4,12c-5.4,1.3-10.7-2-12-7.4c-1.3-5.4,2-10.7,7.4-12 C253,196.3,258.4,199.6,259.7,205z"></path> </g> </g> <g class="st13"> <g> <path class="st0" d="M247.7,197.6c-5.4,1.3-8.7,6.6-7.4,12c0,0,6.9-1.3,7.9-4.4C249.1,202,247.7,197.6,247.7,197.6z"></path> </g> </g> <g> <g> <path class="st12" d="M257.2,205.4c1,4.1-1.6,8.1-5.6,9.1c-4.1,1-8.1-1.6-9.1-5.6c-1-4.1,1.6-8.1,5.6-9.1 C252.1,198.8,256.2,201.4,257.2,205.4z"></path> </g> </g> <g class="st14"> <g> <path d="M257,205.4c1,4.1-1.6,8.1-5.6,9.1c-4.1,1-8.1-1.6-9.1-5.6c-1-4.1,1.6-8.1,5.6-9.1 C252,198.8,256.1,201.4,257,205.4z"></path> </g> </g> <g> <g> <path class="st12" d="M257.4,205.7c0.9,4-1.5,8-5.6,9c-4,0.9-8-1.5-9-5.6c-0.9-4,1.5-8,5.6-9 C252.5,199.2,256.5,201.7,257.4,205.7z"></path> </g> </g> <g class="st14"> <g> <path class="st0" d="M257.4,205.7c0.9,4-1.5,8-5.6,9c-4,0.9-8-1.5-9-5.6c-0.9-4,1.5-8,5.6-9 C252.5,199.2,256.5,201.7,257.4,205.7z"></path> </g> </g> </g> </g> </g> </g> <g> <g> <g> <g> <path class="st12" d="M250.3,206.7l-0.4-1.9c0,0,0,0,0,0c0.3,0,0.7,0,1,0c0.3,0.1,0.5,0.2,0.5,0.2l0-0.1l0.1-0.7l0-0.2 l-0.4-0.3l-0.1,0.1c-0.5-0.1-1-0.2-1.4-0.1l-0.2-1l-0.4-0.2l0.1,0.3l-0.4,0.1l0.2,1c-1.4,0.5-1.9,1.5-1.7,2.4 c0.3,1.3,1.5,1.4,2.6,1.4l0.4,1.8c-0.7,0.1-1.5,0-2-0.3l-0.2,1c0.6,0.3,1.5,0.4,2.4,0.2l0.2,0.8l-0.4,0.1l0.4,0.2l0.8-0.2 l-0.2-1c1.4-0.5,1.9-1.5,1.7-2.4C252.6,206.8,251.4,206.7,250.3,206.7z M249.5,206.7c-0.6,0-1-0.1-1.1-0.6 c-0.1-0.4,0.1-0.8,0.7-1.1L249.5,206.7z M249.9,204.8L249.9,204.8L249.9,204.8C249.9,204.8,249.9,204.8,249.9,204.8z M251,209.5l-0.4-1.6c0.6,0,1,0.1,1.2,0.6C251.8,208.8,251.6,209.2,251,209.5z"></path> </g> </g> </g> <g class="st15"> <g> <g> <path d="M250.3,206.7l-0.4-1.9c0,0,0,0,0,0c0.3,0,0.7,0,1,0c0.3,0.1,0.5,0.2,0.5,0.2l0-0.1l0.1-0.7l0-0.2l-0.4-0.3 l-0.1,0.1c-0.5-0.1-1-0.2-1.4-0.1l-0.2-1l-0.4-0.2l0.1,0.3l-0.4,0.1l0.2,1c-1.4,0.5-1.9,1.5-1.7,2.4 c0.3,1.3,1.5,1.4,2.6,1.4l0.4,1.8c-0.7,0.1-1.5,0-2-0.3l-0.2,1c0.6,0.3,1.5,0.4,2.4,0.2l0.2,0.8l-0.4,0.1l0.4,0.2l0.8-0.2 l-0.2-1c1.4-0.5,1.9-1.5,1.7-2.4C252.6,206.8,251.4,206.7,250.3,206.7z M249.5,206.7c-0.6,0-1-0.1-1.1-0.6 c-0.1-0.4,0.1-0.8,0.7-1.1L249.5,206.7z M249.9,204.9L249.9,204.9L249.9,204.9C249.9,204.9,249.9,204.9,249.9,204.9z M251,209.5l-0.4-1.6c0.6,0,1,0.1,1.2,0.6C251.8,208.8,251.6,209.2,251,209.5z"></path> </g> </g> </g> <g> <g> <path class="st12" d="M250.8,210.3l0.2,1l-0.8,0.2l-0.2-1c-0.9,0.2-1.9,0.1-2.4-0.2l0.2-1c0.5,0.3,1.3,0.4,2,0.3l-0.4-1.8 c-1.1,0-2.3-0.1-2.6-1.4c-0.2-0.9,0.3-1.9,1.7-2.4l-0.2-1l0.8-0.2l0.2,1c0.7-0.1,1.4-0.1,2,0.1l-0.2,1 c-0.6-0.2-1.1-0.2-1.6-0.1l0.4,1.9c1.1,0,2.3,0.1,2.6,1.3C252.7,208.8,252.2,209.8,250.8,210.3z M249.1,206.5l-0.4-1.6 c-0.6,0.3-0.8,0.7-0.7,1.1C248.1,206.4,248.6,206.5,249.1,206.5z M251.4,208.2c-0.1-0.5-0.6-0.6-1.2-0.6l0.4,1.6 C251.2,209,251.4,208.6,251.4,208.2z"></path> </g> </g> </g> </g> <g> <g> <g> <path class="st7" d="M251.8,214.8C251.8,214.8,251.8,214.8,251.8,214.8c0.1,0,0.2-0.1,0.2-0.1c0.1,0,0.2-0.1,0.3-0.1 c0.1,0,0.2-0.1,0.4-0.1c0.1-0.1,0.3-0.1,0.5-0.2c0.1,0,0.2-0.1,0.3-0.1c0.1,0,0.2-0.1,0.3-0.1c0.1-0.1,0.2-0.1,0.3-0.2 c0.1-0.1,0.2-0.1,0.3-0.2c0.1-0.1,0.2-0.1,0.3-0.2c0.1-0.1,0.2-0.2,0.3-0.2c0.4-0.3,0.8-0.8,1.2-1.3c0.1-0.1,0.2-0.3,0.3-0.4 c0-0.1,0.1-0.1,0.1-0.2c0-0.1,0.1-0.1,0.1-0.2c0.1-0.1,0.2-0.3,0.2-0.4c0.1-0.2,0.1-0.3,0.2-0.5l0.1-0.1c0,0,0-0.1,0-0.1 c0-0.1,0.1-0.2,0.1-0.3c0-0.1,0.1-0.2,0.1-0.3c0-0.1,0-0.2,0.1-0.3c0-0.2,0.1-0.4,0.1-0.6c0-0.2,0-0.4,0.1-0.6 c0.1-0.8,0-1.6-0.2-2.4c-0.2-0.8-0.5-1.5-0.9-2.2c-0.1-0.2-0.2-0.3-0.3-0.5c-0.1-0.2-0.2-0.3-0.4-0.4 c-0.1-0.1-0.1-0.1-0.2-0.2c-0.1-0.1-0.1-0.1-0.2-0.2c-0.1-0.1-0.1-0.1-0.2-0.2c0,0-0.1-0.1-0.1-0.1l-0.1-0.1 c-0.1-0.1-0.3-0.2-0.4-0.3c-0.1-0.1-0.3-0.2-0.4-0.3c-0.1,0-0.1-0.1-0.2-0.1c-0.1,0-0.1-0.1-0.2-0.1 c-0.1-0.1-0.3-0.2-0.4-0.2c-0.6-0.3-1.1-0.5-1.7-0.6c-0.1,0-0.3-0.1-0.4-0.1c-0.1,0-0.2,0-0.4-0.1c-0.1,0-0.2,0-0.4,0 c-0.1,0-0.2,0-0.3,0c-0.1,0-0.2,0-0.3,0c-0.1,0-0.2,0-0.3,0c-0.2,0-0.3,0-0.5,0c-0.2,0-0.3,0-0.4,0.1c-0.1,0-0.2,0-0.3,0 c-0.1,0-0.1,0-0.2,0c0,0-0.1,0-0.1,0c0,0,0,0,0.1,0c0,0,0.1,0,0.2,0c0.1,0,0.2,0,0.3-0.1c0.1,0,0.2-0.1,0.4-0.1 c0.2,0,0.3,0,0.5,0c0.1,0,0.2,0,0.3,0c0.1,0,0.2,0,0.3,0c0.1,0,0.2,0,0.3,0c0.1,0,0.2,0,0.4,0c0.1,0,0.2,0,0.4,0 c0.1,0,0.3,0.1,0.4,0.1c0.5,0.1,1.1,0.3,1.7,0.6c0.1,0.1,0.3,0.2,0.4,0.2c0.1,0,0.1,0.1,0.2,0.1c0.1,0,0.1,0.1,0.2,0.1 c0.1,0.1,0.3,0.2,0.4,0.3c0.1,0.1,0.3,0.2,0.4,0.3l0.1,0.1c0,0,0.1,0.1,0.1,0.1c0.1,0.1,0.1,0.1,0.2,0.2 c0.1,0.1,0.1,0.1,0.2,0.2c0.1,0.1,0.1,0.1,0.2,0.2c0.1,0.1,0.2,0.3,0.4,0.4c0.1,0.2,0.2,0.3,0.3,0.5c0.4,0.7,0.7,1.4,0.9,2.2 c0.2,0.8,0.2,1.6,0.2,2.4c0,0.2,0,0.4-0.1,0.6c0,0.2-0.1,0.4-0.1,0.6c0,0.1,0,0.2-0.1,0.3c0,0.1-0.1,0.2-0.1,0.3 c0,0.1-0.1,0.2-0.1,0.3c0,0,0,0.1,0,0.1l-0.1,0.1c-0.1,0.2-0.1,0.3-0.2,0.5c-0.1,0.2-0.2,0.3-0.2,0.5c0,0.1-0.1,0.1-0.1,0.2 c0,0.1-0.1,0.1-0.1,0.2c-0.1,0.1-0.2,0.3-0.3,0.4c-0.4,0.5-0.8,0.9-1.2,1.3c-0.1,0.1-0.2,0.2-0.3,0.2 c-0.1,0.1-0.2,0.1-0.3,0.2c-0.1,0.1-0.2,0.1-0.3,0.2c-0.1,0.1-0.2,0.1-0.3,0.2c-0.1,0-0.2,0.1-0.3,0.1 c-0.1,0-0.2,0.1-0.3,0.1c-0.2,0.1-0.3,0.1-0.5,0.2c-0.1,0.1-0.3,0.1-0.4,0.1c-0.1,0-0.2,0.1-0.3,0.1 C251.9,214.7,251.9,214.8,251.8,214.8C251.8,214.8,251.8,214.8,251.8,214.8z"></path> </g> </g> </g> <g> <g> <g> <path class="st0" d="M242.8,213.8C242.8,213.8,242.8,213.8,242.8,213.8c-0.1-0.1-0.2-0.2-0.2-0.3c-0.1-0.1-0.2-0.2-0.3-0.3 c-0.1-0.1-0.2-0.3-0.3-0.4c-0.1-0.1-0.1-0.2-0.2-0.3c-0.1-0.1-0.1-0.2-0.2-0.3c-0.1-0.2-0.2-0.4-0.4-0.7 c-0.2-0.5-0.4-1-0.6-1.6c-0.2-0.6-0.3-1.2-0.3-1.7c0-0.3,0-0.5,0-0.8c0-0.1,0-0.2,0-0.3c0-0.1,0-0.2,0-0.3c0-0.2,0-0.4,0-0.5 c0-0.2,0-0.3,0.1-0.4c0-0.1,0-0.2,0-0.3c0-0.1,0-0.1,0-0.1c0,0,0,0,0,0.1c0,0.1,0,0.2,0,0.3c0,0.1,0,0.2,0,0.4 c0,0.2,0,0.3,0,0.5c0,0.1,0,0.2,0,0.3c0,0.1,0,0.2,0,0.3c0,0.2,0,0.5,0,0.7c0.1,0.5,0.2,1.1,0.3,1.7c0.2,0.6,0.4,1.1,0.6,1.6 c0.1,0.2,0.2,0.5,0.3,0.7c0.1,0.1,0.1,0.2,0.2,0.3c0.1,0.1,0.1,0.2,0.2,0.3c0.1,0.2,0.2,0.3,0.3,0.4c0.1,0.1,0.2,0.2,0.2,0.3 C242.7,213.6,242.7,213.7,242.8,213.8C242.8,213.8,242.8,213.8,242.8,213.8z"></path> </g> </g> </g> <g> <g> <g> <path class="st0" d="M247.6,206.9c0,0-0.1,0-0.3-0.2c-0.1-0.1-0.3-0.4-0.4-0.6c-0.1-0.3,0-0.6,0.1-0.7 c0.1-0.2,0.2-0.3,0.2-0.3c0,0-0.1,0.1-0.1,0.3c-0.1,0.2-0.1,0.4-0.1,0.7c0.1,0.3,0.2,0.5,0.3,0.6 C247.6,206.8,247.7,206.9,247.6,206.9z"></path> </g> </g> </g> <g> <g> <g> <path class="st0" d="M248.6,203.7c0,0-0.1-0.1-0.1-0.3c0-0.2-0.1-0.3,0-0.3c0,0,0.1,0.1,0.1,0.3 C248.6,203.5,248.6,203.7,248.6,203.7z"></path> </g> </g> </g> <g> <g> <g> <path class="st0" d="M248.7,199.5c0,0-0.1,0-0.2,0c-0.1,0-0.2,0-0.3,0.1c-0.1,0-0.2,0-0.4,0.1c-0.1,0-0.3,0.1-0.4,0.1 c-0.2,0-0.3,0.1-0.5,0.2c-0.3,0.1-0.7,0.3-1.1,0.5c-0.4,0.2-0.7,0.4-1,0.7c-0.1,0.1-0.3,0.2-0.4,0.3 c-0.1,0.1-0.2,0.2-0.3,0.3c-0.1,0.1-0.2,0.2-0.3,0.3c-0.1,0.1-0.1,0.2-0.2,0.2c-0.1,0.1-0.2,0.2-0.2,0.2c0,0,0-0.1,0.1-0.2 c0-0.1,0.1-0.1,0.2-0.2c0.1-0.1,0.2-0.2,0.3-0.3c0.1-0.1,0.2-0.2,0.3-0.3c0.1-0.1,0.3-0.2,0.4-0.3c0.3-0.2,0.6-0.5,1-0.7 c0.4-0.2,0.7-0.4,1.1-0.5c0.2-0.1,0.3-0.1,0.5-0.2c0.2,0,0.3-0.1,0.4-0.1c0.1,0,0.3-0.1,0.4-0.1c0.1,0,0.2,0,0.3,0 C248.6,199.5,248.7,199.5,248.7,199.5z"></path> </g> </g> </g> <g> <g> <g> <path class="st0" d="M253.3,216.2c0,0-0.1,0-0.2,0.1c-0.1,0.1-0.3,0.1-0.5,0.2c-0.4,0.2-1,0.3-1.6,0.4 c-0.6,0.1-1.2,0.1-1.7,0c-0.2,0-0.4,0-0.5-0.1c-0.1,0-0.2,0-0.2,0c0,0,0.1,0,0.2,0c0.1,0,0.3,0,0.5,0c0.4,0,1,0,1.6,0 c0.6-0.1,1.2-0.2,1.6-0.4c0.2-0.1,0.4-0.1,0.5-0.2C253.3,216.2,253.3,216.2,253.3,216.2z"></path> </g> </g> </g> </g> <g> <g> <g> <path class="st7" d="M259.7,205c0,0,0-0.1,0-0.2c0-0.1-0.1-0.3-0.1-0.5c-0.1-0.4-0.3-1-0.7-1.7c-0.2-0.3-0.4-0.7-0.7-1.1 c-0.3-0.4-0.6-0.8-1-1.2c-0.8-0.8-1.8-1.6-3.1-2.2c-0.6-0.3-1.4-0.5-2.1-0.7c-0.8-0.1-1.6-0.2-2.4-0.2c-0.8,0-1.7,0.2-2.5,0.5 c-0.4,0.1-0.8,0.3-1.3,0.5c-0.4,0.2-0.8,0.4-1.2,0.7c-1.6,1-2.9,2.6-3.7,4.4c-0.2,0.5-0.4,1-0.5,1.5c-0.1,0.5-0.2,1-0.3,1.5 c-0.1,1,0,2.1,0.2,3.2c0.3,1,0.7,2,1.2,2.9c0.1,0.2,0.3,0.4,0.4,0.7c0.2,0.2,0.3,0.4,0.5,0.6c0.3,0.4,0.7,0.8,1.1,1.1 c1.5,1.3,3.4,2.1,5.3,2.3c0.5,0.1,0.9,0.1,1.4,0.1c0.5,0,0.9,0,1.3-0.1c0.9-0.1,1.7-0.4,2.5-0.7c0.8-0.3,1.4-0.8,2.1-1.2 c0.6-0.5,1.1-1,1.6-1.5c0.9-1.1,1.5-2.3,1.8-3.3c0.2-0.5,0.3-1,0.4-1.5c0.1-0.5,0.1-0.9,0.1-1.3c0-0.8-0.1-1.4-0.1-1.8 c0-0.2-0.1-0.4-0.1-0.5C259.7,205.1,259.7,205,259.7,205s0.1,0.2,0.1,0.6c0.1,0.4,0.2,1,0.1,1.8c0,0.4,0,0.8-0.1,1.3 c-0.1,0.5-0.2,1-0.3,1.5c-0.3,1.1-0.9,2.2-1.8,3.3c-0.4,0.6-1,1.1-1.6,1.6c-0.6,0.5-1.3,0.9-2.1,1.2c-0.8,0.3-1.6,0.6-2.5,0.7 c-0.4,0.1-0.9,0.1-1.3,0.1c-0.5,0-0.9,0-1.4-0.1c-1.9-0.2-3.8-1-5.3-2.3c-0.4-0.3-0.8-0.7-1.1-1.1c-0.2-0.2-0.3-0.4-0.5-0.6 c-0.1-0.2-0.3-0.4-0.4-0.7c-0.6-0.9-1-1.9-1.2-3c-0.2-1.1-0.3-2.1-0.2-3.2c0-0.5,0.1-1,0.3-1.5c0.1-0.5,0.3-1,0.5-1.5 c0.8-1.9,2.2-3.4,3.7-4.5c0.4-0.3,0.8-0.5,1.2-0.7c0.4-0.2,0.8-0.4,1.3-0.5c0.8-0.3,1.7-0.4,2.5-0.5c0.8,0,1.6,0,2.4,0.2 c0.8,0.2,1.5,0.4,2.1,0.7c1.3,0.6,2.3,1.4,3.1,2.2c0.4,0.4,0.7,0.8,1,1.2c0.3,0.4,0.5,0.8,0.7,1.1c0.4,0.7,0.6,1.3,0.7,1.7 C259.6,204.8,259.7,205,259.7,205z"></path> </g> </g> </g> </g> <g> <g> <g> <g> <g> <g> <g> <g> <g> <path class="st12" d="M252.2,143.7c-0.7,4.7-5.1,8-9.8,7.4c-4.7-0.7-8-5.1-7.4-9.8c0.7-4.7,5.1-8,9.8-7.4 C249.6,134.6,252.9,139,252.2,143.7z"></path> </g> </g> <g class="st13"> <g> <path class="st0" d="M244.8,133.9c-4.7-0.7-9.1,2.6-9.8,7.4c0,0,6,1.1,7.8-1.1C244.6,137.9,244.8,133.9,244.8,133.9z"></path> </g> </g> <g> <g> <path class="st12" d="M250,143.3c-0.5,3.6-3.9,6.1-7.5,5.6c-3.6-0.5-6.1-3.9-5.6-7.5s3.9-6.1,7.5-5.6 C248,136.3,250.5,139.6,250,143.3z"></path> </g> </g> <g class="st14"> <g> <path d="M250.1,143.3c-0.5,3.6-3.9,6.1-7.5,5.6c-3.6-0.5-6.1-3.9-5.6-7.5c0.5-3.6,3.9-6.1,7.5-5.6 C248.1,136.3,250.6,139.6,250.1,143.3z"></path> </g> </g> <g> <g> <path class="st12" d="M250.2,143.6c-0.5,3.6-3.8,6-7.4,5.5c-3.6-0.5-6-3.8-5.5-7.4c0.5-3.6,3.8-6,7.4-5.5 C248.2,136.7,250.7,140,250.2,143.6z"></path> </g> </g> <g class="st14"> <g> <path class="st0" d="M250.1,143.6c-0.5,3.6-3.8,6-7.4,5.5c-3.6-0.5-6-3.8-5.5-7.4c0.5-3.6,3.8-6,7.4-5.5 C248.2,136.7,250.6,140,250.1,143.6z"></path> </g> </g> </g> </g> </g> </g> <g> <g> <g> <g> <path class="st12" d="M244,142.1l0.2-1.6c0,0,0,0,0,0c0.3,0.1,0.6,0.2,0.8,0.4c0.2,0.2,0.4,0.3,0.4,0.3l0,0l0.3-0.6 l0.1-0.1l-0.2-0.4l-0.2,0c-0.3-0.2-0.7-0.4-1.1-0.5l0.1-0.9l-0.2-0.3l0,0.2l-0.4-0.1l-0.1,0.9c-1.3-0.1-2,0.6-2.1,1.4 c-0.2,1.1,0.8,1.6,1.6,1.9l-0.2,1.6c-0.6-0.1-1.2-0.5-1.5-0.9l-0.5,0.8c0.4,0.4,1.1,0.8,1.9,1l-0.1,0.7l-0.3,0l0.3,0.3 l0.7,0.1l0.1-0.9c1.3,0.1,2-0.6,2.1-1.4C245.9,142.9,244.9,142.5,244,142.1z M243.4,141.8c-0.5-0.2-0.8-0.4-0.7-0.8 c0.1-0.4,0.3-0.6,0.9-0.6L243.4,141.8z M244.3,140.5L244.3,140.5L244.3,140.5L244.3,140.5z M243.7,144.5l0.2-1.4 c0.5,0.2,0.8,0.4,0.7,0.8C244.6,144.3,244.3,144.5,243.7,144.5z"></path> </g> </g> </g> <g class="st15"> <g> <g> <path d="M244,142.1l0.2-1.6c0,0,0,0,0,0c0.3,0.1,0.6,0.2,0.8,0.4c0.2,0.2,0.4,0.3,0.4,0.3l0,0l0.3-0.6l0.1-0.1l-0.2-0.4 l-0.2,0c-0.3-0.2-0.7-0.4-1.1-0.5l0.1-0.9l-0.2-0.3l0,0.2l-0.4-0.1l-0.1,0.9c-1.3-0.1-2,0.6-2.1,1.4 c-0.2,1.1,0.8,1.6,1.6,1.9l-0.2,1.6c-0.6-0.1-1.2-0.5-1.5-0.9l-0.5,0.8c0.4,0.4,1.1,0.8,1.9,1l-0.1,0.7l-0.3,0l0.3,0.3 l0.7,0.1l0.1-0.9c1.3,0.1,2-0.6,2.1-1.4C245.9,142.9,244.9,142.5,244,142.1z M243.4,141.8c-0.5-0.2-0.8-0.4-0.7-0.8 c0.1-0.4,0.3-0.6,0.9-0.6L243.4,141.8z M244.3,140.5L244.3,140.5L244.3,140.5L244.3,140.5z M243.7,144.5l0.2-1.4 c0.5,0.2,0.8,0.4,0.7,0.8C244.6,144.3,244.3,144.5,243.7,144.5z"></path> </g> </g> </g> <g> <g> <path class="st12" d="M243.3,145.2l-0.1,0.9l-0.7-0.1l0.1-0.9c-0.8-0.2-1.5-0.5-1.9-1l0.5-0.8c0.4,0.4,0.9,0.7,1.5,0.9 l0.2-1.6c-0.9-0.4-1.8-0.8-1.6-1.9c0.1-0.8,0.8-1.5,2.1-1.4l0.1-0.9l0.7,0.1l-0.1,0.9c0.6,0.1,1.2,0.4,1.6,0.7l-0.5,0.8 c-0.4-0.3-0.8-0.5-1.3-0.6l-0.2,1.7c0.9,0.4,1.8,0.8,1.7,1.9C245.3,144.6,244.6,145.2,243.3,145.2z M243.2,141.6l0.2-1.5 c-0.6,0-0.9,0.3-0.9,0.6C242.4,141.1,242.7,141.4,243.2,141.6z M244.4,143.7c0.1-0.4-0.3-0.6-0.7-0.8l-0.2,1.4 C244.1,144.3,244.4,144,244.4,143.7z"></path> </g> </g> </g> </g> <g> <g> <g> <path class="st7" d="M242.7,149.1C242.7,149.1,242.7,149.1,242.7,149.1c0.1,0,0.1,0,0.2,0c0.1,0,0.2,0,0.3,0 c0.1,0,0.2,0,0.3,0c0.1,0,0.3,0,0.4,0c0.1,0,0.2,0,0.2,0c0.1,0,0.2,0,0.3,0c0.1,0,0.2,0,0.3,0c0.1,0,0.2,0,0.3-0.1 c0.1,0,0.2,0,0.3-0.1c0.1,0,0.2-0.1,0.3-0.1c0.4-0.1,0.9-0.4,1.4-0.6c0.1-0.1,0.2-0.2,0.3-0.2c0.1,0,0.1-0.1,0.2-0.1 c0.1,0,0.1-0.1,0.2-0.1c0.1-0.1,0.2-0.2,0.3-0.3c0.1-0.1,0.2-0.2,0.3-0.3l0.1-0.1c0,0,0-0.1,0.1-0.1c0-0.1,0.1-0.1,0.2-0.2 c0.1-0.1,0.1-0.1,0.2-0.2c0.1-0.1,0.1-0.1,0.1-0.2c0.1-0.1,0.2-0.3,0.3-0.4c0.1-0.1,0.2-0.3,0.2-0.4c0.3-0.6,0.5-1.3,0.6-2 c0.1-0.7,0.1-1.4,0-2.1c0-0.2-0.1-0.3-0.1-0.5c0-0.2-0.1-0.3-0.1-0.5c0-0.1,0-0.2-0.1-0.2c0-0.1-0.1-0.1-0.1-0.2 c0-0.1-0.1-0.1-0.1-0.2c0,0,0-0.1,0-0.1l-0.1-0.1c-0.1-0.1-0.1-0.3-0.2-0.4c-0.1-0.1-0.2-0.2-0.2-0.4c0-0.1-0.1-0.1-0.1-0.2 c0-0.1-0.1-0.1-0.1-0.2c-0.1-0.1-0.2-0.2-0.3-0.3c-0.4-0.4-0.8-0.7-1.2-1c-0.1-0.1-0.2-0.1-0.3-0.2c-0.1-0.1-0.2-0.1-0.3-0.2 c-0.1-0.1-0.2-0.1-0.3-0.1c-0.1,0-0.2-0.1-0.3-0.1c-0.1,0-0.2-0.1-0.2-0.1c-0.1,0-0.2-0.1-0.2-0.1c-0.2,0-0.3-0.1-0.4-0.1 c-0.1,0-0.2-0.1-0.3-0.1c-0.1,0-0.2,0-0.3-0.1c-0.1,0-0.1,0-0.2,0c0,0-0.1,0-0.1,0c0,0,0,0,0.1,0c0,0,0.1,0,0.2,0 c0.1,0,0.2,0,0.3,0c0.1,0,0.2,0,0.3,0.1c0.1,0,0.3,0.1,0.4,0.1c0.1,0,0.2,0.1,0.2,0.1c0.1,0,0.2,0.1,0.3,0.1 c0.1,0,0.2,0.1,0.3,0.1c0.1,0,0.2,0.1,0.3,0.1c0.1,0.1,0.2,0.1,0.3,0.2c0.1,0.1,0.2,0.1,0.3,0.2c0.4,0.3,0.8,0.6,1.2,1 c0.1,0.1,0.2,0.2,0.3,0.3c0,0.1,0.1,0.1,0.1,0.2c0,0.1,0.1,0.1,0.1,0.2c0.1,0.1,0.2,0.2,0.2,0.4c0.1,0.1,0.1,0.3,0.2,0.4 l0.1,0.1c0,0,0,0.1,0,0.1c0,0.1,0.1,0.1,0.1,0.2c0,0.1,0.1,0.1,0.1,0.2c0,0.1,0.1,0.2,0.1,0.2c0,0.2,0.1,0.3,0.1,0.5 c0,0.2,0.1,0.3,0.1,0.5c0.1,0.7,0.1,1.4,0,2.1c-0.1,0.7-0.3,1.4-0.6,2c-0.1,0.1-0.2,0.3-0.2,0.4c-0.1,0.1-0.2,0.3-0.3,0.4 c0,0.1-0.1,0.1-0.1,0.2c-0.1,0.1-0.1,0.1-0.2,0.2c-0.1,0.1-0.1,0.1-0.2,0.2c0,0,0,0.1-0.1,0.1l-0.1,0.1 c-0.1,0.1-0.2,0.2-0.3,0.3c-0.1,0.1-0.2,0.2-0.3,0.3c-0.1,0-0.1,0.1-0.2,0.1c-0.1,0-0.1,0.1-0.2,0.1 c-0.1,0.1-0.2,0.2-0.4,0.2c-0.5,0.3-0.9,0.5-1.4,0.6c-0.1,0-0.2,0.1-0.3,0.1c-0.1,0-0.2,0-0.3,0.1c-0.1,0-0.2,0-0.3,0.1 c-0.1,0-0.2,0-0.3,0c-0.1,0-0.2,0-0.3,0c-0.1,0-0.2,0-0.2,0c-0.2,0-0.3,0-0.4,0c-0.1,0-0.2,0-0.3,0c-0.1,0-0.2,0-0.3,0 C242.8,149.1,242.8,149.1,242.7,149.1C242.7,149.1,242.7,149.1,242.7,149.1z"></path> </g> </g> </g> <g> <g> <g> <path class="st0" d="M235.7,145.5C235.7,145.5,235.7,145.4,235.7,145.5c-0.1-0.1-0.1-0.2-0.1-0.3c0-0.1-0.1-0.2-0.1-0.3 c0-0.1-0.1-0.3-0.1-0.5c0-0.1,0-0.2-0.1-0.3c0-0.1,0-0.2,0-0.3c0-0.2-0.1-0.4-0.1-0.7c0-0.5,0-1,0-1.5c0.1-0.5,0.2-1,0.3-1.5 c0.1-0.2,0.1-0.4,0.2-0.6c0-0.1,0.1-0.2,0.1-0.3c0-0.1,0.1-0.2,0.1-0.3c0.1-0.2,0.1-0.3,0.2-0.4c0.1-0.1,0.1-0.2,0.2-0.3 c0-0.1,0.1-0.1,0.1-0.2c0,0,0-0.1,0-0.1c0,0,0,0,0,0.1c0,0.1-0.1,0.1-0.1,0.2c0,0.1-0.1,0.2-0.2,0.3 c-0.1,0.1-0.1,0.3-0.2,0.4c0,0.1-0.1,0.2-0.1,0.3c0,0.1-0.1,0.2-0.1,0.3c-0.1,0.2-0.1,0.4-0.2,0.6c-0.1,0.4-0.2,0.9-0.3,1.5 c-0.1,0.5-0.1,1,0,1.5c0,0.2,0,0.4,0.1,0.6c0,0.1,0,0.2,0,0.3c0,0.1,0,0.2,0.1,0.3c0,0.2,0.1,0.3,0.1,0.5 c0,0.1,0.1,0.2,0.1,0.3C235.6,145.3,235.7,145.3,235.7,145.5C235.7,145.4,235.7,145.5,235.7,145.5z"></path> </g> </g> </g> <g> <g> <g> <path class="st0" d="M241.8,141.4c0,0-0.1-0.1-0.2-0.2c-0.1-0.1-0.1-0.4-0.1-0.6c0-0.3,0.2-0.5,0.3-0.6 c0.1-0.1,0.2-0.2,0.2-0.1c0,0-0.1,0.1-0.2,0.2c-0.1,0.1-0.2,0.3-0.3,0.5c0,0.2,0,0.5,0.1,0.6 C241.8,141.3,241.8,141.4,241.8,141.4z"></path> </g> </g> </g> <g> <g> <g> <path class="st0" d="M243.7,139.1c0,0,0-0.1,0-0.3c0-0.1,0.1-0.3,0.1-0.3c0,0,0,0.1,0,0.3C243.7,139,243.7,139.1,243.7,139.1 z"></path> </g> </g> </g> <g> <g> <g> <path class="st0" d="M245,135.7c0,0-0.1,0-0.2,0c-0.1,0-0.1,0-0.2,0c-0.1,0-0.2,0-0.3-0.1c-0.1,0-0.3,0-0.4,0 c-0.1,0-0.3,0-0.5,0c-0.3,0-0.7,0-1,0.1c-0.4,0.1-0.7,0.1-1,0.2c-0.2,0.1-0.3,0.1-0.4,0.1c-0.1,0-0.3,0.1-0.4,0.2 c-0.1,0-0.2,0.1-0.3,0.1c-0.1,0-0.2,0.1-0.2,0.1c-0.1,0.1-0.2,0.1-0.2,0.1c0,0,0.1,0,0.2-0.1c0.1,0,0.1-0.1,0.2-0.1 c0.1,0,0.2-0.1,0.3-0.2c0.1-0.1,0.2-0.1,0.4-0.2c0.1-0.1,0.3-0.1,0.4-0.2c0.3-0.1,0.7-0.2,1-0.2c0.4-0.1,0.7-0.1,1.1-0.1 c0.2,0,0.3,0,0.5,0c0.1,0,0.3,0,0.4,0c0.1,0,0.2,0,0.3,0.1c0.1,0,0.2,0,0.2,0.1C245,135.7,245,135.7,245,135.7z"></path> </g> </g> </g> <g> <g> <g> <path class="st0" d="M243.5,150.8c0,0-0.1,0-0.2,0c-0.1,0-0.3,0-0.4,0c-0.4,0-0.9-0.1-1.4-0.2c-0.5-0.1-1-0.3-1.3-0.5 c-0.2-0.1-0.3-0.2-0.4-0.2c-0.1-0.1-0.1-0.1-0.1-0.1c0,0,0.1,0,0.1,0.1c0.1,0,0.2,0.1,0.4,0.2c0.3,0.2,0.8,0.3,1.3,0.5 c0.5,0.1,1,0.2,1.4,0.2c0.2,0,0.3,0,0.4,0C243.4,150.8,243.5,150.8,243.5,150.8z"></path> </g> </g> </g> </g> <g> <g> <g> <path class="st7" d="M252.2,143.7c0,0,0,0,0-0.1c0-0.1,0-0.2,0-0.4c0-0.4,0-0.9,0-1.6c0-0.3-0.1-0.7-0.2-1.1 c-0.1-0.4-0.2-0.8-0.4-1.3c-0.4-0.9-1-1.9-1.8-2.7c-0.4-0.4-0.9-0.9-1.5-1.2c-0.6-0.4-1.2-0.7-1.9-0.9 c-0.7-0.2-1.4-0.4-2.2-0.4c-0.4,0-0.8,0-1.2,0c-0.4,0-0.8,0.1-1.2,0.2c-1.6,0.3-3.2,1.1-4.4,2.4c-0.3,0.3-0.6,0.7-0.9,1 c-0.3,0.4-0.5,0.8-0.7,1.2c-0.4,0.8-0.7,1.7-0.8,2.6c-0.1,0.9-0.1,1.9,0.1,2.8c0,0.2,0.1,0.4,0.1,0.7c0.1,0.2,0.1,0.4,0.2,0.6 c0.2,0.4,0.3,0.8,0.5,1.2c0.8,1.6,2.1,2.8,3.6,3.6c0.4,0.2,0.7,0.4,1.1,0.5c0.4,0.1,0.7,0.2,1.1,0.3c0.8,0.2,1.5,0.2,2.2,0.2 c0.7,0,1.4-0.2,2.1-0.3c0.6-0.2,1.2-0.4,1.8-0.7c1.1-0.6,1.9-1.4,2.5-2.1c0.3-0.4,0.6-0.8,0.8-1.1c0.2-0.4,0.4-0.7,0.5-1 c0.3-0.6,0.4-1.2,0.5-1.5c0-0.2,0.1-0.3,0.1-0.4C252.2,143.7,252.2,143.7,252.2,143.7s0,0.2-0.1,0.5c-0.1,0.4-0.2,0.9-0.5,1.5 c-0.1,0.3-0.3,0.7-0.5,1c-0.2,0.4-0.5,0.7-0.8,1.1c-0.6,0.8-1.5,1.5-2.5,2.1c-0.5,0.3-1.1,0.6-1.8,0.8 c-0.6,0.2-1.3,0.3-2.1,0.3c-0.7,0-1.5,0-2.2-0.2c-0.4-0.1-0.8-0.2-1.1-0.3c-0.4-0.1-0.7-0.3-1.1-0.5c-1.4-0.8-2.7-2-3.6-3.6 c-0.2-0.4-0.4-0.8-0.5-1.2c-0.1-0.2-0.1-0.4-0.2-0.7c-0.1-0.2-0.1-0.4-0.1-0.7c-0.2-0.9-0.2-1.9-0.1-2.8 c0.1-0.9,0.4-1.8,0.8-2.7c0.2-0.4,0.4-0.8,0.7-1.2c0.3-0.4,0.6-0.7,0.9-1c1.2-1.3,2.8-2.1,4.4-2.4c0.4-0.1,0.8-0.1,1.2-0.2 c0.4,0,0.8,0,1.2,0c0.8,0.1,1.5,0.2,2.2,0.4c0.7,0.2,1.3,0.5,1.9,0.9c0.6,0.4,1.1,0.8,1.5,1.2c0.9,0.9,1.5,1.9,1.8,2.8 c0.2,0.5,0.3,0.9,0.4,1.3c0.1,0.4,0.2,0.8,0.2,1.1c0.1,0.7,0,1.2,0,1.6C252.2,143.5,252.2,143.7,252.2,143.7z"></path> </g> </g> </g> </g> <g> <g> <g> <g> <g> <g> <g> <g> <g> <g> <rect x="222.2" y="189.1" transform="matrix(-1 -1.224647e-16 1.224647e-16 -1 466.4059 382.2286)" class="st12" width="22" height="4"></rect> </g> </g> </g> <g> <g> <g> <g> <path class="st7" d="M242.1,193.1c0.1,0,0.1-0.9,0.1-2c0-1.1,0-2-0.1-2s-0.1,0.9-0.1,2 C242,192.3,242,193.1,242.1,193.1z"></path> </g> </g> </g> </g> <g> <g> <g> <g> <path class="st7" d="M243.3,193.1c0.1,0,0.1-0.9,0.1-2c0-1.1,0-2-0.1-2c-0.1,0-0.1,0.9-0.1,2 C243.2,192.3,243.2,193.1,243.3,193.1z"></path> </g> </g> </g> </g> <g> <g> <g> <g> <path class="st7" d="M239.4,193.1c0.1,0,0.1-0.9,0.1-2c0-1.1,0-2-0.1-2c-0.1,0-0.1,0.9-0.1,2 C239.3,192.3,239.4,193.1,239.4,193.1z"></path> </g> </g> </g> </g> <g> <g> <g> <g> <path class="st7" d="M240.6,193.1c0.1,0,0.1-0.9,0.1-2c0-1.1,0-2-0.1-2c-0.1,0-0.1,0.9-0.1,2 C240.5,192.3,240.6,193.1,240.6,193.1z"></path> </g> </g> </g> </g> <g> <g> <g> <g> <path class="st7" d="M236.8,193.1c0.1,0,0.1-0.9,0.1-2c0-1.1,0-2-0.1-2c-0.1,0-0.1,0.9-0.1,2 C236.7,192.3,236.7,193.1,236.8,193.1z"></path> </g> </g> </g> </g> <g> <g> <g> <g> <path class="st7" d="M238,193.1c0.1,0,0.1-0.9,0.1-2c0-1.1,0-2-0.1-2c-0.1,0-0.1,0.9-0.1,2 C237.9,192.3,237.9,193.1,238,193.1z"></path> </g> </g> </g> </g> <g> <g> <g> <g> <path class="st7" d="M234.1,193.1c0.1,0,0.1-0.9,0.1-2c0-1.1,0-2-0.1-2c-0.1,0-0.1,0.9-0.1,2 C234,192.3,234.1,193.1,234.1,193.1z"></path> </g> </g> </g> </g> <g> <g> <g> <g> <path class="st7" d="M235.3,193.1c0.1,0,0.1-0.9,0.1-2c0-1.1,0-2-0.1-2c-0.1,0-0.1,0.9-0.1,2 C235.2,192.3,235.3,193.1,235.3,193.1z"></path> </g> </g> </g> </g> <g> <g> <g> <g> <path class="st7" d="M231.5,193.1c0.1,0,0.1-0.9,0.1-2c0-1.1,0-2-0.1-2c-0.1,0-0.1,0.9-0.1,2 C231.4,192.3,231.4,193.1,231.5,193.1z"></path> </g> </g> </g> </g> <g> <g> <g> <g> <path class="st7" d="M232.7,193.1c0.1,0,0.1-0.9,0.1-2c0-1.1,0-2-0.1-2c-0.1,0-0.1,0.9-0.1,2 C232.6,192.3,232.6,193.1,232.7,193.1z"></path> </g> </g> </g> </g> <g> <g> <g> <g> <path class="st7" d="M228.8,193.1c0.1,0,0.1-0.9,0.1-2c0-1.1,0-2-0.1-2c-0.1,0-0.1,0.9-0.1,2 C228.7,192.3,228.8,193.1,228.8,193.1z"></path> </g> </g> </g> </g> <g> <g> <g> <g> <path class="st7" d="M230,193.1c0.1,0,0.1-0.9,0.1-2c0-1.1,0-2-0.1-2c-0.1,0-0.1,0.9-0.1,2 C229.9,192.3,230,193.1,230,193.1z"></path> </g> </g> </g> </g> <g> <g> <g> <g> <path class="st7" d="M226.2,193.1c0.1,0,0.1-0.9,0.1-2c0-1.1,0-2-0.1-2c-0.1,0-0.1,0.9-0.1,2 C226.1,192.3,226.1,193.1,226.2,193.1z"></path> </g> </g> </g> </g> <g> <g> <g> <g> <path class="st7" d="M227.4,193.1c0.1,0,0.1-0.9,0.1-2c0-1.1,0-2-0.1-2c-0.1,0-0.1,0.9-0.1,2 C227.3,192.3,227.3,193.1,227.4,193.1z"></path> </g> </g> </g> </g> <g> <g> <g> <g> <path class="st7" d="M223.5,193.1c0.1,0,0.1-0.9,0.1-2c0-1.1,0-2-0.1-2c-0.1,0-0.1,0.9-0.1,2 C223.4,192.3,223.5,193.1,223.5,193.1z"></path> </g> </g> </g> </g> <g> <g> <g> <g> <path class="st7" d="M224.7,193.1c0.1,0,0.1-0.9,0.1-2c0-1.1,0-2-0.1-2c-0.1,0-0.1,0.9-0.1,2 C224.6,192.3,224.7,193.1,224.7,193.1z"></path> </g> </g> </g> </g> </g> <g> <g> <g> <g> <path class="st7" d="M222.2,189.1c0,0.1,5,0.1,11.1,0.1c6.1,0,11.1,0,11.1-0.1c0-0.1-5-0.1-11.1-0.1 C227.1,189,222.2,189.1,222.2,189.1z"></path> </g> </g> </g> </g> </g> <g> <g> <g> <g> <g> <rect x="223.6" y="193.2" transform="matrix(-1 -1.224647e-16 1.224647e-16 -1 469.2925 390.363)" class="st12" width="22" height="4"></rect> </g> </g> </g> <g> <g> <g> <g> <path class="st7" d="M243.5,197.2c0.1,0,0.1-0.9,0.1-2c0-1.1,0-2-0.1-2c-0.1,0-0.1,0.9-0.1,2 C243.4,196.3,243.5,197.2,243.5,197.2z"></path> </g> </g> </g> </g> <g> <g> <g> <g> <path class="st7" d="M244.7,197.2c0.1,0,0.1-0.9,0.1-2c0-1.1,0-2-0.1-2c-0.1,0-0.1,0.9-0.1,2 C244.6,196.3,244.7,197.2,244.7,197.2z"></path> </g> </g> </g> </g> <g> <g> <g> <g> <path class="st7" d="M240.9,197.2c0.1,0,0.1-0.9,0.1-2c0-1.1,0-2-0.1-2c-0.1,0-0.1,0.9-0.1,2 C240.8,196.3,240.8,197.2,240.9,197.2z"></path> </g> </g> </g> </g> <g> <g> <g> <g> <path class="st7" d="M242.1,197.2c0.1,0,0.1-0.9,0.1-2c0-1.1,0-2-0.1-2s-0.1,0.9-0.1,2 C242,196.3,242,197.2,242.1,197.2z"></path> </g> </g> </g> </g> <g> <g> <g> <g> <path class="st7" d="M238.2,197.2c0.1,0,0.1-0.9,0.1-2c0-1.1,0-2-0.1-2c-0.1,0-0.1,0.9-0.1,2 C238.1,196.3,238.2,197.2,238.2,197.2z"></path> </g> </g> </g> </g> <g> <g> <g> <g> <path class="st7" d="M239.4,197.2c0.1,0,0.1-0.9,0.1-2c0-1.1,0-2-0.1-2c-0.1,0-0.1,0.9-0.1,2 C239.3,196.3,239.4,197.2,239.4,197.2z"></path> </g> </g> </g> </g> <g> <g> <g> <g> <path class="st7" d="M235.6,197.2c0.1,0,0.1-0.9,0.1-2c0-1.1,0-2-0.1-2c-0.1,0-0.1,0.9-0.1,2 C235.5,196.3,235.5,197.2,235.6,197.2z"></path> </g> </g> </g> </g> <g> <g> <g> <g> <path class="st7" d="M236.8,197.2c0.1,0,0.1-0.9,0.1-2c0-1.1,0-2-0.1-2c-0.1,0-0.1,0.9-0.1,2 C236.7,196.3,236.7,197.2,236.8,197.2z"></path> </g> </g> </g> </g> <g> <g> <g> <g> <path class="st7" d="M232.9,197.2c0.1,0,0.1-0.9,0.1-2c0-1.1,0-2-0.1-2c-0.1,0-0.1,0.9-0.1,2 C232.8,196.3,232.9,197.2,232.9,197.2z"></path> </g> </g> </g> </g> <g> <g> <g> <g> <path class="st7" d="M234.1,197.2c0.1,0,0.1-0.9,0.1-2c0-1.1,0-2-0.1-2c-0.1,0-0.1,0.9-0.1,2 C234,196.3,234.1,197.2,234.1,197.2z"></path> </g> </g> </g> </g> <g> <g> <g> <g> <path class="st7" d="M230.3,197.2c0.1,0,0.1-0.9,0.1-2c0-1.1,0-2-0.1-2s-0.1,0.9-0.1,2 C230.2,196.3,230.2,197.2,230.3,197.2z"></path> </g> </g> </g> </g> <g> <g> <g> <g> <path class="st7" d="M231.5,197.2c0.1,0,0.1-0.9,0.1-2c0-1.1,0-2-0.1-2c-0.1,0-0.1,0.9-0.1,2 C231.4,196.3,231.4,197.2,231.5,197.2z"></path> </g> </g> </g> </g> <g> <g> <g> <g> <path class="st7" d="M227.6,197.2c0.1,0,0.1-0.9,0.1-2c0-1.1,0-2-0.1-2s-0.1,0.9-0.1,2 C227.5,196.3,227.6,197.2,227.6,197.2z"></path> </g> </g> </g> </g> <g> <g> <g> <g> <path class="st7" d="M228.8,197.2c0.1,0,0.1-0.9,0.1-2c0-1.1,0-2-0.1-2c-0.1,0-0.1,0.9-0.1,2 C228.7,196.3,228.8,197.2,228.8,197.2z"></path> </g> </g> </g> </g> <g> <g> <g> <g> <path class="st7" d="M225,197.2c0.1,0,0.1-0.9,0.1-2c0-1.1,0-2-0.1-2s-0.1,0.9-0.1,2 C224.9,196.3,224.9,197.2,225,197.2z"></path> </g> </g> </g> </g> <g> <g> <g> <g> <path class="st7" d="M226.2,197.2c0.1,0,0.1-0.9,0.1-2c0-1.1,0-2-0.1-2c-0.1,0-0.1,0.9-0.1,2 C226.1,196.3,226.1,197.2,226.2,197.2z"></path> </g> </g> </g> </g> </g> <g> <g> <g> <g> <path class="st7" d="M223.6,193.2c0,0.1,5,0.1,11.1,0.1c6.1,0,11.1,0,11.1-0.1c0-0.1-5-0.1-11.1-0.1 C228.6,193.1,223.6,193.1,223.6,193.2z"></path> </g> </g> </g> </g> </g> <g> <g> <g> <g> <g> <rect x="221.8" y="197.2" transform="matrix(-1 -1.224647e-16 1.224647e-16 -1 465.6888 398.4265)" class="st12" width="22" height="4"></rect> </g> </g> </g> <g> <g> <g> <g> <path class="st7" d="M241.7,201.2c0.1,0,0.1-0.9,0.1-2c0-1.1,0-2-0.1-2c-0.1,0-0.1,0.9-0.1,2 C241.6,200.4,241.7,201.2,241.7,201.2z"></path> </g> </g> </g> </g> <g> <g> <g> <g> <path class="st7" d="M242.9,201.2c0.1,0,0.1-0.9,0.1-2c0-1.1,0-2-0.1-2c-0.1,0-0.1,0.9-0.1,2 C242.8,200.4,242.9,201.2,242.9,201.2z"></path> </g> </g> </g> </g> <g> <g> <g> <g> <path class="st7" d="M239.1,201.2c0.1,0,0.1-0.9,0.1-2c0-1.1,0-2-0.1-2s-0.1,0.9-0.1,2 C239,200.4,239,201.2,239.1,201.2z"></path> </g> </g> </g> </g> <g> <g> <g> <g> <path class="st7" d="M240.3,201.2c0.1,0,0.1-0.9,0.1-2c0-1.1,0-2-0.1-2s-0.1,0.9-0.1,2 C240.2,200.4,240.2,201.2,240.3,201.2z"></path> </g> </g> </g> </g> <g> <g> <g> <g> <path class="st7" d="M236.4,201.2c0.1,0,0.1-0.9,0.1-2c0-1.1,0-2-0.1-2c-0.1,0-0.1,0.9-0.1,2 C236.3,200.4,236.4,201.2,236.4,201.2z"></path> </g> </g> </g> </g> <g> <g> <g> <g> <path class="st7" d="M237.6,201.2c0.1,0,0.1-0.9,0.1-2c0-1.1,0-2-0.1-2c-0.1,0-0.1,0.9-0.1,2 C237.5,200.4,237.6,201.2,237.6,201.2z"></path> </g> </g> </g> </g> <g> <g> <g> <g> <path class="st7" d="M233.8,201.2c0.1,0,0.1-0.9,0.1-2c0-1.1,0-2-0.1-2c-0.1,0-0.1,0.9-0.1,2 C233.7,200.4,233.7,201.2,233.8,201.2z"></path> </g> </g> </g> </g> <g> <g> <g> <g> <path class="st7" d="M235,201.2c0.1,0,0.1-0.9,0.1-2c0-1.1,0-2-0.1-2c-0.1,0-0.1,0.9-0.1,2 C234.9,200.4,234.9,201.2,235,201.2z"></path> </g> </g> </g> </g> <g> <g> <g> <g> <path class="st7" d="M231.1,201.2c0.1,0,0.1-0.9,0.1-2c0-1.1,0-2-0.1-2c-0.1,0-0.1,0.9-0.1,2 C231,200.4,231.1,201.2,231.1,201.2z"></path> </g> </g> </g> </g> <g> <g> <g> <g> <path class="st7" d="M232.3,201.2c0.1,0,0.1-0.9,0.1-2c0-1.1,0-2-0.1-2s-0.1,0.9-0.1,2 C232.2,200.4,232.3,201.2,232.3,201.2z"></path> </g> </g> </g> </g> <g> <g> <g> <g> <path class="st7" d="M228.5,201.2c0.1,0,0.1-0.9,0.1-2c0-1.1,0-2-0.1-2c-0.1,0-0.1,0.9-0.1,2 C228.4,200.4,228.4,201.2,228.5,201.2z"></path> </g> </g> </g> </g> <g> <g> <g> <g> <path class="st7" d="M229.7,201.2c0.1,0,0.1-0.9,0.1-2c0-1.1,0-2-0.1-2c-0.1,0-0.1,0.9-0.1,2 C229.6,200.4,229.6,201.2,229.7,201.2z"></path> </g> </g> </g> </g> <g> <g> <g> <g> <path class="st7" d="M225.8,201.2c0.1,0,0.1-0.9,0.1-2c0-1.1,0-2-0.1-2c-0.1,0-0.1,0.9-0.1,2 C225.7,200.4,225.8,201.2,225.8,201.2z"></path> </g> </g> </g> </g> <g> <g> <g> <g> <path class="st7" d="M227,201.2c0.1,0,0.1-0.9,0.1-2c0-1.1,0-2-0.1-2c-0.1,0-0.1,0.9-0.1,2 C226.9,200.4,227,201.2,227,201.2z"></path> </g> </g> </g> </g> <g> <g> <g> <g> <path class="st7" d="M223.2,201.2c0.1,0,0.1-0.9,0.1-2c0-1.1,0-2-0.1-2c-0.1,0-0.1,0.9-0.1,2 C223.1,200.4,223.1,201.2,223.2,201.2z"></path> </g> </g> </g> </g> <g> <g> <g> <g> <path class="st7" d="M224.4,201.2c0.1,0,0.1-0.9,0.1-2c0-1.1,0-2-0.1-2c-0.1,0-0.1,0.9-0.1,2 C224.3,200.4,224.3,201.2,224.4,201.2z"></path> </g> </g> </g> </g> </g> <g> <g> <g> <g> <path class="st7" d="M221.8,197.2c0,0.1,5,0.1,11.1,0.1c6.1,0,11.1,0,11.1-0.1c0-0.1-5-0.1-11.1-0.1 C226.8,197.1,221.8,197.2,221.8,197.2z"></path> </g> </g> </g> </g> </g> <g> <g> <g> <g> <g> <rect x="223.5" y="201.2" transform="matrix(-1 -1.224647e-16 1.224647e-16 -1 469.1457 406.3709)" class="st12" width="22" height="4"></rect> </g> </g> </g> <g> <g> <g> <g> <path class="st7" d="M243.4,205.2c0.1,0,0.1-0.9,0.1-2c0-1.1,0-2-0.1-2c-0.1,0-0.1,0.9-0.1,2 C243.3,204.3,243.4,205.2,243.4,205.2z"></path> </g> </g> </g> </g> <g> <g> <g> <g> <path class="st7" d="M244.6,205.2c0.1,0,0.1-0.9,0.1-2c0-1.1,0-2-0.1-2c-0.1,0-0.1,0.9-0.1,2 C244.6,204.3,244.6,205.2,244.6,205.2z"></path> </g> </g> </g> </g> <g> <g> <g> <g> <path class="st7" d="M240.8,205.2c0.1,0,0.1-0.9,0.1-2c0-1.1,0-2-0.1-2c-0.1,0-0.1,0.9-0.1,2 C240.7,204.3,240.7,205.2,240.8,205.2z"></path> </g> </g> </g> </g> <g> <g> <g> <g> <path class="st7" d="M242,205.2c0.1,0,0.1-0.9,0.1-2c0-1.1,0-2-0.1-2s-0.1,0.9-0.1,2 C241.9,204.3,241.9,205.2,242,205.2z"></path> </g> </g> </g> </g> <g> <g> <g> <g> <path class="st7" d="M238.1,205.2c0.1,0,0.1-0.9,0.1-2c0-1.1,0-2-0.1-2c-0.1,0-0.1,0.9-0.1,2 C238,204.3,238.1,205.2,238.1,205.2z"></path> </g> </g> </g> </g> <g> <g> <g> <g> <path class="st7" d="M239.3,205.2c0.1,0,0.1-0.9,0.1-2c0-1.1,0-2-0.1-2c-0.1,0-0.1,0.9-0.1,2 C239.3,204.3,239.3,205.2,239.3,205.2z"></path> </g> </g> </g> </g> <g> <g> <g> <g> <path class="st7" d="M235.5,205.2c0.1,0,0.1-0.9,0.1-2c0-1.1,0-2-0.1-2s-0.1,0.9-0.1,2 C235.4,204.3,235.4,205.2,235.5,205.2z"></path> </g> </g> </g> </g> <g> <g> <g> <g> <path class="st7" d="M236.7,205.2c0.1,0,0.1-0.9,0.1-2c0-1.1,0-2-0.1-2s-0.1,0.9-0.1,2 C236.6,204.3,236.6,205.2,236.7,205.2z"></path> </g> </g> </g> </g> <g> <g> <g> <g> <path class="st7" d="M232.8,205.2c0.1,0,0.1-0.9,0.1-2c0-1.1,0-2-0.1-2c-0.1,0-0.1,0.9-0.1,2 C232.7,204.3,232.8,205.2,232.8,205.2z"></path> </g> </g> </g> </g> <g> <g> <g> <g> <path class="st7" d="M234,205.2c0.1,0,0.1-0.9,0.1-2c0-1.1,0-2-0.1-2c-0.1,0-0.1,0.9-0.1,2 C234,204.3,234,205.2,234,205.2z"></path> </g> </g> </g> </g> <g> <g> <g> <g> <path class="st7" d="M230.2,205.2c0.1,0,0.1-0.9,0.1-2c0-1.1,0-2-0.1-2s-0.1,0.9-0.1,2 C230.1,204.3,230.1,205.2,230.2,205.2z"></path> </g> </g> </g> </g> <g> <g> <g> <g> <path class="st7" d="M231.4,205.2c0.1,0,0.1-0.9,0.1-2c0-1.1,0-2-0.1-2c-0.1,0-0.1,0.9-0.1,2 C231.3,204.3,231.3,205.2,231.4,205.2z"></path> </g> </g> </g> </g> <g> <g> <g> <g> <path class="st7" d="M227.5,205.2c0.1,0,0.1-0.9,0.1-2c0-1.1,0-2-0.1-2c-0.1,0-0.1,0.9-0.1,2 C227.4,204.3,227.5,205.2,227.5,205.2z"></path> </g> </g> </g> </g> <g> <g> <g> <g> <path class="st7" d="M228.7,205.2c0.1,0,0.1-0.9,0.1-2c0-1.1,0-2-0.1-2s-0.1,0.9-0.1,2 C228.7,204.3,228.7,205.2,228.7,205.2z"></path> </g> </g> </g> </g> <g> <g> <g> <g> <path class="st7" d="M224.9,205.2c0.1,0,0.1-0.9,0.1-2c0-1.1,0-2-0.1-2c-0.1,0-0.1,0.9-0.1,2 C224.8,204.3,224.8,205.2,224.9,205.2z"></path> </g> </g> </g> </g> <g> <g> <g> <g> <path class="st7" d="M226.1,205.2c0.1,0,0.1-0.9,0.1-2c0-1.1,0-2-0.1-2c-0.1,0-0.1,0.9-0.1,2 C226,204.3,226,205.2,226.1,205.2z"></path> </g> </g> </g> </g> </g> <g> <g> <g> <g> <path class="st7" d="M223.5,201.2c0,0.1,5,0.1,11.1,0.1c6.1,0,11.1,0,11.1-0.1c0-0.1-5-0.1-11.1-0.1 C228.5,201.1,223.5,201.1,223.5,201.2z"></path> </g> </g> </g> </g> </g> <g> <g> <g> <g> <g> <rect x="221.3" y="205.2" transform="matrix(-1 -1.224647e-16 1.224647e-16 -1 464.7262 414.4939)" class="st12" width="22" height="4"></rect> </g> </g> </g> <g> <g> <g> <g> <path class="st7" d="M241.2,209.3c0.1,0,0.1-0.9,0.1-2c0-1.1,0-2-0.1-2c-0.1,0-0.1,0.9-0.1,2 C241.1,208.4,241.2,209.3,241.2,209.3z"></path> </g> </g> </g> </g> <g> <g> <g> <g> <path class="st7" d="M242.4,209.3c0.1,0,0.1-0.9,0.1-2c0-1.1,0-2-0.1-2c-0.1,0-0.1,0.9-0.1,2 C242.3,208.4,242.4,209.3,242.4,209.3z"></path> </g> </g> </g> </g> <g> <g> <g> <g> <path class="st7" d="M238.6,209.3c0.1,0,0.1-0.9,0.1-2c0-1.1,0-2-0.1-2c-0.1,0-0.1,0.9-0.1,2 C238.5,208.4,238.5,209.3,238.6,209.3z"></path> </g> </g> </g> </g> <g> <g> <g> <g> <path class="st7" d="M239.8,209.3c0.1,0,0.1-0.9,0.1-2c0-1.1,0-2-0.1-2c-0.1,0-0.1,0.9-0.1,2 C239.7,208.4,239.7,209.3,239.8,209.3z"></path> </g> </g> </g> </g> <g> <g> <g> <g> <path class="st7" d="M235.9,209.3c0.1,0,0.1-0.9,0.1-2c0-1.1,0-2-0.1-2c-0.1,0-0.1,0.9-0.1,2 C235.8,208.4,235.9,209.3,235.9,209.3z"></path> </g> </g> </g> </g> <g> <g> <g> <g> <path class="st7" d="M237.1,209.3c0.1,0,0.1-0.9,0.1-2c0-1.1,0-2-0.1-2c-0.1,0-0.1,0.9-0.1,2 C237,208.4,237.1,209.3,237.1,209.3z"></path> </g> </g> </g> </g> <g> <g> <g> <g> <path class="st7" d="M233.3,209.3c0.1,0,0.1-0.9,0.1-2c0-1.1,0-2-0.1-2c-0.1,0-0.1,0.9-0.1,2 C233.2,208.4,233.2,209.3,233.3,209.3z"></path> </g> </g> </g> </g> <g> <g> <g> <g> <path class="st7" d="M234.5,209.3c0.1,0,0.1-0.9,0.1-2c0-1.1,0-2-0.1-2c-0.1,0-0.1,0.9-0.1,2 C234.4,208.4,234.4,209.3,234.5,209.3z"></path> </g> </g> </g> </g> <g> <g> <g> <g> <path class="st7" d="M230.6,209.3c0.1,0,0.1-0.9,0.1-2c0-1.1,0-2-0.1-2c-0.1,0-0.1,0.9-0.1,2 C230.5,208.4,230.6,209.3,230.6,209.3z"></path> </g> </g> </g> </g> <g> <g> <g> <g> <path class="st7" d="M231.8,209.3c0.1,0,0.1-0.9,0.1-2c0-1.1,0-2-0.1-2c-0.1,0-0.1,0.9-0.1,2 C231.7,208.4,231.8,209.3,231.8,209.3z"></path> </g> </g> </g> </g> <g> <g> <g> <g> <path class="st7" d="M228,209.3c0.1,0,0.1-0.9,0.1-2c0-1.1,0-2-0.1-2c-0.1,0-0.1,0.9-0.1,2 C227.9,208.4,227.9,209.3,228,209.3z"></path> </g> </g> </g> </g> <g> <g> <g> <g> <path class="st7" d="M229.2,209.3c0.1,0,0.1-0.9,0.1-2c0-1.1,0-2-0.1-2c-0.1,0-0.1,0.9-0.1,2 C229.1,208.4,229.1,209.3,229.2,209.3z"></path> </g> </g> </g> </g> <g> <g> <g> <g> <path class="st7" d="M225.3,209.3c0.1,0,0.1-0.9,0.1-2c0-1.1,0-2-0.1-2c-0.1,0-0.1,0.9-0.1,2 C225.2,208.4,225.3,209.3,225.3,209.3z"></path> </g> </g> </g> </g> <g> <g> <g> <g> <path class="st7" d="M226.5,209.3c0.1,0,0.1-0.9,0.1-2c0-1.1,0-2-0.1-2c-0.1,0-0.1,0.9-0.1,2 C226.4,208.4,226.5,209.3,226.5,209.3z"></path> </g> </g> </g> </g> <g> <g> <g> <g> <path class="st7" d="M222.7,209.3c0.1,0,0.1-0.9,0.1-2c0-1.1,0-2-0.1-2c-0.1,0-0.1,0.9-0.1,2 C222.6,208.4,222.6,209.3,222.7,209.3z"></path> </g> </g> </g> </g> <g> <g> <g> <g> <path class="st7" d="M223.9,209.3c0.1,0,0.1-0.9,0.1-2c0-1.1,0-2-0.1-2c-0.1,0-0.1,0.9-0.1,2 C223.8,208.4,223.8,209.3,223.9,209.3z"></path> </g> </g> </g> </g> </g> <g> <g> <g> <g> <path class="st7" d="M221.3,205.2c0,0.1,5,0.1,11.1,0.1c6.1,0,11.1,0,11.1-0.1c0-0.1-5-0.1-11.1-0.1 C226.3,205.2,221.3,205.2,221.3,205.2z"></path> </g> </g> </g> </g> </g> <g> <g> <g> <g> <g> <rect x="222.7" y="209.3" transform="matrix(-1 -1.224647e-16 1.224647e-16 -1 467.4913 422.5938)" class="st12" width="22" height="4"></rect> </g> </g> </g> <g> <g> <g> <g> <path class="st7" d="M242.6,213.3c0.1,0,0.1-0.9,0.1-2c0-1.1,0-2-0.1-2c-0.1,0-0.1,0.9-0.1,2 C242.5,212.4,242.6,213.3,242.6,213.3z"></path> </g> </g> </g> </g> <g> <g> <g> <g> <path class="st7" d="M243.8,213.3c0.1,0,0.1-0.9,0.1-2c0-1.1,0-2-0.1-2c-0.1,0-0.1,0.9-0.1,2 C243.7,212.4,243.8,213.3,243.8,213.3z"></path> </g> </g> </g> </g> <g> <g> <g> <g> <path class="st7" d="M240,213.3c0.1,0,0.1-0.9,0.1-2c0-1.1,0-2-0.1-2c-0.1,0-0.1,0.9-0.1,2 C239.9,212.4,239.9,213.3,240,213.3z"></path> </g> </g> </g> </g> <g> <g> <g> <g> <path class="st7" d="M241.2,213.3c0.1,0,0.1-0.9,0.1-2c0-1.1,0-2-0.1-2c-0.1,0-0.1,0.9-0.1,2 C241.1,212.4,241.1,213.3,241.2,213.3z"></path> </g> </g> </g> </g> <g> <g> <g> <g> <path class="st7" d="M237.3,213.3c0.1,0,0.1-0.9,0.1-2c0-1.1,0-2-0.1-2s-0.1,0.9-0.1,2 C237.2,212.4,237.3,213.3,237.3,213.3z"></path> </g> </g> </g> </g> <g> <g> <g> <g> <path class="st7" d="M238.5,213.3c0.1,0,0.1-0.9,0.1-2c0-1.1,0-2-0.1-2c-0.1,0-0.1,0.9-0.1,2 C238.4,212.4,238.5,213.3,238.5,213.3z"></path> </g> </g> </g> </g> <g> <g> <g> <g> <path class="st7" d="M234.7,213.3c0.1,0,0.1-0.9,0.1-2c0-1.1,0-2-0.1-2s-0.1,0.9-0.1,2 C234.6,212.4,234.6,213.3,234.7,213.3z"></path> </g> </g> </g> </g> <g> <g> <g> <g> <path class="st7" d="M235.9,213.3c0.1,0,0.1-0.9,0.1-2c0-1.1,0-2-0.1-2s-0.1,0.9-0.1,2 C235.8,212.4,235.8,213.3,235.9,213.3z"></path> </g> </g> </g> </g> <g> <g> <g> <g> <path class="st7" d="M232,213.3c0.1,0,0.1-0.9,0.1-2c0-1.1,0-2-0.1-2c-0.1,0-0.1,0.9-0.1,2 C231.9,212.4,232,213.3,232,213.3z"></path> </g> </g> </g> </g> <g> <g> <g> <g> <path class="st7" d="M233.2,213.3c0.1,0,0.1-0.9,0.1-2c0-1.1,0-2-0.1-2c-0.1,0-0.1,0.9-0.1,2 C233.1,212.4,233.2,213.3,233.2,213.3z"></path> </g> </g> </g> </g> <g> <g> <g> <g> <path class="st7" d="M229.4,213.3c0.1,0,0.1-0.9,0.1-2c0-1.1,0-2-0.1-2s-0.1,0.9-0.1,2 C229.3,212.4,229.3,213.3,229.4,213.3z"></path> </g> </g> </g> </g> <g> <g> <g> <g> <path class="st7" d="M230.6,213.3c0.1,0,0.1-0.9,0.1-2c0-1.1,0-2-0.1-2s-0.1,0.9-0.1,2 C230.5,212.4,230.5,213.3,230.6,213.3z"></path> </g> </g> </g> </g> <g> <g> <g> <g> <path class="st7" d="M226.7,213.3c0.1,0,0.1-0.9,0.1-2c0-1.1,0-2-0.1-2s-0.1,0.9-0.1,2 C226.6,212.4,226.7,213.3,226.7,213.3z"></path> </g> </g> </g> </g> <g> <g> <g> <g> <path class="st7" d="M227.9,213.3c0.1,0,0.1-0.9,0.1-2c0-1.1,0-2-0.1-2c-0.1,0-0.1,0.9-0.1,2 C227.8,212.4,227.9,213.3,227.9,213.3z"></path> </g> </g> </g> </g> <g> <g> <g> <g> <path class="st7" d="M224.1,213.3c0.1,0,0.1-0.9,0.1-2c0-1.1,0-2-0.1-2s-0.1,0.9-0.1,2 C224,212.4,224,213.3,224.1,213.3z"></path> </g> </g> </g> </g> <g> <g> <g> <g> <path class="st7" d="M225.3,213.3c0.1,0,0.1-0.9,0.1-2c0-1.1,0-2-0.1-2s-0.1,0.9-0.1,2 C225.2,212.4,225.2,213.3,225.3,213.3z"></path> </g> </g> </g> </g> </g> <g> <g> <g> <g> <path class="st7" d="M222.7,209.3c0,0.1,5,0.1,11.1,0.1c6.1,0,11.1,0,11.1-0.1c0-0.1-5-0.1-11.1-0.1 C227.7,209.2,222.7,209.2,222.7,209.3z"></path> </g> </g> </g> </g> </g> <g> <g> <g> <g> <g> <rect x="224.4" y="213.3" transform="matrix(-1 -1.224647e-16 1.224647e-16 -1 470.9482 430.5383)" class="st12" width="22" height="4"></rect> </g> </g> </g> <g> <g> <g> <g> <path class="st7" d="M244.3,217.3c0.1,0,0.1-0.9,0.1-2c0-1.1,0-2-0.1-2c-0.1,0-0.1,0.9-0.1,2 C244.2,216.4,244.3,217.3,244.3,217.3z"></path> </g> </g> </g> </g> <g> <g> <g> <g> <path class="st7" d="M245.5,217.3c0.1,0,0.1-0.9,0.1-2c0-1.1,0-2-0.1-2c-0.1,0-0.1,0.9-0.1,2 C245.5,216.4,245.5,217.3,245.5,217.3z"></path> </g> </g> </g> </g> <g> <g> <g> <g> <path class="st7" d="M241.7,217.3c0.1,0,0.1-0.9,0.1-2c0-1.1,0-2-0.1-2c-0.1,0-0.1,0.9-0.1,2 C241.6,216.4,241.6,217.3,241.7,217.3z"></path> </g> </g> </g> </g> <g> <g> <g> <g> <path class="st7" d="M242.9,217.3c0.1,0,0.1-0.9,0.1-2c0-1.1,0-2-0.1-2c-0.1,0-0.1,0.9-0.1,2 C242.8,216.4,242.8,217.3,242.9,217.3z"></path> </g> </g> </g> </g> <g> <g> <g> <g> <path class="st7" d="M239,217.3c0.1,0,0.1-0.9,0.1-2c0-1.1,0-2-0.1-2c-0.1,0-0.1,0.9-0.1,2 C238.9,216.4,239,217.3,239,217.3z"></path> </g> </g> </g> </g> <g> <g> <g> <g> <path class="st7" d="M240.2,217.3c0.1,0,0.1-0.9,0.1-2c0-1.1,0-2-0.1-2c-0.1,0-0.1,0.9-0.1,2 C240.2,216.4,240.2,217.3,240.2,217.3z"></path> </g> </g> </g> </g> <g> <g> <g> <g> <path class="st7" d="M236.4,217.3c0.1,0,0.1-0.9,0.1-2c0-1.1,0-2-0.1-2c-0.1,0-0.1,0.9-0.1,2 C236.3,216.4,236.3,217.3,236.4,217.3z"></path> </g> </g> </g> </g> <g> <g> <g> <g> <path class="st7" d="M237.6,217.3c0.1,0,0.1-0.9,0.1-2c0-1.1,0-2-0.1-2c-0.1,0-0.1,0.9-0.1,2 C237.5,216.4,237.5,217.3,237.6,217.3z"></path> </g> </g> </g> </g> <g> <g> <g> <g> <path class="st7" d="M233.7,217.3c0.1,0,0.1-0.9,0.1-2c0-1.1,0-2-0.1-2c-0.1,0-0.1,0.9-0.1,2 C233.6,216.4,233.7,217.3,233.7,217.3z"></path> </g> </g> </g> </g> <g> <g> <g> <g> <path class="st7" d="M234.9,217.3c0.1,0,0.1-0.9,0.1-2c0-1.1,0-2-0.1-2c-0.1,0-0.1,0.9-0.1,2 C234.9,216.4,234.9,217.3,234.9,217.3z"></path> </g> </g> </g> </g> <g> <g> <g> <g> <path class="st7" d="M231.1,217.3c0.1,0,0.1-0.9,0.1-2c0-1.1,0-2-0.1-2c-0.1,0-0.1,0.9-0.1,2 C231,216.4,231,217.3,231.1,217.3z"></path> </g> </g> </g> </g> <g> <g> <g> <g> <path class="st7" d="M232.3,217.3c0.1,0,0.1-0.9,0.1-2c0-1.1,0-2-0.1-2c-0.1,0-0.1,0.9-0.1,2 C232.2,216.4,232.2,217.3,232.3,217.3z"></path> </g> </g> </g> </g> <g> <g> <g> <g> <path class="st7" d="M228.4,217.3c0.1,0,0.1-0.9,0.1-2c0-1.1,0-2-0.1-2c-0.1,0-0.1,0.9-0.1,2 C228.4,216.4,228.4,217.3,228.4,217.3z"></path> </g> </g> </g> </g> <g> <g> <g> <g> <path class="st7" d="M229.6,217.3c0.1,0,0.1-0.9,0.1-2c0-1.1,0-2-0.1-2c-0.1,0-0.1,0.9-0.1,2 C229.6,216.4,229.6,217.3,229.6,217.3z"></path> </g> </g> </g> </g> <g> <g> <g> <g> <path class="st7" d="M225.8,217.3c0.1,0,0.1-0.9,0.1-2c0-1.1,0-2-0.1-2c-0.1,0-0.1,0.9-0.1,2 C225.7,216.4,225.7,217.3,225.8,217.3z"></path> </g> </g> </g> </g> <g> <g> <g> <g> <path class="st7" d="M227,217.3c0.1,0,0.1-0.9,0.1-2c0-1.1,0-2-0.1-2c-0.1,0-0.1,0.9-0.1,2 C226.9,216.4,226.9,217.3,227,217.3z"></path> </g> </g> </g> </g> </g> <g> <g> <g> <g> <path class="st7" d="M224.4,213.3c0,0.1,5,0.1,11.1,0.1c6.1,0,11.1,0,11.1-0.1c0-0.1-5-0.1-11.1-0.1 C229.4,213.2,224.4,213.2,224.4,213.3z"></path> </g> </g> </g> </g> </g> </g> <g class="st15"> <g> <g> <g> <path d="M243.9,197.2c-3.3,0.8-6.8,1-10.2,0.7c-3.4-0.2-6.8-0.7-10.2-0.7L243.9,197.2z"></path> </g> </g> </g> </g> <g class="st15"> <g> <g> <g> <path d="M243.7,193.2c-3.3,0.8-6.8,1-10.2,0.7c-3.4-0.2-6.8-0.7-10.2-0.7L243.7,193.2z"></path> </g> </g> </g> </g> <g class="st15"> <g> <g> <g> <path d="M242.6,201.2c-3.3,0.8-6.8,1-10.2,0.7c-3.4-0.2-6.8-0.7-10.2-0.7L242.6,201.2z"></path> </g> </g> </g> </g> <g class="st15"> <g> <g> <g> <path d="M243.5,205.2c-3.3,0.8-6.8,1-10.2,0.7c-3.4-0.2-6.8-0.7-10.2-0.7L243.5,205.2z"></path> </g> </g> </g> </g> <g class="st15"> <g> <g> <g> <path d="M243.2,209.2c-3.3,0.8-6.8,1-10.2,0.7c-3.4-0.2-6.8-0.7-10.2-0.7L243.2,209.2z"></path> </g> </g> </g> </g> <g class="st15"> <g> <g> <g> <path d="M244.3,213.3c-3.3,0.8-6.8,1-10.2,0.7c-3.4-0.2-6.8-0.7-10.2-0.7L244.3,213.3z"></path> </g> </g> </g> </g> </g> <g> <g> <g> <g> <path class="st0" d="M243.8,191.9c0.1,0,0.1-0.5,0.1-1.1c0-0.6,0-1.1-0.1-1.1c-0.1,0-0.1,0.5-0.1,1.1 C243.7,191.4,243.8,191.9,243.8,191.9z"></path> </g> </g> </g> </g> <g> <g> <g> <g> <path class="st0" d="M245.2,196.1c0.1,0,0.1-0.5,0.1-1.2c0-0.6,0-1.2-0.1-1.2c-0.1,0-0.1,0.5-0.1,1.2 C245.1,195.6,245.2,196.1,245.2,196.1z"></path> </g> </g> </g> </g> <g> <g> <g> <g> <path class="st0" d="M243.2,200.2c0.1,0,0.1-0.5,0.1-1c0-0.6,0-1-0.1-1s-0.1,0.5-0.1,1 C243.1,199.8,243.2,200.2,243.2,200.2z"></path> </g> </g> </g> </g> <g> <g> <g> <g> <path class="st0" d="M245.3,204c0.1,0,0.1-0.4,0.1-0.9c0-0.5,0-0.9-0.1-0.9c-0.1,0-0.1,0.4-0.1,0.9 C245.2,203.6,245.2,204,245.3,204z"></path> </g> </g> </g> </g> <g> <g> <g> <g> <path class="st0" d="M237.2,193.5c0,0.1,1.6,0.1,3.6,0.1c2,0,3.6,0,3.6-0.1c0-0.1-1.6-0.1-3.6-0.1 C238.8,193.4,237.2,193.5,237.2,193.5z"></path> </g> </g> </g> </g> <g> <g> <g> <g> <path class="st0" d="M234.8,189.7c0,0.1,1.6,0.1,3.7,0.1c2,0,3.7,0,3.7-0.1c0-0.1-1.6-0.1-3.7-0.1 C236.5,189.6,234.8,189.6,234.8,189.7z"></path> </g> </g> </g> </g> <g> <g> <g> <g> <path class="st0" d="M231.3,189.7c0,0.1,0.5,0.1,1.2,0.1c0.7,0,1.2,0,1.2-0.1c0-0.1-0.5-0.1-1.2-0.1 C231.8,189.6,231.3,189.7,231.3,189.7z"></path> </g> </g> </g> </g> </g> <g> <g> <g> <path class="st0" d="M243.1,209.1c0,0,0.1-0.7,0.1-1.5c0-0.8,0-1.5-0.1-1.5c0,0-0.1,0.7-0.1,1.5 C243,208.4,243,209.1,243.1,209.1z"></path> </g> </g> </g> <g> <g> <g> <path class="st0" d="M226.3,204.8c0,0,4,0.1,9,0.1c4.9,0,9,0,9-0.1c0,0-4-0.1-9-0.1C230.3,204.7,226.3,204.7,226.3,204.8z"></path> </g> </g> </g> <g> <g> <g> <path class="st0" d="M229.9,212.9c0,0,3.2,0.1,7.1,0.1c3.9,0,7.1,0,7.1-0.1c0,0-3.2-0.1-7.1-0.1 C233.1,212.8,229.9,212.8,229.9,212.9z"></path> </g> </g> </g> <g> <g> <g> <path class="st0" d="M246.2,216.5c0,0,0.1-0.4,0.1-0.9c0-0.5,0-0.9-0.1-0.9c0,0-0.1,0.4-0.1,0.9 C246.1,216.1,246.2,216.5,246.2,216.5z"></path> </g> </g> </g> <g> <g> <g> <path class="st0" d="M230.6,216.8c0,0,3.3,0.1,7.3,0.1c4.1,0,7.3,0,7.3-0.1s-3.3-0.1-7.3-0.1 C233.9,216.8,230.6,216.8,230.6,216.8z"></path> </g> </g> </g> </g> <g> <g> <g> <path class="st7" d="M246.5,217.3C246.5,217.3,246.5,217.2,246.5,217.3c0-0.1,0-0.2,0-0.3c0-0.2,0-0.5,0-0.8 c0-0.7,0-1.7,0-2.9l0-0.1l-0.1,0c-0.5,0-1,0-1.6,0l0.1,0.1c0-1.2,0-2.6,0-4l0-0.1l-0.1,0c-0.3,0-0.7,0-1,0c-0.1,0-0.3,0-0.4,0 l0.1,0.1c0-1.5,0-2.8,0-4.1l-0.1,0.1c0.8,0,1.5,0,2.1,0l0.1,0l0-0.1c0-1.2,0-2.2,0-2.9c0-0.3,0-0.6,0-0.8c0-0.1,0-0.2,0-0.2 c0,0,0-0.1,0-0.1c0,0,0,0,0,0.1c0,0.1,0,0.1,0,0.2c0,0.2,0,0.5,0,0.8c0,0.7,0,1.7,0,2.9l0.1-0.1c-0.6,0-1.4,0-2.1,0l-0.1,0 l0,0.1c0,1.2,0,2.6,0,4.1l0,0.1l0.1,0c0.1,0,0.3,0,0.4,0c0.3,0,0.7,0,1,0l-0.1-0.1c0,1.4,0,2.8,0,4l0,0.1l0.1,0 c0.6,0,1.1,0,1.6,0l-0.1-0.1c0,1.2,0,2.2,0,2.9c0,0.3,0,0.6,0,0.8C246.5,217.1,246.5,217.1,246.5,217.3 C246.5,217.2,246.5,217.3,246.5,217.3z"></path> </g> </g> </g> </g> <g> <g> <g> <g> <path class="st12" d="M220.8,159.4c2.1,2.5,5.6,3.1,7.7,1.3c2.1-1.8,2-5.3-0.1-7.8c-2.1-2.5-5.6-3.1-7.7-1.3 C218.7,153.5,218.7,156.9,220.8,159.4z"></path> </g> </g> <g class="st14"> <g> <path d="M220.9,159.4c2.1,2.5,5.6,3.1,7.7,1.3c2.1-1.8,2-5.3-0.1-7.8c-2.1-2.5-5.6-3.1-7.7-1.3 C218.7,153.5,218.7,156.9,220.9,159.4z"></path> </g> </g> <g> <g> <ellipse transform="matrix(0.7592 -0.6508 0.6508 0.7592 -46.9981 184.1283)" class="st12" cx="225.3" cy="155.6" rx="5" ry="6"></ellipse> </g> </g> <g class="st13"> <g> <path class="st0" d="M220.2,152.9c0.3-0.7,0.7-1.3,1.2-1.8c2.1-1.8,5.5-1.2,7.7,1.3c0.9,1,1.4,2.2,1.6,3.4 c-1.3,0.6-2.8,0.9-4.2,0.9c-1.4,0-2.8-0.4-3.9-1.3C221.8,154.6,220.7,153.8,220.2,152.9z"></path> </g> </g> <g> <g> <path class="st0" d="M222.5,157.9c1.6,1.9,4.3,2.4,5.8,1c1.6-1.3,1.5-4-0.1-5.9c-1.6-1.9-4.3-2.4-5.8-1 C220.8,153.3,220.8,156,222.5,157.9z"></path> </g> </g> <g class="st14"> <g> <path d="M222.5,157.9c1.6,1.9,4.3,2.4,5.8,1c1.6-1.3,1.5-4-0.1-5.9c-1.6-1.9-4.3-2.4-5.8-1C220.8,153.3,220.8,156,222.5,157.9 z"></path> </g> </g> <g> <g> <path class="st12" d="M222.4,158.1c1.6,1.9,4.1,2.3,5.7,1c1.5-1.3,1.5-3.9-0.2-5.8c-1.6-1.9-4.1-2.3-5.7-1 C220.7,153.6,220.8,156.2,222.4,158.1z"></path> </g> </g> </g> <g class="st14"> <g> <path class="st0" d="M222.4,158.1c1.6,1.9,4.1,2.3,5.7,1c1.5-1.3,1.5-3.9-0.2-5.8c-1.6-1.9-4.1-2.3-5.7-1 C220.7,153.6,220.8,156.2,222.4,158.1z"></path> </g> </g> <g> <g> <g> <g> <path class="st12" d="M224.6,157c0.4,0.5,1,0.6,1.6,0.2l0.4,0.5l0.3-0.2l0-0.2l-0.1,0.1l-0.3-0.4c0.3-0.3,0.5-0.8,0.6-1.1 l-0.5-0.3c0,0.3-0.2,0.7-0.4,0.9l-0.8-0.9c0.3-0.5,0.6-1,0-1.6c-0.4-0.5-1-0.6-1.6-0.2l-0.4-0.5l-0.2,0.1l-0.1-0.1l0,0.2 l0.4,0.5c-0.2,0.2-0.3,0.4-0.4,0.6l-0.1,0l0,0.3l0.1,0.1l0.4,0.2l0,0c0,0,0-0.1,0.1-0.3c0.1-0.2,0.2-0.3,0.3-0.5c0,0,0,0,0,0 l0.8,0.9C224.4,155.9,224.1,156.4,224.6,157z M224.2,154.3c0.3-0.2,0.5-0.1,0.7,0.1c0.2,0.2,0.1,0.4,0,0.7L224.2,154.3z M223.9,154.5L223.9,154.5L223.9,154.5L223.9,154.5z M225.1,156.7c-0.2-0.2-0.1-0.5,0-0.7l0.7,0.8 C225.5,156.9,225.3,156.9,225.1,156.7z"></path> </g> </g> </g> <g class="st15"> <g> <g> <path d="M224.6,157c0.4,0.5,1,0.6,1.6,0.2l0.4,0.5l0.3-0.2l0-0.2l-0.1,0.1l-0.3-0.4c0.3-0.3,0.5-0.8,0.6-1.1l-0.5-0.3 c0,0.3-0.2,0.7-0.4,0.9l-0.8-0.9c0.3-0.5,0.6-1,0-1.6c-0.4-0.5-1-0.6-1.6-0.2l-0.4-0.5l-0.2,0.1l-0.1-0.1l0,0.2l0.4,0.5 c-0.2,0.2-0.3,0.4-0.4,0.6l-0.1,0l0,0.3l0.1,0.1l0.4,0.2l0,0c0,0,0-0.1,0.1-0.3c0.1-0.2,0.2-0.3,0.3-0.5c0,0,0,0,0,0l0.8,0.9 C224.4,155.9,224.1,156.4,224.6,157z M224.2,154.3c0.3-0.2,0.5-0.1,0.7,0.1c0.2,0.2,0.1,0.4,0,0.7L224.2,154.3z M223.9,154.5 L223.9,154.5L223.9,154.5L223.9,154.5z M225.1,156.7c-0.2-0.2-0.1-0.5,0-0.7l0.7,0.8C225.5,156.9,225.3,156.9,225.1,156.7z"></path> </g> </g> </g> <g> <g> <path class="st12" d="M224.7,156.8c-0.5-0.6-0.2-1.1,0.1-1.6l-0.8-0.9c-0.2,0.2-0.3,0.4-0.4,0.7l-0.5-0.3 c0.1-0.3,0.2-0.6,0.5-0.9l-0.4-0.5l0.3-0.2l0.4,0.5c0.6-0.4,1.2-0.2,1.6,0.2c0.5,0.6,0.2,1.1,0,1.6l0.8,0.9 c0.2-0.3,0.4-0.6,0.4-0.9l0.5,0.3c0,0.4-0.2,0.8-0.6,1.1l0.4,0.5l-0.3,0.2l-0.4-0.5C225.7,157.4,225,157.3,224.7,156.8z M225.9,156.5l-0.7-0.8c-0.1,0.3-0.2,0.5,0,0.7C225.3,156.7,225.6,156.7,225.9,156.5z M224.9,154.2c-0.2-0.2-0.4-0.3-0.7-0.1 l0.7,0.8C225.1,154.6,225.1,154.4,224.9,154.2z"></path> </g> </g> </g> <g> <g> <g> <path class="st7" d="M221.8,155.4c0,0,0,0.1,0.1,0.4c0,0.2,0.1,0.6,0.3,1c0.2,0.4,0.4,0.8,0.8,1.3c0.2,0.2,0.4,0.4,0.7,0.6 c0.2,0.2,0.5,0.3,0.8,0.5c0.6,0.3,1.2,0.4,1.8,0.5c0.6,0,1.1-0.1,1.5-0.3c0.4-0.2,0.7-0.4,0.8-0.6c0.1-0.1,0.1-0.2,0.2-0.2 c0,0,0.1-0.1,0.1-0.1c0,0,0,0-0.1,0.1c0,0-0.1,0.1-0.2,0.2c-0.2,0.2-0.4,0.4-0.8,0.6c-0.4,0.2-0.9,0.3-1.5,0.3 c-0.6,0-1.2-0.2-1.8-0.5c-0.3-0.1-0.6-0.3-0.8-0.5c-0.3-0.2-0.5-0.4-0.7-0.6c-0.4-0.4-0.7-0.9-0.8-1.3c-0.2-0.4-0.3-0.7-0.3-1 C221.8,155.7,221.8,155.6,221.8,155.4C221.8,155.4,221.8,155.4,221.8,155.4z"></path> </g> </g> </g> <g> <g> <g> <path class="st7" d="M223.5,159.7c0,0,0.3,0.2,0.8,0.4c0.1,0,0.1,0.1,0.2,0.1c0.1,0,0.1,0.1,0.2,0.1c0.2,0.1,0.3,0.1,0.5,0.2 c0.4,0.1,0.8,0.1,1.2,0.2c0.4,0,0.8,0,1.2-0.1c0.2,0,0.4-0.1,0.5-0.1c0.1,0,0.2,0,0.2-0.1c0.1,0,0.1-0.1,0.2-0.1 c0.5-0.2,0.8-0.4,0.8-0.4c0,0-0.1,0.1-0.2,0.1c-0.1,0-0.2,0.1-0.3,0.1c-0.1,0.1-0.2,0.1-0.4,0.2c-0.1,0-0.1,0.1-0.2,0.1 c-0.1,0-0.2,0.1-0.2,0.1c-0.2,0.1-0.3,0.1-0.5,0.1c-0.4,0.1-0.8,0.1-1.2,0.1c-0.4,0-0.9-0.1-1.2-0.2c-0.2-0.1-0.4-0.1-0.5-0.2 c-0.1,0-0.2-0.1-0.2-0.1c-0.1,0-0.1-0.1-0.2-0.1c-0.1-0.1-0.2-0.1-0.3-0.2c-0.1-0.1-0.2-0.1-0.2-0.2 C223.5,159.7,223.5,159.7,223.5,159.7z"></path> </g> </g> </g> <g> <g> <g> <path class="st0" d="M229.5,152.9c0,0-0.2-0.2-0.4-0.5c-0.3-0.3-0.7-0.7-1.2-1.1c-0.5-0.4-1-0.6-1.4-0.8 c-0.4-0.2-0.6-0.2-0.6-0.2c0,0,0.1,0,0.2,0c0.1,0,0.3,0.1,0.5,0.2c0.4,0.1,0.9,0.4,1.4,0.8c0.5,0.4,0.9,0.8,1.2,1.1 c0.1,0.2,0.2,0.3,0.3,0.4C229.5,152.9,229.5,152.9,229.5,152.9z"></path> </g> </g> </g> <g> <g> <g> <path class="st0" d="M229.8,154c0,0-0.1-0.1-0.3-0.4c-0.1-0.2-0.2-0.4-0.2-0.4c0,0,0.1,0.1,0.3,0.4 C229.7,153.8,229.8,154,229.8,154z"></path> </g> </g> </g> <g> <g> <g> <path class="st0" d="M221.8,153.2c0,0,0-0.1,0.1-0.1c0,0,0.1-0.1,0.1-0.1c0-0.1,0.1-0.1,0.2-0.2c0.1-0.1,0.3-0.3,0.5-0.4 c0.2-0.1,0.4-0.3,0.7-0.4c0.3-0.1,0.5-0.2,0.8-0.2c0.2,0,0.5,0,0.6,0c0.1,0,0.2,0,0.2,0c0.1,0,0.1,0,0.2,0c0.1,0,0.2,0,0.2,0 c0,0-0.2,0-0.6,0c-0.2,0-0.4,0-0.6,0c-0.2,0-0.5,0.1-0.7,0.2c-0.3,0.1-0.5,0.2-0.7,0.4c-0.2,0.1-0.4,0.3-0.5,0.4 C221.9,153,221.8,153.2,221.8,153.2z"></path> </g> </g> </g> <g> <g> <g> <path class="st0" d="M225.2,154c0,0-0.1-0.2-0.3-0.3c-0.2-0.1-0.4-0.1-0.4-0.1c0,0,0,0,0.1,0c0.1,0,0.2,0,0.3,0.1 c0.1,0.1,0.2,0.2,0.2,0.2C225.2,153.9,225.2,154,225.2,154z"></path> </g> </g> </g> <g> <g> <g> <path class="st0" d="M227.1,155.8C227.1,155.8,227.1,155.7,227.1,155.8c-0.1-0.1-0.1-0.1-0.1-0.1c0,0,0,0,0,0c0,0,0.1,0,0.1,0 C227.2,155.7,227.2,155.7,227.1,155.8C227.2,155.8,227.2,155.8,227.1,155.8z"></path> </g> </g> </g> </g> <g> <g> <g> <g> <g> <g> <path class="st12" d="M247.3,168.2c-2.2-0.5-5.5,0-9,1.3c-3.5,1.3-6.3,3.2-7.6,5l-1.5,0.6l0.9,2.3c0.9,2.4,6.1,2.8,11.5,0.7 c5.4-2.1,9.1-5.7,8.1-8.2l-0.9-2.3L247.3,168.2z"></path> </g> </g> <g class="st15"> <g> <path d="M247.3,168.2c-2.2-0.5-5.5,0-9,1.3c-3.5,1.3-6.3,3.2-7.6,5l-1.5,0.6l0.9,2.3c0.9,2.4,6.1,2.8,11.5,0.7 c5.4-2.1,9.1-5.7,8.1-8.2l-0.9-2.3L247.3,168.2z"></path> </g> </g> <g> <g> <path class="st12" d="M240.7,176c-5.4,2.1-10.6,1.8-11.5-0.7c-0.9-2.4,2.7-6.1,8.2-8.2c5.4-2.1,10.6-1.8,11.5,0.7 C249.8,170.3,246.1,173.9,240.7,176z"></path> </g> </g> <g class="st13"> <g> <path class="st0" d="M233.9,172.2c1.1,0,2.2,0.1,3.3-0.1c3.8-0.5,7.4-2.7,9.2-6.1c-2.2-0.5-5.5-0.2-9,1.1 c-3.3,1.2-5.9,3.1-7.3,4.9C231.3,172.1,232.6,172.1,233.9,172.2z"></path> </g> </g> <g> <g> <path class="st12" d="M240.2,174.1c-4.2,1.6-7.9,2.1-8.5,0.4c-0.7-1.7,2-4.8,6.2-6.4c4.2-1.6,8.1-1.5,8.7,0.1 c0.2,0.4,0.3,0.8-0.1,1.8C245.9,171.6,243.4,172.9,240.2,174.1z"></path> </g> </g> <g class="st15"> <g> <path d="M240.2,174.1c-4.2,1.6-7.9,2.1-8.5,0.4c-0.7-1.7,2-4.8,6.2-6.4c4.2-1.6,8.1-1.5,8.7,0.1c0.2,0.4,0.3,0.8-0.1,1.8 C245.9,171.6,243.4,172.9,240.2,174.1z"></path> </g> </g> <g> <g> <path class="st12" d="M240.3,174.9c-4.1,1.5-7.9,1.5-8.5-0.2c-0.6-1.6,2.2-4.2,6.2-5.8c4.1-1.5,7.9-1.5,8.5,0.2 C247.2,170.7,244.4,173.3,240.3,174.9z"></path> </g> </g> <g class="st14"> <g> <path class="st0" d="M240.3,174.9c-4.1,1.5-7.9,1.5-8.5-0.2c-0.6-1.6,2.2-4.2,6.2-5.8c4.1-1.5,7.9-1.5,8.5,0.2 C247.2,170.7,244.4,173.3,240.3,174.9z"></path> </g> </g> </g> </g> <g> <g> <g> <g> <path class="st12" d="M240,171.9l1.8-0.7c0,0,0,0,0,0c0,0.2,0,0.4,0,0.7c-0.1,0.2-0.2,0.4-0.2,0.4l0.1,0l0.7-0.1l0.2,0 l0.3-0.3l-0.1-0.1c0.1-0.3,0.2-0.7,0.1-0.9l1-0.4l0.2-0.3l-0.2,0.1l-0.1-0.3l-1,0.4c-0.5-0.8-1.4-0.9-2.3-0.5 c-1.2,0.5-1.3,1.3-1.3,2l-1.8,0.7c-0.1-0.4,0-0.9,0.3-1.4l-1,0.1c-0.3,0.4-0.4,1.1-0.2,1.6l-0.7,0.3l-0.1-0.2l-0.2,0.3 l0.2,0.4l1-0.4c0.5,0.8,1.4,0.9,2.3,0.5C239.9,173.3,240,172.5,240,171.9z M240,171.3c0-0.4,0.1-0.7,0.6-0.9 c0.4-0.2,0.8-0.1,1,0.2L240,171.3z M241.8,171.1L241.8,171.1L241.8,171.1C241.8,171.1,241.8,171.1,241.8,171.1z M237.3,172.9l1.6-0.6c0,0.4-0.1,0.7-0.6,0.9C238,173.3,237.6,173.3,237.3,172.9z"></path> </g> </g> </g> <g class="st15"> <g> <g> <path d="M240,171.8l1.8-0.7c0,0,0,0,0,0c0,0.2,0,0.4,0,0.7c-0.1,0.2-0.2,0.4-0.2,0.4l0.1,0l0.7-0.1l0.2,0l0.3-0.3l-0.1-0.1 c0.1-0.3,0.2-0.7,0.1-0.9l1-0.4l0.2-0.3l-0.2,0.1l-0.1-0.3l-1,0.4c-0.5-0.8-1.4-0.9-2.3-0.5c-1.2,0.5-1.3,1.3-1.3,2 l-1.8,0.7c-0.1-0.4,0-0.9,0.3-1.4l-1,0.1c-0.3,0.4-0.4,1.1-0.2,1.6l-0.7,0.3l-0.1-0.2l-0.2,0.3l0.2,0.4l1-0.4 c0.5,0.8,1.4,0.9,2.3,0.5C239.9,173.3,240,172.5,240,171.8z M240,171.3c0-0.4,0.1-0.7,0.6-0.9c0.4-0.2,0.8-0.1,1,0.2 L240,171.3z M241.8,171.1L241.8,171.1L241.8,171.1C241.8,171.1,241.8,171.1,241.8,171.1z M237.3,172.9l1.6-0.6 c0,0.4-0.1,0.7-0.6,0.9C238,173.3,237.6,173.3,237.3,172.9z"></path> </g> </g> </g> <g> <g> <path class="st12" d="M236.5,172.8l-1,0.3l-0.1-0.5l1-0.3c-0.1-0.6,0-1.2,0.3-1.6l1-0.1c-0.3,0.4-0.4,0.9-0.3,1.3l1.8-0.6 c0-0.7,0.2-1.5,1.4-1.9c0.9-0.3,1.9-0.2,2.3,0.7l1-0.3l0.1,0.5l-1,0.3c0.1,0.4,0,0.9-0.2,1.3l-1,0.1c0.2-0.4,0.2-0.7,0.2-1.1 l-1.8,0.6c0,0.7-0.1,1.5-1.4,1.9C237.8,173.8,236.9,173.7,236.5,172.8z M238.4,172.8c0.4-0.1,0.6-0.5,0.6-0.8l-1.6,0.5 C237.7,172.9,238.1,173,238.4,172.8z M240.2,171.1l1.6-0.5c-0.2-0.4-0.6-0.4-1-0.3C240.4,170.4,240.3,170.7,240.2,171.1z"></path> </g> </g> </g> <g> <g> <g> <path class="st7" d="M246.2,170.9C246.2,170.9,246.2,171,246.2,170.9c-0.1,0.2-0.2,0.3-0.3,0.4c-0.1,0.1-0.2,0.3-0.4,0.4 c-0.2,0.2-0.4,0.3-0.6,0.5c-0.9,0.7-2.1,1.7-3.8,2.3c-1.6,0.7-3.2,1-4.3,1.2c-0.6,0.1-1,0.2-1.3,0.2c-0.1,0-0.3,0-0.4,0 c-0.1,0-0.1,0-0.1,0c0,0,0,0,0.1,0c0.1,0,0.2,0,0.4-0.1c0.3,0,0.8-0.1,1.3-0.2c1.1-0.2,2.7-0.5,4.2-1.2 c1.6-0.7,2.9-1.6,3.8-2.3c0.2-0.2,0.4-0.3,0.6-0.5c0.2-0.1,0.3-0.3,0.4-0.4C246,171.2,246.1,171.1,246.2,170.9 C246.2,170.9,246.2,170.9,246.2,170.9z"></path> </g> </g> </g> </g> <g> <g> <g> <path class="st7" d="M238.4,176.7C238.4,176.7,238.3,176.8,238.4,176.7c-0.2,0.1-0.3,0.1-0.4,0.1c-0.2,0.1-0.6,0.1-1,0.2 c-0.9,0.2-2.1,0.3-3.5,0.3c-0.7,0-1.4-0.1-1.9-0.3c-0.6-0.2-1.1-0.4-1.4-0.7c-0.4-0.3-0.6-0.6-0.7-0.8 c-0.1-0.1-0.1-0.2-0.1-0.3c0-0.1,0-0.1,0-0.1c0,0,0.1,0.1,0.2,0.3c0.1,0.2,0.3,0.5,0.7,0.8c0.4,0.3,0.8,0.5,1.4,0.6 c0.6,0.2,1.2,0.2,1.9,0.3c1.4,0,2.6-0.1,3.5-0.3c0.4-0.1,0.8-0.1,1.1-0.2C238.2,176.8,238.4,176.7,238.4,176.7z"></path> </g> </g> </g> <g> <g> <g> <path class="st0" d="M232.1,170.5c0,0-0.2,0.2-0.6,0.6c-0.4,0.4-0.9,0.9-1.3,1.6c-0.4,0.7-0.7,1.4-0.7,1.9 c-0.1,0.5,0,0.8,0,0.9c0,0,0-0.1-0.1-0.2c0-0.1,0-0.4,0-0.6c0-0.5,0.2-1.3,0.7-2c0.4-0.7,1-1.2,1.4-1.6 c0.2-0.2,0.4-0.3,0.5-0.4C232,170.5,232.1,170.5,232.1,170.5z"></path> </g> </g> </g> <g> <g> <g> <path class="st0" d="M236.6,171.4c0,0-0.1,0.3-0.2,0.6c-0.1,0.3-0.1,0.6-0.1,0.6c0,0-0.1-0.3,0-0.6 C236.4,171.6,236.6,171.3,236.6,171.4z"></path> </g> </g> </g> <g> <g> <g> <path class="st0" d="M231.7,178.4c0,0-0.5-0.1-0.9-0.5c-0.4-0.4-0.6-0.8-0.6-0.8c0,0,0.2,0.4,0.7,0.7 C231.2,178.2,231.7,178.4,231.7,178.4z"></path> </g> </g> </g> </g> </g> </g> <g> <g> <g> <g> <path class="st10" d="M226.3,114.3h-19.4c0-9.8-8-17.9-17.7-17.9c-9.8,0-17.7,8.2-17.7,17.9H152c0-20.5,16.7-37.4,37.1-37.4 C209.6,76.9,226.3,93.8,226.3,114.3z"></path> </g> </g> </g> <g> <g> <g> <path class="st1" d="M189.1,79.3c-3.8,0-7.5,0.6-11,1.8l4.8,14.8c1.9-0.7,4-1,6.2-1c2.4,0,4.6,0.4,6.7,1.2l5-14.7 C197.2,80,193.2,79.3,189.1,79.3z"></path> </g> </g> <g> <g> <path class="st1" d="M224.1,114.3c0-7.2-2.2-13.8-5.9-19.4l-12.5,9.3c1.8,2.9,2.8,6.4,2.8,10H224.1z"></path> </g> </g> <g> <g> <path class="st1" d="M154.2,114.3h15.6c0-3.7,1-7.2,2.8-10.1l-12.4-9.5C156.4,100.3,154.2,107,154.2,114.3z"></path> </g> </g> <g> <g> <path class="st1" d="M160.2,94.7l12.4,9.5c2.4-3.8,6-6.8,10.4-8.3l-4.8-14.8C170.8,83.5,164.5,88.4,160.2,94.7z"></path> </g> </g> <g> <g> <path class="st1" d="M200.8,81.3l-5,14.7c4.1,1.5,7.6,4.4,9.9,8.2l12.5-9.3C214.1,88.7,208,83.9,200.8,81.3z"></path> </g> </g> </g> <g class="st16"> <g> <path class="st0" d="M154.1,114.3h15.6c0-3.7,1-7.2,2.8-10.1l-12.4-9.5C156.4,100.3,154.1,107,154.1,114.3z"></path> </g> </g> <g class="st15"> <g> <path class="st0" d="M160.2,94.7l12.4,9.5c2.4-3.8,6-6.8,10.4-8.3l-4.8-14.8C170.8,83.5,164.5,88.4,160.2,94.7z"></path> </g> </g> <g class="st15"> <g> <path d="M200.8,81.3l-5,14.7c4.1,1.5,7.6,4.4,9.9,8.2l12.5-9.3C214.1,88.6,208,83.8,200.8,81.3z"></path> </g> </g> <g class="st16"> <g> <path d="M224.1,114.2c0-7.2-2.2-13.8-5.9-19.4l-12.5,9.3c1.8,2.9,2.8,6.4,2.8,10H224.1z"></path> </g> </g> <g> <g> <g> <path class="st7" d="M218.2,94.9c0,0,0.3,0.4,0.8,1.2c0.5,0.8,1.2,2,1.9,3.5c0.2,0.4,0.4,0.8,0.6,1.3c0.1,0.2,0.2,0.5,0.3,0.7 c0.1,0.2,0.2,0.5,0.3,0.7c0.2,0.5,0.4,1,0.5,1.6c0.1,0.3,0.2,0.6,0.3,0.9c0,0.1,0.1,0.3,0.1,0.4c0,0.2,0.1,0.3,0.1,0.5 c0.3,1.2,0.6,2.6,0.8,4c0.2,1.4,0.3,3,0.3,4.6l0,0h0c-4.5,0-9.8,0-15.6,0l0,0l0,0c0-2-0.3-4.2-1-6.2c-0.7-2.1-1.8-4.1-3.3-5.9 c-1.5-1.8-3.3-3.4-5.4-4.6c-1.1-0.6-2.2-1.1-3.4-1.5c-1.2-0.4-2.4-0.7-3.7-0.9c-2.5-0.3-5.2-0.2-7.8,0.5 c-1.3,0.4-2.5,0.9-3.7,1.5c-1.2,0.6-2.4,1.4-3.4,2.3c-2.1,1.8-3.9,4-5.1,6.6c-1.2,2.6-1.9,5.4-1.9,8.3l0,0.1h-0.1 c-1.2,0-2.5,0-3.9,0c-4,0-7.9,0-11.7,0h-0.1l0-0.1c0-3.2,0.4-6.3,1.2-9.2c0.8-2.9,2-5.7,3.5-8.3c1.5-2.5,3.2-4.9,5.2-6.9 c1-1,2-1.9,3.1-2.8c1.1-0.9,2.2-1.7,3.3-2.4c2.3-1.4,4.6-2.6,7-3.4c2.4-0.9,4.8-1.4,7.1-1.7c4.7-0.6,9.2-0.2,13.1,0.8 c3.9,1,7.2,2.5,9.9,4.2c1.3,0.8,2.5,1.7,3.6,2.6c1.1,0.8,2,1.7,2.7,2.5c0.8,0.8,1.4,1.5,2,2.2c0.3,0.3,0.5,0.6,0.7,0.9 c0.2,0.3,0.4,0.5,0.6,0.8c0.2,0.2,0.3,0.4,0.4,0.6c0.1,0.2,0.2,0.3,0.3,0.5C218.1,94.8,218.2,94.9,218.2,94.9s-0.1-0.1-0.3-0.4 c-0.1-0.1-0.2-0.3-0.3-0.5c-0.1-0.2-0.3-0.4-0.5-0.6c-0.7-0.9-1.8-2.3-3.3-3.8c-0.8-0.8-1.7-1.6-2.7-2.5c-1-0.9-2.2-1.7-3.6-2.5 c-2.7-1.7-6-3.2-9.9-4.2c-3.9-1-8.3-1.4-13-0.7c-2.3,0.3-4.7,0.9-7.1,1.7c-2.4,0.8-4.7,2-7,3.4c-1.1,0.7-2.2,1.5-3.3,2.4 c-1.1,0.9-2.1,1.8-3.1,2.8c-2,2-3.7,4.3-5.2,6.9c-1.5,2.5-2.6,5.3-3.4,8.3c-0.8,2.9-1.2,6-1.2,9.2l-0.1-0.1c3.7,0,7.7,0,11.7,0 c1.3,0,2.6,0,3.9,0l-0.1,0.1c0-2.9,0.7-5.8,1.9-8.4c1.2-2.6,3-4.8,5.2-6.6c1.1-0.9,2.2-1.7,3.4-2.3c1.2-0.6,2.5-1.1,3.8-1.5 c2.6-0.7,5.3-0.9,7.8-0.5c1.3,0.2,2.5,0.5,3.7,0.9c1.2,0.4,2.3,0.9,3.4,1.6c2.1,1.2,4,2.8,5.4,4.7c1.5,1.8,2.6,3.8,3.3,5.9 c0.7,2.1,1,4.2,1,6.3l0,0c5.8,0,11,0,15.6,0l0,0c0-1.6-0.1-3.2-0.3-4.6c-0.2-1.4-0.4-2.8-0.8-4c0-0.2-0.1-0.3-0.1-0.5 c0-0.1-0.1-0.3-0.1-0.4c-0.1-0.3-0.2-0.6-0.2-0.9c-0.2-0.6-0.3-1.1-0.5-1.6c-0.1-0.3-0.2-0.5-0.3-0.7c-0.1-0.2-0.2-0.5-0.3-0.7 c-0.2-0.5-0.4-0.9-0.6-1.3c-0.7-1.6-1.4-2.8-1.9-3.6c-0.2-0.4-0.4-0.7-0.6-0.9C218.3,95,218.2,94.9,218.2,94.9z"></path> </g> </g> </g> </g> <g> <g> <g> <g> <path class="st7" d="M187.2,113.5c-1.4-0.7-1.9-2.4-1.2-3.7c0.7-1.4,2.4-1.9,3.7-1.2c1.4,0.7,1.9,2.4,1.2,3.7 C190.3,113.6,188.6,114.2,187.2,113.5z"></path> </g> </g> <g> <g> <path class="st7" d="M204.9,94.8L204.9,94.8c-0.3-0.3-0.7-0.3-1,0l-16.8,15.5l2,2.3l15.8-16.9C205.2,95.5,205.2,95,204.9,94.8z"></path> </g> </g> </g> <g> <g> <g> <path class="st7" d="M187.2,113.5c-1.4-0.7-1.9-2.4-1.2-3.7c0.7-1.4,2.4-1.9,3.7-1.2c1.4,0.7,1.9,2.4,1.2,3.7 C190.3,113.6,188.6,114.2,187.2,113.5z"></path> </g> </g> <g> <g> <path class="st7" d="M204.9,94.8L204.9,94.8c-0.3-0.3-0.7-0.3-1,0l-16.8,15.5l2,2.3l15.8-16.9C205.2,95.5,205.2,95,204.9,94.8z"></path> </g> </g> </g> </g> <g> <g> <g> <g> <g> <g> <g> <g> <g> <g> <g> <g> <g> <g> <g> <g> <path class="st7" d="M138.4,208.8l-0.3,5.8c0,0,5.8,2.3,5.9,3.4l-11.3-0.2l0.1-9.1L138.4,208.8z"></path> </g> </g> </g> </g> </g> </g> </g> </g> </g> </g> </g> </g> <g> <g> <g> <g> <g> <g> <g> <g> <g> <g> <g> <g> <g> <path class="st10" d="M134.6,214c-0.2,0.1-0.4,0.3-0.3,0.5c0,0.2,0.3,0.4,0.5,0.3c0.2-0.1,0.4-0.3,0.3-0.6 C135,214.1,134.7,213.9,134.6,214"></path> </g> </g> </g> </g> </g> </g> </g> </g> </g> </g> </g> </g> </g> <g> <g> <g> <g> <g> <g> <g> <g> <g> <g> <g> <g> <path class="st17" d="M132.6,217.7l0-0.9l10.8,0.5c0,0,0.5,0.2,0.4,0.6L132.6,217.7z"></path> </g> </g> </g> </g> </g> </g> </g> </g> </g> </g> </g> </g> <g> <g> <g> <g> <g> <g> <g> <g> <g> <g> <g> <g> <g> <path class="st0" d="M138.3,214.5c0,0.1-0.3,0.1-0.6,0.2c-0.3,0.2-0.4,0.4-0.5,0.4c-0.1,0,0-0.3,0.4-0.5 C137.9,214.4,138.3,214.5,138.3,214.5z"></path> </g> </g> </g> </g> </g> </g> </g> </g> </g> </g> </g> </g> </g> <g> <g> <g> <g> <g> <g> <g> <g> <g> <g> <g> <g> <g> <path class="st0" d="M139.4,215.1c0,0.1-0.2,0.1-0.4,0.4c-0.2,0.2-0.3,0.5-0.3,0.5c-0.1,0-0.1-0.3,0.2-0.6 C139.1,215,139.4,215,139.4,215.1z"></path> </g> </g> </g> </g> </g> </g> </g> </g> </g> </g> </g> </g> </g> <g> <g> <g> <g> <g> <g> <g> <g> <g> <g> <g> <g> <g> <path class="st0" d="M140.1,216.5c-0.1,0-0.1-0.3,0-0.6c0.1-0.3,0.4-0.4,0.4-0.4c0,0-0.1,0.2-0.3,0.5 C140.2,216.2,140.1,216.5,140.1,216.5z"></path> </g> </g> </g> </g> </g> </g> </g> </g> </g> </g> </g> </g> </g> <g> <g> <g> <g> <g> <g> <g> <g> <g> <g> <g> <g> <g> <path class="st0" d="M138.2,213.2c0,0-0.3,0-0.6,0c-0.3,0-0.6,0.1-0.6,0.1c0,0,0.2-0.2,0.6-0.3 C138,213,138.2,213.2,138.2,213.2z"></path> </g> </g> </g> </g> </g> </g> </g> </g> </g> </g> </g> </g> </g> </g> </g> <g> <g> <g> <g> <g> <g> <g> <g> <g> <path class="st7" d="M124.7,208.2l-0.6,7l1.1,5.7c0.1,0.4-0.2,0.8-0.6,0.9l0,0c-0.2,0-0.5-0.1-0.6-0.2 c-1-1.1-4.7-5.2-4.6-5.7c0.1-0.6,0.2-7.5,0.2-7.5L124.7,208.2z"></path> </g> </g> </g> </g> </g> </g> </g> <g> <g> <g> <g> <g> <g> <g> <path class="st17" d="M124.6,221.8l-5.2-6.4l0,0.3c0,0.3,0.1,0.5,0.2,0.7c0.4,0.6,1.6,2.1,4.4,5.1 C124.1,221.7,124.4,221.8,124.6,221.8L124.6,221.8z"></path> </g> </g> </g> </g> </g> </g> </g> <g class="st18"> <g> <g> <g> <g> <g> <g> <g> <path class="st0" d="M121,213.2c0.2,0.1,0.2,0.4,0.1,0.6c-0.1,0.2-0.4,0.2-0.6,0.1c-0.2-0.1-0.2-0.5-0.1-0.6 C120.5,213.1,120.9,213.1,121,213.2"></path> </g> </g> </g> </g> </g> </g> </g> </g> <g> <g> <g> <g> <g> <g> <g> <g> <path class="st0" d="M123.2,218.6c0,0,0.2-0.3,0.7-0.5c0.4-0.2,0.8-0.1,0.8-0.1c0,0-0.1-0.1-0.2-0.1 c-0.2,0-0.4,0-0.6,0.1c-0.2,0.1-0.4,0.3-0.5,0.4C123.2,218.5,123.2,218.6,123.2,218.6z"></path> </g> </g> </g> </g> </g> </g> </g> </g> <g> <g> <g> <g> <g> <g> <g> <g> <path class="st0" d="M123.6,219.6c0,0,0.3-0.2,0.6-0.3c0.4-0.1,0.7,0,0.7,0c0,0-0.3-0.2-0.7-0.1 C123.8,219.3,123.6,219.5,123.6,219.6z"></path> </g> </g> </g> </g> </g> </g> </g> </g> <g> <g> <g> <g> <g> <g> <g> <g> <path class="st0" d="M122.3,217.3c0,0,0.4-0.3,1-0.5c0.6-0.2,1.1-0.1,1.1-0.2c0,0-0.5-0.2-1.1,0 C122.6,216.9,122.3,217.3,122.3,217.3z"></path> </g> </g> </g> </g> </g> </g> </g> </g> <g> <g> <g> <g> <g> <g> <g> <g> <path class="st0" d="M122.3,215.2c0,0,0.4-0.1,0.9-0.1c0.5,0,0.9,0.2,0.9,0.1c0,0-0.4-0.3-0.9-0.3 C122.7,214.9,122.3,215.1,122.3,215.2z"></path> </g> </g> </g> </g> </g> </g> </g> </g> <g> <g> <g> <g> <g> <g> <g> <g> <path class="st0" d="M122.5,213.1c0,0,0.4-0.2,1-0.1c0.5,0,0.9,0.3,0.9,0.3c0,0-0.1-0.1-0.2-0.2 c-0.2-0.1-0.4-0.2-0.7-0.2c-0.3,0-0.5,0-0.7,0.1C122.5,213,122.5,213.1,122.5,213.1z"></path> </g> </g> </g> </g> </g> </g> </g> </g> <g> <g> <g> <g> <g> <g> <g> <g> <path class="st0" d="M123.4,212.6c0,0,0-0.1,0-0.3c0-0.2,0-0.4-0.2-0.7c-0.1-0.1-0.1-0.3-0.3-0.4c-0.1-0.1-0.2,0-0.3,0 c-0.1,0.1-0.1,0.2-0.1,0.3C122.5,212,122.8,212.5,123.4,212.6c0.4,0.1,0.9-0.2,1.1-0.6c0.1-0.1,0.1-0.2,0-0.3 c0-0.1-0.2-0.2-0.3-0.2c-0.2,0-0.4,0.1-0.5,0.2c-0.3,0.2-0.4,0.4-0.5,0.5c-0.1,0.1-0.1,0.2-0.1,0.2c0,0,0.2-0.3,0.7-0.7 c0.1-0.1,0.3-0.2,0.4-0.2c0.1,0,0.1,0,0.2,0.1c0,0.1,0,0.1,0,0.2c-0.2,0.3-0.6,0.5-1,0.5c-0.4-0.1-0.7-0.5-0.7-0.8 c0-0.1,0-0.2,0.1-0.2c0,0,0.1-0.1,0.2,0c0.1,0.1,0.2,0.2,0.3,0.3C123.5,212.2,123.4,212.6,123.4,212.6z"></path> </g> </g> </g> </g> </g> </g> </g> </g> </g> </g> <g> <g> <g> <g> <path class="st7" d="M144,159.9c0,0,0.9,3.3,0.5,7.4c-0.1,1.6-5.4,44.8-5.4,44.8H132l2-40.7l-0.6,0.1c0,0-3.9,17.3-4.2,20.2 c-0.3,2.5-3.6,20.9-3.6,20.9l-6.5,0.1l2.1-24.3l2.4-23.3l0.9-6.8L144,159.9z"></path> </g> </g> </g> <g> <g> <g> <g> <path class="st7" d="M132.9,167.3c0,0,0.1,0.1,0.3,0.2c0.2,0.1,0.5,0.2,0.9,0.3c0.2,0,0.4,0,0.7,0c0.2,0,0.5-0.1,0.7-0.3 c0.2-0.2,0.3-0.5,0.4-0.7c0.1-0.3,0.1-0.6,0.2-0.9c0.2-1.2,0.4-2.2,0.5-3c0-0.4,0.1-0.7,0.1-0.9c0-0.2,0-0.3,0-0.3 c0,0,0,0.1-0.1,0.3c0,0.2-0.1,0.6-0.1,0.9c-0.1,0.8-0.3,1.8-0.5,3c-0.1,0.6-0.2,1.2-0.6,1.5c-0.4,0.3-0.9,0.4-1.2,0.3 c-0.4-0.1-0.7-0.2-0.9-0.3C133,167.3,132.9,167.3,132.9,167.3z"></path> </g> </g> </g> </g> <g> <g> <g> <g> <path class="st7" d="M135,161.8c0,0,0,0-0.1,0c-0.1,0-0.3,0-0.4,0.1c-0.1,0.1-0.3,0.3-0.3,0.6c0,0.3,0.2,0.5,0.5,0.6 c0.3,0.1,0.6,0,0.7-0.2c0.2-0.2,0.2-0.4,0.1-0.6c0-0.2-0.1-0.3-0.2-0.4c-0.1-0.1-0.1-0.1-0.1-0.1c0,0,0.2,0.1,0.3,0.4 c0,0.2,0,0.4-0.1,0.5c-0.1,0.1-0.4,0.2-0.6,0.1c-0.2-0.1-0.4-0.3-0.4-0.5c0-0.2,0.1-0.4,0.2-0.5 C134.8,161.7,135,161.8,135,161.8z"></path> </g> </g> </g> </g> <g> <g> <g> <g> <path class="st7" d="M123.7,164.7c0,0,0.1,0,0.2,0c0.2,0,0.4,0,0.7,0c0.6,0,1.3-0.2,2.1-0.5c0.8-0.3,1.4-0.8,1.9-1.2 c0.2-0.2,0.4-0.4,0.5-0.5c0.1-0.1,0.2-0.2,0.1-0.2c0,0-0.2,0.2-0.7,0.6c-0.4,0.4-1.1,0.8-1.8,1.1c-0.8,0.3-1.5,0.5-2.1,0.5 C124.1,164.7,123.7,164.7,123.7,164.7z"></path> </g> </g> </g> </g> <g> <g> <g> <g> <path class="st7" d="M141.1,161.9c0,0,0.1,0.3,0.3,0.7c0.2,0.4,0.6,1,1.1,1.5c0.5,0.5,1,0.9,1.4,1.2c0.4,0.3,0.6,0.4,0.7,0.3 c0,0-0.2-0.2-0.6-0.4c-0.4-0.3-0.9-0.7-1.4-1.2c-0.5-0.5-0.9-1.1-1.1-1.5C141.2,162.2,141.1,161.9,141.1,161.9z"></path> </g> </g> </g> </g> </g> </g> <g> <g> <g> <g> <g> <g> <g> <g> <g> <g> <g> <g> <g> <g> <g> <g> <path class="st19" d="M163.2,144c0.8-0.3,1.6-0.6,1.6-0.6l0.7-0.3c0,0.1,0,0.1,0,0.2c0,0.1,0,0.2,0,0.3 c0.1,0.2,0.3,0.2,0.5,0.2c0.4,0,0.8-0.3,1-0.7c0.2-0.3,0.1-0.8-0.1-1.1c0-0.1,0-0.2,0-0.3 c-0.2-0.7-1.2-1.1-1.2-1.1l0.2-0.1c0,0,0.9-0.1,1.7,1.1c0.1,0.2,0.3,0.3,0.5,0.4c0.1,0,0.3,0,0.4,0 c0.3-0.2,0.2-0.5-0.3-1.2c-0.5-0.8-1.2-1.4-1.8-1.4c-0.6-0.1-0.9,0-0.9,0s2.1-1.4,2.3-1.5c0.4-0.3,0.6-0.7,0.4-0.9 c-0.1-0.2-0.4-0.3-0.8,0c-0.4,0.3-4.8,2.4-4.8,2.4l-1.9,1.1l-1.4,1.1l1.8,2.5l0.2,0.1 C162,144.2,162.7,144.2,163.2,144z"></path> </g> </g> </g> </g> </g> </g> </g> </g> </g> </g> </g> <g> <g> <g> <g> <g> <g> <g> <g> <g> <g> <g> <g> <path class="st19" d="M161.2,140.5c0.1,0.3,0.4,0.4,0.7,0.4c0.3,0,0.5-0.1,0.8-0.1c0.8-0.1,1.6,0.5,2.5,0.3 c0.1,0,0.3-0.1,0.3-0.2c0-0.1-0.1-0.2-0.2-0.2c-0.8-0.4-1.6-0.8-2.5-1.3"></path> </g> </g> </g> </g> </g> </g> </g> </g> </g> </g> </g> <g> <g> <g> <g> <g> <g> <g> <g> <g> <g> <g> <g> <path class="st20" d="M162.8,139.4c0,0,0.1,0,0.3,0.1c0.2,0.1,0.4,0.2,0.7,0.4c0.3,0.2,0.7,0.3,1.1,0.5 c0.1,0.1,0.2,0.1,0.3,0.2c0.1,0.1,0.2,0.1,0.3,0.3c0,0.1,0,0.2-0.1,0.2c-0.1,0.1-0.1,0.1-0.2,0.1 c-0.1,0-0.3,0-0.4,0c-0.5,0-1-0.2-1.5-0.3c-0.2,0-0.4-0.1-0.6,0c-0.2,0-0.4,0.1-0.5,0.1c-0.3,0.1-0.7,0-0.8-0.1 c-0.2-0.1-0.2-0.3-0.2-0.3c0,0,0,0.1,0.2,0.2c0.2,0.1,0.4,0.2,0.8,0.1c0.2,0,0.3-0.1,0.6-0.1c0.2,0,0.4,0,0.7,0 c0.5,0.1,0.9,0.3,1.4,0.3c0.1,0,0.3,0,0.4,0c0.1,0,0.2-0.1,0.2-0.1c0-0.1-0.1-0.1-0.2-0.2 c-0.1-0.1-0.2-0.1-0.3-0.2c-0.4-0.2-0.7-0.4-1.1-0.6c-0.3-0.2-0.5-0.3-0.7-0.4 C162.9,139.5,162.8,139.4,162.8,139.4z"></path> </g> </g> </g> </g> </g> </g> </g> </g> </g> </g> </g> </g> </g> <g> <g> <g> <g> <g> <g> <g> <g> <g> <g> <g> <g> <path class="st20" d="M165.7,140.6c0,0,0.2-0.1,0.5-0.1c0.2,0,0.3,0.1,0.5,0.2c0.2,0.1,0.3,0.3,0.5,0.5 c0.1,0.2,0.3,0.4,0.5,0.6c0.2,0.2,0.3,0.3,0.5,0.3c0.2,0,0.3,0,0.4-0.1c0.1-0.1,0.1-0.1,0.1-0.1c0,0,0,0-0.1,0.1 c-0.1,0-0.2,0.1-0.4,0.1c-0.2,0-0.3-0.1-0.5-0.3c-0.2-0.1-0.3-0.3-0.4-0.6c-0.1-0.2-0.3-0.4-0.5-0.5 c-0.2-0.1-0.4-0.2-0.6-0.2c-0.2,0-0.3,0.1-0.4,0.1C165.7,140.5,165.7,140.5,165.7,140.6z"></path> </g> </g> </g> </g> </g> </g> </g> </g> </g> </g> </g> </g> <g> <g> <g> <g> <g> <g> <g> <g> <g> <g> <g> <g> <path class="st20" d="M168,137.6c0,0-0.2,0.1-0.4,0.3c-0.3,0.2-0.6,0.4-1,0.7c-0.4,0.3-0.7,0.5-1,0.7 c-0.3,0.2-0.4,0.3-0.4,0.3c0,0,0.2-0.1,0.5-0.2c0.3-0.2,0.6-0.4,1-0.6c0.4-0.3,0.8-0.5,1-0.7 C167.9,137.8,168,137.7,168,137.6z"></path> </g> </g> </g> </g> </g> </g> </g> </g> </g> </g> </g> </g> <g> <g> <g> <g> <g> <g> <g> <g> <g> <g> <g> <g> <path class="st20" d="M165.5,141.3c0,0,0,0,0.1,0.1c0.1,0.1,0.2,0.1,0.2,0.3c0,0.1,0,0.2-0.1,0.2 c-0.1,0.1-0.2,0.1-0.3,0.2c-0.1,0.1-0.2,0.1-0.3,0.3c-0.1,0.1,0,0.3,0,0.4c0.1,0.1,0.2,0.2,0.4,0.2 c0.1,0,0.3,0,0.4,0c0.2-0.1,0.4-0.2,0.5-0.4c0.1-0.1,0.2-0.2,0.3-0.3c0-0.1,0.1-0.2,0-0.2c0,0,0,0.1-0.1,0.1 c-0.1,0.1-0.2,0.2-0.3,0.3c-0.1,0.1-0.3,0.2-0.5,0.3c-0.2,0.1-0.5,0-0.6-0.2c-0.1-0.1-0.1-0.2,0-0.3 c0-0.1,0.1-0.2,0.3-0.2c0.1-0.1,0.2-0.1,0.3-0.2c0.1-0.1,0.1-0.2,0.1-0.3c0-0.2-0.2-0.3-0.3-0.3 C165.6,141.4,165.5,141.3,165.5,141.3z"></path> </g> </g> </g> </g> </g> </g> </g> </g> </g> </g> </g> </g> <g> <g> <g> <g> <g> <g> <g> <g> <g> <g> <g> <g> <path class="st20" d="M165.7,143c0,0-0.1,0-0.1,0.1c-0.1,0.1-0.1,0.2-0.1,0.4c0.1,0.2,0.2,0.3,0.5,0.4 c0.2,0,0.5,0,0.7-0.2c0.2-0.1,0.4-0.3,0.4-0.6c0.1-0.2,0.1-0.4,0.1-0.6c0-0.2-0.1-0.3-0.1-0.4 c0-0.1-0.1-0.1-0.1-0.1c0,0,0.1,0.2,0.2,0.5c0,0.2,0,0.3-0.1,0.5c-0.1,0.2-0.2,0.4-0.4,0.5 c-0.2,0.1-0.4,0.2-0.6,0.2c-0.2,0-0.4-0.2-0.4-0.3c-0.1-0.1,0-0.3,0-0.3C165.6,143,165.7,143,165.7,143z"></path> </g> </g> </g> </g> </g> </g> </g> </g> </g> </g> </g> </g> <g> <g> <g> <g> <g> <g> <g> <g> <g> <g> <g> <g> <path class="st20" d="M163.3,142.5c0,0,0-0.1-0.1-0.2c-0.1-0.1-0.3-0.2-0.6-0.3l0,0.1c0.1-0.1,0.2-0.1,0.3-0.2 c0.5-0.5,0.6-1,0.6-1c0,0-0.2,0.5-0.7,1c-0.1,0.1-0.2,0.2-0.2,0.2l-0.1,0.1l0.1,0c0.2,0,0.4,0.1,0.5,0.2 C163.2,142.4,163.2,142.5,163.3,142.5z"></path> </g> </g> </g> </g> </g> </g> </g> </g> </g> </g> </g> </g> <g> <g> <g> <g> <g> <g> <g> <g> <g> <g> <g> <g> <path class="st20" d="M166.9,140.1c0,0-0.1,0.2-0.1,0.4c0,0.2,0.2,0.4,0.2,0.4c0,0-0.1-0.2-0.1-0.4 C166.9,140.3,166.9,140.1,166.9,140.1z"></path> </g> </g> </g> </g> </g> </g> </g> </g> </g> </g> </g> </g> </g> </g> </g> </g> <g> <g> <g> <g> <g> <g> <g> <g> <g> <g> <path class="st7" d="M129.3,112.6c0.1-1.1,0.8-1.7,1.8-2.2c1-0.5,2.2-0.5,3.1,0c0.6,0.3,1.2,0.9,1.9,1 c1.2,0.2,2.4-0.8,3.5-0.5c0.7,0.2,1.2,0.9,1.1,1.6c-0.1,0.7-0.7,1.3-1.4,1.4c0.8,0.2,1.2,1.2,0.8,1.9 c-0.3,0.7-1.2,1.1-2,1.1c-0.8,0-1.5-0.4-2.2-0.8c-0.7-0.4-1.3-0.9-2-1.3c-0.7-0.4-1.5-0.6-2.3-0.5 c-1,0.2-1.8,1.1-2.2,2.2c-0.3,1-0.3,2.1-0.2,3.2c0.1,1.1,0.2,2.1,0.1,3.2c0,0.1-0.1,0.3-0.2,0.3 c-0.2,0.1-0.3-0.1-0.4-0.2c-1.2-1.6-2.1-3.5-2.6-5.5c-0.3-1.1-0.4-2.3,0.1-3.3C126.9,113,128.4,112.1,129.3,112.6"></path> </g> </g> </g> </g> </g> </g> </g> <g> <g> <g> <g> <g> <g> <g> <g> <g> <g> <g> <g> <g> <g> <g> <g> <g> <g> <g> <g> <path class="st19" d="M128,117.8l1.1,10.8c0.2,2,2.1,5.5,5.3,5l-0.1-0.2c2.7-0.6,2-3.9,1.8-6.3 c0,0,0,0.1,0,0c0,0,3-0.6,2.9-3.6c0-1.5-0.4-4.5-0.7-7.2c-0.4-2.9-2.9-5-5.8-4.9l-0.3,0 C129,111.8,127.6,114.6,128,117.8z"></path> </g> </g> </g> </g> </g> </g> </g> </g> </g> </g> </g> </g> </g> </g> <g> <g> <g> <g> <g> <g> <g> <g> <g> <g> <g> <g> <g> <g> <path class="st20" d="M136.1,127.2c0,0-1.9,0.2-4-1c0,0,1.1,2.3,4,1.9L136.1,127.2z"></path> </g> </g> </g> </g> </g> </g> </g> </g> </g> </g> </g> </g> </g> </g> </g> </g> </g> <g> <g> <g> <g> <g> <g> <g> <g> <g> <g> <g> <g> <g> <g> <g> <g> <g> <g> <g> <g> <path class="st7" d="M137.1,119.3c0,0.2-0.2,0.4-0.4,0.5c-0.2,0-0.4-0.1-0.5-0.4c0-0.2,0.2-0.4,0.4-0.5 C136.9,118.9,137.1,119.1,137.1,119.3z"></path> </g> </g> </g> </g> </g> </g> </g> </g> </g> </g> </g> </g> </g> </g> <g> <g> <g> <g> <g> <g> <g> <g> <g> <g> <g> <g> <g> <g> <g> <path class="st7" d="M137.7,117.9c-0.1,0.1-0.4-0.2-0.9-0.1c-0.5,0-0.8,0.3-0.8,0.2c0,0,0-0.1,0.2-0.2 c0.1-0.1,0.4-0.2,0.7-0.2c0.3,0,0.5,0.1,0.7,0.2C137.7,117.8,137.7,117.9,137.7,117.9z"></path> </g> </g> </g> </g> </g> </g> </g> </g> </g> </g> </g> </g> </g> </g> </g> </g> <g> <g> <g> <g> <g> <g> <g> <g> <g> <g> <g> <g> <g> <g> <g> <path class="st7" d="M133,119.5c0,0.2-0.2,0.4-0.4,0.5c-0.2,0-0.4-0.1-0.5-0.4c0-0.2,0.2-0.4,0.4-0.5 C132.7,119.1,133,119.3,133,119.5z"></path> </g> </g> </g> </g> </g> </g> </g> </g> </g> </g> </g> </g> </g> </g> <g> <g> <g> <g> <g> <g> <g> <g> <g> <g> <g> <g> <g> <g> <g> <path class="st7" d="M133.1,118.2c-0.1,0.1-0.4-0.2-0.9-0.1c-0.5,0-0.8,0.3-0.8,0.2c0,0,0-0.1,0.2-0.2 c0.1-0.1,0.4-0.2,0.7-0.2c0.3,0,0.5,0.1,0.7,0.2C133.1,118.1,133.2,118.2,133.1,118.2z"></path> </g> </g> </g> </g> </g> </g> </g> </g> </g> </g> </g> </g> </g> </g> </g> </g> <g> <g> <g> <g> <g> <g> <g> <g> <g> <g> <g> <g> <g> <g> <g> <path class="st7" d="M135,121.5c0,0,0.3-0.1,0.7-0.2c0.1,0,0.2,0,0.2-0.1c0-0.1,0-0.2-0.1-0.3 c-0.1-0.3-0.3-0.6-0.4-0.9c-0.5-1.3-0.9-2.3-0.9-2.3c0.1,0,0.5,1,1.1,2.2c0.1,0.3,0.3,0.6,0.4,0.9 c0.1,0.1,0.1,0.3,0.1,0.5c0,0.1-0.1,0.2-0.2,0.2c-0.1,0-0.1,0-0.2,0C135.3,121.6,135,121.6,135,121.5z"></path> </g> </g> </g> </g> </g> </g> </g> </g> </g> </g> </g> </g> </g> </g> </g> </g> </g> </g> <g> <g> <g> <g> <g> <g> <g> <g> <g> <g> <g> <g> <g> <g> <path class="st7" d="M133.2,116.4c0,0.1-0.5,0.1-1,0.2c-0.5,0.1-1,0.3-1.1,0.1c0-0.1,0-0.2,0.2-0.3 c0.2-0.1,0.4-0.3,0.8-0.3c0.3,0,0.6,0,0.8,0.1C133.1,116.2,133.2,116.3,133.2,116.4z"></path> </g> </g> </g> </g> </g> </g> </g> </g> </g> </g> </g> </g> </g> </g> <g> <g> <g> <g> <g> <g> <g> <g> <g> <g> <g> <g> <g> <g> <path class="st7" d="M137.5,116.6c-0.1,0.1-0.4,0-0.8,0c-0.4,0-0.7,0.1-0.8,0c0-0.1,0-0.2,0.1-0.3 c0.1-0.1,0.4-0.2,0.6-0.2c0.3,0,0.5,0.1,0.6,0.2C137.4,116.4,137.5,116.5,137.5,116.6z"></path> </g> </g> </g> </g> </g> </g> </g> </g> </g> </g> </g> </g> </g> </g> </g> </g> </g> </g> </g> <g> <g> <g> <g> <g> <g> <g> <g> <g> <g> <g> <g> <g> <g> <g> <path class="st19" d="M128.3,120c-0.1,0-2.1-0.5-1.9,1.5c0.2,2.1,2.2,1.5,2.2,1.4 C128.5,122.9,128.3,120,128.3,120z"></path> </g> </g> </g> </g> </g> </g> </g> </g> </g> </g> </g> </g> </g> </g> <g> <g> <g> <g> <g> <g> <g> <g> <g> <g> <g> <g> <g> <g> <g> <path class="st20" d="M127.9,122.2C127.8,122.2,127.8,122.2,127.9,122.2c-0.1,0.1-0.2,0.1-0.4,0.1 c-0.2-0.1-0.4-0.4-0.5-0.8c0-0.2,0-0.4,0.1-0.5c0.1-0.2,0.1-0.3,0.2-0.3c0.1,0,0.2,0,0.2,0.1 c0,0.1,0,0.1,0,0.1c0,0,0,0,0-0.1c0,0,0-0.1-0.1-0.1c-0.1,0-0.1-0.1-0.2,0c-0.2,0-0.3,0.2-0.4,0.3 c-0.1,0.2-0.1,0.4-0.1,0.6c0,0.4,0.3,0.8,0.6,0.8c0.1,0,0.3,0,0.3-0.1C127.9,122.2,127.9,122.2,127.9,122.2z"></path> </g> </g> </g> </g> </g> </g> </g> </g> </g> </g> </g> </g> </g> </g> </g> </g> <g> <g> <path class="st7" d="M138.2,113.6c-0.3-0.6-0.8-1-1.3-1.4c-1.2-0.8-2.6-1.3-4-1.2c-1.4,0-2.8,0.6-3.8,1.6 c-0.8,0.8-1.3,1.9-1.5,3c-0.2,1.1-0.1,2.2,0.1,3.3c0.1,0.5,0.3,1,0.6,1.3c0.2,0.2,0.6,0.3,0.8,0.1c0.1-0.1,0.2-0.3,0.2-0.5 c0.3-1.6,0.6-3.3,0-4.8c0.4-0.5,0.8-1,1.4-1.4c0.6-0.3,1.2-0.5,1.9-0.3c0.9,0.2,1.5,1.1,2.3,1.7c1.1,0.8,2.6,1.1,3.9,0.7 L138.2,113.6z"></path> </g> </g> </g> <g> <g> <g> <g> <g> <g> <path class="st20" d="M135.3,122.8c0,0.2-0.1,0.4-0.2,0.6c-0.1,0.2-0.3,0.3-0.4,0.4c-0.2,0-0.4-0.1-0.6-0.2 c-0.1-0.2-0.2-0.4-0.2-0.6c0-0.2,0-0.4,0.2-0.5c0.1,0,0.2,0,0.2,0C134.7,122.6,135,122.7,135.3,122.8"></path> </g> </g> </g> </g> </g> <g> <g> <g> <g> <g> <g> <path class="st7" d="M135,123.7c0,0-0.2,0.1-0.5,0c-0.2,0-0.3-0.1-0.4-0.3c-0.1-0.2-0.2-0.4-0.1-0.6c0-0.1,0-0.1,0.1-0.2 c0,0,0,0,0.1,0c0,0,0.1,0,0.2,0c0.1,0,0.1,0,0.2,0c0.2,0.1,0.4,0.1,0.6,0.1c0.3,0.1,0.5,0.1,0.6,0.1c0,0-0.2-0.1-0.5-0.2 c-0.2-0.1-0.4-0.1-0.6-0.2c-0.1,0-0.1,0-0.2,0c-0.1,0-0.1,0-0.2,0c0,0-0.1,0-0.1,0c0,0-0.1,0.1-0.1,0.1 c0,0.1-0.1,0.1-0.1,0.2c-0.1,0.3,0,0.6,0.1,0.8c0.2,0.2,0.4,0.3,0.6,0.3c0.2,0,0.3,0,0.4,0 C135,123.7,135,123.7,135,123.7z"></path> </g> </g> </g> </g> </g> </g> </g> </g> <g> <g> <g> <path class="st17" d="M140.3,111.4c0,0,0,0,0,0.1c0,0.1,0,0.2,0,0.4c-0.1,0.3-0.3,0.8-0.8,1.2c-0.5,0.4-1.3,0.5-2.1,0.3 c-0.8-0.2-1.6-0.6-2.5-1c-0.8-0.4-1.7-0.7-2.5-0.6c-0.8,0.1-1.4,0.5-1.9,0.9c-0.4,0.4-0.7,0.9-0.8,1.2 c-0.1,0.3-0.2,0.5-0.2,0.5c0,0,0,0,0-0.1c0-0.1,0.1-0.2,0.1-0.4c0.1-0.3,0.4-0.8,0.8-1.2c0.4-0.4,1.1-0.9,1.9-1 c0.8-0.1,1.7,0.2,2.6,0.6c0.9,0.4,1.6,0.9,2.4,1c0.8,0.2,1.6,0.1,2.1-0.3c0.5-0.3,0.7-0.8,0.8-1.1 C140.3,111.6,140.2,111.4,140.3,111.4z"></path> </g> </g> </g> <g> <g> <g> <path class="st17" d="M126.5,116.9c0,0,0-0.2,0.1-0.6c0.1-0.3,0.3-0.8,0.7-1.2c0.2-0.2,0.4-0.4,0.6-0.5 c0.2-0.1,0.4-0.2,0.6-0.3c0.2,0,0.3,0,0.4,0.1c0.1,0.1,0.1,0.1,0.1,0.1c0,0-0.2-0.2-0.5-0.1c-0.3,0.1-0.7,0.4-1.1,0.8 c-0.3,0.4-0.6,0.8-0.7,1.1C126.6,116.7,126.5,116.9,126.5,116.9z"></path> </g> </g> </g> <g> <g> <g> <path class="st17" d="M126.9,118.7c0,0,0-0.2,0.1-0.6c0.1-0.3,0.4-0.8,0.7-1.2c0.4-0.4,0.8-0.7,1.1-0.8 c0.3-0.2,0.5-0.2,0.5-0.2c0,0-0.2,0.1-0.5,0.3c-0.3,0.2-0.7,0.4-1.1,0.8c-0.4,0.4-0.6,0.8-0.8,1.1 C127,118.5,127,118.7,126.9,118.7z"></path> </g> </g> </g> </g> <g> <g> <g> <path class="st9" d="M128.9,127.6l3.6,2.8l2.3,2.9l0.8-3l0.6-2.4l1,1l2.5,5.3l2.8,25.7c0,0-4.9,1.4-7.4,1.6 c-2.5,0.2-6.6-0.5-6.6-0.5v-13.5l-1.4-13.4l1.7-5.1L128.9,127.6z"></path> </g> <g> <g> <path class="st7" d="M136.2,161.3C136.1,161.3,136.1,161.3,136.2,161.3c0-0.1,0-0.2,0-0.3c0-0.2,0-0.5,0-0.8 c0-0.7-0.1-1.7-0.1-3c-0.1-2.5-0.2-6-0.4-9.9c-0.2-3.9-0.4-7.3-0.6-9.9c-0.1-1.3-0.2-2.3-0.2-3c0-0.3,0-0.6-0.1-0.8 c0-0.1,0-0.2,0-0.2c0,0,0-0.1,0-0.1c0,0,0,0,0,0.1c0,0.1,0,0.1,0,0.2c0,0.2,0,0.5,0.1,0.8c0.1,0.7,0.1,1.7,0.2,3 c0.2,2.5,0.4,6,0.6,9.9c0.2,3.9,0.3,7.3,0.4,9.9c0,1.3,0.1,2.3,0.1,3c0,0.3,0,0.6,0,0.8C136.2,161.1,136.2,161.2,136.2,161.3 C136.2,161.3,136.2,161.3,136.2,161.3z"></path> </g> </g> <g> <path class="st12" d="M128.3,128.9l-0.8,1.2l-6.8,3.6l3.8,11.6l1,6.5l-3.8,15.5c0,0,4.7,1.6,5.1,1.1c0.2-0.2,0.7-1.3,1.2-2.5 c1-2.4,1.7-5,2-7.6c0.3-2.6,0.5-6,0.4-8.3c-0.4-4.3-0.9-11.3-1-13.1c-0.1-1.8-0.4-8.8-0.4-8.8L128.3,128.9z"></path> </g> <g> <path class="st12" d="M136.7,128.2l2.3,1.3l7.3,2.4l-0.6,5.2l-0.3,13.4l2.3,16.1c0,0-2.5,0.9-3.4,0.5c-1-0.4-2.3-2.6-2.4-3.9 c-0.1-1.3-1.9-14.3-1.9-14.3l-1.8-17.4L136.7,128.2z"></path> </g> <g> <g> <path class="st7" d="M139.1,129.5c0,0,0,0,0.1,0.1c0.1,0.1,0.1,0.2,0.3,0.3c0.2,0.3,0.5,0.7,0.9,1.2l0,0l0,0 c-0.2,0.2-0.5,0.4-0.8,0.6l0-0.1c0.3,0.1,0.6,0.2,0.9,0.3l0,0l0,0c0,1.7,0,3.8-0.1,6c0,2.8-0.1,5.3-0.1,7.1c0,0.9,0,1.6,0,2.2 c0,0.2,0,0.4,0,0.6c0,0.1,0,0.1,0,0.2c0,0,0,0.1,0,0.1c0,0,0,0,0-0.1c0,0,0-0.1,0-0.2c0-0.1,0-0.3,0-0.6c0-0.5,0-1.3,0-2.2 c0-1.8,0-4.3,0.1-7.1c0-2.3,0.1-4.4,0.1-6l0,0c-0.3-0.1-0.6-0.2-0.9-0.3l-0.1,0l0.1,0c0.3-0.2,0.6-0.4,0.8-0.6l0,0 c-0.4-0.5-0.7-0.9-0.9-1.2c-0.1-0.1-0.2-0.2-0.2-0.3C139.1,129.6,139.1,129.5,139.1,129.5z"></path> </g> </g> <g> <g> <path class="st7" d="M130,147.7C130,147.7,129.9,147.7,130,147.7c0-0.1,0-0.1-0.1-0.2c0-0.1-0.1-0.3-0.2-0.6 c-0.2-0.5-0.4-1.2-0.7-2.1c-0.2-0.4-0.3-0.9-0.5-1.4c-0.2-0.5-0.4-1.1-0.5-1.7c-0.3-1.2-0.5-2.6-0.7-4 c-0.3-1.8-0.4-3.6-0.5-5.1l0,0l0,0c0.3-0.3,0.6-0.5,0.8-0.8l0,0.1c-0.3-0.2-0.5-0.4-0.8-0.6l0,0l0,0c0.6-0.8,1-1.4,1.4-1.9 c0.2-0.2,0.3-0.4,0.4-0.5c0-0.1,0.1-0.1,0.1-0.1c0,0,0,0,0,0c0,0,0,0,0,0c0,0-0.1,0.1-0.1,0.1c-0.1,0.1-0.2,0.3-0.4,0.5 c-0.3,0.5-0.8,1.1-1.4,1.9l0-0.1c0.2,0.2,0.5,0.4,0.8,0.6l0,0l0,0c-0.3,0.2-0.5,0.5-0.8,0.8l0,0c0.1,1.5,0.3,3.2,0.5,5.1 c0.2,1.4,0.4,2.8,0.7,4c0.2,0.6,0.3,1.2,0.5,1.7c0.2,0.5,0.4,1,0.5,1.4c0.3,0.9,0.5,1.6,0.7,2.1c0.1,0.3,0.1,0.4,0.2,0.6 C129.9,147.6,129.9,147.6,130,147.7C130,147.7,130,147.7,130,147.7z"></path> </g> </g> <g class="st15"> <polygon points="124.1,157.3 128.1,158.9 128.3,158 129.7,159.2 129.9,157.1 128.7,154.7 124.4,156.1 "></polygon> </g> <g> <g> <path class="st19" d="M137.6,157.3l-1.6-1l-1.4-1.3c0,0,0.4,0.4,1.1,0.6c0.7,0.2,1-0.4,1-0.4s-0.6-0.4-0.8-0.5 c-0.2-0.1-2.2-1.6-2.7-1.7c-0.5-0.1-3.9-0.8-3.9-0.8l-0.1,0.2l-1.7,3.5l1.5,0.4c0,0,0.4,0.6,0.8,1.2c0.3,0.7,1.9,1.3,2.6,1.6 c0.6,0.3,1.3-0.2,1.3-0.2c0.7,0.2,0.9-0.6,0.9-0.6c0.8-0.1,0.9-1,0.9-1s1.5,0.6,1.9,0.7c0.2,0,0.3-0.1,0.3-0.2 C137.9,157.6,137.8,157.4,137.6,157.3z"></path> </g> <g> <g> <path class="st20" d="M135.5,157.4c0,0-0.4-0.1-0.9-0.4c-0.5-0.3-0.9-0.6-0.8-0.6c0,0,0.4,0.2,0.9,0.5 C135.1,157.1,135.5,157.4,135.5,157.4z"></path> </g> </g> <g> <g> <path class="st20" d="M132.9,157.2c0,0,0.4,0.2,0.9,0.6c0.5,0.3,0.9,0.6,0.9,0.6c0,0-0.4-0.2-0.9-0.5 C133.3,157.5,132.9,157.3,132.9,157.2z"></path> </g> </g> <g> <g> <path class="st20" d="M132.3,157.9c0,0,0.3,0.2,0.7,0.5c0.4,0.3,0.7,0.5,0.7,0.6c0,0-0.4-0.2-0.8-0.5 C132.5,158.3,132.2,158,132.3,157.9z"></path> </g> </g> <g> <g> <path class="st20" d="M132.7,153.6c0,0,0.1,0,0.4,0.1c0.2,0.1,0.5,0.2,0.8,0.4c0.3,0.2,0.5,0.5,0.6,0.6 c0.1,0.2,0.2,0.3,0.2,0.3c0,0-0.4-0.4-0.9-0.9C133.2,153.8,132.7,153.6,132.7,153.6z"></path> </g> </g> </g> <g> <path class="st12" d="M117.1,153.1c-0.4-0.3-0.7-0.7-0.7-1.2c0-0.5,0-1.1,0.1-2.1c0.3-2.4,4.2-16.1,4.2-16.1l3.9,10.7l-1.3,4.7 l6.8,3.3l-1.9,5.4C128.1,157.7,119.1,154.4,117.1,153.1z"></path> </g> <g> <path class="st12" d="M146.3,132l6.3,11.9l0.2,0.2l6.8-3.5l2.2,4.5l-9.2,5.6c-1,0.6-2.4,0.3-3.1-0.7l-4.1-6.1l-1.1-5L146.3,132 z"></path> </g> <g> <g> <path class="st7" d="M145.5,135.4c0,0,0,0.1,0,0.1c0,0.1,0,0.3,0,0.4c0,0.4,0,0.9,0,1.6c0,1.3,0,3.2,0,5.2 c0,2-0.1,3.9-0.1,5.2c0,0.7,0,1.2-0.1,1.6c0,0.2,0,0.3,0,0.4c0,0.1,0,0.1,0,0.1c0,0,0-0.1,0-0.2c0-0.1,0-0.3,0-0.4 c0-0.4,0-0.9,0-1.6c0-1.3,0.1-3.2,0.1-5.2c0-2,0-3.9,0-5.2c0-0.7,0-1.2,0-1.6c0-0.2,0-0.3,0-0.4 C145.5,135.4,145.5,135.4,145.5,135.4z"></path> </g> </g> <g> <g> <path class="st7" d="M122.2,136.6c0,0,0,0,0,0.1c0,0.1,0.1,0.2,0.1,0.3c0.1,0.3,0.2,0.8,0.4,1.3c0.3,1.1,0.7,2.6,1.1,4.3 c0.4,1.7,0.8,3.2,1,4.3c0.1,0.6,0.2,1,0.2,1.3c0,0.1,0,0.3,0.1,0.4c0,0.1,0,0.1,0,0.1c0,0,0,0,0-0.1c0-0.1,0-0.2-0.1-0.4 c-0.1-0.3-0.2-0.8-0.3-1.3c-0.2-1.1-0.6-2.6-1-4.3c-0.4-1.7-0.8-3.2-1.1-4.3c-0.1-0.5-0.3-1-0.3-1.3c0-0.1-0.1-0.3-0.1-0.4 C122.2,136.7,122.2,136.6,122.2,136.6z"></path> </g> </g> <g> <g> <path class="st7" d="M119.4,154.2C119.4,154.2,119.4,154.2,119.4,154.2c0.1,0,0.1,0,0.2,0.1c0.1,0,0.3,0.1,0.5,0.2 c0.4,0.2,1.1,0.4,1.8,0.7c1.6,0.6,3.8,1.5,6.3,2.5l-0.1,0c0.4-1.1,0.8-2.3,1.3-3.6c0.2-0.6,0.4-1.2,0.6-1.8l0,0.1 c-2.6-1.3-5-2.4-6.7-3.3l0,0c-0.6-0.2-1.1-0.2-1.6-0.2c-0.5,0-0.9,0.2-1.2,0.3c-0.3,0.1-0.5,0.3-0.7,0.4 c-0.1,0-0.1,0.1-0.2,0.1c0,0-0.1,0-0.1,0s0,0,0.1,0c0,0,0.1-0.1,0.2-0.1c0.1-0.1,0.4-0.2,0.7-0.4c0.3-0.1,0.7-0.3,1.2-0.3 c0.5-0.1,1,0,1.6,0.2l0,0l0,0c1.8,0.9,4.1,2,6.8,3.2l0,0l0,0c-0.2,0.6-0.4,1.2-0.6,1.8c-0.4,1.3-0.9,2.5-1.3,3.6l0,0l0,0 c-2.5-1-4.7-1.9-6.3-2.5c-0.8-0.3-1.4-0.6-1.8-0.7c-0.2-0.1-0.4-0.2-0.5-0.2C119.5,154.3,119.4,154.3,119.4,154.2 C119.4,154.2,119.4,154.2,119.4,154.2z"></path> </g> </g> <g> <g> <path class="st7" d="M152.7,144c0,0,0,0.2,0,0.5c0,0.3-0.1,0.7-0.2,1.1c-0.1,0.4-0.2,0.8-0.2,1.1c-0.1,0.3-0.1,0.5-0.1,0.5 c0,0,0-0.2,0-0.5c0-0.3,0.1-0.7,0.2-1.1c0.1-0.4,0.2-0.8,0.2-1.1C152.7,144.2,152.7,144,152.7,144z"></path> </g> </g> </g> <g> <g> <path class="st7" d="M152.7,144.3c0,0-0.1,0.5-0.3,1.1c-0.2,0.6-0.4,1.1-0.4,1c0,0,0.1-0.5,0.3-1.1 C152.5,144.7,152.7,144.3,152.7,144.3z"></path> </g> </g> <g> <g> <path class="st7" d="M134.7,133.2c0,0-0.1-0.1-0.2-0.2c-0.1-0.1-0.3-0.3-0.5-0.5c-0.4-0.4-1-1.1-1.7-1.8l0.1,0 c-0.2,0.3-0.4,0.6-0.4,0.9c0,0.2-0.1,0.4,0,0.6l0,0.1l-0.1-0.1c-0.9-0.7-1.6-1.4-2.1-1.9c-0.3-0.2-0.5-0.4-0.6-0.6 c-0.1-0.1-0.2-0.2-0.2-0.2c0,0,0.1,0.1,0.2,0.2c0.2,0.1,0.4,0.3,0.6,0.5c0.5,0.5,1.3,1.1,2.1,1.8l-0.1,0c0-0.2,0-0.4,0-0.6 c0.1-0.4,0.2-0.7,0.5-1l0,0l0,0c0.7,0.7,1.3,1.3,1.7,1.8c0.2,0.2,0.4,0.4,0.5,0.5C134.6,133.1,134.7,133.2,134.7,133.2z"></path> </g> </g> <g> <g> <path class="st7" d="M137,129.4c0,0,0,0.1,0,0.2c0,0.1,0,0.3,0,0.5c0,0.4-0.1,0.9-0.3,1.5l0,0.1l-0.1-0.1 c-0.2-0.3-0.4-0.6-0.7-0.9c-0.1-0.1-0.2-0.2-0.2-0.2l0.1,0c-0.2,0.8-0.4,1.5-0.6,2.1c-0.1,0.3-0.2,0.5-0.2,0.6 c-0.1,0.1-0.1,0.2-0.1,0.2c0,0,0-0.1,0.1-0.2c0.1-0.2,0.1-0.4,0.2-0.6c0.2-0.5,0.4-1.2,0.6-2l0-0.1l0.1,0.1 c0.1,0.1,0.2,0.1,0.2,0.2c0.3,0.3,0.5,0.6,0.7,0.9l-0.1,0c0.2-0.6,0.2-1.1,0.3-1.5C136.9,129.6,137,129.4,137,129.4z"></path> </g> </g> <g> <g> <polygon class="st12" points="143.2,156.3 143.8,158.2 147.3,157.9 146.2,156.1 "></polygon> </g> <g> <g> <path class="st7" d="M143.2,156.3c0,0,0.1,0,0.2,0c0.2,0,0.4,0,0.6-0.1c0.5-0.1,1.3-0.1,2.2-0.2l0,0l0,0 c0.3,0.5,0.7,1.2,1.1,1.8l0,0.1l-0.1,0c-0.1,0-0.1,0-0.2,0c-1.2,0.1-2.4,0.2-3.3,0.3l0,0l0,0c-0.2-0.6-0.3-1.1-0.4-1.4 c0-0.2-0.1-0.3-0.1-0.4C143.2,156.4,143.2,156.3,143.2,156.3s0,0.1,0.1,0.1c0,0.1,0.1,0.2,0.1,0.4c0.1,0.3,0.3,0.8,0.5,1.4 l0,0c0.9-0.1,2-0.2,3.3-0.3c0.1,0,0.1,0,0.2,0l0,0.1c-0.4-0.7-0.7-1.3-1.1-1.8l0,0c-0.9,0.1-1.6,0.1-2.1,0.1 c-0.3,0-0.5,0-0.6,0C143.3,156.3,143.2,156.3,143.2,156.3z"></path> </g> </g> </g> <g> <g> <rect x="141" y="141.3" class="st12" width="3.7" height="1.2"></rect> </g> <g> <g> <path class="st7" d="M144.8,142.5C144.8,142.5,144.8,142.5,144.8,142.5c0-0.2,0-0.2,0-0.3c0-0.2,0-0.5,0-0.9l0,0 c-0.9,0-2.2,0-3.7,0c0,0-0.1,0.1,0.1-0.1v0v0v0v0v0v0v0l0,0v0.1l0,0.2c0,0.1,0,0.2,0,0.3c0,0.2,0,0.4,0,0.6l-0.1-0.1 c1.1,0,2,0,2.6,0c0.3,0,0.6,0,0.8,0C144.6,142.5,144.8,142.5,144.8,142.5c0,0-0.1,0-0.3,0c-0.2,0-0.5,0-0.8,0 c-0.7,0-1.6,0-2.7,0l-0.1,0l0-0.1c0-0.2,0-0.4,0-0.6c0-0.1,0-0.2,0-0.3l0-0.2l0-0.1v0v0v0v0v0v0v0v0c0.1-0.1,0,0,0.1-0.1 c1.5,0,2.8,0,3.7,0l0,0l0,0c0,0.4,0,0.7,0,0.9C144.8,142.4,144.8,142.5,144.8,142.5z"></path> </g> </g> </g> <g class="st15"> <path d="M140.5,132.1l0.6,0.8c0,0-0.2,11.9-0.8,14.9L140.5,132.1z"></path> </g> </g> </g> </g> </svg> 