<svg version="1.1" preserveAspectRatio="none" xmlns="http://www.w3.org/2000/svg" width="500" height="500" viewBox="0 0 500 500"><rect width="100%" height="100%" fill="#FFFFFF" fill-opacity="1"/><svg viewBox="196.7853 195.9169 291.7516 143.0657" width="333" height="163.2926026798139" x="83.5px" y="168.3537px" xmlns="http://www.w3.org/2000/svg" xmlns:xlink="http://www.w3.org/1999/xlink" preserveAspectRatio="none"><defs></defs><style>.companyName {fill:#1e1e1e;fill-opacity:1;}.icon3-str {stroke:#848383;stroke-opacity:1;}</style><g opacity="1" transform="rotate(-10 196.7853 244.4205)">
<svg width="279.3213" height="96.0209" x="196.7853" y="244.4205" version="1.1" preserveAspectRatio="none" viewBox="-0.08 -32.56 105.28 36.2">
  <g transform="matrix(1 0 0 1 0 0)" class="companyName"><path id="id-D6z1nYkh7" d="M36-27.16L36-27.16Q36-28.56 34.72-29.80L34.72-29.80Q32.88-31.56 29.64-31.56L29.64-31.56Q26.80-31.56 23.36-30.32L23.36-30.32Q21.56-29.68 20.24-28.56L20.24-28.56Q18.20-26.80 18.20-25.04L18.20-25.04Q18.20-22.68 21.20-20.80L21.20-20.80Q22.32-20.12 25.70-18.58Q29.08-17.04 30.64-16.08L30.64-16.08Q33-14.64 33.90-13Q34.80-11.36 34.80-9.96L34.80-9.96Q34.80-7.96 33.48-5.88L33.48-5.88Q31.16-2.16 26.68 0.52L26.68 0.52Q21.52 3.64 14.24 3.64L14.24 3.64Q7.24 3.64 3.12 0.08L3.12 0.08Q-0.08-2.64-0.08-6.92L-0.08-6.92Q-0.08-9.64 1.90-12.92Q3.88-16.20 6.76-17.56L6.76-17.56Q7.36-17.80 7.66-17.72Q7.96-17.64 7.16-16.96L7.16-16.96Q5.44-15.60 4.40-13.96L4.40-13.96Q2.16-10.44 2.16-6.32L2.16-6.32Q2.16-3.60 3.68-1.56L3.68-1.56Q6.40 2.08 13.12 2.56L13.12 2.56Q13.88 2.64 15.38 2.64Q16.88 2.64 19.46 2.10Q22.04 1.56 24.44 0.32L24.44 0.32Q29.60-2.40 31.12-6.72L31.12-6.72Q31.60-8 31.60-9.20L31.60-9.20Q31.60-11.92 29.16-14L29.16-14Q27.84-15.04 23.78-16.78Q19.72-18.52 18.32-19.44L18.32-19.44Q15.24-21.52 15.24-24.36L15.24-24.36Q15.24-26.84 18-29.20L18-29.20Q21.96-32.56 29.20-32.56L29.20-32.56Q32.60-32.56 34.74-31.54Q36.88-30.52 37.36-28.48L37.36-28.48Q37.44-28.08 37.44-27.68L37.44-27.68Q37.44-26.12 36-24.88L36-24.88Q35-24.08 33.32-23.60L33.32-23.60Q32.60-23.40 32.52-23.76L32.52-23.76Q32.44-24.28 33.52-24.40L33.52-24.40Q35.44-24.64 35.88-26.32L35.88-26.32Q36-26.76 36-27.16Z M57.24-13.12L57.24-13.12Q52.36-4.44 52.36-1.92L52.36-1.92Q52.36-0.80 53.12-0.80L53.12-0.80Q54.08-0.80 55.32-2.24L55.32-2.24Q57.20-4.52 58.60-7.72L58.60-7.72Q58.84-8.28 59.08-8.16Q59.32-8.04 59.32-7.84Q59.32-7.64 58.92-6.84Q58.52-6.04 58.28-5.56Q58.04-5.08 57.22-3.72Q56.40-2.36 55.82-1.72Q55.24-1.08 54.34-0.46Q53.44 0.16 52.30 0.16Q51.16 0.16 50.36-0.96L50.36-0.96Q50-1.48 50-2.38Q50-3.28 50.40-4.56Q50.80-5.84 52.60-8.72L52.60-8.72Q53.04-9.44 53.04-9.86Q53.04-10.28 52.38-10.28Q51.72-10.28 50-8.68Q48.28-7.08 46.38-4.36Q44.48-1.64 44.12 0L44.12 0Q43.44 0 43.12-0.56Q42.80-1.12 42.80-1.52L42.80-1.52Q42.80-3.16 45-7.76L45-7.76Q45.72-9.28 45.76-9.82Q45.80-10.36 45.62-10.38Q45.44-10.40 45.12-10.24L45.12-10.24Q44.40-9.88 42.92-8.48L42.92-8.48Q40.12-5.92 37.40-0.68L37.40-0.68Q37.20-0.24 36.90-0.14Q36.60-0.04 35.72 0Q34.84 0.04 34.56 0.20L34.56 0.20Q35.28-1.20 37.08-5.04L37.08-5.04Q40.32-11.92 41.40-12.96L41.40-12.96Q41.88-13.44 42.72-13.44L42.72-13.44Q42.88-13.44 43.54-13.32Q44.20-13.20 44.52-13.28L44.52-13.28Q43.04-12.48 39.68-5.76L39.68-5.76Q41.56-8.08 42.38-8.80Q43.20-9.52 43.60-9.88Q44-10.24 44.22-10.44Q44.44-10.64 44.86-11.02Q45.28-11.40 45.50-11.58Q45.72-11.76 46.12-12.08Q46.52-12.40 46.74-12.50Q46.96-12.60 47.34-12.84Q47.72-13.08 47.90-13.08Q48.08-13.08 48.40-13.18Q48.72-13.28 48.84-13.12L48.84-13.12Q49.64-12.80 49.64-12.12L49.64-12.12Q49.64-11.52 48.28-9.04Q46.92-6.56 46.52-5.76L46.52-5.76Q48.28-7.96 49.88-9.38Q51.48-10.80 53.66-12Q55.84-13.20 56.84-13.20L56.84-13.20Q57.08-13.20 57.24-13.12Z M62-0.76L62-0.76Q62.52-0.68 62.72-0.68L62.72-0.68Q64.32-0.68 65.88-2.56L65.88-2.56Q66.72-3.60 68.88-7.80L68.88-7.80Q68.96-8 69.16-8L69.16-8Q69.52-8.04 69.52-7.72L69.52-7.72Q69.52-7.64 69.34-7.26Q69.16-6.88 69-6.50Q68.84-6.12 68.48-5.40Q68.12-4.68 67.86-4.24Q67.60-3.80 67.20-3.16Q66.80-2.52 66.40-2.16L66.40-2.16L65.56-1.28Q64.88-0.60 63.96-0.32L63.96-0.32Q62.48 0.16 61.08-0.24L61.08-0.24Q60.16 0.16 59.44 0.16L59.44 0.16Q56.60 0.16 56-2.08L56-2.08Q55.88-2.60 55.88-3.34Q55.88-4.08 56.38-4.76Q56.88-5.44 57.44-5.48L57.44-5.48Q59.48-9.36 60.92-12.48L60.92-12.48Q62.52-15.88 64.64-15.88L64.64-15.88Q65.20-15.88 65.74-15.62Q66.28-15.36 66.14-15.04Q66-14.72 65.56-14.92Q65.12-15.12 64.80-15.12Q64.48-15.12 64.24-15L64.24-15Q62.88-14.36 62.88-12.24L62.88-12.24Q62.88-11.12 63.20-10.40Q63.52-9.68 63.92-8.84L63.92-8.84Q64.84-6.76 64.84-5.44L64.84-5.44Q64.84-4.12 64-2.84Q63.16-1.56 62-0.76ZM60.64-1.04L60.64-1.04Q62.40-2.40 62.40-5.44L62.40-5.44Q62.40-6.68 62.12-8.84Q61.84-11 61.84-11.76Q61.84-12.52 61.88-12.80L61.88-12.80Q58.84-6.72 58.12-5.40L58.12-5.40Q58.96-5.40 58.96-4.20L58.96-4.20Q58.96-1.84 60.64-1.04ZM57.64-2.12L57.64-2.12Q57.64-1.88 57.68-1.60L57.68-1.60Q58-0.52 59.16-0.52L59.16-0.52Q59.64-0.52 59.96-0.68L59.96-0.68Q58.48-1.60 58.36-3.68L58.36-3.68Q57.64-2.96 57.64-2.12Z M70.60-6.16L70.60-6.16Q70.04-4.80 70.04-3.12L70.04-3.12Q70.04-2 70.54-1.34Q71.04-0.68 71.96-0.68L71.96-0.68Q75.60-0.68 78.56-7.52L78.56-7.52Q78.84-8.16 79.24-8.08L79.24-8.08Q79.40-8.04 79.40-7.88Q79.40-7.72 78.50-5.78Q77.60-3.84 76.68-2.64L76.68-2.64Q74.64 0.16 71.64 0.16L71.64 0.16Q70.04 0.16 68.92-0.88Q67.80-1.92 67.80-3.72Q67.80-5.52 68.66-7.54Q69.52-9.56 71-11.30Q72.48-13.04 74.40-13.84L74.40-13.84Q75.32-14.24 76.16-14.24Q77-14.24 77.72-13.76L77.72-13.76Q78.40-13.20 78.40-12.52L78.40-12.52Q78.40-10.12 75.52-7.92L75.52-7.92Q74.64-7.24 73.04-6.70Q71.44-6.16 70.60-6.16ZM77.32-12.56L77.32-12.56Q77.32-13.36 76.68-13.36L76.68-13.36Q75.56-13.36 73.28-10.60L73.28-10.60Q71.92-8.92 70.88-6.84L70.88-6.84Q71.56-6.84 72.86-7.32Q74.16-7.80 75.12-8.60L75.12-8.60Q77.32-10.48 77.32-12.56Z M80.88-7.72Q80.84-7.56 80.52-6.62Q80.20-5.68 79.98-4.82Q79.76-3.96 79.76-3.10Q79.76-2.24 80.16-1.50Q80.56-0.76 81.44-0.76L81.44-0.76Q82.88-0.76 84.24-2.70Q85.60-4.64 87.12-7.64L87.12-7.64Q87.44-8.20 87.72-8.08L87.72-8.08Q87.92-7.92 87.80-7.66Q87.68-7.40 87.30-6.54Q86.92-5.68 86.74-5.34Q86.56-5 86.10-4.14Q85.64-3.28 85.30-2.86Q84.96-2.44 84.38-1.78Q83.80-1.12 83.28-0.80L83.28-0.80Q81.88 0.08 80.64 0.08Q79.40 0.08 78.72-0.46Q78.04-1 77.90-1.62Q77.76-2.24 77.76-2.72Q77.76-3.20 77.80-3.96L77.80-3.96Q77.92-5.24 78.30-6.44Q78.68-7.64 78.72-7.80L78.72-7.80Q79.64-11.12 81.34-15.04Q83.04-18.96 84.22-20.94Q85.40-22.92 86.08-23.64L86.08-23.64Q87.44-25.08 88.76-25.08L88.76-25.08Q89.68-25.08 90-23.76L90-23.76Q90.04-23.52 90.04-23.16L90.04-23.16Q90.04-21.80 89.08-19.72L89.08-19.72Q85.64-12.08 80.88-7.72L80.88-7.72ZM81.20-9Q83.24-11.08 85.24-14.24Q87.24-17.40 88.18-19.62Q89.12-21.84 89.12-22.64Q89.12-23.44 88.84-23.44L88.84-23.44Q88.44-23.44 87.32-21.86Q86.20-20.28 84.30-16.18Q82.40-12.08 81.20-9L81.20-9Z M97.80-13.96L97.80-13.96L97.60-13.24Q95.56-6.88 93.84-3.96L93.84-3.96Q91.32 0.28 88.56 0.28L88.56 0.28Q86.32 0.28 86.32-1.88L86.32-1.88Q86.32-3.52 87.52-6.96L87.52-6.96Q87.12-6.32 86.90-6.54Q86.68-6.76 86.80-7.08L86.80-7.08L87.52-8.44Q88.28-10 88.28-11.56Q88.28-13.12 87.64-13.40L87.64-13.40Q90.04-13.80 90.44-13.78Q90.84-13.76 90.94-13.44Q91.04-13.12 91.04-12.72L91.04-12.72Q91.04-10.28 89.78-6.96Q88.52-3.64 88.52-2.50Q88.52-1.36 88.88-1.18Q89.24-1 89.60-1L89.60-1Q90.64-1 91.96-2.68Q93.28-4.36 94.60-7.64L94.60-7.64Q94.04-8.92 94.04-9.90Q94.04-10.88 94.28-11.64L94.28-11.64Q95.00-13.92 96.56-14.48L96.56-14.48Q96.88-14.60 97.16-14.60L97.16-14.60Q97.80-14.60 97.80-13.96Z M103.12-15.56Q102.56-15.08 101.88-15.08Q101.20-15.08 100.80-15.56Q100.40-16.04 100.48-16.72L100.48-16.72Q100.60-17.40 101.16-17.88Q101.72-18.36 102.40-18.36Q103.08-18.36 103.50-17.88Q103.92-17.40 103.80-16.72Q103.68-16.04 103.12-15.56ZM99.20-0.88L99.20-0.88Q99.96-0.88 100.80-1.64L100.80-1.64Q102.28-3.12 104.56-7.68L104.56-7.68Q104.84-8.28 105.12-8.04L105.12-8.04Q105.20-7.96 105.20-7.78Q105.20-7.60 104.88-6.90Q104.56-6.20 104.30-5.64Q104.04-5.08 103.30-3.82Q102.56-2.56 101.96-1.88L101.96-1.88Q100.32 0 98.86 0Q97.40 0 96.76-0.88Q96.12-1.76 96.12-2.84Q96.12-3.92 96.64-5.20L96.64-5.20L99.20-11.72Q99.28-11.96 99.28-12.36Q99.28-12.76 98.80-13.40L98.80-13.40L101.00-13.44Q101.92-13.44 102.08-13.10Q102.24-12.76 101.84-12.04L101.84-12.04L98.64-4.56Q97.96-3.08 97.96-2.04L97.96-2.04Q97.96-0.88 99.20-0.88Z"/></g>
</svg>
</g></svg></svg>