<?xml version="1.0" encoding="UTF-8"?> <svg xmlns="http://www.w3.org/2000/svg" xmlns:xlink="http://www.w3.org/1999/xlink" version="1.1" id="Warstwa_1" x="0px" y="0px" viewBox="0 0 379 293" style="enable-background:new 0 0 379 293;" xml:space="preserve"> <style type="text/css"> .st0{clip-path:url(#SVGID_00000132807658727711752910000004815467119071336104_);} .st1{fill:#EBEBEB;} .st2{fill:#F5F5F5;} .st3{fill:#E6E6E6;} .st4{fill:#E0E0E0;} .st5{fill:#F0F0F0;} .st6{opacity:0.5;} .st7{opacity:0.5;fill:#188EF8;enable-background:new ;} .st8{opacity:0.7;fill:#FFFFFF;enable-background:new ;} .st9{fill:#188EF8;} .st10{fill:#0C0641;} .st11{fill:#FFFFFF;} .st12{fill:#263238;} .st13{fill:#FFC3BD;} .st14{opacity:0.2;enable-background:new ;} .st15{opacity:0.2;fill:#FFFFFF;enable-background:new ;} .st16{fill:#ED847E;} .st17{opacity:0.3;fill:#188EF8;enable-background:new ;} </style> <g> <defs> <rect id="SVGID_1_" x="104" y="80" width="171.5" height="143.5"></rect> </defs> <clipPath id="SVGID_00000177461991925892667040000002137166521488603310_"> <use xlink:href="#SVGID_1_" style="overflow:visible;"></use> </clipPath> <g style="clip-path:url(#SVGID_00000177461991925892667040000002137166521488603310_);"> <path class="st1" d="M275.5,202.9H104v0.1L275.5,202.9L275.5,202.9z"></path> <path class="st1" d="M258.3,208.4H247v0.1L258.3,208.4L258.3,208.4z"></path> <path class="st1" d="M217.6,209.4h-3v0.1L217.6,209.4L217.6,209.4z"></path> <path class="st1" d="M246.6,205.3H240v0.1L246.6,205.3L246.6,205.3z"></path> <path class="st1" d="M136.8,205.8H122v0.1L136.8,205.8L136.8,205.8z"></path> <path class="st1" d="M142,205.8h-2.2v0.1L142,205.8L142,205.8z"></path> <path class="st1" d="M181.2,207.3h-32.1v0.1L181.2,207.3L181.2,207.3z"></path> <path class="st1" d="M185.3,187.6h-66.2c-0.5,0-1-0.2-1.4-0.6c-0.4-0.4-0.6-0.9-0.6-1.4V92.6c0-0.5,0.2-1,0.6-1.4 c0.4-0.4,0.9-0.6,1.4-0.6h66.2c0.5,0,1,0.2,1.4,0.6c0.4,0.4,0.6,0.9,0.6,1.4v93.1c0,0.5-0.2,1-0.6,1.4 C186.3,187.4,185.8,187.6,185.3,187.6z M119.1,90.7c-0.5,0-1,0.2-1.3,0.5c-0.4,0.4-0.5,0.8-0.5,1.3v93.1c0,0.5,0.2,1,0.5,1.3 c0.3,0.4,0.8,0.5,1.3,0.6h66.2c0.5,0,1-0.2,1.3-0.6s0.5-0.8,0.6-1.3V92.6c0-0.5-0.2-1-0.6-1.3c-0.4-0.4-0.8-0.5-1.3-0.5H119.1z"></path> <path class="st1" d="M259.5,187.6h-66.2c-0.5,0-1-0.2-1.4-0.6c-0.4-0.4-0.6-0.9-0.6-1.4V92.6c0-0.5,0.2-1,0.6-1.4 c0.4-0.4,0.9-0.6,1.4-0.6h66.2c0.5,0,1,0.2,1.4,0.6c0.4,0.4,0.6,0.9,0.6,1.4v93.1c0,0.5-0.2,1-0.6,1.4 C260.5,187.4,260,187.6,259.5,187.6z M193.2,90.7c-0.5,0-1,0.2-1.3,0.5c-0.4,0.4-0.5,0.8-0.5,1.3v93.1c0,0.5,0.2,1,0.5,1.3 s0.8,0.5,1.3,0.6h66.2c0.5,0,1-0.2,1.3-0.6c0.4-0.4,0.5-0.8,0.5-1.3V92.6c0-0.5-0.2-1-0.5-1.3c-0.4-0.4-0.8-0.5-1.3-0.5H193.2z"></path> <path class="st2" d="M275.5,176.3c-56.9,7.2-114.6,7.2-171.5,0V102c56.9,7.2,114.6,7.2,171.5,0V176.3z"></path> <path class="st3" d="M275.5,149.5c-56.9,7.2-114.6,7.2-171.5,0v-43.9c56.9,7.2,114.6,7.2,171.5,0V149.5z"></path> <path class="st4" d="M275.5,131.4c-56.9,7.2-114.6,7.2-171.5,0v-5c56.9,7.2,114.6,7.2,171.5,0V131.4z"></path> <path class="st3" d="M124.8,80.7c-0.3-0.1-0.7-0.1-1-0.1c-0.3,0.1-0.7,0.2-1,0.4c-0.3,0.2-0.5,0.5-0.7,0.8c-0.2,0.3-0.3,0.6-0.3,1 c0,0.7,0.2,1.4,0.6,2c0.4,0.6,1,1,1.7,1.2c0.2,0,0.4,0.1,0.6,0.1c0.5,0,1-0.2,1.4-0.4c0.3-0.2,0.5-0.5,0.7-0.8 c0.2-0.3,0.3-0.6,0.3-1c0.1-0.7-0.1-1.4-0.6-2C126.1,81.3,125.5,80.9,124.8,80.7z"></path> <path class="st3" d="M131.4,82.3c-0.3-0.1-0.6-0.1-0.9,0c-0.3,0.1-0.6,0.2-0.9,0.4c-0.3,0.2-0.5,0.5-0.7,0.8 c-0.2,0.3-0.3,0.6-0.3,1c-0.1,0.7,0.1,1.4,0.5,1.9c0.4,0.6,1,1,1.6,1.1c0.2,0,0.3,0.1,0.5,0.1c0.5,0,0.9-0.1,1.3-0.4 c0.3-0.2,0.5-0.5,0.6-0.7c0.2-0.3,0.3-0.6,0.3-0.9c0.1-0.7-0.1-1.3-0.5-1.9C132.6,82.9,132,82.5,131.4,82.3z"></path> <path class="st3" d="M136.7,88.7c0.2,0,0.3,0.1,0.5,0.1c0.4,0,0.8-0.1,1.2-0.4c0.3-0.2,0.5-0.4,0.6-0.7s0.2-0.6,0.3-0.9 c0.1-0.6-0.1-1.3-0.4-1.8s-0.9-0.9-1.5-1.1c-0.3-0.1-0.6-0.1-0.9,0c-0.3,0.1-0.6,0.2-0.8,0.3c-0.3,0.2-0.5,0.4-0.6,0.7 c-0.2,0.3-0.3,0.6-0.3,0.9C134.6,87.1,135.5,88.4,136.7,88.7z"></path> <path class="st3" d="M142.2,89.9c0.1,0,0.3,0,0.4,0c0.4,0,0.8-0.1,1.1-0.3c0.3-0.2,0.5-0.4,0.6-0.7c0.2-0.3,0.2-0.6,0.3-0.9 c0.1-1.3-0.7-2.5-1.8-2.8c-0.3-0.1-0.5-0.1-0.8,0c-0.3,0-0.5,0.2-0.7,0.3c-0.3,0.2-0.5,0.4-0.6,0.7c-0.2,0.3-0.2,0.6-0.3,0.9 C140.3,88.4,141.1,89.7,142.2,89.9z"></path> <path class="st3" d="M147.3,91c0.1,0,0.3,0,0.4,0c0.4,0,0.7-0.1,1-0.3c0.2-0.2,0.5-0.4,0.6-0.7c0.1-0.3,0.2-0.6,0.3-0.9 c0.1-1.2-0.6-2.4-1.7-2.7c-0.2-0.1-0.5-0.1-0.7,0c-0.2,0-0.5,0.1-0.7,0.3c-0.3,0.2-0.5,0.4-0.6,0.7s-0.2,0.6-0.3,0.9 C145.4,89.6,146.2,90.8,147.3,91z"></path> <path class="st3" d="M152.5,87.6c-0.2-0.1-0.5-0.1-0.7,0c-0.2,0-0.4,0.1-0.6,0.3c-0.2,0.2-0.5,0.4-0.6,0.7 c-0.1,0.3-0.2,0.6-0.3,0.9c-0.1,1.2,0.6,2.4,1.6,2.6c0.1,0,0.2,0,0.3,0c0.3,0,0.7-0.1,1-0.3c0.2-0.2,0.4-0.4,0.6-0.7 c0.1-0.3,0.2-0.6,0.2-0.9C154.2,89,153.5,87.9,152.5,87.6z"></path> <path class="st3" d="M124.1,87.7c-0.3-0.1-0.7-0.1-1,0c-0.3,0.1-0.7,0.2-0.9,0.4c-0.3,0.2-0.5,0.5-0.7,0.8c-0.2,0.3-0.3,0.6-0.3,1 c-0.1,0.7,0.2,1.4,0.6,2c0.4,0.6,1.1,1,1.8,1.1c0.1,0,0.3,0,0.4,0c0.5,0,1.1-0.2,1.5-0.5c0.3-0.2,0.5-0.5,0.7-0.8 c0.2-0.3,0.3-0.6,0.3-1c0.1-0.7-0.1-1.4-0.6-2C125.4,88.2,124.8,87.8,124.1,87.7z"></path> <path class="st3" d="M130.7,89c-0.3-0.1-0.6-0.1-0.9,0c-0.3,0.1-0.6,0.2-0.9,0.4c-0.3,0.2-0.5,0.5-0.7,0.8s-0.3,0.6-0.3,1 c-0.1,0.7,0.1,1.4,0.5,1.9c0.4,0.5,1,0.9,1.7,1.1c0.1,0,0.3,0,0.4,0c0.5,0,1-0.2,1.4-0.5c0.3-0.2,0.5-0.5,0.6-0.8 c0.2-0.3,0.3-0.6,0.3-1c0.1-0.7-0.1-1.3-0.5-1.9C131.9,89.5,131.4,89.1,130.7,89z"></path> <path class="st3" d="M136.7,90.2c-0.3-0.1-0.6-0.1-0.9,0c-0.3,0.1-0.6,0.2-0.8,0.4c-0.3,0.2-0.5,0.5-0.6,0.8 c-0.2,0.3-0.3,0.6-0.3,1c-0.1,1.4,0.8,2.6,2,2.8c0.1,0,0.2,0,0.3,0c0.5,0,0.9-0.2,1.3-0.4c0.3-0.2,0.5-0.5,0.6-0.8 c0.2-0.3,0.3-0.6,0.3-0.9c0.1-0.6-0.1-1.3-0.5-1.8C137.9,90.7,137.3,90.3,136.7,90.2z"></path> <path class="st3" d="M142.2,91.3c-0.3-0.1-0.5-0.1-0.8,0c-0.3,0.1-0.5,0.2-0.7,0.3c-0.3,0.2-0.5,0.5-0.6,0.7 c-0.2,0.3-0.2,0.6-0.3,0.9c-0.1,1.3,0.7,2.5,1.9,2.7c0.1,0,0.2,0,0.3,0c0.4,0,0.8-0.1,1.2-0.4c0.2-0.2,0.5-0.5,0.6-0.7 c0.1-0.3,0.2-0.6,0.3-0.9C144.2,92.7,143.4,91.5,142.2,91.3z"></path> <path class="st3" d="M147.3,92.3c-0.2,0-0.5,0-0.7,0c-0.2,0.1-0.5,0.2-0.7,0.3c-0.3,0.2-0.5,0.4-0.6,0.7c-0.2,0.3-0.2,0.6-0.3,0.9 c-0.1,1.3,0.7,2.4,1.8,2.6c0.1,0,0.2,0,0.3,0c0.4,0,0.8-0.1,1.1-0.4c0.2-0.2,0.4-0.4,0.6-0.7c0.1-0.3,0.2-0.6,0.3-0.9 C149.1,93.7,148.4,92.5,147.3,92.3z"></path> <path class="st3" d="M152,93.3c-0.2,0-0.5,0-0.7,0c-0.2,0.1-0.4,0.2-0.6,0.3c-0.2,0.2-0.4,0.4-0.6,0.7c-0.1,0.3-0.2,0.6-0.3,0.9 c-0.1,1.2,0.6,2.4,1.7,2.5c0.1,0,0.2,0,0.3,0c0.4,0,0.7-0.1,1-0.3c0.2-0.2,0.4-0.4,0.6-0.7c0.1-0.3,0.2-0.6,0.2-0.9 C153.7,94.6,153,93.5,152,93.3z"></path> <path class="st3" d="M123.5,94.6c-0.3-0.1-0.7,0-1,0c-0.3,0.1-0.7,0.2-0.9,0.5c-0.3,0.2-0.5,0.5-0.7,0.8c-0.2,0.3-0.3,0.6-0.3,1 c-0.1,0.7,0.2,1.4,0.6,2c0.4,0.6,1.1,0.9,1.8,1c0.3,0,0.7,0,1-0.1c0.3-0.1,0.6-0.3,0.9-0.5c0.3-0.2,0.5-0.5,0.6-0.8 c0.2-0.3,0.3-0.6,0.3-1c0.1-0.7-0.1-1.4-0.6-1.9C124.8,95.1,124.2,94.8,123.5,94.6z"></path> <path class="st3" d="M130.1,95.7c-0.3,0-0.6,0-0.9,0.1c-0.3,0.1-0.6,0.2-0.8,0.4c-0.3,0.2-0.5,0.5-0.7,0.8c-0.2,0.3-0.3,0.6-0.3,1 c-0.1,0.7,0.1,1.3,0.5,1.9c0.4,0.5,1,0.9,1.7,1c0.1,0,0.2,0,0.3,0c0.5,0,1-0.2,1.5-0.5c0.3-0.2,0.5-0.5,0.6-0.8 c0.2-0.3,0.3-0.6,0.3-1c0.1-0.7-0.1-1.3-0.5-1.8C131.3,96.1,130.7,95.8,130.1,95.7z"></path> <path class="st3" d="M136.1,96.6c-0.3,0-0.6,0-0.9,0c-0.3,0.1-0.5,0.2-0.8,0.4c-0.4,0.3-0.7,0.7-0.8,1.2c-0.1,0.5-0.2,1,0,1.4 c0.1,0.5,0.4,0.9,0.7,1.2c0.4,0.3,0.8,0.6,1.3,0.7c0.1,0,0.2,0,0.3,0c0.5,0,1-0.2,1.3-0.5c0.3-0.2,0.5-0.5,0.6-0.8 c0.2-0.3,0.2-0.6,0.3-0.9c0.1-0.6-0.1-1.2-0.5-1.7C137.3,97.1,136.7,96.7,136.1,96.6z"></path> <path class="st3" d="M141.6,97.4c-0.3,0-0.5,0-0.8,0c-0.3,0.1-0.5,0.2-0.7,0.4c-0.3,0.2-0.5,0.5-0.6,0.8c-0.2,0.3-0.2,0.6-0.3,0.9 c-0.1,1.3,0.7,2.5,1.9,2.7c0.1,0,0.2,0,0.2,0c0.5,0,0.9-0.2,1.2-0.4c0.2-0.2,0.5-0.5,0.6-0.8c0.1-0.3,0.2-0.6,0.3-0.9 C143.6,98.8,142.8,97.6,141.6,97.4z"></path> <path class="st3" d="M146.7,98.2c-0.2,0-0.5,0-0.7,0c-0.2,0.1-0.5,0.2-0.7,0.3c-0.2,0.2-0.5,0.5-0.6,0.7c-0.1,0.3-0.2,0.6-0.3,0.9 c-0.1,1.3,0.7,2.4,1.8,2.6c0.1,0,0.1,0,0.2,0c0.4,0,0.8-0.2,1.2-0.4c0.2-0.2,0.4-0.5,0.6-0.7c0.1-0.3,0.2-0.6,0.3-0.9 C148.6,99.5,147.8,98.4,146.7,98.2z"></path> <path class="st3" d="M151.4,98.9c-0.2,0-0.5,0-0.7,0c-0.2,0.1-0.4,0.2-0.6,0.3c-0.2,0.2-0.4,0.5-0.6,0.7c-0.1,0.3-0.2,0.6-0.3,0.9 c-0.1,1.2,0.6,2.3,1.7,2.5c0.1,0,0.1,0,0.2,0c0.4,0,0.8-0.1,1.1-0.4c0.2-0.2,0.4-0.5,0.6-0.7c0.1-0.3,0.2-0.6,0.2-0.9 C153.2,100.1,152.5,99.1,151.4,98.9z"></path> <path class="st3" d="M253.4,85.6c0.4,0.3,0.9,0.4,1.4,0.4c0.2,0,0.4,0,0.6-0.1c0.7-0.2,1.3-0.6,1.7-1.2c0.4-0.6,0.6-1.3,0.6-2 c0-0.3-0.1-0.7-0.3-1c-0.2-0.3-0.4-0.6-0.7-0.8c-0.3-0.2-0.6-0.3-1-0.4c-0.3-0.1-0.7,0-1,0.1c-0.7,0.2-1.3,0.6-1.7,1.2 c-0.4,0.6-0.6,1.3-0.6,2c0,0.3,0.1,0.7,0.3,1C252.9,85.1,253.1,85.4,253.4,85.6z"></path> <path class="st3" d="M247,87c0.4,0.3,0.8,0.4,1.3,0.4c0.2,0,0.3,0,0.5-0.1c0.7-0.2,1.2-0.6,1.6-1.1c0.4-0.6,0.6-1.2,0.5-1.9 c0-0.3-0.1-0.7-0.3-1c-0.2-0.3-0.4-0.6-0.7-0.8c-0.3-0.2-0.6-0.3-0.9-0.4s-0.6,0-0.9,0c-0.6,0.2-1.2,0.6-1.6,1.1 c-0.4,0.6-0.6,1.2-0.5,1.9c0,0.3,0.1,0.7,0.3,0.9C246.5,86.6,246.7,86.8,247,87z"></path> <path class="st3" d="M241.1,88.4c0.3,0.3,0.8,0.4,1.2,0.4c0.2,0,0.3,0,0.5-0.1c1.2-0.3,2.1-1.6,2-2.9c0-0.3-0.1-0.7-0.3-0.9 c-0.2-0.3-0.4-0.5-0.6-0.7c-0.2-0.2-0.5-0.3-0.8-0.3c-0.3-0.1-0.6,0-0.9,0c-0.6,0.2-1.1,0.6-1.5,1.1s-0.5,1.2-0.4,1.8 c0,0.3,0.1,0.6,0.3,0.9S240.9,88.2,241.1,88.4z"></path> <path class="st3" d="M235.7,89.6c0.3,0.2,0.7,0.3,1.1,0.3c0.1,0,0.3,0,0.4,0c1.1-0.3,2-1.5,1.9-2.8c0-0.3-0.1-0.6-0.3-0.9 c-0.2-0.3-0.4-0.5-0.6-0.7c-0.2-0.2-0.5-0.3-0.7-0.3s-0.5,0-0.8,0c-1.1,0.3-1.9,1.5-1.8,2.8c0,0.3,0.1,0.6,0.3,0.9 C235.3,89.2,235.5,89.4,235.7,89.6z"></path> <path class="st3" d="M229.9,89.1c0,0.3,0.1,0.6,0.3,0.9s0.4,0.5,0.6,0.7c0.3,0.2,0.7,0.3,1,0.3c0.1,0,0.3,0,0.4,0 c1.1-0.2,1.9-1.4,1.7-2.7c0-0.3-0.1-0.6-0.3-0.9c-0.2-0.3-0.4-0.5-0.6-0.7c-0.2-0.1-0.4-0.2-0.7-0.3c-0.2,0-0.5,0-0.7,0 C230.6,86.7,229.8,87.9,229.9,89.1L229.9,89.1z"></path> <path class="st3" d="M226.2,91.8c0.3,0.2,0.6,0.3,1,0.3c0.1,0,0.2,0,0.3,0c1-0.2,1.7-1.4,1.6-2.6c0-0.3-0.1-0.6-0.2-0.9 c-0.1-0.3-0.3-0.5-0.6-0.7c-0.2-0.1-0.4-0.2-0.6-0.3s-0.5,0-0.7,0c-1,0.3-1.7,1.4-1.6,2.6c0,0.3,0.1,0.6,0.2,0.9 C225.8,91.4,226,91.6,226.2,91.8z"></path> <path class="st3" d="M254,92.5c0.4,0.3,0.9,0.5,1.5,0.5c0.1,0,0.3,0,0.4,0c0.7-0.1,1.3-0.5,1.8-1.1c0.4-0.6,0.6-1.3,0.6-2 c0-0.3-0.1-0.7-0.3-1c-0.2-0.3-0.4-0.6-0.7-0.8c-0.3-0.2-0.6-0.4-0.9-0.4c-0.3-0.1-0.7-0.1-1,0c-0.7,0.1-1.3,0.5-1.7,1.1 c-0.4,0.6-0.6,1.3-0.6,2c0,0.3,0.1,0.7,0.3,1C253.5,92,253.7,92.3,254,92.5z"></path> <path class="st3" d="M247.6,93.6c0.4,0.3,0.9,0.5,1.4,0.5c0.1,0,0.3,0,0.4,0c0.7-0.1,1.3-0.5,1.7-1.1c0.4-0.5,0.6-1.2,0.5-1.9 c0-0.3-0.1-0.7-0.3-1c-0.2-0.3-0.4-0.6-0.7-0.8c-0.3-0.2-0.5-0.3-0.9-0.4c-0.3-0.1-0.6-0.1-0.9,0c-0.7,0.1-1.2,0.5-1.6,1.1 c-0.4,0.5-0.6,1.2-0.5,1.9c0,0.3,0.1,0.7,0.3,1C247.1,93.2,247.3,93.4,247.6,93.6z"></path> <path class="st3" d="M241.7,94.7c0.4,0.3,0.8,0.4,1.3,0.4c0.1,0,0.2,0,0.4,0c1.2-0.2,2.2-1.5,2-2.8c0-0.3-0.1-0.7-0.3-1 c-0.2-0.3-0.4-0.6-0.6-0.8c-0.2-0.2-0.5-0.3-0.8-0.4c-0.3-0.1-0.6-0.1-0.9,0c-0.6,0.2-1.2,0.5-1.5,1c-0.4,0.5-0.5,1.2-0.4,1.8 c0,0.3,0.1,0.6,0.3,0.9C241.2,94.3,241.4,94.5,241.7,94.7z"></path> <path class="st3" d="M236.3,95.7c0.3,0.3,0.7,0.4,1.2,0.4c0.1,0,0.2,0,0.3,0c1.2-0.2,2-1.4,1.9-2.7c0-0.3-0.1-0.6-0.3-0.9 c-0.2-0.3-0.4-0.5-0.6-0.7c-0.2-0.2-0.5-0.3-0.7-0.3c-0.3-0.1-0.5-0.1-0.8,0c-1.1,0.2-2,1.4-1.8,2.7c0,0.3,0.1,0.6,0.3,0.9 C235.8,95.2,236.1,95.5,236.3,95.7z"></path> <path class="st3" d="M231.3,96.6c0.3,0.2,0.7,0.4,1.1,0.4c0.1,0,0.2,0,0.3,0c1.1-0.2,1.9-1.4,1.8-2.6c0-0.3-0.1-0.6-0.3-0.9 c-0.1-0.3-0.4-0.5-0.6-0.7c-0.2-0.2-0.4-0.3-0.7-0.3c-0.2-0.1-0.5-0.1-0.7,0c-1.1,0.2-1.8,1.4-1.7,2.6c0,0.3,0.1,0.6,0.3,0.9 C230.9,96.1,231.1,96.4,231.3,96.6z"></path> <path class="st3" d="M226.7,97.4c0.3,0.2,0.7,0.3,1,0.3c0.1,0,0.2,0,0.3,0c1-0.2,1.8-1.3,1.7-2.5c0-0.3-0.1-0.6-0.3-0.9 s-0.3-0.5-0.6-0.7c-0.2-0.1-0.4-0.2-0.6-0.3c-0.2-0.1-0.5-0.1-0.7,0c-1,0.2-1.7,1.3-1.6,2.5c0,0.3,0.1,0.6,0.2,0.9 C226.3,97,226.5,97.2,226.7,97.4z"></path> <path class="st3" d="M259,97c0-0.3-0.1-0.7-0.3-1c-0.2-0.3-0.4-0.6-0.7-0.8c-0.3-0.2-0.6-0.4-0.9-0.5c-0.3-0.1-0.7-0.1-1,0 c-0.7,0.1-1.3,0.5-1.7,1c-0.4,0.6-0.6,1.2-0.6,1.9c0,0.3,0.1,0.7,0.3,1s0.4,0.6,0.7,0.8c0.3,0.2,0.6,0.4,0.9,0.5 c0.3,0.1,0.7,0.1,1,0.1c0.7-0.1,1.4-0.5,1.8-1C258.8,98.4,259,97.7,259,97z"></path> <path class="st3" d="M251.2,96.1c-0.2-0.2-0.5-0.3-0.8-0.4c-0.3-0.1-0.6-0.1-0.9-0.1c-0.7,0.1-1.2,0.5-1.6,1 c-0.4,0.5-0.6,1.2-0.5,1.8c0,0.3,0.1,0.7,0.3,1c0.2,0.3,0.4,0.6,0.6,0.8c0.4,0.3,0.9,0.5,1.5,0.5c0.1,0,0.2,0,0.3,0 c0.7-0.1,1.3-0.5,1.7-1c0.4-0.5,0.6-1.2,0.5-1.9c0-0.3-0.1-0.7-0.3-1C251.7,96.6,251.5,96.3,251.2,96.1z"></path> <path class="st3" d="M245,97c-0.2-0.2-0.5-0.3-0.8-0.4s-0.6-0.1-0.9,0c-0.6,0.1-1.2,0.5-1.5,1c-0.4,0.5-0.5,1.1-0.5,1.8 c0,0.3,0.1,0.7,0.3,0.9c0.2,0.3,0.4,0.6,0.6,0.8c0.4,0.3,0.9,0.5,1.3,0.5c0.1,0,0.2,0,0.3,0c0.5-0.1,0.9-0.3,1.3-0.7 c0.4-0.3,0.6-0.8,0.7-1.2c0.1-0.5,0.1-1,0-1.4C245.7,97.8,245.4,97.3,245,97L245,97z"></path> <path class="st3" d="M239.4,97.8c-0.2-0.2-0.5-0.3-0.7-0.4c-0.3-0.1-0.5-0.1-0.8,0c-1.2,0.2-2,1.3-1.9,2.6c0,0.3,0.1,0.6,0.3,0.9 c0.1,0.3,0.4,0.5,0.6,0.8c0.4,0.3,0.8,0.4,1.3,0.4c0.1,0,0.2,0,0.2,0c1.2-0.1,2-1.3,1.9-2.7c0-0.3-0.1-0.7-0.3-0.9 C239.8,98.3,239.6,98,239.4,97.8z"></path> <path class="st3" d="M234.2,98.6c-0.2-0.2-0.4-0.3-0.7-0.3c-0.2-0.1-0.5-0.1-0.7,0c-1.1,0.2-1.9,1.3-1.7,2.6 c0,0.3,0.1,0.6,0.3,0.9c0.1,0.3,0.3,0.5,0.6,0.7c0.3,0.3,0.7,0.4,1.2,0.4c0.1,0,0.1,0,0.2,0c1.1-0.1,1.9-1.3,1.8-2.6 c0-0.3-0.1-0.6-0.3-0.9C234.6,99,234.4,98.8,234.2,98.6z"></path> <path class="st3" d="M229.4,99.3c-0.2-0.1-0.4-0.2-0.6-0.3c-0.2-0.1-0.5-0.1-0.7,0c-1,0.2-1.8,1.2-1.6,2.5c0,0.3,0.1,0.6,0.2,0.9 c0.1,0.3,0.3,0.5,0.6,0.7c0.3,0.2,0.7,0.4,1.1,0.4c0.1,0,0.1,0,0.2,0c1-0.1,1.8-1.2,1.7-2.5c0-0.3-0.1-0.6-0.3-0.9 C229.8,99.7,229.6,99.5,229.4,99.3z"></path> <path class="st4" d="M118.6,115.8c0.8,0,1.5-0.7,1.5-1.5c0-0.8-0.7-1.5-1.5-1.5c-0.8,0-1.5,0.7-1.5,1.5 C117.1,115.1,117.8,115.8,118.6,115.8z"></path> <path class="st4" d="M139.2,124.4c0.8,0,1.5-0.7,1.5-1.5s-0.7-1.5-1.5-1.5c-0.8,0-1.5,0.7-1.5,1.5S138.4,124.4,139.2,124.4z"></path> <path class="st4" d="M178.5,118.7c0.8,0,1.5-0.7,1.5-1.5c0-0.8-0.7-1.5-1.5-1.5c-0.8,0-1.5,0.7-1.5,1.5 C177.1,118.1,177.7,118.7,178.5,118.7z"></path> <path class="st4" d="M207,127.8c0.8,0,1.5-0.7,1.5-1.5s-0.7-1.5-1.5-1.5c-0.8,0-1.5,0.7-1.5,1.5S206.2,127.8,207,127.8z"></path> <path class="st4" d="M223.2,123.8c0.8,0,1.5-0.7,1.5-1.5s-0.7-1.5-1.5-1.5c-0.8,0-1.5,0.7-1.5,1.5S222.4,123.8,223.2,123.8z"></path> <path class="st4" d="M260.4,112.9c0.8,0,1.5-0.7,1.5-1.5c0-0.8-0.7-1.5-1.5-1.5s-1.5,0.7-1.5,1.5 C259,112.2,259.6,112.9,260.4,112.9z"></path> <path class="st4" d="M261.4,120.2c0.8,0,1.5-0.7,1.5-1.5s-0.7-1.5-1.5-1.5c-0.8,0-1.5,0.7-1.5,1.5S260.6,120.2,261.4,120.2z"></path> <path class="st5" d="M208.5,118.7c0.8,0,1.5-0.7,1.5-1.5c0-0.8-0.7-1.5-1.5-1.5c-0.8,0-1.5,0.7-1.5,1.5 C207,118.1,207.7,118.7,208.5,118.7z"></path> <path class="st5" d="M245.7,120.3c0.8,0,1.5-0.7,1.5-1.5s-0.7-1.5-1.5-1.5c-0.8,0-1.5,0.7-1.5,1.5S244.9,120.3,245.7,120.3z"></path> <path class="st5" d="M197.3,120.9c0.8,0,1.5-0.7,1.5-1.5c0-0.8-0.7-1.5-1.5-1.5c-0.8,0-1.5,0.7-1.5,1.5 C195.8,120.3,196.5,120.9,197.3,120.9z"></path> <path class="st5" d="M188.7,127.3c0.8,0,1.5-0.7,1.5-1.5c0-0.8-0.7-1.5-1.5-1.5c-0.8,0-1.5,0.7-1.5,1.5 C187.2,126.7,187.9,127.3,188.7,127.3z"></path> <path class="st5" d="M161.6,120.9c0.8,0,1.5-0.7,1.5-1.5c0-0.8-0.7-1.5-1.5-1.5c-0.8,0-1.5,0.7-1.5,1.5 C160.2,120.3,160.8,120.9,161.6,120.9z"></path> <path class="st5" d="M138.1,116.3c0.8,0,1.5-0.7,1.5-1.5s-0.7-1.5-1.5-1.5c-0.8,0-1.5,0.7-1.5,1.5S137.3,116.3,138.1,116.3z"></path> <path class="st5" d="M123.4,124.6c0.8,0,1.5-0.7,1.5-1.5c0-0.8-0.7-1.5-1.5-1.5s-1.5,0.7-1.5,1.5 C122,123.9,122.6,124.6,123.4,124.6z"></path> <path class="st4" d="M261.4,140.8c0.8,0,1.5-0.7,1.5-1.5c0-0.8-0.7-1.5-1.5-1.5c-0.8,0-1.5,0.7-1.5,1.5 C260,140.2,260.6,140.8,261.4,140.8z"></path> <path class="st4" d="M240.8,149.4c0.8,0,1.5-0.7,1.5-1.5c0-0.8-0.7-1.5-1.5-1.5s-1.5,0.7-1.5,1.5 C239.4,148.8,240,149.4,240.8,149.4z"></path> <path class="st4" d="M201.5,143.7c0.8,0,1.5-0.7,1.5-1.5c0-0.8-0.7-1.5-1.5-1.5c-0.8,0-1.5,0.7-1.5,1.5 C200,143.1,200.7,143.7,201.5,143.7z"></path> <path class="st4" d="M173,152.8c0.8,0,1.5-0.7,1.5-1.5c0-0.8-0.7-1.5-1.5-1.5c-0.8,0-1.5,0.7-1.5,1.5 C171.6,152.2,172.2,152.8,173,152.8z"></path> <path class="st4" d="M156.8,148.8c0.8,0,1.5-0.7,1.5-1.5c0-0.8-0.7-1.5-1.5-1.5c-0.8,0-1.5,0.7-1.5,1.5 C155.3,148.2,156,148.8,156.8,148.8z"></path> <path class="st4" d="M119.6,137.9c0.8,0,1.5-0.7,1.5-1.5c0-0.8-0.7-1.5-1.5-1.5s-1.5,0.7-1.5,1.5 C118.1,137.2,118.8,137.9,119.6,137.9z"></path> <path class="st4" d="M118.6,145.2c0.8,0,1.5-0.7,1.5-1.5c0-0.8-0.7-1.5-1.5-1.5c-0.8,0-1.5,0.7-1.5,1.5 C117.1,144.5,117.8,145.2,118.6,145.2z"></path> <path class="st5" d="M171.6,143.7c0.8,0,1.5-0.7,1.5-1.5c0-0.8-0.7-1.5-1.5-1.5c-0.8,0-1.5,0.7-1.5,1.5 C170.1,143.1,170.8,143.7,171.6,143.7z"></path> <path class="st5" d="M134.4,145.4c0.8,0,1.5-0.7,1.5-1.5c0-0.8-0.7-1.5-1.5-1.5c-0.8,0-1.5,0.7-1.5,1.5 C132.9,144.7,133.6,145.4,134.4,145.4z"></path> <path class="st5" d="M182.8,145.9c0.8,0,1.5-0.7,1.5-1.5c0-0.8-0.7-1.5-1.5-1.5c-0.8,0-1.5,0.7-1.5,1.5 C181.3,145.3,181.9,145.9,182.8,145.9z"></path> <path class="st5" d="M191.3,152.3c0.8,0,1.5-0.7,1.5-1.5c0-0.8-0.7-1.5-1.5-1.5c-0.8,0-1.5,0.7-1.5,1.5 C189.9,151.7,190.5,152.3,191.3,152.3z"></path> <path class="st5" d="M218.4,145.9c0.8,0,1.5-0.7,1.5-1.5c0-0.8-0.7-1.5-1.5-1.5c-0.8,0-1.5,0.7-1.5,1.5 C216.9,145.3,217.6,145.9,218.4,145.9z"></path> <path class="st5" d="M241.9,141.3c0.8,0,1.5-0.7,1.5-1.5c0-0.8-0.7-1.5-1.5-1.5c-0.8,0-1.5,0.7-1.5,1.5 C240.5,140.7,241.1,141.3,241.9,141.3z"></path> <path class="st5" d="M256.6,149.6c0.8,0,1.5-0.7,1.5-1.5c0-0.8-0.7-1.5-1.5-1.5c-0.8,0-1.5,0.7-1.5,1.5 C255.1,148.9,255.8,149.6,256.6,149.6z"></path> <path class="st2" d="M189.7,218.4c36.7,0,66.5-1.7,66.5-3.9c0-2.1-29.8-3.9-66.5-3.9s-66.5,1.7-66.5,3.9 C123.2,216.7,153,218.4,189.7,218.4z"></path> <g class="st6"> <path class="st7" d="M258,104.3l0-0.3h-0.3l-0.4-6.3H257l0.4,6.3h-6.8l-0.3-6.3h-0.3l0.3,6.3h-6.8l-0.3-6.3h-0.3l0.3,6.3h-6.8 l-0.3-6.3h-0.3l0.3,6.3h-6.8l-0.2-6.3h-0.3l0.2,6.3H222l-0.2-6.3h-0.3l0.2,6.3h-6.8l-0.1-6.3h-0.3l0.1,6.3h-6.8l-0.1-6.3h-0.3 l0.1,6.3h-6.8l-0.1-6.3h-0.3l0.1,6.3h-6.8l0-6.3h-0.3l0,6.3h-6.8l0-6.3H186l0,6.3h-6.8l0.1-6.3h-0.3l-0.1,6.3h-6.8l0.1-6.3h-0.3 l-0.1,6.3H165l0.1-6.3h-0.3l-0.1,6.3h-6.8l0.2-6.3h-0.3l-0.2,6.3h-6.8l0.2-6.3h-0.3l-0.2,6.3h-6.8l0.3-6.3h-0.3l-0.3,6.3h-6.8 l0.3-6.3h-0.3l-0.3,6.3h-6.8l0.3-6.3h-0.3l-0.3,6.3h-6.8l0.4-6.3h-0.3l-0.4,6.3h-0.3l0,0.3h0.3l-0.4,6.2h-0.3l0,0.3h0.3l-0.4,6.3 h-0.3l0,0.3h0.3l-0.4,6.4h-0.3l0,0.3h0.3l-0.4,6.5h-0.3l0,0.3h0.3l-0.4,6.6h-0.3l0,0.3h0.3l-0.4,6.6H119l0,0.3h0.3l-0.4,6.7h-0.3 l0,0.3h0.3l-0.4,6.8h-0.3l0,0.3h0.3L118,166h-0.3l0,0.3h0.3l-0.4,7h-0.3l0,0.3h0.3l-0.4,7.1h-0.3l0,0.4h0.3l-0.4,7.2h-0.3l0,0.4 h0.3l-0.5,7.2h-0.3l0,0.4h0.3l-0.4,7.3h-0.3l0,0.4h148.7l0-0.4h-0.3l-0.4-7.3h0.3l0-0.4h-0.3l-0.4-7.2h0.3l0-0.4h-0.3l-0.4-7.1 h0.3l0-0.4h-0.3l-0.4-7.1h0.3l0-0.3h-0.3l-0.4-7h0.3l0-0.3h-0.3l-0.4-6.9h0.3l0-0.3H261l-0.4-6.8h0.3l0-0.3h-0.3l-0.4-6.7h0.3 l0-0.3h-0.3l-0.4-6.7h0.3l0-0.3h-0.3l-0.4-6.6h0.3l0-0.3h-0.3l-0.4-6.5h0.3v-0.3h-0.3l-0.4-6.4h0.3l0-0.3h-0.3l-0.4-6.3h0.3 l0-0.3h-0.3l-0.4-6.2H258z M250.2,104.3l0.3,6.2h-6.8l-0.3-6.2H250.2z M178.8,152h7.1l0,6.8h-7.1L178.8,152z M178.3,158.8h-7.1 l0.1-6.8h7.1L178.3,158.8z M186.2,152h7.1l0,6.8h-7.1L186.2,152z M193.6,152h7.1l0.1,6.8h-7.1L193.6,152z M201.1,152h7.1l0.1,6.8 h-7.1L201.1,152z M201.1,151.6l-0.1-6.7h7l0.1,6.7H201.1z M200.7,151.6h-7.1l0-6.7h7L200.7,151.6z M193.3,151.6h-7.1l0-6.7h7 L193.3,151.6z M185.9,151.6h-7.1l0.1-6.7h7L185.9,151.6z M178.4,151.6h-7.1l0.1-6.7h7L178.4,151.6z M171,151.6h-7.1l0.2-6.7h7 L171,151.6z M171,152l-0.1,6.8h-7.1l0.2-6.8H171z M170.9,159.1l-0.1,6.9h-7.2l0.2-6.9H170.9z M171.2,159.1h7.1l-0.1,6.9h-7.2 L171.2,159.1z M178.7,159.1h7.1l0,6.9h-7.2L178.7,159.1z M186.2,159.1h7.1l0,6.9h-7.2L186.2,159.1z M193.7,159.1h7.1l0.1,6.9 h-7.2L193.7,159.1z M201.2,159.1h7.1l0.1,6.9h-7.2L201.2,159.1z M208.7,159.1h7.1l0.2,6.9h-7.2L208.7,159.1z M208.7,158.8 l-0.1-6.8h7.1l0.2,6.8H208.7z M208.5,151.6l-0.1-6.7h7l0.2,6.7H208.5z M208.4,144.6l-0.1-6.6h7l0.1,6.6L208.4,144.6z M208.1,144.6H201L201,138h7L208.1,144.6z M200.7,144.6h-7.1l0-6.6h7L200.7,144.6z M193.3,144.6h-7.1l0-6.6h7L193.3,144.6z M185.9,144.6h-7.1l0.1-6.6h7L185.9,144.6z M178.5,144.6h-7.1l0.1-6.6h7L178.5,144.6z M171.1,144.6h-7.1l0.1-6.6h7L171.1,144.6z M163.7,144.6h-7.1l0.2-6.6h7L163.7,144.6z M163.7,144.9l-0.2,6.7h-7.1l0.2-6.7H163.7z M163.6,152l-0.2,6.8h-7.2l0.2-6.8H163.6z M163.4,159.1l-0.2,6.9h-7.2l0.2-6.9H163.4z M163.2,166.4l-0.2,7h-7.2l0.2-7H163.2z M163.6,166.4h7.2l-0.1,7h-7.2L163.6,166.4z M171.2,166.4h7.2l-0.1,7h-7.2L171.2,166.4z M178.7,166.4h7.2l0,7h-7.2L178.7,166.4z M186.2,166.4h7.2l0,7h-7.2L186.2,166.4z M193.8,166.4h7.2l0.1,7h-7.2L193.8,166.4z M201.3,166.4h7.2l0.1,7h-7.2L201.3,166.4z M208.9,166.4h7.2l0.2,7H209L208.9,166.4z M216.4,166.4h7.2l0.2,7h-7.2L216.4,166.4z M216.4,166l-0.2-6.9h7.1l0.2,6.9H216.4z M216.3,158.8l-0.2-6.8h7.1l0.2,6.8H216.3z M216.1,151.7l-0.3-6.7h7l0.2,6.7L216.1,151.7z M215.8,144.6l-0.2-6.6h7l0.2,6.6L215.8,144.6z M215.7,137.6l-0.1-6.6h7l0.2,6.6 H215.7z M215.3,137.6h-7l-0.1-6.6h7L215.3,137.6z M208,137.6h-7l-0.1-6.6h7L208,137.6z M200.6,137.6h-7l0-6.6h7L200.6,137.6z M193.3,137.6h-7l0-6.6h7L193.3,137.6z M185.9,137.6h-7l0.1-6.6h7L185.9,137.6z M178.6,137.6h-7l0.1-6.6h7L178.6,137.6z M171.2,137.6h-7l0.1-6.6h7L171.2,137.6z M163.9,137.6h-7l0.2-6.6h7L163.9,137.6z M156.5,137.6h-7l0.2-6.6h7L156.5,137.6z M156.5,138l-0.2,6.6h-7.1l0.2-6.6H156.5z M156.3,144.9l-0.2,6.7H149l0.2-6.7H156.3z M156.1,152l-0.2,6.8h-7.2l0.2-6.8H156.1z M155.9,159.1l-0.2,6.9h-7.2l0.2-6.9H155.9z M155.7,166.4l-0.2,7h-7.3l0.2-7H155.7z M155.4,173.7l-0.2,7.1H148l0.3-7.1H155.4z M155.8,173.7h7.2l-0.2,7.1h-7.2L155.8,173.7z M163.4,173.7h7.2l-0.1,7.1h-7.2L163.4,173.7z M171,173.7h7.2l-0.1,7.1h-7.2 L171,173.7z M178.6,173.7h7.2l0,7.1h-7.2L178.6,173.7z M186.1,173.7h7.2l0,7.1h-7.2L186.1,173.7z M193.7,173.7h7.2l0.1,7.1h-7.2 L193.7,173.7z M201.3,173.7h7.2l0.1,7.1h-7.2L201.3,173.7z M208.9,173.7h7.2l0.2,7.1H209L208.9,173.7z M216.5,173.7h7.2l0.2,7.1 h-7.2L216.5,173.7z M224,173.7h7.2l0.2,7.1h-7.2L224,173.7z M224,173.3l-0.2-7h7.2l0.2,7H224z M223.8,166l-0.2-6.9h7.1l0.2,6.9 H223.8z M223.6,158.8l-0.2-6.8h7.1l0.2,6.8H223.6z M223.4,151.7l-0.2-6.7h7l0.2,6.7H223.4z M223.2,144.6L223,138h7l0.2,6.6 L223.2,144.6z M223,137.6l-0.2-6.6h7l0.2,6.6H223z M222.8,130.7l-0.2-6.5h6.9l0.2,6.5H222.8z M222.5,130.7h-7l-0.1-6.5h6.9 L222.5,130.7z M215.1,130.7h-6.9l-0.1-6.5h6.9L215.1,130.7z M207.8,130.7h-6.9l-0.1-6.5h6.9L207.8,130.7z M200.5,130.7h-6.9 l0-6.5h6.9L200.5,130.7z M193.2,130.7h-6.9l0-6.5h6.9L193.2,130.7z M185.9,130.7H179l0.1-6.5h6.9L185.9,130.7z M178.6,130.7h-6.9 l0.1-6.5h6.9L178.6,130.7z M171.3,130.7h-6.9l0.1-6.5h6.9L171.3,130.7z M164,130.7h-6.9l0.2-6.5h6.9L164,130.7z M156.7,130.7 h-6.9l0.2-6.5h6.9L156.7,130.7z M149.4,130.7h-6.9l0.3-6.5h6.9L149.4,130.7z M149.4,131.1l-0.2,6.6h-7l0.3-6.6H149.4z M149.1,138 l-0.2,6.6h-7l0.3-6.6H149.1z M148.9,144.9l-0.2,6.7h-7.1l0.3-6.7H148.9z M148.6,152l-0.2,6.8h-7.1l0.3-6.8H148.6z M148.4,159.1 l-0.2,6.9H141l0.3-6.9H148.4z M148.1,166.4l-0.2,7h-7.2l0.3-7L148.1,166.4z M147.9,173.7l-0.2,7.1h-7.3l0.3-7.1H147.9z M147.6,181.1l-0.3,7.1h-7.3l0.3-7.1H147.6z M148,181.1h7.3l-0.2,7.1h-7.3L148,181.1z M155.6,181.1h7.3l-0.2,7.1h-7.3 L155.6,181.1z M163.2,181.1h7.3l-0.1,7.1h-7.3L163.2,181.1z M170.9,181.1h7.3l-0.1,7.1h-7.3L170.9,181.1z M178.5,181.1h7.3l0,7.1 h-7.3L178.5,181.1z M186.1,181.1h7.3l0,7.1h-7.3L186.1,181.1z M193.7,181.1h7.3l0.1,7.1h-7.3L193.7,181.1z M201.4,181.1h7.3 l0.1,7.1h-7.3L201.4,181.1z M209,181.1h7.3l0.2,7.1h-7.3L209,181.1z M216.6,181.1h7.3l0.2,7.1h-7.3L216.6,181.1z M224.3,181.1 h7.3l0.3,7.1h-7.3L224.3,181.1z M231.9,181.1h7.3l0.3,7.1h-7.3L231.9,181.1z M231.9,180.7l-0.2-7.1h7.2l0.3,7.1H231.9z M231.6,173.3l-0.2-7h7.2l0.3,7H231.6z M231.4,166l-0.2-6.9h7.1l0.3,6.9H231.4z M231.1,158.8l-0.2-6.8h7.1l0.3,6.8H231.1z M230.9,151.6l-0.2-6.7h7l0.3,6.7H230.9z M230.6,144.6l-0.2-6.6h7l0.3,6.6H230.6z M230.4,137.6l-0.2-6.6h7l0.3,6.6H230.4z M230.1,130.7l-0.2-6.5h6.9l0.3,6.5L230.1,130.7z M229.9,123.9l-0.2-6.4h6.9l0.3,6.4H229.9z M229.5,123.9h-6.9l-0.2-6.4h6.9 L229.5,123.9z M222.3,123.9h-6.9l-0.1-6.4h6.9L222.3,123.9z M215,123.9h-6.9l-0.1-6.4h6.9L215,123.9z M207.7,123.9h-6.9l-0.1-6.4 h6.9L207.7,123.9z M200.5,123.9h-6.9l0-6.4h6.9L200.5,123.9z M193.2,123.9h-6.9v-6.4h6.9L193.2,123.9z M185.9,123.9H179l0.1-6.4 h6.9V123.9z M178.7,123.9h-6.9l0.1-6.4h6.9L178.7,123.9z M171.4,123.9h-6.9l0.1-6.4h6.9L171.4,123.9z M164.2,123.9h-6.9l0.2-6.4 h6.9L164.2,123.9z M156.9,123.9H150l0.2-6.4h6.9L156.9,123.9z M149.6,123.9h-6.9l0.3-6.4h6.9L149.6,123.9z M142.4,123.9h-6.9 l0.3-6.4h6.9L142.4,123.9z M142.4,124.3l-0.3,6.5h-6.9l0.3-6.5L142.4,124.3z M142.1,131.1l-0.3,6.6h-7l0.3-6.6H142.1z M141.8,138 l-0.3,6.6h-7l0.3-6.6H141.8z M141.5,144.9l-0.3,6.7h-7.1l0.3-6.7H141.5z M141.2,152l-0.3,6.8h-7.1l0.3-6.8H141.2z M140.9,159.1 l-0.3,6.9h-7.2l0.3-6.9H140.9z M140.6,166.4l-0.3,7h-7.2l0.3-7H140.6z M140.3,173.7l-0.3,7.1h-7.3l0.3-7.1L140.3,173.7z M140,181.1l-0.3,7.1h-7.3l0.3-7.1H140z M139.7,188.6l-0.3,7.2H132l0.3-7.2H139.7z M140,188.6h7.3l-0.3,7.2h-7.3L140,188.6z M147.7,188.6h7.3l-0.2,7.2h-7.3L147.7,188.6z M155.4,188.6h7.3l-0.2,7.2h-7.3L155.4,188.6z M163.1,188.6h7.3l-0.1,7.2h-7.3 L163.1,188.6z M170.7,188.6h7.3l-0.1,7.2h-7.3L170.7,188.6z M178.4,188.6h7.3l0,7.2h-7.3L178.4,188.6z M186.1,188.6h7.3l0,7.2 h-7.3L186.1,188.6z M193.8,188.6h7.3l0.1,7.2h-7.3L193.8,188.6z M201.4,188.6h7.3l0.1,7.2h-7.3L201.4,188.6z M209.1,188.6h7.3 l0.2,7.2h-7.3L209.1,188.6z M216.8,188.6h7.3l0.2,7.2H217L216.8,188.6z M224.5,188.6h7.3l0.3,7.2h-7.3L224.5,188.6z M232.1,188.6 h7.3l0.3,7.2h-7.3L232.1,188.6z M239.8,188.6h7.3l0.3,7.2h-7.3L239.8,188.6z M239.8,188.2l-0.3-7.1h7.3l0.3,7.1H239.8z M239.5,180.7l-0.3-7.1h7.2l0.3,7.1H239.5z M239.2,173.3l-0.3-7h7.2l0.3,7H239.2z M238.9,166l-0.3-6.9h7.1l0.3,6.9H238.9z M238.6,158.8l-0.3-6.8h7.1l0.3,6.8H238.6z M238.3,151.6l-0.3-6.7h7l0.3,6.7H238.3z M238,144.6l-0.3-6.6h7l0.3,6.6L238,144.6z M237.7,137.6l-0.3-6.6h7l0.3,6.6H237.7z M237.4,130.7l-0.3-6.5h6.9l0.3,6.5H237.4z M237.1,123.9l-0.3-6.4h6.9l0.3,6.4H237.1z M236.9,117.2l-0.3-6.3h6.8l0.3,6.3H236.9z M236.5,117.2h-6.9l-0.2-6.3h6.8L236.5,117.2z M229.3,117.2h-6.9l-0.2-6.3h6.8 L229.3,117.2z M222.1,117.2h-6.9l-0.1-6.3h6.8L222.1,117.2z M214.9,117.2H208l-0.1-6.3h6.8L214.9,117.2z M207.7,117.2h-6.9 l-0.1-6.3h6.8L207.7,117.2z M200.5,117.2h-7v-6.3h6.8L200.5,117.2z M193.3,117.2h-6.9v-6.3h6.9L193.3,117.2z M186.1,117.2h-6.9 l0.1-6.3h6.7L186.1,117.2z M178.8,117.2H172l0.1-6.3h6.7L178.8,117.2z M171.6,117.2h-6.9l0.1-6.3h6.8L171.6,117.2z M164.4,117.2 h-6.9l0.2-6.3h6.8L164.4,117.2z M157.2,117.2h-6.9l0.2-6.3h6.8L157.2,117.2z M150,117.2h-6.9l0.3-6.3h6.7L150,117.2z M142.8,117.2H136l0.3-6.3h6.8L142.8,117.2z M135.6,117.2h-6.9l0.3-6.3h6.6L135.6,117.2z M135.6,117.5l-0.3,6.4h-7.1l0.3-6.4 H135.6z M135.3,124.3l-0.5,6.5h-7l0.3-6.5H135.3z M135,131.1l-0.3,6.6h-7.2l0.3-6.6H135z M134.6,138l-0.3,6.6h-7.2l0.3-6.6H134.6 z M134.3,144.9l-0.3,6.7h-7.2l0.4-6.7H134.3z M133.9,152l-0.3,6.8h-7.3l0.4-6.8H133.9z M133.6,159.1l-0.3,6.9h-7.3l0.4-6.9 L133.6,159.1z M133.2,166.4l-0.3,7h-7.2l0.4-7H133.2z M132.9,173.7l-0.3,7.1h-7.4l0.4-7.1L132.9,173.7z M132.6,181.1l-0.3,7.1 h-7.5l0.4-7.1H132.6z M132,188.6l-0.3,7.2h-7.3l0.4-7.2H132z M131.6,196.2l-0.3,7.3h-7.4l0.4-7.3H131.6z M132,196.2h7.4l-0.3,7.3 h-7.4L132,196.2z M139.7,196.2h7.3l-0.3,7.3h-7.4L139.7,196.2z M147.5,196.2h7.3l-0.2,7.3h-7.4L147.5,196.2z M155.2,196.2h7.4 l-0.2,7.3H155L155.2,196.2z M162.9,196.2h7.4l-0.1,7.3h-7.4L162.9,196.2z M170.6,196.2h7.3l-0.1,7.3h-7.4L170.6,196.2z M178.4,196.2h7.3l0,7.3h-7.4L178.4,196.2z M186.1,196.2h7.3l0,7.3h-7.4L186.1,196.2z M193.8,196.2h7.4l0.1,7.3h-7.4L193.8,196.2 z M201.5,196.2h7.4l0.1,7.3h-7.4L201.5,196.2z M209.2,196.2h7.4l0.2,7.3h-7.4L209.2,196.2z M217,196.2h7.4l0.2,7.3h-7.4 L217,196.2z M224.7,196.2h7.4l0.3,7.3h-7.4L224.7,196.2z M232.4,196.2h7.3l0.3,7.3h-7.4L232.4,196.2z M240.1,196.2h7.3l0.3,7.3 h-7.4L240.1,196.2z M247.9,196.2h7.4l0.4,7.3h-7.4L247.9,196.2z M247.8,195.8l-0.3-7.2h7.3l0.4,7.2H247.8z M247.5,188.2l-0.3-7.1 h7.3l0.4,7.1H247.5z M247.1,180.7l-0.3-7.1h7.2l0.4,7.1H247.1z M246.8,173.3l-0.3-7h7.2l0.4,7H246.8z M246.4,166l-0.3-6.9h7.1 l0.4,6.9H246.4z M246.1,158.8l-0.3-6.8h7.1l0.4,6.8H246.1z M245.7,151.6l-0.3-6.7h7l0.4,6.7H245.7z M245.4,144.6l-0.3-6.6h7 l0.4,6.6L245.4,144.6z M245.1,137.6l-0.3-6.6h7l0.3,6.6H245.1z M244.7,130.7l-0.3-6.5h6.9l0.3,6.5H244.7z M244.4,123.9l-0.3-6.4 h6.9l0.3,6.4H244.4z M244.1,117.2l-0.3-6.3h6.8l0.3,6.3H244.1z M243.1,104.3l0.3,6.2h-6.8l-0.3-6.2H243.1z M236,104.3l0.3,6.2 h-6.8l-0.2-6.2H236z M228.8,104.3l0.2,6.2h-6.8l-0.2-6.2H228.8z M221.7,104.3l0.2,6.2H215l-0.1-6.2H221.7z M214.5,104.3l0.1,6.2 h-6.8l-0.1-6.2H214.5z M207.4,104.3l0.1,6.2h-6.8l-0.1-6.2H207.4z M200.3,104.3l0.1,6.2h-6.8l0-6.2H200.3z M193.1,104.3l0,6.2 h-6.8v-6.2H193.1z M186,104.3l0,6.2h-6.8l0.1-6.2H186z M178.9,104.3l-0.1,6.2H172l0.1-6.2H178.9z M171.7,104.3l-0.1,6.2h-6.8 l0.1-6.2H171.7z M164.6,104.3l-0.1,6.2h-6.8l0.2-6.2H164.6z M157.5,104.3l-0.2,6.2h-6.8l0.2-6.2H157.5z M150.3,104.3l-0.2,6.2 h-6.8l0.3-6.2H150.3z M143.2,104.3l-0.3,6.2h-6.8l0.3-6.2H143.2z M136.1,104.3l-0.3,6.2h-6.8l0.3-6.2H136.1z M122.1,104.3h6.8 l-0.3,6.2h-6.8L122.1,104.3z M121.7,110.9h6.8l-0.3,6.3h-6.9L121.7,110.9z M121.3,117.5h6.9l-0.3,6.4h-6.9L121.3,117.5z M120.9,124.3h6.9l-0.3,6.5h-7L120.9,124.3z M120.5,131.1h7l-0.3,6.6h-7L120.5,131.1z M120.1,138h7l-0.3,6.6h-7.1L120.1,138z M119.7,144.9h7l-0.4,6.7h-7.1L119.7,144.9z M119.2,152h7.1l-0.4,6.8h-7.1L119.2,152z M118.8,159.1h7.1l-0.4,6.9h-7.2 L118.8,159.1z M118.4,166.4h7.2l-0.4,7H118L118.4,166.4z M117.9,173.7h7.2l-0.4,7.1h-7.2L117.9,173.7z M117.5,181.1h7.3l-0.4,7.1 H117L117.5,181.1z M117,188.6h7.3l-0.4,7.2h-7.3L117,188.6z M116.6,196.2h7.3l-0.4,7.3h-7.4L116.6,196.2z M263.4,203.5H256 l-0.4-7.3h7.3L263.4,203.5z M262.9,195.8h-7.4l-0.4-7.2h7.3L262.9,195.8z M262.5,188.2h-7.3l-0.4-7.1h7.3L262.5,188.2z M262,180.7h-7.3l-0.4-7.1h7.2L262,180.7z M261.6,173.3h-7.2l-0.4-7h7.2L261.6,173.3z M261.1,166h-7.2l-0.4-6.9h7.1L261.1,166z M260.6,158.8h-7.1l-0.4-6.8h7.1L260.6,158.8z M260.2,151.6h-7.1l-0.4-6.7h7L260.2,151.6z M259.8,144.6h-7l-0.4-6.6h7 L259.8,144.6z M259.4,137.6h-7l-0.3-6.6h7L259.4,137.6z M259,130.7h-7l-0.3-6.5h6.9L259,130.7z M258.6,123.9h-6.9l-0.3-6.4h6.9 L258.6,123.9z M258.1,117.2h-6.9l-0.3-6.3h6.8L258.1,117.2z M257.7,110.6h-6.8l-0.3-6.2h6.8L257.7,110.6z"></path> <path class="st8" d="M258,104.3l0-0.3h-0.3l-0.4-6.3H257l0.4,6.3h-6.8l-0.3-6.3h-0.3l0.3,6.3h-6.8l-0.3-6.3h-0.3l0.3,6.3h-6.8 l-0.3-6.3h-0.3l0.3,6.3h-6.8l-0.2-6.3h-0.3l0.2,6.3H222l-0.2-6.3h-0.3l0.2,6.3h-6.8l-0.1-6.3h-0.3l0.1,6.3h-6.8l-0.1-6.3h-0.3 l0.1,6.3h-6.8l-0.1-6.3h-0.3l0.1,6.3h-6.8l0-6.3h-0.3l0,6.3h-6.8l0-6.3H186l0,6.3h-6.8l0.1-6.3h-0.3l-0.1,6.3h-6.8l0.1-6.3h-0.3 l-0.1,6.3H165l0.1-6.3h-0.3l-0.1,6.3h-6.8l0.2-6.3h-0.3l-0.2,6.3h-6.8l0.2-6.3h-0.3l-0.2,6.3h-6.8l0.3-6.3h-0.3l-0.3,6.3h-6.8 l0.3-6.3h-0.3l-0.3,6.3h-6.8l0.3-6.3h-0.3l-0.3,6.3h-6.8l0.4-6.3h-0.3l-0.4,6.3h-0.3l0,0.3h0.3l-0.4,6.2h-0.3l0,0.3h0.3l-0.4,6.3 h-0.3l0,0.3h0.3l-0.4,6.4h-0.3l0,0.3h0.3l-0.4,6.5h-0.3l0,0.3h0.3l-0.4,6.6h-0.3l0,0.3h0.3l-0.4,6.6H119l0,0.3h0.3l-0.4,6.7h-0.3 l0,0.3h0.3l-0.4,6.8h-0.3l0,0.3h0.3L118,166h-0.3l0,0.3h0.3l-0.4,7h-0.3l0,0.3h0.3l-0.4,7.1h-0.3l0,0.4h0.3l-0.4,7.2h-0.3l0,0.4 h0.3l-0.5,7.2h-0.3l0,0.4h0.3l-0.4,7.3h-0.3l0,0.4h148.7l0-0.4h-0.3l-0.4-7.3h0.3l0-0.4h-0.3l-0.4-7.2h0.3l0-0.4h-0.3l-0.4-7.1 h0.3l0-0.4h-0.3l-0.4-7.1h0.3l0-0.3h-0.3l-0.4-7h0.3l0-0.3h-0.3l-0.4-6.9h0.3l0-0.3H261l-0.4-6.8h0.3l0-0.3h-0.3l-0.4-6.7h0.3 l0-0.3h-0.3l-0.4-6.7h0.3l0-0.3h-0.3l-0.4-6.6h0.3l0-0.3h-0.3l-0.4-6.5h0.3v-0.3h-0.3l-0.4-6.4h0.3l0-0.3h-0.3l-0.4-6.3h0.3 l0-0.3h-0.3l-0.4-6.2H258z M250.2,104.3l0.3,6.2h-6.8l-0.3-6.2H250.2z M178.8,152h7.1l0,6.8h-7.1L178.8,152z M178.3,158.8h-7.1 l0.1-6.8h7.1L178.3,158.8z M186.2,152h7.1l0,6.8h-7.1L186.2,152z M193.6,152h7.1l0.1,6.8h-7.1L193.6,152z M201.1,152h7.1l0.1,6.8 h-7.1L201.1,152z M201.1,151.6l-0.1-6.7h7l0.1,6.7H201.1z M200.7,151.6h-7.1l0-6.7h7L200.7,151.6z M193.3,151.6h-7.1l0-6.7h7 L193.3,151.6z M185.9,151.6h-7.1l0.1-6.7h7L185.9,151.6z M178.4,151.6h-7.1l0.1-6.7h7L178.4,151.6z M171,151.6h-7.1l0.2-6.7h7 L171,151.6z M171,152l-0.1,6.8h-7.1l0.2-6.8H171z M170.9,159.1l-0.1,6.9h-7.2l0.2-6.9H170.9z M171.2,159.1h7.1l-0.1,6.9h-7.2 L171.2,159.1z M178.7,159.1h7.1l0,6.9h-7.2L178.7,159.1z M186.2,159.1h7.1l0,6.9h-7.2L186.2,159.1z M193.7,159.1h7.1l0.1,6.9 h-7.2L193.7,159.1z M201.2,159.1h7.1l0.1,6.9h-7.2L201.2,159.1z M208.7,159.1h7.1l0.2,6.9h-7.2L208.7,159.1z M208.7,158.8 l-0.1-6.8h7.1l0.2,6.8H208.7z M208.5,151.6l-0.1-6.7h7l0.2,6.7H208.5z M208.4,144.6l-0.1-6.6h7l0.1,6.6L208.4,144.6z M208.1,144.6H201L201,138h7L208.1,144.6z M200.7,144.6h-7.1l0-6.6h7L200.7,144.6z M193.3,144.6h-7.1l0-6.6h7L193.3,144.6z M185.9,144.6h-7.1l0.1-6.6h7L185.9,144.6z M178.5,144.6h-7.1l0.1-6.6h7L178.5,144.6z M171.1,144.6h-7.1l0.1-6.6h7L171.1,144.6z M163.7,144.6h-7.1l0.2-6.6h7L163.7,144.6z M163.7,144.9l-0.2,6.7h-7.1l0.2-6.7H163.7z M163.6,152l-0.2,6.8h-7.2l0.2-6.8H163.6z M163.4,159.1l-0.2,6.9h-7.2l0.2-6.9H163.4z M163.2,166.4l-0.2,7h-7.2l0.2-7H163.2z M163.6,166.4h7.2l-0.1,7h-7.2L163.6,166.4z M171.2,166.4h7.2l-0.1,7h-7.2L171.2,166.4z M178.7,166.4h7.2l0,7h-7.2L178.7,166.4z M186.2,166.4h7.2l0,7h-7.2L186.2,166.4z M193.8,166.4h7.2l0.1,7h-7.2L193.8,166.4z M201.3,166.4h7.2l0.1,7h-7.2L201.3,166.4z M208.9,166.4h7.2l0.2,7H209L208.9,166.4z M216.4,166.4h7.2l0.2,7h-7.2L216.4,166.4z M216.4,166l-0.2-6.9h7.1l0.2,6.9H216.4z M216.3,158.8l-0.2-6.8h7.1l0.2,6.8H216.3z M216.1,151.7l-0.3-6.7h7l0.2,6.7L216.1,151.7z M215.8,144.6l-0.2-6.6h7l0.2,6.6L215.8,144.6z M215.7,137.6l-0.1-6.6h7l0.2,6.6 H215.7z M215.3,137.6h-7l-0.1-6.6h7L215.3,137.6z M208,137.6h-7l-0.1-6.6h7L208,137.6z M200.6,137.6h-7l0-6.6h7L200.6,137.6z M193.3,137.6h-7l0-6.6h7L193.3,137.6z M185.9,137.6h-7l0.1-6.6h7L185.9,137.6z M178.6,137.6h-7l0.1-6.6h7L178.6,137.6z M171.2,137.6h-7l0.1-6.6h7L171.2,137.6z M163.9,137.6h-7l0.2-6.6h7L163.9,137.6z M156.5,137.6h-7l0.2-6.6h7L156.5,137.6z M156.5,138l-0.2,6.6h-7.1l0.2-6.6H156.5z M156.3,144.9l-0.2,6.7H149l0.2-6.7H156.3z M156.1,152l-0.2,6.8h-7.2l0.2-6.8H156.1z M155.9,159.1l-0.2,6.9h-7.2l0.2-6.9H155.9z M155.7,166.4l-0.2,7h-7.3l0.2-7H155.7z M155.4,173.7l-0.2,7.1H148l0.3-7.1H155.4z M155.8,173.7h7.2l-0.2,7.1h-7.2L155.8,173.7z M163.4,173.7h7.2l-0.1,7.1h-7.2L163.4,173.7z M171,173.7h7.2l-0.1,7.1h-7.2 L171,173.7z M178.6,173.7h7.2l0,7.1h-7.2L178.6,173.7z M186.1,173.7h7.2l0,7.1h-7.2L186.1,173.7z M193.7,173.7h7.2l0.1,7.1h-7.2 L193.7,173.7z M201.3,173.7h7.2l0.1,7.1h-7.2L201.3,173.7z M208.9,173.7h7.2l0.2,7.1H209L208.9,173.7z M216.5,173.7h7.2l0.2,7.1 h-7.2L216.5,173.7z M224,173.7h7.2l0.2,7.1h-7.2L224,173.7z M224,173.3l-0.2-7h7.2l0.2,7H224z M223.8,166l-0.2-6.9h7.1l0.2,6.9 H223.8z M223.6,158.8l-0.2-6.8h7.1l0.2,6.8H223.6z M223.4,151.7l-0.2-6.7h7l0.2,6.7H223.4z M223.2,144.6L223,138h7l0.2,6.6 L223.2,144.6z M223,137.6l-0.2-6.6h7l0.2,6.6H223z M222.8,130.7l-0.2-6.5h6.9l0.2,6.5H222.8z M222.5,130.7h-7l-0.1-6.5h6.9 L222.5,130.7z M215.1,130.7h-6.9l-0.1-6.5h6.9L215.1,130.7z M207.8,130.7h-6.9l-0.1-6.5h6.9L207.8,130.7z M200.5,130.7h-6.9 l0-6.5h6.9L200.5,130.7z M193.2,130.7h-6.9l0-6.5h6.9L193.2,130.7z M185.9,130.7H179l0.1-6.5h6.9L185.9,130.7z M178.6,130.7h-6.9 l0.1-6.5h6.9L178.6,130.7z M171.3,130.7h-6.9l0.1-6.5h6.9L171.3,130.7z M164,130.7h-6.9l0.2-6.5h6.9L164,130.7z M156.7,130.7 h-6.9l0.2-6.5h6.9L156.7,130.7z M149.4,130.7h-6.9l0.3-6.5h6.9L149.4,130.7z M149.4,131.1l-0.2,6.6h-7l0.3-6.6H149.4z M149.1,138 l-0.2,6.6h-7l0.3-6.6H149.1z M148.9,144.9l-0.2,6.7h-7.1l0.3-6.7H148.9z M148.6,152l-0.2,6.8h-7.1l0.3-6.8H148.6z M148.4,159.1 l-0.2,6.9H141l0.3-6.9H148.4z M148.1,166.4l-0.2,7h-7.2l0.3-7L148.1,166.4z M147.9,173.7l-0.2,7.1h-7.3l0.3-7.1H147.9z M147.6,181.1l-0.3,7.1h-7.3l0.3-7.1H147.6z M148,181.1h7.3l-0.2,7.1h-7.3L148,181.1z M155.6,181.1h7.3l-0.2,7.1h-7.3 L155.6,181.1z M163.2,181.1h7.3l-0.1,7.1h-7.3L163.2,181.1z M170.9,181.1h7.3l-0.1,7.1h-7.3L170.9,181.1z M178.5,181.1h7.3l0,7.1 h-7.3L178.5,181.1z M186.1,181.1h7.3l0,7.1h-7.3L186.1,181.1z M193.7,181.1h7.3l0.1,7.1h-7.3L193.7,181.1z M201.4,181.1h7.3 l0.1,7.1h-7.3L201.4,181.1z M209,181.1h7.3l0.2,7.1h-7.3L209,181.1z M216.6,181.1h7.3l0.2,7.1h-7.3L216.6,181.1z M224.3,181.1 h7.3l0.3,7.1h-7.3L224.3,181.1z M231.9,181.1h7.3l0.3,7.1h-7.3L231.9,181.1z M231.9,180.7l-0.2-7.1h7.2l0.3,7.1H231.9z M231.6,173.3l-0.2-7h7.2l0.3,7H231.6z M231.4,166l-0.2-6.9h7.1l0.3,6.9H231.4z M231.1,158.8l-0.2-6.8h7.1l0.3,6.8H231.1z M230.9,151.6l-0.2-6.7h7l0.3,6.7H230.9z M230.6,144.6l-0.2-6.6h7l0.3,6.6H230.6z M230.4,137.6l-0.2-6.6h7l0.3,6.6H230.4z M230.1,130.7l-0.2-6.5h6.9l0.3,6.5L230.1,130.7z M229.9,123.9l-0.2-6.4h6.9l0.3,6.4H229.9z M229.5,123.9h-6.9l-0.2-6.4h6.9 L229.5,123.9z M222.3,123.9h-6.9l-0.1-6.4h6.9L222.3,123.9z M215,123.9h-6.9l-0.1-6.4h6.9L215,123.9z M207.7,123.9h-6.9l-0.1-6.4 h6.9L207.7,123.9z M200.5,123.9h-6.9l0-6.4h6.9L200.5,123.9z M193.2,123.9h-6.9v-6.4h6.9L193.2,123.9z M185.9,123.9H179l0.1-6.4 h6.9V123.9z M178.7,123.9h-6.9l0.1-6.4h6.9L178.7,123.9z M171.4,123.9h-6.9l0.1-6.4h6.9L171.4,123.9z M164.2,123.9h-6.9l0.2-6.4 h6.9L164.2,123.9z M156.9,123.9H150l0.2-6.4h6.9L156.9,123.9z M149.6,123.9h-6.9l0.3-6.4h6.9L149.6,123.9z M142.4,123.9h-6.9 l0.3-6.4h6.9L142.4,123.9z M142.4,124.3l-0.3,6.5h-6.9l0.3-6.5L142.4,124.3z M142.1,131.1l-0.3,6.6h-7l0.3-6.6H142.1z M141.8,138 l-0.3,6.6h-7l0.3-6.6H141.8z M141.5,144.9l-0.3,6.7h-7.1l0.3-6.7H141.5z M141.2,152l-0.3,6.8h-7.1l0.3-6.8H141.2z M140.9,159.1 l-0.3,6.9h-7.2l0.3-6.9H140.9z M140.6,166.4l-0.3,7h-7.2l0.3-7H140.6z M140.3,173.7l-0.3,7.1h-7.3l0.3-7.1L140.3,173.7z M140,181.1l-0.3,7.1h-7.3l0.3-7.1H140z M139.7,188.6l-0.3,7.2H132l0.3-7.2H139.7z M140,188.6h7.3l-0.3,7.2h-7.3L140,188.6z M147.7,188.6h7.3l-0.2,7.2h-7.3L147.7,188.6z M155.4,188.6h7.3l-0.2,7.2h-7.3L155.4,188.6z M163.1,188.6h7.3l-0.1,7.2h-7.3 L163.1,188.6z M170.7,188.6h7.3l-0.1,7.2h-7.3L170.7,188.6z M178.4,188.6h7.3l0,7.2h-7.3L178.4,188.6z M186.1,188.6h7.3l0,7.2 h-7.3L186.1,188.6z M193.8,188.6h7.3l0.1,7.2h-7.3L193.8,188.6z M201.4,188.6h7.3l0.1,7.2h-7.3L201.4,188.6z M209.1,188.6h7.3 l0.2,7.2h-7.3L209.1,188.6z M216.8,188.6h7.3l0.2,7.2H217L216.8,188.6z M224.5,188.6h7.3l0.3,7.2h-7.3L224.5,188.6z M232.1,188.6 h7.3l0.3,7.2h-7.3L232.1,188.6z M239.8,188.6h7.3l0.3,7.2h-7.3L239.8,188.6z M239.8,188.2l-0.3-7.1h7.3l0.3,7.1H239.8z M239.5,180.7l-0.3-7.1h7.2l0.3,7.1H239.5z M239.2,173.3l-0.3-7h7.2l0.3,7H239.2z M238.9,166l-0.3-6.9h7.1l0.3,6.9H238.9z M238.6,158.8l-0.3-6.8h7.1l0.3,6.8H238.6z M238.3,151.6l-0.3-6.7h7l0.3,6.7H238.3z M238,144.6l-0.3-6.6h7l0.3,6.6L238,144.6z M237.7,137.6l-0.3-6.6h7l0.3,6.6H237.7z M237.4,130.7l-0.3-6.5h6.9l0.3,6.5H237.4z M237.1,123.9l-0.3-6.4h6.9l0.3,6.4H237.1z M236.9,117.2l-0.3-6.3h6.8l0.3,6.3H236.9z M236.5,117.2h-6.9l-0.2-6.3h6.8L236.5,117.2z M229.3,117.2h-6.9l-0.2-6.3h6.8 L229.3,117.2z M222.1,117.2h-6.9l-0.1-6.3h6.8L222.1,117.2z M214.9,117.2H208l-0.1-6.3h6.8L214.9,117.2z M207.7,117.2h-6.9 l-0.1-6.3h6.8L207.7,117.2z M200.5,117.2h-7v-6.3h6.8L200.5,117.2z M193.3,117.2h-6.9v-6.3h6.9L193.3,117.2z M186.1,117.2h-6.9 l0.1-6.3h6.7L186.1,117.2z M178.8,117.2H172l0.1-6.3h6.7L178.8,117.2z M171.6,117.2h-6.9l0.1-6.3h6.8L171.6,117.2z M164.4,117.2 h-6.9l0.2-6.3h6.8L164.4,117.2z M157.2,117.2h-6.9l0.2-6.3h6.8L157.2,117.2z M150,117.2h-6.9l0.3-6.3h6.7L150,117.2z M142.8,117.2H136l0.3-6.3h6.8L142.8,117.2z M135.6,117.2h-6.9l0.3-6.3h6.6L135.6,117.2z M135.6,117.5l-0.3,6.4h-7.1l0.3-6.4 H135.6z M135.3,124.3l-0.5,6.5h-7l0.3-6.5H135.3z M135,131.1l-0.3,6.6h-7.2l0.3-6.6H135z M134.6,138l-0.3,6.6h-7.2l0.3-6.6H134.6 z M134.3,144.9l-0.3,6.7h-7.2l0.4-6.7H134.3z M133.9,152l-0.3,6.8h-7.3l0.4-6.8H133.9z M133.6,159.1l-0.3,6.9h-7.3l0.4-6.9 L133.6,159.1z M133.2,166.4l-0.3,7h-7.2l0.4-7H133.2z M132.9,173.7l-0.3,7.1h-7.4l0.4-7.1L132.9,173.7z M132.6,181.1l-0.3,7.1 h-7.5l0.4-7.1H132.6z M132,188.6l-0.3,7.2h-7.3l0.4-7.2H132z M131.6,196.2l-0.3,7.3h-7.4l0.4-7.3H131.6z M132,196.2h7.4l-0.3,7.3 h-7.4L132,196.2z M139.7,196.2h7.3l-0.3,7.3h-7.4L139.7,196.2z M147.5,196.2h7.3l-0.2,7.3h-7.4L147.5,196.2z M155.2,196.2h7.4 l-0.2,7.3H155L155.2,196.2z M162.9,196.2h7.4l-0.1,7.3h-7.4L162.9,196.2z M170.6,196.2h7.3l-0.1,7.3h-7.4L170.6,196.2z M178.4,196.2h7.3l0,7.3h-7.4L178.4,196.2z M186.1,196.2h7.3l0,7.3h-7.4L186.1,196.2z M193.8,196.2h7.4l0.1,7.3h-7.4L193.8,196.2 z M201.5,196.2h7.4l0.1,7.3h-7.4L201.5,196.2z M209.2,196.2h7.4l0.2,7.3h-7.4L209.2,196.2z M217,196.2h7.4l0.2,7.3h-7.4 L217,196.2z M224.7,196.2h7.4l0.3,7.3h-7.4L224.7,196.2z M232.4,196.2h7.3l0.3,7.3h-7.4L232.4,196.2z M240.1,196.2h7.3l0.3,7.3 h-7.4L240.1,196.2z M247.9,196.2h7.4l0.4,7.3h-7.4L247.9,196.2z M247.8,195.8l-0.3-7.2h7.3l0.4,7.2H247.8z M247.5,188.2l-0.3-7.1 h7.3l0.4,7.1H247.5z M247.1,180.7l-0.3-7.1h7.2l0.4,7.1H247.1z M246.8,173.3l-0.3-7h7.2l0.4,7H246.8z M246.4,166l-0.3-6.9h7.1 l0.4,6.9H246.4z M246.1,158.8l-0.3-6.8h7.1l0.4,6.8H246.1z M245.7,151.6l-0.3-6.7h7l0.4,6.7H245.7z M245.4,144.6l-0.3-6.6h7 l0.4,6.6L245.4,144.6z M245.1,137.6l-0.3-6.6h7l0.3,6.6H245.1z M244.7,130.7l-0.3-6.5h6.9l0.3,6.5H244.7z M244.4,123.9l-0.3-6.4 h6.9l0.3,6.4H244.4z M244.1,117.2l-0.3-6.3h6.8l0.3,6.3H244.1z M243.1,104.3l0.3,6.2h-6.8l-0.3-6.2H243.1z M236,104.3l0.3,6.2 h-6.8l-0.2-6.2H236z M228.8,104.3l0.2,6.2h-6.8l-0.2-6.2H228.8z M221.7,104.3l0.2,6.2H215l-0.1-6.2H221.7z M214.5,104.3l0.1,6.2 h-6.8l-0.1-6.2H214.5z M207.4,104.3l0.1,6.2h-6.8l-0.1-6.2H207.4z M200.3,104.3l0.1,6.2h-6.8l0-6.2H200.3z M193.1,104.3l0,6.2 h-6.8v-6.2H193.1z M186,104.3l0,6.2h-6.8l0.1-6.2H186z M178.9,104.3l-0.1,6.2H172l0.1-6.2H178.9z M171.7,104.3l-0.1,6.2h-6.8 l0.1-6.2H171.7z M164.6,104.3l-0.1,6.2h-6.8l0.2-6.2H164.6z M157.5,104.3l-0.2,6.2h-6.8l0.2-6.2H157.5z M150.3,104.3l-0.2,6.2 h-6.8l0.3-6.2H150.3z M143.2,104.3l-0.3,6.2h-6.8l0.3-6.2H143.2z M136.1,104.3l-0.3,6.2h-6.8l0.3-6.2H136.1z M122.1,104.3h6.8 l-0.3,6.2h-6.8L122.1,104.3z M121.7,110.9h6.8l-0.3,6.3h-6.9L121.7,110.9z M121.3,117.5h6.9l-0.3,6.4h-6.9L121.3,117.5z M120.9,124.3h6.9l-0.3,6.5h-7L120.9,124.3z M120.5,131.1h7l-0.3,6.6h-7L120.5,131.1z M120.1,138h7l-0.3,6.6h-7.1L120.1,138z M119.7,144.9h7l-0.4,6.7h-7.1L119.7,144.9z M119.2,152h7.1l-0.4,6.8h-7.1L119.2,152z M118.8,159.1h7.1l-0.4,6.9h-7.2 L118.8,159.1z M118.4,166.4h7.2l-0.4,7H118L118.4,166.4z M117.9,173.7h7.2l-0.4,7.1h-7.2L117.9,173.7z M117.5,181.1h7.3l-0.4,7.1 H117L117.5,181.1z M117,188.6h7.3l-0.4,7.2h-7.3L117,188.6z M116.6,196.2h7.3l-0.4,7.3h-7.4L116.6,196.2z M263.4,203.5H256 l-0.4-7.3h7.3L263.4,203.5z M262.9,195.8h-7.4l-0.4-7.2h7.3L262.9,195.8z M262.5,188.2h-7.3l-0.4-7.1h7.3L262.5,188.2z M262,180.7h-7.3l-0.4-7.1h7.2L262,180.7z M261.6,173.3h-7.2l-0.4-7h7.2L261.6,173.3z M261.1,166h-7.2l-0.4-6.9h7.1L261.1,166z M260.6,158.8h-7.1l-0.4-6.8h7.1L260.6,158.8z M260.2,151.6h-7.1l-0.4-6.7h7L260.2,151.6z M259.8,144.6h-7l-0.4-6.6h7 L259.8,144.6z M259.4,137.6h-7l-0.3-6.6h7L259.4,137.6z M259,130.7h-7l-0.3-6.5h6.9L259,130.7z M258.6,123.9h-6.9l-0.3-6.4h6.9 L258.6,123.9z M258.1,117.2h-6.9l-0.3-6.3h6.8L258.1,117.2z M257.7,110.6h-6.8l-0.3-6.2h6.8L257.7,110.6z"></path> </g> <path class="st9" d="M266.5,207.7h-4.3l-6.4-107.6c0-0.2-0.1-0.4-0.3-0.5c-0.2-0.1-0.4-0.2-0.6-0.2H124.6c-0.2,0-0.4,0.1-0.6,0.2 c-0.2,0.1-0.3,0.3-0.3,0.5l-6.4,107.6H113l6.8-107.6c0.2-2.4,2.4-4.3,5-4.3h129.9c2.6,0,4.8,1.9,5,4.3L266.5,207.7z"></path> <path class="st10" d="M155.3,118.1l-0.1-0.2c-0.3-1-0.7-2-1.3-2.8c0-0.1-0.1-0.1-0.1-0.2c-0.7-0.9-1.6-1.6-2.7-2.1l-0.2-0.1 c-0.8-0.4-1.7-0.6-2.5-0.7h-0.2c-1.4-0.1-2.8,0.2-4,0.8l-0.1,0.1c-0.7,0.4-1.3,0.8-1.8,1.4c-0.5,0.5-0.9,1.1-1.3,1.7 c0,0-0.1,0.1-0.1,0.1c-0.6,1-0.9,2.2-0.9,3.4c0,0.1,0,0.3,0,0.4c0,0.1,0,0.2,0,0.3c0,0.1,0,0.2,0,0.2c0.1,1.6,0.7,3,1.7,4.3 c0,0,0.1,0.1,0.1,0.1c0,0,0,0.1,0.1,0.1c0.1,0.1,0.2,0.2,0.3,0.3c0.9,0.9,2,1.6,3.2,1.9l0.2,0.1c1.4,0.4,2.9,0.4,4.3,0 c0.1,0,0.1,0,0.2-0.1c1.2-0.4,2.3-1,3.2-1.9c0.2-0.2,0.4-0.5,0.6-0.7l0.1-0.2c0.5-0.6,0.8-1.3,1.1-2c0.1-0.2,0.1-0.3,0.2-0.5 l0.1-0.3C155.5,120.5,155.6,119.3,155.3,118.1z"></path> <path class="st11" d="M140.2,120c0,0.1,0,0.2,0,0.3l0-0.1L140.2,120z"></path> <path class="st10" d="M140.2,120l0.1,0.2l0,0.1l0-0.1L140.2,120z"></path> <path class="st10" d="M146.7,125.4c-0.3-0.8-0.7-1.5-1-2.3c-0.8-0.1-1.6-0.2-2.4-0.3c-0.2,0.3-0.4,0.7-0.7,1 c-0.2,0.3-0.4,0.6-0.6,1c0,0,0,0.1,0,0.1c0.1,0.1,0.2,0.2,0.3,0.3c0.9,0.9,1.9,1.5,3.1,1.9l0.7-0.9L146.7,125.4z"></path> <path class="st10" d="M145.7,123.1c0.3,0.8,0.7,1.6,1,2.3C146.3,124.6,146,123.9,145.7,123.1z"></path> <path class="st10" d="M145.5,127l0.7-0.9L145.5,127z"></path> <path class="st10" d="M142,124.7C142,124.8,142.1,124.8,142,124.7C142.1,124.8,142.1,124.8,142,124.7L142,124.7z"></path> <path class="st11" d="M143.2,122.7c-0.3-0.8-0.6-1.5-0.9-2.2l-0.4,0l-0.2,0l-0.8-0.1l-0.2,0l-0.4,0l-0.1,0.2 c0.1,1.5,0.7,3,1.7,4.2h0C142.3,124,142.8,123.4,143.2,122.7z"></path> <path class="st10" d="M142.7,123.8c0.2-0.3,0.4-0.6,0.7-1h0c0,0,0,0,0,0c0,0,0,0,0,0c-0.3-0.8-0.6-1.5-0.9-2.3 c0.3,0.7,0.5,1.5,0.9,2.2c-0.5,0.7-0.9,1.3-1.3,1.9h0c0,0,0.1,0.1,0.1,0.1l0,0C142.2,124.4,142.4,124.1,142.7,123.8z"></path> <path class="st10" d="M142,120.4l-0.2,0L142,120.4z"></path> <path class="st10" d="M140.9,120.3l-0.2,0L140.9,120.3z"></path> <path class="st10" d="M140.3,120.2C140.3,120.2,140.3,120.2,140.3,120.2C140.3,120.2,140.3,120.2,140.3,120.2 C140.3,120.2,140.3,120.2,140.3,120.2L140.3,120.2c-0.1,0.1-0.1,0.1-0.1,0.2L140.3,120.2L140.3,120.2z"></path> <path class="st10" d="M140.4,120.1c0.6,0.1,1.3,0.1,2,0.2c0.2-0.2,0.3-0.5,0.5-0.7c0.2-0.2,0.3-0.4,0.4-0.6 c0.1-0.2,0.3-0.4,0.5-0.7c-0.3-0.7-0.5-1.4-0.7-2.1c-0.7,0-1.4,0-2-0.1c-0.6,1-0.9,2.2-0.9,3.3L140.4,120.1z"></path> <path class="st10" d="M140.3,120.2C140.3,120.2,140.3,120.2,140.3,120.2C140.3,120.2,140.3,120.2,140.3,120.2L140.3,120.2l0.5,0.1 l0.2,0l0.8,0.1l0.2,0l0.4,0v0c0,0,0-0.1,0-0.1l0.5-0.7c-0.2,0.2-0.3,0.5-0.5,0.7c-0.7-0.1-1.4-0.1-2-0.2l-0.2-0.6 c0,0.1,0,0.3,0,0.4L140.3,120.2C140.2,120.2,140.2,120.2,140.3,120.2z"></path> <path class="st10" d="M143.1,116.3c0.2,0.7,0.5,1.3,0.7,2.1c-0.2,0.2-0.3,0.4-0.5,0.7l0.5-0.7 C143.5,117.6,143.3,116.9,143.1,116.3z"></path> <path class="st11" d="M147.3,121c-0.5,0.7-1,1.4-1.5,2c0.3,0.8,0.7,1.6,1,2.3c0.8,0.1,1.7,0.2,2.5,0.3c0.5-0.7,1-1.3,1.5-2l-1-2.4 L147.3,121z"></path> <path class="st10" d="M150.9,123.6c-0.3-0.8-0.7-1.6-1-2.4L150.9,123.6z"></path> <path class="st10" d="M145.8,123.1C145.8,123.1,145.8,123.1,145.8,123.1C145.8,123.1,145.7,123.1,145.8,123.1l-0.1,0 c0.3,0.8,0.7,1.6,1,2.3l0,0c0,0,0,0,0,0c0,0,0,0,0,0h0C146.5,124.6,146.1,123.8,145.8,123.1L145.8,123.1z"></path> <path class="st11" d="M143.9,118.4c-0.5,0.7-1,1.3-1.4,2c0.3,0.7,0.6,1.5,0.9,2.2c0.8,0.1,1.5,0.2,2.4,0.3c0.5-0.7,1-1.4,1.5-2 c-0.3-0.8-0.6-1.5-0.9-2.3C145.4,118.5,144.7,118.5,143.9,118.4z"></path> <path class="st10" d="M145.7,123.1C145.7,123.1,145.7,123.1,145.7,123.1C145.8,123.1,145.8,123.1,145.7,123.1L145.7,123.1 c0.6-0.8,1.1-1.4,1.6-2.1h0c0,0,0,0,0,0c0,0,0,0,0,0c-0.3-0.8-0.6-1.6-1-2.3c0.3,0.7,0.6,1.5,0.9,2.3c-0.5,0.7-1,1.4-1.5,2 c-0.8-0.1-1.6-0.2-2.4-0.3c-0.3-0.8-0.6-1.5-0.9-2.2c0.5-0.7,0.9-1.3,1.4-2h0c0,0,0,0,0,0c0,0,0,0,0,0c0,0,0,0,0,0l-0.5,0.7 c-0.1,0.2-0.3,0.4-0.4,0.6l-0.5,0.7c0,0,0,0.1,0,0.1v0c0.3,0.7,0.6,1.5,0.9,2.3c0,0,0,0,0,0c0,0,0,0,0,0h0 C144.1,122.9,144.9,123,145.7,123.1L145.7,123.1L145.7,123.1z"></path> <path class="st11" d="M143.1,116.1c0.2-0.2,0.3-0.4,0.5-0.7c0.2-0.2,0.3-0.4,0.5-0.6c0.2-0.2,0.3-0.4,0.5-0.6c0,0,0-0.1,0-0.1 c-0.1-0.2-0.2-0.5-0.3-0.7c0,0,0-0.1,0-0.1c0,0-0.1-0.2-0.1-0.3c-1.3,0.7-2.3,1.7-3,2.9C141.8,116.1,142.4,116.1,143.1,116.1z"></path> <path class="st10" d="M143.1,116.3L143.1,116.3C143.1,116.2,143.1,116.2,143.1,116.3c0-0.1,0-0.1,0-0.1c0.2-0.2,0.4-0.5,0.6-0.7 c-0.2,0.2-0.3,0.4-0.5,0.7c-0.7,0-1.3,0-1.9,0c0,0-0.1,0.1-0.1,0.1C141.7,116.2,142.4,116.3,143.1,116.3L143.1,116.3z"></path> <path class="st10" d="M144.6,114.3C144.6,114.3,144.6,114.3,144.6,114.3c-0.1,0.3-0.3,0.5-0.5,0.7 C144.3,114.7,144.4,114.5,144.6,114.3L144.6,114.3z"></path> <path class="st10" d="M144.3,113.5c0,0,0-0.1,0-0.1C144.3,113.5,144.3,113.5,144.3,113.5z"></path> <path class="st10" d="M147.9,116.6c-0.5,0.6-1,1.3-1.5,1.9c0.3,0.7,0.6,1.5,0.9,2.3c0.8,0.1,1.7,0.2,2.5,0.3c0.5-0.7,1-1.4,1.5-2 c-0.3-0.8-0.7-1.5-1-2.2C149.6,116.8,148.7,116.7,147.9,116.6z"></path> <path class="st10" d="M150.4,116.9c0.3,0.7,0.7,1.5,1,2.2C151,118.3,150.7,117.6,150.4,116.9z"></path> <path class="st10" d="M146.4,118.6L146.4,118.6C146.4,118.6,146.4,118.6,146.4,118.6C146.3,118.6,146.3,118.6,146.4,118.6 l-0.1,0.1c0.3,0.8,0.6,1.5,1,2.3c0,0,0,0,0,0c0,0,0,0,0,0h0l2.5,0.3l0,0c0,0,0,0,0,0c0,0,0,0,0,0l0,0c-0.8-0.1-1.7-0.2-2.5-0.3 C147,120.1,146.7,119.3,146.4,118.6z"></path> <path class="st11" d="M143.2,116.2c0.2,0.7,0.5,1.3,0.7,2.1c0.8,0.1,1.5,0.1,2.3,0.2c0.5-0.7,1-1.3,1.5-1.9l-0.9-2 c-0.8-0.1-1.5-0.1-2.3-0.1C144.2,115,143.7,115.6,143.2,116.2z"></path> <path class="st10" d="M143.8,118.4C143.8,118.4,143.8,118.4,143.8,118.4C143.8,118.4,143.9,118.4,143.8,118.4L143.8,118.4 c0.9,0.1,1.6,0.2,2.4,0.3h0.1c0,0,0,0,0,0c0,0,0,0,0,0l0,0c0.5-0.7,1-1.3,1.5-1.9h0c0,0,0,0,0,0c0,0,0,0,0,0 c-0.3-0.7-0.6-1.4-0.9-2.1l0.9,2c-0.5,0.6-1,1.3-1.5,1.9c-0.8-0.1-1.6-0.1-2.3-0.2c-0.3-0.7-0.5-1.4-0.7-2.1 c0.5-0.6,1-1.2,1.5-1.8h0c0,0,0,0,0,0c0,0,0,0,0,0v0c-0.2,0.2-0.3,0.4-0.5,0.6c-0.1,0.2-0.3,0.4-0.5,0.6c-0.2,0.2-0.4,0.5-0.6,0.7 c0,0,0,0,0,0c0,0,0,0,0,0v0C143.3,116.9,143.5,117.6,143.8,118.4C143.8,118.3,143.8,118.4,143.8,118.4z"></path> <path class="st10" d="M147,114.4c0.5-0.6,1-1.1,1.5-1.6l-0.3-0.5c-1.4-0.1-2.7,0.2-3.9,0.8c0.1,0.4,0.3,0.8,0.4,1.2 C145.5,114.3,146.2,114.3,147,114.4z"></path> <path class="st10" d="M144.3,113.5c0.1,0.2,0.2,0.5,0.3,0.7l0,0.1v0c0,0,0,0,0,0c0,0,0,0,0,0h0c0.7,0,1.5,0.1,2.3,0.1v0 c0,0,0,0,0,0c0,0,0,0,0,0c0.5-0.6,1-1.1,1.5-1.6c-0.1-0.2-0.2-0.3-0.3-0.5l0.3,0.5c-0.5,0.5-1,1-1.5,1.6c-0.8-0.1-1.5-0.1-2.2-0.1 c-0.2-0.4-0.3-0.8-0.4-1.2l-0.1,0.1c0,0.1,0.1,0.2,0.1,0.3C144.3,113.5,144.3,113.5,144.3,113.5z"></path> <path class="st11" d="M150.5,116.8c0.3,0.7,0.7,1.5,1,2.2c0.8,0.1,1.7,0.2,2.5,0.3l0.3-0.4l0.6-0.8l0.1-0.2 c-0.2-1-0.7-1.9-1.3-2.7c-0.6-0.1-1.2-0.2-1.8-0.2C151.5,115.6,151,116.2,150.5,116.8z"></path> <path class="st10" d="M154.4,118.9l0.6-0.8L154.4,118.9z"></path> <path class="st10" d="M150.5,116.8C150.5,116.8,150.5,116.9,150.5,116.8C150.5,116.9,150.5,116.9,150.5,116.8l-0.1,0 c0.3,0.7,0.7,1.5,1,2.2l0,0c0,0,0,0,0,0c0,0,0,0,0,0h0C151.2,118.3,150.9,117.5,150.5,116.8L150.5,116.8z"></path> <path class="st11" d="M147.9,116.5c0.8,0.1,1.6,0.2,2.5,0.3c0.5-0.6,1-1.2,1.5-1.8c-0.3-0.7-0.7-1.3-1-1.9 c-0.8-0.1-1.6-0.1-2.3-0.2c-0.5,0.5-1,1-1.5,1.6L147.9,116.5z"></path> <path class="st10" d="M151.9,114.9c-0.5,0.6-1,1.2-1.5,1.8c-0.8-0.1-1.6-0.2-2.5-0.3l-0.9-2c0.5-0.6,1-1.1,1.5-1.6h0c0,0,0,0,0,0 c0,0,0,0,0,0l0,0c-0.5,0.5-1,1.1-1.5,1.6c0,0,0,0,0,0s0,0,0,0v0c0.3,0.6,0.6,1.3,0.9,2.1c0,0,0,0,0,0c0,0,0,0,0,0h0 c0.8,0.1,1.6,0.2,2.5,0.2h0c0,0,0,0,0,0c0,0,0,0,0,0l0,0c0.5-0.6,1-1.2,1.5-1.8L151.9,114.9C151.9,115,151.9,115,151.9,114.9 C151.9,115,151.9,115,151.9,114.9c-0.3-0.6-0.7-1.3-1-1.9C151.2,113.6,151.5,114.3,151.9,114.9z"></path> <path class="st10" d="M153.1,114.5c-0.6-0.6-1.3-1.1-2.1-1.5c0.3,0.6,0.6,1.2,1,1.9c0.5,0.1,1.1,0.1,1.6,0.2 C153.5,114.9,153.3,114.7,153.1,114.5z"></path> <path class="st10" d="M152,114.9c-0.3-0.7-0.7-1.3-1-1.9l0,0c0,0,0,0,0,0c0,0,0,0,0,0h-0.1c0.3,0.6,0.7,1.2,1,1.9c0,0,0,0,0,0 c0,0,0,0,0,0h0c0.6,0.1,1.2,0.2,1.8,0.2c0-0.1-0.1-0.1-0.1-0.2C153.1,115,152.6,114.9,152,114.9z"></path> <path class="st11" d="M150.8,112.9c-0.8-0.4-1.6-0.6-2.5-0.6c0.1,0.1,0.2,0.3,0.2,0.5C149.3,112.8,150.1,112.8,150.8,112.9z"></path> <path class="st10" d="M148.5,112.8C148.5,112.8,148.5,112.8,148.5,112.8C148.5,112.8,148.5,112.8,148.5,112.8l0.1,0 c0.8,0.1,1.5,0.1,2.3,0.2h0.1c0,0,0,0,0,0c0,0,0,0,0,0l0,0l-0.2-0.1c-0.8-0.1-1.5-0.1-2.2-0.2c-0.1-0.2-0.2-0.3-0.2-0.5h-0.2 C148.3,112.4,148.4,112.6,148.5,112.8L148.5,112.8z"></path> <path class="st10" d="M155.1,121.6c0.3-1.1,0.3-2.3,0-3.4c-0.3,0.4-0.6,0.9-0.9,1.3C154.5,120.2,154.8,120.9,155.1,121.6z"></path> <path class="st10" d="M154.4,118.9l-0.3,0.4h0c0,0,0,0,0,0c0,0,0,0,0,0c0.3,0.7,0.6,1.4,0.9,2.2c-0.3-0.7-0.6-1.4-0.9-2.1 c0.3-0.4,0.6-0.9,1-1.3L155,118l-0.1,0.2L154.4,118.9z"></path> <path class="st11" d="M154,119.5c-0.8-0.1-1.7-0.2-2.5-0.3l-1.5,2l1,2.4l2.5,0.3c0.5-0.7,1-1.4,1.5-2 C154.7,121.1,154.4,120.3,154,119.5z"></path> <path class="st10" d="M154.1,119.4C154.1,119.4,154.1,119.4,154.1,119.4C154.1,119.4,154.1,119.4,154.1,119.4l-0.1,0 c-0.8-0.1-1.7-0.2-2.5-0.3h0c0,0,0,0,0,0c0,0,0,0,0,0l0,0c-0.5,0.7-1,1.3-1.5,2l0,0c0,0,0,0,0,0c0,0,0,0,0,0l0,0 c0.3,0.8,0.7,1.6,1,2.4c0,0,0,0,0,0c0,0,0,0,0.1,0h0l-1-2.4l1.5-2c0.8,0.1,1.7,0.2,2.5,0.3c0.3,0.8,0.7,1.5,1,2.3 c0-0.1,0-0.2,0.1-0.3C154.8,120.9,154.5,120.1,154.1,119.4z"></path> <path class="st11" d="M153.7,124l0.1,0.3c0.5-0.6,0.8-1.3,1.1-2C154.5,122.9,154.1,123.4,153.7,124z"></path> <path class="st10" d="M153.6,123.9C153.6,123.9,153.6,123.9,153.6,123.9C153.6,123.9,153.6,123.9,153.6,123.9l0.2,0.4L153.6,123.9 c0.5-0.5,0.9-1,1.3-1.5c0.1-0.2,0.1-0.3,0.2-0.5C154.5,122.5,154,123.2,153.6,123.9L153.6,123.9z"></path> <path class="st10" d="M153.5,124l-2.5-0.3c-0.5,0.7-1,1.4-1.5,2v0c0.2,0.4,0.4,0.8,0.5,1.2c1.5-0.4,2.7-1.3,3.7-2.5 C153.6,124.3,153.6,124.2,153.5,124z"></path> <path class="st10" d="M153.6,123.9C153.6,123.9,153.6,123.9,153.6,123.9C153.6,123.9,153.6,123.9,153.6,123.9l-0.1,0l-2.5-0.3h0 c0,0-0.1,0-0.1,0c0,0,0,0,0,0c-0.5,0.7-1,1.4-1.5,2h0c0,0,0,0,0,0c0,0,0,0,0,0l0,0c0.5-0.7,1-1.3,1.5-2l2.5,0.3 c0.1,0.1,0.1,0.3,0.2,0.4c0-0.1,0.1-0.1,0.1-0.2L153.6,123.9z"></path> <path class="st10" d="M150,127c-0.2-0.4-0.4-0.8-0.5-1.2C149.6,126.2,149.8,126.6,150,127z"></path> <path class="st11" d="M149.3,125.8c-0.8-0.1-1.7-0.2-2.5-0.3l-1.1,1.6c1.4,0.4,2.8,0.4,4.2,0L149.3,125.8z"></path> <path class="st10" d="M149.5,125.8L149.5,125.8C149.4,125.7,149.4,125.7,149.5,125.8C149.4,125.7,149.4,125.7,149.5,125.8 l-0.1-0.1c-0.8-0.1-1.7-0.2-2.5-0.3h0c0,0,0,0,0,0c0,0,0,0,0,0l0,0l-0.5,0.7l-0.6,0.9l0.2,0l1.1-1.6c0.8,0.1,1.7,0.2,2.5,0.3 l0.6,1.2l0.2,0C149.8,126.6,149.6,126.2,149.5,125.8L149.5,125.8z"></path> <path class="st10" d="M182.5,144.6c-0.5,0.2-1,0.3-1.5,0.4c-0.5,0.1-1,0.2-1.5,0.3c-1,0.2-2,0.4-3,0.6c-1,0.2-2.1,0.3-3.2,0.3 c-1.2,0.1-2.4,0-3.6-0.3c-0.6-0.1-1.1-0.3-1.6-0.6c-0.5-0.2-0.9-0.4-1.4-0.7c-0.9-0.5-1.8-0.9-2.6-1.4c-1.7-1-3.4-2-5-3 c-0.3-0.2-0.5-0.4-0.5-0.7c-0.1-0.3,0-0.6,0.1-0.9c0.1-0.3,0.4-0.5,0.7-0.6c0.3-0.1,0.6-0.1,0.9,0c1.8,0.7,3.6,1.4,5.4,2 c0.9,0.3,1.8,0.6,2.7,0.9c0.4,0.1,0.9,0.2,1.3,0.3c0.4,0.1,0.8,0.2,1.2,0.2c0.3,0,0.7,0.1,1,0c0.4,0,0.8,0,1.2-0.1 c0.9-0.1,1.7-0.3,2.5-0.5c0.9-0.2,1.7-0.5,2.6-0.7c0.4-0.1,0.9-0.3,1.3-0.4s0.9-0.3,1.2-0.5c0.3-0.1,0.7-0.2,1.1-0.2 c0.4,0,0.7,0.1,1.1,0.2c0.3,0.1,0.7,0.4,0.9,0.6c0.3,0.3,0.5,0.6,0.6,0.9c0.1,0.3,0.2,0.7,0.2,1.1c0,0.4-0.1,0.7-0.2,1.1 c-0.1,0.3-0.4,0.7-0.6,0.9c-0.3,0.3-0.6,0.5-0.9,0.6C182.7,144.5,182.7,144.5,182.5,144.6L182.5,144.6z"></path> <path class="st9" d="M159.1,139.7c0,0.1-0.1,0.2-0.2,0.3s-0.2,0.2-0.3,0.2c-0.3,0.1-0.6,0.2-1,0.2c-0.6-0.1-1.8-0.8-2.3-1.2 l-1-0.6c-0.4-0.3-0.8-0.8-0.9-1.3c-0.1-0.4-0.1-0.8,0-1.1l0.4-0.9c0-0.1,0.1-0.2,0.2-0.3c0.1-0.1,0.2-0.1,0.3-0.2 c0.1,0,0.2,0,0.3,0c0.1,0,0.2,0.1,0.3,0.1l1.5,0.7c0,0,1.5,0.4,2.4,1.4c0.2,0.2,0.3,0.5,0.4,0.8c0.1,0.3,0.1,0.6,0,0.9 L159.1,139.7z"></path> <path class="st9" d="M158.1,137.9c-0.7-0.4,0.3-0.6-1.4-2.4c-0.6-0.6-0.5-1.4,0.1-1c1.3,0.9,4.2,2,2.9,4.2 C158.8,140.1,158.1,137.9,158.1,137.9z"></path> <path class="st9" d="M159.6,137.5c0,0,1.6,0.3,2.1,0.8c-0.2,1.2-1.2,2.5-1.6,2.8c-0.7-0.3-1.3-0.7-1.8-1.2 C158.2,139.9,158.9,137.5,159.6,137.5z"></path> <path class="st10" d="M187.8,134.5c0.2-0.1,0.5-0.2,0.8-0.2c0.3,0,0.6,0,0.8,0.1c0.3,0.1,0.5,0.2,0.7,0.4c0.2,0.2,0.4,0.4,0.5,0.7 c1,2,2,4,3.2,5.9c1.1,1.7,2.2,3.4,3.2,4.8c2.4,3.4,4.4,5.8,5,6.7l-11.6,8c-6.9-6.7-10.2-12.5-11.7-15.8c-0.4-0.9-0.5-1.9-0.3-2.8 c0.2-1,0.7-1.8,1.4-2.5l0.1-0.1c0.2-0.2,0.3-0.3,0.5-0.5c1.6-1.2,3.2-2.4,4.9-3.4c0.3-0.2,0.7-0.4,1-0.6 C187,134.9,187.4,134.7,187.8,134.5z"></path> <path class="st12" d="M173.8,130.1c-0.6-0.2-0.8-0.8-0.9-2c-0.2-2.6,4.8-3.2,5.8-2.5c1.4-0.8,3.2,0.3,3.7,1.6 c0.7,1.8,0.7,5.1-0.6,5.5C180.8,133,173.8,130.1,173.8,130.1z"></path> <path class="st12" d="M178.5,125.9c0.1-0.4,0.3-0.7,0.7-1c0.3-0.2,0.8-0.3,1.1-0.2C179.6,124.9,179,125.3,178.5,125.9z"></path> <path class="st13" d="M181.4,130.9c0.7,1.7,2.3,4.3,3.9,5.2c0.1,0.1,0.2,0.1,0.2,0.2c0,0.1,0.1,0.2,0,0.3 c-0.3,1.2-1.1,2.2-1.9,2.7c-1.2,0.6-1.8,0-1.8-0.8c0-0.4-0.1-0.6-0.3-1.3c-0.3-0.7-0.7-1.2-1.3-1.7L181.4,130.9z"></path> <path class="st14" d="M180.9,132.8l-0.7,2.7c0.3,0.2,0.5,0.5,0.8,0.8c0.6-0.6,1-1.9,0.6-2.7C181.4,133.3,181.2,133.1,180.9,132.8z "></path> <path class="st13" d="M180.3,128.3c1.3,2.3,2.1,3.6,1.7,5.4c-0.6,2.8-3.9,3.5-5.9,1.6c-1.7-1.7-3.5-5.1-1.9-7.4 c0.3-0.5,0.8-0.9,1.4-1.2c0.5-0.3,1.2-0.4,1.8-0.3c0.6,0,1.2,0.2,1.7,0.6C179.6,127.3,180,127.8,180.3,128.3z"></path> <path class="st12" d="M178.3,127.5c-0.8,0.8-4.6,3-4.9,1.9c-0.4-1.1,0.3-2.6,2.1-3c1.7-0.4,4.6-0.9,5.3,0.4 c0.7,1.3,0.7,3.5,0.7,3.5S178.6,130,178.3,127.5z"></path> <path class="st13" d="M182.5,129.6c0.1,0.6-0.1,1.2-0.4,1.7c-0.5,0.7-1.2,0.3-1.5-0.4c-0.3-0.7-0.3-1.8,0.4-2.2 c0.2-0.1,0.3-0.1,0.5-0.1c0.2,0,0.3,0,0.5,0.1c0.2,0.1,0.3,0.2,0.4,0.4C182.4,129.3,182.5,129.5,182.5,129.6z"></path> <path class="st10" d="M221.3,206.1l2.3-1.9c0,0-7.6-14.1-12.6-20.7c-1.5-2-2.5-5-4.2-8.4c-2.1-4.3-4.2-9.1-5.8-12.8 c-1.7-4-2.9-6.8-2.9-6.8l-7.6,5.2c0,0,9.9,20.1,14.5,26.7C209.7,194.4,221.3,206.1,221.3,206.1z"></path> <path class="st9" d="M225.8,203.3l-3-1.3c-0.1-0.1-0.3-0.1-0.4,0c-0.1,0-0.2,0.1-0.3,0.3l-1.4,2.8c-0.1,0.1-0.1,0.3-0.1,0.5 c0.3,1.2,0.7,4.1,0.2,6.3c-0.1,0.5,1.1,1,1.6-0.1c0.5-1.1,1.6-3.7,2-4.6c0.6-1.4,1.1-2.1,1.6-3.2c0-0.1,0-0.1,0-0.2 c0-0.1,0-0.1,0-0.2c0-0.1-0.1-0.1-0.1-0.2C225.9,203.4,225.8,203.3,225.8,203.3z"></path> <path class="st10" d="M194.6,158c0,0,12.5,15.3,19.1,19.3c7.3,4.3,26.9,13.9,26.9,13.9l-0.2-3.2c0,0-11.6-11.6-20.7-15.5 c-7.6-5.4-17.5-19.6-17.5-19.6L194.6,158z"></path> <path class="st9" d="M243.6,190.8c-0.1-1.5,0-2.4-0.1-3.6c0-0.1,0-0.1-0.1-0.2c0-0.1-0.1-0.1-0.1-0.2c-0.1,0-0.1-0.1-0.2-0.1 c-0.1,0-0.1,0-0.2,0l-3.2,0c-0.1,0-0.1,0-0.2,0c-0.1,0-0.1,0.1-0.2,0.1c-0.1,0.1-0.1,0.1-0.1,0.2c0,0.1,0,0.1,0,0.2v2.9 c0,0.2,0.1,0.3,0.2,0.5c1.2,1.2,2.6,3.7,3.2,6c0.1,0.5,1.5,0.4,1.4-0.8C243.8,194.6,243.6,191.7,243.6,190.8z"></path> <path class="st9" d="M201.8,151.7c0,0-6.1,3.9-12.2,8.6c0.2,0.4,0.5,0.8,0.8,1.1c0,0,1.4,4,5.3,10.2c4.2-1.3,10.2-5.3,10.2-5.3 L201.8,151.7z"></path> <path class="st14" d="M206.8,175.2c-2.1-4.3-4.2-9.1-5.8-12.8l-2-1C198.9,164.9,203.6,171.9,206.8,175.2z"></path> <path class="st9" d="M201.8,151.7l0.6,1.1c0,0,6,6.3,8.2,9.9c-1.2,1.7-5.2,5.3-7.3,5.7c0,0-6.6-5.5-9.2-10.8 C194.8,156.9,201.8,151.7,201.8,151.7z"></path> <path class="st15" d="M203.8,155.8c-0.5-0.6-1-1.2-1.4-1.7c-0.3-0.4-0.6-0.7-0.6-0.8c-0.2-0.4-0.5-0.7-0.8-1l0,0 c-0.3,0.2-0.7,0.5-1.2,0.8l0.1,0.1c0.3,0.2,0.6,0.5,0.8,0.8c0.2,0.3,0.8,1.1,2.1,2.7l0.7,0.9c1.9,2.4,4.6,5.7,5.4,7.2 c0.4-0.3,0.7-0.7,1-1C208.7,161.8,205.9,158.4,203.8,155.8z"></path> <path class="st12" d="M176.9,130.6c0.1,0.2,0.1,0.4,0,0.5c-0.1,0.1-0.3,0-0.4-0.2c-0.1-0.2-0.1-0.4,0-0.5 C176.6,130.3,176.8,130.4,176.9,130.6z"></path> <path class="st12" d="M177.9,133.8c0.1,0.2,0.1,0.4,0,0.5c-0.1,0.1-0.3,0-0.4-0.2c-0.1-0.2-0.1-0.4,0-0.5 C177.6,133.6,177.8,133.6,177.9,133.8z"></path> <path class="st12" d="M174.8,132.3c0.1,0.2,0.1,0.4,0,0.5c-0.1,0.1-0.3,0-0.4-0.2c-0.1-0.2-0.1-0.4,0-0.5 C174.5,132,174.7,132.1,174.8,132.3z"></path> <path class="st16" d="M175.5,131.5c0.2,0.7,0.3,1.4,0.3,2.1c0.2,0,0.4-0.1,0.5-0.1c0.2-0.1,0.3-0.2,0.4-0.3L175.5,131.5z"></path> <path class="st12" d="M177.5,129.8C177.5,129.8,177.5,129.8,177.5,129.8c-0.1,0-0.1,0-0.1,0c-0.2,0-0.3,0-0.5,0 c-0.2,0-0.3,0.1-0.4,0.2c0,0,0,0,0,0c0,0,0,0,0,0c0,0,0,0,0,0c0,0,0,0,0,0c0,0,0,0,0,0s0,0,0,0c0,0,0,0,0,0c0,0,0,0,0,0 c0.2-0.1,0.3-0.2,0.5-0.3c0.2,0,0.4,0,0.6,0c0,0,0,0,0,0c0,0,0,0,0,0c0,0,0,0,0,0C177.5,129.7,177.5,129.7,177.5,129.8 C177.5,129.7,177.5,129.8,177.5,129.8z"></path> <path class="st12" d="M174,132.4C174,132.4,173.9,132.4,174,132.4c-0.1,0-0.1,0-0.1,0c0,0,0,0,0,0c0,0,0,0,0,0c0,0,0,0,0,0 c0-0.2,0-0.4,0.1-0.6c0.1-0.2,0.2-0.4,0.3-0.5c0,0,0,0,0,0s0,0,0,0c0,0,0,0,0,0s0,0,0,0c0,0,0,0,0,0c0,0,0,0,0,0c0,0,0,0,0,0 c0,0,0,0,0,0c-0.1,0.1-0.2,0.2-0.2,0.4c-0.1,0.1-0.1,0.3,0,0.5C174,132.3,174,132.3,174,132.4C174,132.3,174,132.4,174,132.4z"></path> <path class="st10" d="M185.9,137.9c0-0.1,0-0.2,0-0.3l0-0.3l0.1-0.7c0-0.5,0.1-1,0.1-1.5c0-1,0-2,0-2.9c-0.1-1.8-0.4-3.6-1.1-5.4 l-0.1-0.3c0,0,0-0.1-0.1-0.1l0-0.1c-0.1-0.1-0.2-0.3-0.3-0.4c-0.2-0.3-0.5-0.7-0.8-1.1c-0.6-0.8-1.3-1.5-2.1-2.3 c-1.4-1.5-3-3-4.5-4.4c-0.2-0.2-0.4-0.5-0.4-0.8c0-0.3,0.1-0.6,0.3-0.9c0.2-0.3,0.5-0.4,0.8-0.5c0.3-0.1,0.6,0,0.9,0.2 c1.8,1.1,3.6,2.3,5.4,3.6c0.9,0.6,1.8,1.3,2.6,2.1c0.5,0.4,0.9,0.8,1.3,1.2c0.2,0.3,0.5,0.5,0.7,0.8l0.2,0.3 c0.1,0.1,0.1,0.1,0.1,0.2l0.2,0.4c1.1,2.2,1.8,4.5,2.1,6.9c0.2,1.1,0.2,2.3,0.3,3.4c0,0.6,0,1.1,0,1.7l0,0.9l0,0.4 c0,0.2,0,0.3,0,0.5v0.1c0,0.4-0.1,0.7-0.3,1.1c-0.2,0.3-0.4,0.6-0.7,0.9c-0.3,0.2-0.6,0.4-1,0.5c-0.4,0.1-0.7,0.2-1.1,0.1 c-0.4,0-0.7-0.1-1.1-0.3c-0.3-0.2-0.6-0.4-0.9-0.7c-0.2-0.3-0.4-0.6-0.5-1c-0.1-0.4-0.2-0.7-0.1-1.1 C185.9,138.1,185.9,138,185.9,137.9z"></path> <path class="st17" d="M187.8,141.4c0.6,0.9,0.8,2.3,0.2,2.7c-0.6,0.4-1.7-0.4-2.3-1.3c-0.6-0.9-0.3-1.6,0.3-2 C186.5,140.4,187.3,140.4,187.8,141.4z"></path> <path class="st14" d="M190.4,139c0.8,0.8,1.9,1.4,3,1.6c-0.5-0.9-1-1.8-1.5-2.7c-0.1-0.2-0.3-0.3-0.5-0.4 c-0.2-0.1-0.4-0.1-0.6-0.1c-0.2,0-0.3,0.1-0.4,0.2c-0.1,0.1-0.2,0.3-0.3,0.4s0,0.3,0,0.5C190.1,138.7,190.2,138.9,190.4,139z"></path> <path class="st9" d="M178.8,116.7c0.1-0.1,0.1-0.2,0.2-0.3c0-0.1,0.1-0.2,0-0.3c0-0.3-0.1-0.7-0.3-1c-0.4-0.5-1.5-1.3-2.1-1.7 l-1-0.7c-0.4-0.3-0.9-0.4-1.4-0.3c-0.4,0.1-0.7,0.2-0.9,0.5l-0.5,0.8c-0.1,0.2-0.2,0.5-0.1,0.7c0,0.2,0.2,0.4,0.4,0.6l1.3,1.1 c0,0,1.1,1.2,2.3,1.7c0.3,0.1,0.6,0.1,0.8,0.1c0.3-0.1,0.5-0.2,0.7-0.4L178.8,116.7z"></path> <path class="st9" d="M176.5,116.5c-0.7-0.4-0.4,0.6-2.8,0c-0.8-0.2-1.5,0.2-0.8,0.6c1.5,0.7,3.8,2.7,5.1,0.4 C178.8,116.1,176.5,116.5,176.5,116.5z"></path> <path class="st9" d="M176.9,118c0,0,1.1,1.6,1.7,1.8c1-0.6,1.7-2.5,1.8-3c-0.6-0.5-1.2-0.8-1.8-1.1 C178.5,115.7,176.6,117.4,176.9,118z"></path> </g> </g> </svg> 