<?xml version="1.0" encoding="UTF-8"?> <svg xmlns="http://www.w3.org/2000/svg" xmlns:xlink="http://www.w3.org/1999/xlink" version="1.1" id="Warstwa_1" x="0px" y="0px" viewBox="0 0 379 293" style="enable-background:new 0 0 379 293;" xml:space="preserve"> <style type="text/css"> .st0{fill:#F6FBFE;} .st1{fill:#0C39C6;} .st2{fill:#FFFFFF;} .st3{fill:#EDF7FC;} .st4{fill:#0D3BFB;} .st5{fill:#20BAFC;} .st6{fill:none;stroke:#FFFFFF;stroke-width:0.4189;stroke-linecap:round;stroke-miterlimit:10;} .st7{fill:#188EF8;} .st8{fill:#FFBD9D;} .st9{fill:#0C0042;} .st10{fill:#FFC1AE;} .st11{fill:#B9B9BA;} .st12{opacity:0.3;fill:#9D80B0;enable-background:new ;} .st13{fill:none;stroke:#000000;stroke-width:0.4239;stroke-miterlimit:10;} .st14{font-family:'ArialMT';} .st15{font-size:8.9262px;} .st16{fill:#E3E3E3;} .st17{fill-rule:evenodd;clip-rule:evenodd;fill:#20BAFC;} .st18{fill-rule:evenodd;clip-rule:evenodd;fill:#0D3BFB;} .st19{fill:#1A2E35;} .st20{opacity:0.3;} .st21{fill:none;stroke:#698BD1;stroke-width:0.3216;stroke-linecap:round;stroke-linejoin:round;stroke-miterlimit:10;stroke-dasharray:0.9123;} .st22{fill:#DEE3FC;} .st23{fill:#FFFFFF;stroke:#495AD6;stroke-width:0.288;stroke-miterlimit:10;} .st24{fill:none;stroke:#495AD6;stroke-width:0.5375;stroke-miterlimit:10;} .st25{fill:none;stroke:#495AD6;stroke-width:0.5375;stroke-linecap:round;stroke-miterlimit:10;} .st26{fill:#44D1FD;} .st27{fill:#1FBCFD;} .st28{fill:#08589C;} .st29{opacity:0.54;enable-background:new ;} .st30{fill:#007CFF;} .st31{opacity:0.1;} .st32{fill:#E27B62;} .st33{opacity:0.8;fill:#FFFFFF;enable-background:new ;} .st34{opacity:0.2;enable-background:new ;} .st35{opacity:0.3;enable-background:new ;} </style> <path class="st0" d="M200.2,169.2c-28.4,19-64.5,4.7-45.3-27.3c16.7-28,9.9-45.9,21.5-58.2c15.5-16.4,39.5,6.8,39.5,6.8 C246.5,118.7,230.7,148.8,200.2,169.2z"></path> <path class="st0" d="M260.2,85.8c-12.1,8.2-14.1,22.6-12.8,31.3s0.6,18.4-9.2,25.8s-10.7,20.9-2.9,28.3c8.5,8,29.1,18.9,53.3,4.4 c13.6-8.4,24.4-20.8,30.7-35.5c5.3-12.2,7.2-22.5,2-28.6c-5.2-6.1-11.2-2.6-13.8-1.3c-2.7,1.3-10.6,3.2-13.4-10.9 C290.8,82.8,273.7,76.6,260.2,85.8z"></path> <path class="st0" d="M108.8,193.4c8-7.6,7.7-18.6,5.7-24.9s-2.7-13.6,3.7-20.4c6.4-6.7,5.4-16.9-1.3-21.4c-7.3-4.9-24-10.5-40.2,3.2 c-9.1,7.9-15.6,18.5-18.5,30.2c-2.4,9.8-2.6,17.6,2,21.5c4.6,3.9,8.6,0.5,10.5-0.7c1.8-1.3,7.5-3.6,11.3,6.5 C86.4,199.4,99.8,201.9,108.8,193.4z"></path> <g> <path class="st1" d="M279,188.6h-43.4c-3.8,0-6.8-3.1-6.8-6.8V85.1c0-3.8,3.1-6.8,6.8-6.8H279c3.8,0,6.8,3.1,6.8,6.8v96.6 C285.9,185.5,282.8,188.6,279,188.6z"></path> <path class="st2" d="M278.8,187h-43c-3.3,0-6-2.7-6-6V85.2c0-3.3,2.7-6,6-6h43c3.3,0,6,2.7,6,6V181 C284.8,184.3,282.1,187,278.8,187z"></path> <path class="st3" d="M282.4,85v95.7c0,2.2-1.8,4.1-4.1,4.1h-42c-2.2,0-4.1-1.8-4.1-4.1V85c0-2.2,1.8-4.1,4.1-4.1h7 c0.4,0,0.7,0.2,0.9,0.6l0.7,1.5c0.3,0.7,1,1.1,1.8,1.1h21.1c0.7,0,1.5-0.4,1.8-1.1l0.7-1.5c0.2-0.3,0.5-0.6,0.9-0.6h6.9 C280.6,81,282.4,82.8,282.4,85z"></path> <path class="st3" d="M266.2,82.4h-17c-0.4,0-0.7-0.3-0.7-0.7l0,0c0-0.4,0.3-0.7,0.7-0.7h17c0.4,0,0.7,0.3,0.7,0.7l0,0 C266.9,82.1,266.5,82.4,266.2,82.4z"></path> </g> <g> <path class="st4" d="M220.1,195.3h-8.7c-0.3,0-0.6-0.3-0.6-0.6l0,0c0-0.3,0.3-0.6,0.6-0.6h8.7c0.3,0,0.6,0.3,0.6,0.6l0,0 C220.7,195,220.4,195.3,220.1,195.3z"></path> <path class="st4" d="M228.8,195.3h-6.3c-0.3,0-0.6-0.3-0.6-0.6l0,0c0-0.3,0.3-0.6,0.6-0.6h6.3c0.3,0,0.6,0.3,0.6,0.6l0,0 C229.4,195,229.1,195.3,228.8,195.3z"></path> <path class="st4" d="M215.1,198.1h-3.7c-0.3,0-0.6-0.3-0.6-0.6l0,0c0-0.3,0.3-0.6,0.6-0.6h3.7c0.3,0,0.6,0.3,0.6,0.6l0,0 C215.7,197.9,215.4,198.1,215.1,198.1z"></path> <path class="st4" d="M228.8,198.1h-11.5c-0.3,0-0.6-0.3-0.6-0.6l0,0c0-0.3,0.3-0.6,0.6-0.6h11.5c0.3,0,0.6,0.3,0.6,0.6l0,0 C229.4,197.9,229.1,198.1,228.8,198.1z"></path> <path class="st4" d="M222.8,201h-11.4c-0.3,0-0.6-0.3-0.6-0.6l0,0c0-0.3,0.3-0.6,0.6-0.6h11.4c0.3,0,0.6,0.3,0.6,0.6l0,0 C223.5,200.7,223.2,201,222.8,201z"></path> <path class="st4" d="M228.8,201h-3.7c-0.3,0-0.6-0.3-0.6-0.6l0,0c0-0.3,0.3-0.6,0.6-0.6h3.7c0.3,0,0.6,0.3,0.6,0.6l0,0 C229.4,200.7,229.1,201,228.8,201z"></path> </g> <g> <path class="st5" d="M276,107.8h-36.6c-1,0-1.8-0.8-1.8-1.8V90.9c0-1,0.8-1.8,1.8-1.8H276c1,0,1.8,0.8,1.8,1.8V106 C277.8,107,277,107.8,276,107.8z"></path> <line class="st6" x1="239.3" y1="91.6" x2="276.1" y2="91.6"></line> <ellipse class="st2" cx="275.1" cy="90.3" rx="0.4" ry="0.4"></ellipse> <ellipse class="st2" cx="272.8" cy="90.3" rx="0.4" ry="0.4"></ellipse> <ellipse class="st2" cx="270.5" cy="90.3" rx="0.4" ry="0.4"></ellipse> <g> <g> <path class="st3" d="M246.1,94.1h-6.2c-0.3,0-0.6-0.2-0.6-0.5l0,0c0-0.3,0.3-0.5,0.6-0.5h6.2c0.3,0,0.6,0.2,0.6,0.5l0,0 C246.8,93.9,246.5,94.1,246.1,94.1z"></path> <path class="st3" d="M246.1,96.5h-6.2c-0.3,0-0.6-0.2-0.6-0.5l0,0c0-0.3,0.3-0.5,0.6-0.5h6.2c0.3,0,0.6,0.2,0.6,0.5l0,0 C246.8,96.3,246.5,96.5,246.1,96.5z"></path> <path class="st3" d="M246.1,98.9h-6.2c-0.3,0-0.6-0.2-0.6-0.5l0,0c0-0.3,0.3-0.5,0.6-0.5h6.2c0.3,0,0.6,0.2,0.6,0.5l0,0 C246.8,98.7,246.5,98.9,246.1,98.9z"></path> <path class="st3" d="M246.1,101.3h-6.2c-0.3,0-0.6-0.2-0.6-0.5l0,0c0-0.3,0.3-0.5,0.6-0.5h6.2c0.3,0,0.6,0.2,0.6,0.5l0,0 C246.8,101.1,246.5,101.3,246.1,101.3z"></path> <path class="st3" d="M246.1,103.7h-6.2c-0.3,0-0.6-0.2-0.6-0.5l0,0c0-0.3,0.3-0.5,0.6-0.5h6.2c0.3,0,0.6,0.2,0.6,0.5l0,0 C246.8,103.5,246.5,103.7,246.1,103.7z"></path> <path class="st3" d="M246.1,106.1h-6.2c-0.3,0-0.6-0.2-0.6-0.5l0,0c0-0.3,0.3-0.5,0.6-0.5h6.2c0.3,0,0.6,0.2,0.6,0.5l0,0 C246.8,105.9,246.5,106.1,246.1,106.1z"></path> </g> <g> <path class="st3" d="M275.5,94.1h-26.9c-0.3,0-0.6-0.2-0.6-0.5l0,0c0-0.3,0.3-0.5,0.6-0.5h26.9c0.3,0,0.6,0.2,0.6,0.5l0,0 C276.1,93.9,275.8,94.1,275.5,94.1z"></path> <path class="st3" d="M275.5,96.5h-26.9c-0.3,0-0.6-0.2-0.6-0.5l0,0c0-0.3,0.3-0.5,0.6-0.5h26.9c0.3,0,0.6,0.2,0.6,0.5l0,0 C276.1,96.3,275.8,96.5,275.5,96.5z"></path> <path class="st3" d="M275.5,98.9h-26.9c-0.3,0-0.6-0.2-0.6-0.5l0,0c0-0.3,0.3-0.5,0.6-0.5h26.9c0.3,0,0.6,0.2,0.6,0.5l0,0 C276.1,98.7,275.8,98.9,275.5,98.9z"></path> <path class="st3" d="M275.5,101.3h-26.9c-0.3,0-0.6-0.2-0.6-0.5l0,0c0-0.3,0.3-0.5,0.6-0.5h26.9c0.3,0,0.6,0.2,0.6,0.5l0,0 C276.1,101.1,275.8,101.3,275.5,101.3z"></path> <path class="st3" d="M275.5,103.7h-26.9c-0.3,0-0.6-0.2-0.6-0.5l0,0c0-0.3,0.3-0.5,0.6-0.5h26.9c0.3,0,0.6,0.2,0.6,0.5l0,0 C276.1,103.5,275.8,103.7,275.5,103.7z"></path> <path class="st3" d="M275.5,106.1h-26.9c-0.3,0-0.6-0.2-0.6-0.5l0,0c0-0.3,0.3-0.5,0.6-0.5h26.9c0.3,0,0.6,0.2,0.6,0.5l0,0 C276.1,105.9,275.8,106.1,275.5,106.1z"></path> </g> </g> </g> <g> <path class="st5" d="M258,134l-0.6-0.5c0,0-0.1-0.1,0-0.1c0-0.1,0.1-0.3,0.1-0.4c0.1-0.3,0.1-0.5,0.1-0.7c0-0.1,0-0.1,0.1-0.1 l0.7-0.2c0.3-0.1,0.4-0.4,0.3-0.7l-0.5-1.6c-0.1-0.3-0.4-0.4-0.7-0.3l-0.7,0.3c-0.1,0-0.1,0-0.1,0c-0.3-0.3-0.6-0.6-0.9-0.8 c-0.1,0-0.1-0.1-0.1-0.1l0.1-0.6c0.1-0.3-0.1-0.6-0.4-0.6l-1.7-0.3c-0.3-0.1-0.6,0.1-0.6,0.4l-0.1,0.6c0,0.1-0.1,0.1-0.1,0.1 c-0.5,0.1-0.9,0.2-1.3,0.5c-0.1,0-0.1,0-0.1,0l-0.3-0.3c-0.2-0.2-0.5-0.2-0.7,0.1l-1.1,1.3c-0.2,0.2-0.2,0.5,0.1,0.7l0.4,0.3 c0,0,0.1,0.1,0,0.1c-0.1,0.2-0.1,0.3-0.1,0.5c-0.1,0.3-0.1,0.6-0.1,0.9c0,0.1,0,0.1-0.1,0.1l-0.4,0.1c-0.3,0.1-0.4,0.4-0.3,0.7 l0.5,1.6c0.1,0.3,0.4,0.4,0.7,0.3l0.5-0.2c0.1,0,0.1,0,0.1,0c0.3,0.3,0.7,0.6,1.1,0.8c0.1,0,0.1,0.1,0.1,0.1l-0.1,0.5 c-0.1,0.3,0.1,0.6,0.4,0.6l1.7,0.3c0.3,0.1,0.6-0.1,0.6-0.4l0.1-0.7c0-0.1,0.1-0.1,0.1-0.1c0.4-0.1,0.8-0.3,1.1-0.5 c0.1,0,0.1,0,0.1,0l0.5,0.4c0.2,0.2,0.5,0.2,0.7-0.1l1.1-1.3C258.3,134.6,258.3,134.2,258,134z M253.2,134.2 c-1.1-0.2-1.8-1.3-1.6-2.4c0.2-1.1,1.3-1.8,2.4-1.6c1.1,0.2,1.8,1.3,1.6,2.4C255.4,133.7,254.3,134.4,253.2,134.2z"></path> <path class="st5" d="M269,148.3l-1-0.9c-0.1-0.1-0.1-0.1-0.1-0.2c0.1-0.2,0.1-0.4,0.1-0.6c0.1-0.4,0.1-0.8,0.1-1.2 c0-0.1,0.1-0.1,0.1-0.2l1.1-0.3c0.4-0.1,0.7-0.6,0.5-1l-0.8-2.5c-0.1-0.4-0.6-0.7-1-0.5l-1.2,0.4c-0.1,0-0.2,0-0.2-0.1 c-0.4-0.5-0.9-0.9-1.4-1.2c-0.1-0.1-0.1-0.1-0.1-0.2l0.2-0.9c0.1-0.5-0.2-0.9-0.6-1l-2.6-0.5c-0.5-0.1-0.9,0.2-1,0.6l-0.2,0.9 c0,0.1-0.1,0.1-0.2,0.1c-0.7,0.1-1.4,0.4-2,0.7c-0.1,0-0.2,0-0.2,0l-0.5-0.5c-0.3-0.3-0.9-0.3-1.2,0.1l-1.8,2 c-0.3,0.3-0.3,0.9,0.1,1.2l0.6,0.5c0.1,0.1,0.1,0.1,0.1,0.2c-0.1,0.3-0.2,0.5-0.2,0.8c-0.1,0.5-0.1,0.9-0.1,1.4 c0,0.1-0.1,0.2-0.1,0.2l-0.6,0.2c-0.4,0.1-0.7,0.6-0.5,1l0.8,2.5c0.1,0.4,0.6,0.7,1,0.5l0.8-0.3c0.1,0,0.1,0,0.2,0.1 c0.5,0.5,1.1,0.9,1.7,1.3c0.1,0,0.1,0.1,0.1,0.2l-0.1,0.8c-0.1,0.5,0.2,0.9,0.6,1l2.6,0.5c0.5,0.1,0.9-0.2,1-0.6l0.2-1.2 c0-0.1,0.1-0.1,0.1-0.1c0.6-0.1,1.2-0.4,1.7-0.7c0.1-0.1,0.2,0,0.2,0l0.8,0.7c0.3,0.3,0.9,0.3,1.2-0.1l1.8-2 C269.4,149.1,269.4,148.6,269,148.3z M261.5,148.5c-1.7-0.3-2.8-2-2.4-3.7c0.3-1.7,2-2.8,3.7-2.4c1.7,0.3,2.8,2,2.4,3.7 C264.9,147.7,263.2,148.8,261.5,148.5z"></path> </g> <g> <path class="st7" d="M238.5,166.4h37.6c0.5,0,0.9-0.4,0.9-0.9v-0.9c0-0.5-0.4-0.9-0.9-0.9h-37.6c-0.5,0-0.9,0.4-0.9,0.9v0.9 C237.7,166,238,166.4,238.5,166.4z"></path> <path class="st7" d="M238.5,171.6h37.6c0.5,0,0.9-0.4,0.9-0.9v-0.9c0-0.5-0.4-0.9-0.9-0.9h-37.6c-0.5,0-0.9,0.4-0.9,0.9v0.9 C237.7,171.3,238,171.6,238.5,171.6z"></path> <path class="st7" d="M238.5,176.9h37.6c0.5,0,0.9-0.4,0.9-0.9V175c0-0.5-0.4-0.9-0.9-0.9h-37.6c-0.5,0-0.9,0.4-0.9,0.9v0.9 C237.7,176.5,238,176.9,238.5,176.9z"></path> </g> <g> <g> <path class="st8" d="M296.9,124.9c0,0,13.3,2.7,13.6,3.3s-5,3.1-5,3.1s-8.1-1.1-10.7-2.9C292.3,126.6,296.9,124.9,296.9,124.9z"></path> <path class="st8" d="M298.5,125.8c-1.1-2.6-4-9.4-4-9.4l-2,0.2c0,0,0.3,9.5,1.7,11.2C295.5,129.7,299.3,127.8,298.5,125.8z"></path> </g> <g> <path class="st9" d="M305,208.5l-4.7-25.8l-2.7-31.9l13.2-2.2l-3.4,33.3l2.1,26.1C308.5,208.2,306.9,208.5,305,208.5z"></path> <polyline class="st10" points="309.6,207.9 309.8,212.7 306.4,213.7 305,208.5 "></polyline> </g> <path class="st9" d="M309.7,211.7c0,0-2.5,1.4-3.7,0.3c0,0-0.5,0.5-1.7,1.7c0,0-3.6,1.5-4.4,3.2c0,0,5.5,0.8,11.2-0.3 C311,216.5,310.8,213.3,309.7,211.7z"></path> <path class="st11" d="M305.5,209.8l3.9-0.5c0.4,0,0.7-0.4,0.6-0.8l-0.1-1c0-0.4-0.4-0.7-0.8-0.6l-3.9,0.5c-0.4,0-0.7,0.4-0.6,0.8 l0.1,1C304.7,209.5,305.1,209.8,305.5,209.8z"></path> <g> <g> <path class="st9" d="M295,150.7l9,2.4l-0.3,1.8c-0.6,3.9,2.7,2.6,1.3,6.2l-12.2,20.7l0.7,30.2c-1-0.3-3.3-1.2-4.7-1.9L285,181 L295,150.7z"></path> </g> <g> <path class="st10" d="M293.5,208.5l0.4,5.1l-4,1.4l-1.5-6.7C290,208.5,292.4,208.6,293.5,208.5z"></path> </g> <path class="st9" d="M293.8,212c0,0-1.3,1.7-4.3-0.1c0,0,0,0.5-1.9,2.1c0,0-4.3,0.7-5.6,2.4c0,0,6.6,1.4,12.8,0.7 C294.8,217.1,294.7,214,293.8,212z"></path> <path class="st11" d="M288.7,209.9l4.5-0.2c0.4,0,0.7-0.3,0.7-0.8l0-1.2c0-0.4-0.3-0.7-0.8-0.7l-4.5,0.2c-0.4,0-0.7,0.3-0.7,0.8 l0,1.2C287.9,209.6,288.3,209.9,288.7,209.9z"></path> </g> <g> <path class="st12" d="M294,151.6c0,0,10.4,4.5,14.4-3.1L294,151.6z"></path> <path class="st8" d="M306,127.8c0,0-0.5-4.3-0.3-4.7c0.2-0.4,3.2-3.5,3.1-6.2c-0.1-2.7-2.9-5.1-6.4-4.5c-3.4,0.6-4.3,2.6-4.4,4.4 c0,0.5,0.4,1.2,0.1,2.6c-0.5,2.3,0.3,3.2,1.2,5.5c0.1,0.2,0.3,0.2,0.5,0.3c0.6,0.1,1.7,0,2.3-0.6l-0.5,2.3 C301.4,126.9,303.9,128.5,306,127.8z"></path> <path class="st9" d="M298.8,115.1c0,0,1.2,2.7,3.6,4.5c0,0,1.2-1.2,1.7,0c0.6,1.5-1.5,2.2-1.5,2.2l3,1.4c0,0,3.2-2.7,3.4-5.5 c0.2-2.7-1.4-5.5-4.8-6.1c-3.8-0.6-7.3,2.4-6.2,4.7C298,116.4,298,115.8,298.8,115.1z"></path> <path class="st8" d="M298.5,118.4c0,0-0.9,1.4-1.3,2c-0.3,0.5,0.8,1,1.1,1C298.6,121.3,298.5,118.4,298.5,118.4z"></path> <g> <path class="st7" d="M310.4,128.1c-1.1-0.9-2.7-0.5-4.5-1.9l-4.4,0c0,0-1.6,1.1-4.2,1.2c-1.9,0-2.9,3.7-2.9,3.7 c-0.2,0.5,0.2,15.9,0.2,15.9l-0.6,4.6c9.1,4,16.8-3.1,16.8-3.1l-2.7-5l2.2-9.6C311.1,132.4,311.8,129.2,310.4,128.1z"></path> </g> </g> <path class="st9" d="M305.7,113.7c0.2-1.4,1.6-2.7,3.2-2.7c1.1,0,2.2,0.5,2.7,1.4c1.1,1.8,0,4.8-1.9,5.3 C307.8,118.1,305.3,115.9,305.7,113.7z"></path> <line class="st13" x1="299.6" y1="170.4" x2="304.8" y2="161.1"></line> <path class="st9" d="M310.8,148.5c0,0,1.4,7.4-1.4,13L310.8,148.5z"></path> <g> <g> <polygon class="st1" points="298.3,124.5 287.7,106 266.6,108.3 265.6,110.2 276.2,128.7 297.3,126.4 "></polygon> <polygon class="st7" points="298.3,124.5 277.2,126.9 266.6,108.3 287.7,106 "></polygon> <text transform="matrix(0.8776 -9.716113e-02 0.5638 0.8259 277.44 118.9787)" class="st2 st14 st15">iOS</text> <polygon class="st1" points="277.2,126.9 276.2,128.7 265.6,110.2 266.6,108.3 "></polygon> </g> <path class="st8" d="M284.5,132.5c0,0,12.3-5.3,12.9-5.1s-2.1,5.8-2.1,5.8s-7.4,3.5-10.5,3.4C281.5,136.4,284.5,132.5,284.5,132.5 z"></path> <g> <path class="st8" d="M277.5,125.5c0,0-0.3-1.9-1-2.1c-1.4-0.4-1.9-1.3-1.9-1c-0.1,0.8,0.5,1.4,1.4,1.6L277.5,125.5z"></path> <path class="st8" d="M276.7,124.2c0,0-2.5-0.8-2.9-0.8c-0.6,0-0.6,0.7-0.5,1c0.1,0.2-0.5,0.4-0.2,1.1c0.2,0.5-0.1,0.4-0.1,0.8 c0,0.3,0.5,0.5,0.4,0.8c-0.2,0.6,0.4,0.7,0.7,0.9c0.3,0.2,1.7,0.6,3.1-0.1C279.1,127.1,276.7,124.2,276.7,124.2z"></path> </g> <path class="st8" d="M286.3,132.4c-2.3-1.6-8.5-5.7-8.5-5.7l-1.6,1.3c0,0,5.5,7.7,7.5,8.5C285.8,137.2,288,133.6,286.3,132.4z"></path> <path class="st7" d="M297.5,127.4c0,0-3.7,0-8.7,3.1c0,0,0.3,4.4,0.8,5.3C289.6,135.8,303.7,132.8,297.5,127.4z"></path> </g> <path class="st8" d="M294.5,116.2c0,0-0.6-1.7-0.9-2.4c-0.3-0.7-2.5-1.1-3.2-1.5c-0.7-0.4,0,1.3,1.5,1.7c0,0,0.5,3.4,2.7,2.9"></path> </g> <path class="st16" d="M310.3,117.8"></path> <g> <path class="st5" d="M77.7,89.1H69c-0.5,0-1-0.3-1-0.7l0,0c0-0.4,0.4-0.7,1-0.7h8.7c0.5,0,1,0.3,1,0.7l0,0 C78.7,88.8,78.2,89.1,77.7,89.1z"></path> <path class="st5" d="M86.4,92H69c-0.5,0-1-0.3-1-0.7l0,0c0-0.4,0.4-0.7,1-0.7h17.4c0.5,0,1,0.3,1,0.7l0,0C87.4,91.7,87,92,86.4,92z "></path> <path class="st5" d="M71.1,95H69c-0.5,0-1-0.3-1-0.7l0,0c0-0.4,0.4-0.7,1-0.7h2.1c0.5,0,1,0.3,1,0.7l0,0C72,94.7,71.6,95,71.1,95z"></path> <path class="st5" d="M86.4,95H74.3c-0.5,0-1-0.3-1-0.7l0,0c0-0.4,0.4-0.7,1-0.7h12.1c0.5,0,1,0.3,1,0.7l0,0 C87.4,94.7,87,95,86.4,95z"></path> <path class="st5" d="M86.4,89.1h-5.3c-0.5,0-1-0.3-1-0.7l0,0c0-0.4,0.4-0.7,1-0.7h5.3c0.5,0,1,0.3,1,0.7l0,0 C87.4,88.8,87,89.1,86.4,89.1z"></path> </g> <g> <g> <path class="st1" d="M105.7,77.9h43.6c3.8,0,6.9,3.1,6.9,6.9v97.1c0,3.8-3.1,6.9-6.9,6.9h-43.6c-3.8,0-6.9-3.1-6.9-6.9V84.7 C98.8,80.9,101.9,77.9,105.7,77.9z"></path> <path class="st2" d="M105.9,78.8h43.2c3.3,0,6,2.7,6,6v96.3c0,3.3-2.7,6-6,6h-43.2c-3.3,0-6-2.7-6-6V84.9 C99.9,81.5,102.6,78.8,105.9,78.8z"></path> <path class="st3" d="M152.7,84.7v96.2c0,2.3-1.8,4.1-4.1,4.1h-42.2c-2.3,0-4.1-1.8-4.1-4.1V84.7c0-2.3,1.8-4.1,4.1-4.1h7 c0.4,0,0.7,0.2,0.9,0.6l0.7,1.5c0.3,0.7,1,1.1,1.8,1.1h21.2c0.8,0,1.5-0.4,1.8-1.1l0.7-1.5c0.2-0.3,0.5-0.6,0.9-0.6h7 C150.9,80.6,152.7,82.4,152.7,84.7L152.7,84.7z"></path> <path class="st3" d="M136.4,82h-17.1c-0.4,0-0.7-0.3-0.7-0.7l0,0c0-0.4,0.3-0.7,0.7-0.7h17.1c0.4,0,0.7,0.3,0.7,0.7l0,0 C137.1,81.7,136.8,82,136.4,82z"></path> </g> <path class="st17" d="M145.4,148.5v-0.9l2.3-0.9l-2.3-0.9v-0.9l3.3,1.4v0.8L145.4,148.5L145.4,148.5z M144.3,149.2h-0.7l-1.2-5h0.7 L144.3,149.2L144.3,149.2z M138,147.1v-0.8l3.3-1.4v0.9l-2.3,0.9l2.3,0.9v0.9L138,147.1z"></path> <g> <path class="st17" d="M146.3,92.3l2.3-0.9l-2.3-0.9v-0.9l3.3,1.4v0.8l-3.3,1.5C146.3,93.2,146.3,92.3,146.3,92.3z M145.2,93.9 h-0.7l-1.2-5h0.7L145.2,93.9L145.2,93.9z M138.9,91.8V91l3.3-1.4v0.9l-2.3,0.9l2.3,0.9v0.9C142.2,93.2,138.9,91.8,138.9,91.8z"></path> <path class="st18" d="M147.3,97.6c0.1,0.1,0.1,0.2,0.1,0.3c0,0.1,0,0.2-0.1,0.3c-0.1,0.1-0.2,0.1-0.3,0.1h-7.6 c-0.1,0-0.2,0-0.3-0.1c-0.1-0.1-0.1-0.2-0.1-0.3c0-0.1,0-0.2,0.1-0.3c0.1-0.1,0.2-0.1,0.3-0.1h7.6 C147.1,97.4,147.2,97.5,147.3,97.6z"></path> <path class="st17" d="M146.9,115.8c0.1,0,0.2,0,0.3,0.1c0.1,0.1,0.1,0.2,0.1,0.3s0,0.2-0.1,0.3c-0.1,0.1-0.2,0.1-0.3,0.1h-9.2 c-0.1,0-0.2,0-0.3-0.1c-0.1-0.1-0.1-0.2-0.1-0.3s0-0.2,0.1-0.3c0.1-0.1,0.2-0.1,0.3-0.1H146.9L146.9,115.8z"></path> <path class="st17" d="M146.9,135c0.1,0,0.2,0,0.3,0.1c0.1,0.1,0.1,0.2,0.1,0.3c0,0.1,0,0.2-0.1,0.3c-0.1,0.1-0.2,0.1-0.3,0.1h-9.2 c-0.1,0-0.2,0-0.3-0.1s-0.1-0.2-0.1-0.3c0-0.1,0-0.2,0.1-0.3c0.1-0.1,0.2-0.1,0.3-0.1H146.9L146.9,135z"></path> <path class="st17" d="M137.5,97.6c0.1,0.1,0.1,0.2,0.1,0.3c0,0.1,0,0.2-0.1,0.3c-0.1,0.1-0.2,0.1-0.3,0.1H133 c-0.1,0-0.2,0-0.3-0.1c-0.1-0.1-0.1-0.2-0.1-0.3c0-0.1,0-0.2,0.1-0.3c0.1-0.1,0.2-0.1,0.3-0.1h4.2 C137.3,97.4,137.4,97.5,137.5,97.6z"></path> <path class="st18" d="M144.8,100.6c0.1,0.1,0.1,0.2,0.1,0.3c0,0.1,0,0.2-0.1,0.3c-0.1,0.1-0.2,0.1-0.3,0.1h-8.6 c-0.1,0-0.2,0-0.3-0.1s-0.1-0.2-0.1-0.3c0-0.1,0-0.2,0.1-0.3c0.1-0.1,0.2-0.1,0.3-0.1h8.6C144.6,100.4,144.7,100.5,144.8,100.6z"></path> <path class="st17" d="M133.8,100.6c0.1,0.1,0.1,0.2,0.1,0.3c0,0.1,0,0.2-0.1,0.3s-0.2,0.1-0.3,0.1h-4.8c-0.1,0-0.2,0-0.3-0.1 c-0.1-0.1-0.1-0.2-0.1-0.3c0-0.1,0-0.2,0.1-0.3s0.2-0.1,0.3-0.1h4.8C133.6,100.4,133.7,100.5,133.8,100.6z"></path> <path class="st17" d="M126.6,100.6c0.1,0.1,0.1,0.2,0.1,0.3c0,0.1,0,0.2-0.1,0.3c-0.1,0.1-0.2,0.1-0.3,0.1h-5.9 c-0.1,0-0.2,0-0.3-0.1c-0.1-0.1-0.1-0.2-0.1-0.3c0-0.1,0-0.2,0.1-0.3c0.1-0.1,0.2-0.1,0.3-0.1h5.9 C126.4,100.4,126.6,100.5,126.6,100.6z"></path> <path class="st17" d="M144.8,103.7c0.1,0.1,0.1,0.2,0.1,0.3c0,0.1,0,0.2-0.1,0.3s-0.2,0.1-0.3,0.1H133c-0.1,0-0.2,0-0.3-0.1 s-0.1-0.2-0.1-0.3c0-0.1,0-0.2,0.1-0.3c0.1-0.1,0.2-0.1,0.3-0.1h11.4C144.6,103.6,144.7,103.7,144.8,103.7z"></path> <path class="st17" d="M130.7,103.6c0.1,0,0.2,0,0.3,0.1c0.1,0.1,0.1,0.2,0.1,0.3c0,0.1,0,0.2-0.1,0.3s-0.2,0.1-0.3,0.1h-5.5 c-0.1,0-0.2,0-0.3-0.1c-0.1-0.1-0.1-0.2-0.1-0.3c0-0.1,0-0.2,0.1-0.3c0.1-0.1,0.2-0.1,0.3-0.1H130.7L130.7,103.6z"></path> <path class="st17" d="M123.4,103.7c0.1,0.1,0.1,0.2,0.1,0.3c0,0.1,0,0.2-0.1,0.3c-0.1,0.1-0.2,0.1-0.3,0.1h-9 c-0.1,0-0.2,0-0.3-0.1c-0.1-0.1-0.1-0.2-0.1-0.3c0-0.1,0-0.2,0.1-0.3c0.1-0.1,0.2-0.1,0.3-0.1h9 C123.2,103.6,123.3,103.7,123.4,103.7z"></path> <path class="st17" d="M144.8,106.8c0.1,0.1,0.1,0.2,0.1,0.3c0,0.1,0,0.2-0.1,0.3c-0.1,0.1-0.2,0.1-0.3,0.1h-4.3 c-0.1,0-0.2,0-0.3-0.1c-0.1-0.1-0.1-0.2-0.1-0.3c0-0.1,0-0.2,0.1-0.3c0.1-0.1,0.2-0.1,0.3-0.1h4.3 C144.6,106.7,144.7,106.8,144.8,106.8z"></path> <path class="st17" d="M138.4,106.8c0.1,0.1,0.1,0.2,0.1,0.3c0,0.1,0,0.2-0.1,0.3c-0.1,0.1-0.2,0.1-0.3,0.1h-15.2 c-0.1,0-0.2,0-0.3-0.1c-0.1-0.1-0.1-0.2-0.1-0.3c0-0.1,0-0.2,0.1-0.3c0.1-0.1,0.2-0.1,0.3-0.1h15.2 C138.2,106.7,138.3,106.8,138.4,106.8z"></path> <path class="st18" d="M144.8,109.8c0.1,0.1,0.1,0.2,0.1,0.3s0,0.2-0.1,0.3c-0.1,0.1-0.2,0.1-0.3,0.1H133c-0.1,0-0.2,0-0.3-0.1 c-0.1-0.1-0.1-0.2-0.1-0.3c0-0.1,0-0.2,0.1-0.3c0.1-0.1,0.2-0.1,0.3-0.1h11.4C144.6,109.7,144.7,109.7,144.8,109.8z"></path> <path class="st17" d="M130.7,109.7c0.1,0,0.2,0,0.3,0.1c0.1,0.1,0.1,0.2,0.1,0.3s0,0.2-0.1,0.3c-0.1,0.1-0.2,0.1-0.3,0.1h-5.5 c-0.1,0-0.2,0-0.3-0.1c-0.1-0.1-0.1-0.2-0.1-0.3c0-0.1,0-0.2,0.1-0.3c0.1-0.1,0.2-0.1,0.3-0.1H130.7L130.7,109.7z"></path> <path class="st17" d="M123.4,109.8c0.1,0.1,0.1,0.2,0.1,0.3s0,0.2-0.1,0.3c-0.1,0.1-0.2,0.1-0.3,0.1h-9c-0.1,0-0.2,0-0.3-0.1 c-0.1-0.1-0.1-0.2-0.1-0.3c0-0.1,0-0.2,0.1-0.3c0.1-0.1,0.2-0.1,0.3-0.1h9C123.2,109.7,123.3,109.7,123.4,109.8z"></path> <path class="st17" d="M144.8,113c0.1,0.1,0.1,0.2,0.1,0.3c0,0.1,0,0.2-0.1,0.3c-0.1,0.1-0.2,0.1-0.3,0.1H133c-0.1,0-0.2,0-0.3-0.1 c-0.1-0.1-0.1-0.2-0.1-0.3c0-0.1,0-0.2,0.1-0.3c0.1-0.1,0.2-0.1,0.3-0.1h11.4C144.6,112.8,144.7,112.9,144.8,113z"></path> <path class="st17" d="M130.7,112.8c0.1,0,0.2,0,0.3,0.1c0.1,0.1,0.1,0.2,0.1,0.3c0,0.1,0,0.2-0.1,0.3c-0.1,0.1-0.2,0.1-0.3,0.1 h-5.5c-0.1,0-0.2,0-0.3-0.1c-0.1-0.1-0.1-0.2-0.1-0.3c0-0.1,0-0.2,0.1-0.3c0.1-0.1,0.2-0.1,0.3-0.1H130.7L130.7,112.8z"></path> <path class="st17" d="M135.3,115.8c0.1,0,0.2,0,0.3,0.1c0.1,0.1,0.1,0.2,0.1,0.3s0,0.2-0.1,0.3c-0.1,0.1-0.2,0.1-0.3,0.1h-5.1 c-0.1,0-0.2,0-0.3-0.1c-0.1-0.1-0.1-0.2-0.1-0.3s0-0.2,0.1-0.3c0.1-0.1,0.2-0.1,0.3-0.1H135.3L135.3,115.8z"></path> <path class="st17" d="M144.8,119.6c0.1,0.1,0.1,0.2,0.1,0.3c0,0.1,0,0.2-0.1,0.3c-0.1,0.1-0.2,0.1-0.3,0.1h-12.6 c-0.1,0-0.2,0-0.3-0.1c-0.1-0.1-0.1-0.2-0.1-0.3c0-0.1,0-0.2,0.1-0.3c0.1-0.1,0.2-0.1,0.3-0.1h12.6 C144.6,119.5,144.7,119.6,144.8,119.6z"></path> <path class="st18" d="M129.4,119.5c0.1,0,0.2,0,0.3,0.1c0.1,0.1,0.1,0.2,0.1,0.3c0,0.1,0,0.2-0.1,0.3c-0.1,0.1-0.2,0.1-0.3,0.1 h-6.1c-0.1,0-0.2,0-0.3-0.1c-0.1-0.1-0.1-0.2-0.1-0.3c0-0.1,0-0.2,0.1-0.3c0.1-0.1,0.2-0.1,0.3-0.1H129.4L129.4,119.5z"></path> <path class="st17" d="M144.8,122.8c0.1,0.1,0.1,0.2,0.1,0.3s0,0.2-0.1,0.3s-0.2,0.1-0.3,0.1h-11.5c-0.1,0-0.2,0-0.3-0.1 c-0.1-0.1-0.1-0.2-0.1-0.3s0-0.2,0.1-0.3c0.1-0.1,0.2-0.1,0.3-0.1h11.5C144.6,122.7,144.7,122.7,144.8,122.8z"></path> <path class="st17" d="M130.9,122.8c0.1,0.1,0.1,0.2,0.1,0.3s0,0.2-0.1,0.3s-0.2,0.1-0.3,0.1h-5.5c-0.1,0-0.2,0-0.3-0.1 c-0.1-0.1-0.1-0.2-0.1-0.3s0-0.2,0.1-0.3c0.1-0.1,0.2-0.1,0.3-0.1h5.5C130.7,122.7,130.8,122.7,130.9,122.8z"></path> <path class="st17" d="M144.8,125.9c0.1,0.1,0.1,0.2,0.1,0.3c0,0.1,0,0.2-0.1,0.3c-0.1,0.1-0.2,0.1-0.3,0.1h-3.9 c-0.1,0-0.2,0-0.3-0.1s-0.1-0.2-0.1-0.3c0-0.1,0-0.2,0.1-0.3c0.1-0.1,0.2-0.1,0.3-0.1h3.9C144.6,125.7,144.7,125.8,144.8,125.9z"></path> <path class="st17" d="M138.4,125.7c0.1,0,0.2,0,0.3,0.1c0.1,0.1,0.1,0.2,0.1,0.3c0,0.1,0,0.2-0.1,0.3c-0.1,0.1-0.2,0.1-0.3,0.1 h-15.5c-0.1,0-0.2,0-0.3-0.1c-0.1-0.1-0.1-0.2-0.1-0.3c0-0.1,0-0.2,0.1-0.3c0.1-0.1,0.2-0.1,0.3-0.1H138.4L138.4,125.7z"></path> <path class="st18" d="M144.8,129c0.1,0.1,0.1,0.2,0.1,0.3c0,0.1,0,0.2-0.1,0.3c-0.1,0.1-0.2,0.1-0.3,0.1h-9.8 c-0.1,0-0.2,0-0.3-0.1s-0.1-0.2-0.1-0.3c0-0.1,0-0.2,0.1-0.3c0.1-0.1,0.2-0.1,0.3-0.1h9.8C144.6,128.9,144.7,128.9,144.8,129z"></path> <path class="st17" d="M132.8,129c0.1,0.1,0.1,0.2,0.1,0.3c0,0.1,0,0.2-0.1,0.3c-0.1,0.1-0.2,0.1-0.3,0.1h-4.6 c-0.1,0-0.2,0-0.3-0.1c-0.1-0.1-0.1-0.2-0.1-0.3c0-0.1,0-0.2,0.1-0.3c0.1-0.1,0.2-0.1,0.3-0.1h4.6 C132.6,128.9,132.7,128.9,132.8,129z"></path> <path class="st17" d="M125.8,129c0.1,0.1,0.1,0.2,0.1,0.3c0,0.1,0,0.2-0.1,0.3c-0.1,0.1-0.2,0.1-0.3,0.1H114c-0.1,0-0.2,0-0.3-0.1 c-0.1-0.1-0.1-0.2-0.1-0.3c0-0.1,0-0.2,0.1-0.3c0.1-0.1,0.2-0.1,0.3-0.1h11.5C125.6,128.9,125.8,128.9,125.8,129z"></path> <path class="st17" d="M144.8,131.9c0.1,0.1,0.1,0.2,0.1,0.3s0,0.2-0.1,0.3c-0.1,0.1-0.2,0.1-0.3,0.1h-3.9c-0.1,0-0.2,0-0.3-0.1 c-0.1-0.1-0.1-0.2-0.1-0.3s0-0.2,0.1-0.3c0.1-0.1,0.2-0.1,0.3-0.1h3.9C144.6,131.8,144.7,131.8,144.8,131.9z"></path> <path class="st17" d="M138.4,131.8c0.1,0,0.2,0,0.3,0.1c0.1,0.1,0.1,0.2,0.1,0.3s0,0.2-0.1,0.3c-0.1,0.1-0.2,0.1-0.3,0.1h-15.5 c-0.1,0-0.2,0-0.3-0.1c-0.1-0.1-0.1-0.2-0.1-0.3s0-0.2,0.1-0.3c0.1-0.1,0.2-0.1,0.3-0.1H138.4L138.4,131.8z"></path> <path class="st18" d="M135.3,135c0.1,0,0.2,0,0.3,0.1c0.1,0.1,0.1,0.2,0.1,0.3c0,0.1,0,0.2-0.1,0.3c-0.1,0.1-0.2,0.1-0.3,0.1h-5.1 c-0.1,0-0.2,0-0.3-0.1c-0.1-0.1-0.1-0.2-0.1-0.3c0-0.1,0-0.2,0.1-0.3c0.1-0.1,0.2-0.1,0.3-0.1H135.3L135.3,135z"></path> </g> <g> <g> <path class="st7" d="M132.5,166.9l0.2,2.1c0,0,5.1-0.2,6.6-1s2.8-6.5,2.8-6.5l-1.8-0.5l-2.3,5.3L132.5,166.9L132.5,166.9z"></path> <g> <circle class="st9" cx="131.4" cy="168" r="2.5"></circle> <path class="st19" d="M129.7,169.7c-0.5-0.5-0.7-1.1-0.7-1.7s0.3-1.3,0.7-1.7c0.5-0.5,1.1-0.7,1.7-0.7c0.7,0,1.3,0.3,1.7,0.7 c0.5,0.5,0.7,1.1,0.7,1.7s-0.3,1.3-0.7,1.7c-0.5,0.5-1.1,0.7-1.7,0.7C130.8,170.4,130.1,170.2,129.7,169.7z M129.7,166.2 c-0.5,0.5-0.7,1.1-0.7,1.7s0.3,1.3,0.7,1.7c0.5,0.5,1.1,0.7,1.7,0.7c0.7,0,1.3-0.3,1.7-0.7s0.7-1.1,0.7-1.7s-0.3-1.3-0.7-1.7 c-0.5-0.5-1.1-0.7-1.7-0.7C130.8,165.5,130.1,165.8,129.7,166.2z"></path> </g> <circle class="st9" cx="139" cy="166.6" r="1.8"></circle> <circle class="st9" cx="141.4" cy="160.4" r="1.5"></circle> <path class="st9" d="M139.1,159.6c-0.1-0.1-0.2-0.3,0-0.5l0,0c0.1-0.1,0.3-0.2,0.5,0l1.2,1l-0.4,0.5L139.1,159.6L139.1,159.6z"></path> <path class="st9" d="M140.7,157.6c0-0.2,0.1-0.3,0.3-0.3h0c0.2,0,0.3,0.1,0.3,0.3v1.6c0,0,0,0,0,0h-0.6c0,0,0,0,0,0L140.7,157.6 L140.7,157.6z"></path> <path class="st9" d="M141.8,157.7c0-0.2,0.2-0.3,0.4-0.2l0,0c0.2,0,0.3,0.2,0.2,0.4l-0.3,1.5c0,0,0,0-0.1,0l-0.6-0.1 c0,0,0,0,0-0.1L141.8,157.7L141.8,157.7z"></path> <path class="st9" d="M143,158c0.1-0.2,0.3-0.2,0.4-0.1l0,0c0.2,0.1,0.2,0.3,0.1,0.4l-0.8,1.4c0,0,0,0-0.1,0l-0.5-0.3 c0,0,0,0,0-0.1L143,158L143,158z"></path> </g> <g> <rect x="104" y="173.8" transform="matrix(0.3914 -0.9202 0.9202 0.3914 -93.764 207.6045)" class="st7" width="12.2" height="1.8"></rect> <g> <circle class="st9" cx="113.3" cy="168.2" r="2.5"></circle> <path class="st9" d="M112.1,170.4c-0.6-0.3-1-0.8-1.2-1.4c-0.2-0.6-0.1-1.3,0.2-1.9s0.8-1,1.4-1.2c0.6-0.2,1.3-0.1,1.9,0.2 s1,0.8,1.2,1.4c0.2,0.6,0.1,1.3-0.2,1.9c-0.3,0.6-0.8,1-1.4,1.2c-0.2,0.1-0.5,0.1-0.7,0.1C112.9,170.7,112.5,170.6,112.1,170.4z M112.5,165.9c-0.6,0.2-1.1,0.6-1.4,1.2c-0.3,0.6-0.4,1.2-0.2,1.9h0h0c0.2,0.6,0.6,1.1,1.2,1.4s1.2,0.4,1.9,0.2 c0.6-0.2,1.1-0.6,1.4-1.2c0.3-0.6,0.4-1.2,0.2-1.9c-0.2-0.6-0.6-1.1-1.2-1.4c-0.4-0.2-0.7-0.3-1.1-0.3 C113,165.8,112.8,165.8,112.5,165.9z"></path> </g> <circle class="st9" cx="110.1" cy="175.1" r="1.8"></circle> <g> <path class="st9" d="M106.8,182.2c0.8,0.3,1.6-0.2,1.9-0.9c0.3-0.8-0.2-1.6-0.9-1.9c-0.8-0.3-1.6,0.2-1.9,0.9 C105.6,181.1,106,181.9,106.8,182.2z"></path> <path class="st9" d="M109.3,182.3c0.1,0.2,0,0.3-0.1,0.4l0,0c-0.2,0.1-0.3,0-0.4-0.1l-0.8-1.4l0.6-0.4L109.3,182.3L109.3,182.3z "></path> <path class="st9" d="M107.2,183.6c-0.1,0.2-0.2,0.3-0.4,0.2l0,0c-0.2-0.1-0.3-0.2-0.2-0.4l0.5-1.5c0,0,0,0,0.1,0l0.6,0.2 c0,0,0,0,0,0.1L107.2,183.6L107.2,183.6z"></path> <path class="st9" d="M106.1,183.2c-0.1,0.2-0.3,0.2-0.4,0.1l0,0c-0.2-0.1-0.2-0.3-0.1-0.4l0.8-1.3c0,0,0,0,0.1,0l0.5,0.3 c0,0,0,0,0,0.1L106.1,183.2L106.1,183.2z"></path> <path class="st9" d="M105.1,182.5c-0.1,0.1-0.3,0.1-0.5,0l0,0c-0.1-0.1-0.1-0.3,0-0.5l1.2-1c0,0,0,0,0.1,0l0.4,0.4 c0,0,0,0,0,0.1L105.1,182.5L105.1,182.5z"></path> </g> </g> <path class="st7" d="M132.2,165.4c0,0-1.1-2.4-9.9-2.5c-8.8-0.1-9.9,2.5-9.9,2.5c0,0.1,0.4,17.9,10.1,17.5 C132,182.6,132.2,165.4,132.2,165.4L132.2,165.4z"></path> <path class="st9" d="M117.6,161.4v-0.1c0-0.5,0.4-1,1-1h8.2c0.5,0,1,0.4,1,1v0.1c0,0.5-0.4,1-1,1h-8.2 C118,162.4,117.6,162,117.6,161.4z"></path> <rect x="122.3" y="143.5" class="st9" width="0.7" height="3.6"></rect> <circle class="st7" cx="112.4" cy="155.7" r="2.1"></circle> <circle class="st7" cx="133.2" cy="155.5" r="2.1"></circle> <path class="st7" d="M123.1,146.3c-8.1-0.2-10.8,5.1-10.5,9.1c0,0.4,0.1,0.9,0.2,1.3c0.9,3.6,3.7,4.4,7.6,4.4c1.8,0,3.7,0,4.7,0 c2-0.1,9.2-0.3,7.8-7.6C131.5,146.2,123.1,146.3,123.1,146.3L123.1,146.3z"></path> <path class="st9" d="M114.7,155.1L114.7,155.1c0-1.3,1.1-2.3,2.4-2.3l12.2,0.2c1.3,0,2.3,1.1,2.3,2.4l0,0c0,1.3-1.1,2.3-2.4,2.3 l-12.2-0.2C115.7,157.4,114.6,156.3,114.7,155.1z"></path> <path class="st2" d="M127.2,154.2c0.4-0.1,0.8,0.2,0.9,0.6c0.1,0.4-0.2,0.8-0.6,0.9c-0.4,0.1-0.8-0.2-0.9-0.6 C126.6,154.7,126.8,154.3,127.2,154.2z"></path> <path class="st2" d="M118.7,154.1c0.4-0.1,0.8,0.2,0.9,0.6c0.1,0.4-0.2,0.8-0.6,0.9c-0.4,0.1-0.8-0.2-0.9-0.6 C118,154.5,118.3,154.1,118.7,154.1z"></path> <g> <g> <path class="st9" d="M122.4,168.7c1.8-0.1,3.4,1.2,3.6,3.1s-1.2,3.4-3.1,3.6c-1.8,0.1-3.4-1.2-3.6-3.1 C119.2,170.4,120.6,168.8,122.4,168.7z"></path> <path class="st2" d="M122.5,169.6c1.3-0.1,2.5,0.9,2.6,2.2c0.1,1.3-0.9,2.5-2.2,2.6c-1.3,0.1-2.5-0.9-2.6-2.2 C120.1,170.8,121.1,169.7,122.5,169.6z"></path> </g> <path class="st7" d="M121.4,172.6c0,0,0-0.1,0-0.4c0-0.2,0-0.6,0-1.1v0l0,0c0.4-0.2,0.8-0.5,1.2-0.8l0,0l0,0 c0.4,0.2,0.8,0.5,1.3,0.7c0-0.1,0,0.1,0,0.1l0,0v0l0,0v0v0v0v0l0,0.1v0.2c0,0.1,0,0.2,0,0.4c0,0.2,0,0.5,0,0.7v0l0,0 c-0.5,0.3-0.9,0.5-1.2,0.7l0,0l0,0c-0.4-0.2-0.7-0.4-0.9-0.5C121.5,172.7,121.4,172.6,121.4,172.6c0,0,0.1,0.1,0.4,0.2 c0.2,0.1,0.5,0.3,0.9,0.5h-0.1c0.4-0.2,0.8-0.5,1.2-0.8l0,0.1c0-0.2,0-0.5,0-0.7c0-0.1,0-0.2,0-0.4v-0.2v-0.1v0v0v0v0l0,0l0,0 l0,0c0,0,0.1,0.1,0,0.1c-0.4-0.2-0.9-0.5-1.3-0.7h0.1c-0.5,0.3-0.9,0.5-1.2,0.7l0,0c0,0.4,0,0.8,0,1 C121.4,172.5,121.4,172.6,121.4,172.6L121.4,172.6z"></path> </g> <circle class="st7" cx="122.6" cy="143.4" r="1.2"></circle> <path class="st2" d="M124.5,154.7c0,0,0.1,0.1,0.1,0.2c0,0.1,0,0.3,0,0.5c-0.1,0.2-0.2,0.5-0.4,0.7c-0.2,0.2-0.5,0.4-0.9,0.4 c-0.4,0-0.7-0.1-0.9-0.3c-0.3-0.2-0.4-0.4-0.5-0.6c-0.1-0.2-0.1-0.4-0.1-0.5s0-0.2,0-0.2c0.1,0,0.1,0.3,0.3,0.6 c0.1,0.2,0.3,0.3,0.5,0.4c0.2,0.1,0.5,0.2,0.7,0.2c0.3,0,0.5-0.2,0.7-0.3c0.2-0.2,0.3-0.3,0.4-0.5 C124.5,155,124.4,154.7,124.5,154.7L124.5,154.7z"></path> <path class="st19" d="M113.2,158c-0.1-0.1-0.1-0.3-0.2-0.5c-0.2-0.4-0.3-1-0.4-1.7c-0.1-0.7,0-1.3,0-1.7c0-0.2,0-0.4,0.1-0.5 c0-0.1,0-0.2,0-0.2c0,0,0,0.1,0,0.2c0,0.1,0,0.3,0,0.5c0,0.4,0,1,0,1.7c0.1,0.7,0.2,1.3,0.3,1.7c0.1,0.4,0.3,0.7,0.3,0.7 C113.3,158.1,113.2,158.1,113.2,158z"></path> <path class="st19" d="M132.8,153.3c0,0,0,0.1,0.1,0.2c0,0.1,0,0.1,0.1,0.2c0,0.1,0,0.2,0.1,0.3c0,0.2,0.1,0.5,0.1,0.8 c0,0.3,0,0.6,0,1c0,0.3-0.1,0.7-0.2,0.9c-0.1,0.3-0.2,0.5-0.2,0.7c0,0.1-0.1,0.2-0.1,0.3c0,0.1-0.1,0.1-0.1,0.2 c-0.1,0.1-0.1,0.2-0.1,0.2c0,0,0-0.1,0.1-0.2c0-0.1,0.1-0.1,0.1-0.2c0-0.1,0.1-0.2,0.1-0.3c0.1-0.2,0.2-0.5,0.2-0.7 c0.1-0.3,0.1-0.6,0.2-0.9c0-0.3,0-0.7,0-0.9c0-0.3-0.1-0.5-0.1-0.8c0-0.1,0-0.2-0.1-0.3c0-0.1,0-0.2-0.1-0.2 C132.8,153.3,132.8,153.3,132.8,153.3L132.8,153.3z"></path> <path class="st19" d="M132.2,165.4C132.2,165.4,132.2,165.4,132.2,165.4c-0.1,0-0.1,0.1-0.2,0.1c-0.1,0-0.3,0.1-0.6,0.2 c-0.1,0-0.3,0.1-0.4,0.2c-0.1,0.1-0.3,0.1-0.5,0.2c-0.3,0.1-0.7,0.2-1.2,0.4c-0.2,0.1-0.5,0.1-0.7,0.2c-0.2,0.1-0.5,0.1-0.8,0.2 c-0.5,0.1-1.1,0.2-1.7,0.3c-1.2,0.2-2.5,0.3-4,0.3c-1.4,0-2.7-0.1-4-0.3c-0.6-0.1-1.2-0.2-1.7-0.3c-0.3-0.1-0.5-0.1-0.8-0.2 c-0.2-0.1-0.5-0.1-0.7-0.2c-0.4-0.1-0.8-0.2-1.2-0.4c-0.2-0.1-0.3-0.1-0.5-0.2c-0.1-0.1-0.3-0.1-0.4-0.2c-0.2-0.1-0.4-0.2-0.6-0.2 c-0.1,0-0.1,0-0.1-0.1c0,0-0.1,0,0,0c0,0,0,0,0.1,0c0,0,0.1,0,0.1,0c0.1,0,0.3,0.1,0.6,0.2c0.1,0,0.3,0.1,0.4,0.1 c0.1,0,0.3,0.1,0.5,0.2c0.3,0.1,0.7,0.2,1.2,0.3c0.2,0.1,0.5,0.1,0.7,0.2c0.2,0.1,0.5,0.1,0.8,0.2c0.5,0.1,1.1,0.2,1.7,0.3 c1.2,0.2,2.5,0.3,3.9,0.3c1.4,0,2.7-0.1,3.9-0.3c0.6-0.1,1.2-0.2,1.7-0.3c0.3-0.1,0.5-0.1,0.8-0.2s0.5-0.1,0.7-0.2 c0.4-0.1,0.8-0.2,1.2-0.3c0.2-0.1,0.3-0.1,0.5-0.2c0.1-0.1,0.3-0.1,0.4-0.1c0.2-0.1,0.4-0.2,0.6-0.2 C132.1,165.4,132.1,165.4,132.2,165.4C132.2,165.4,132.2,165.4,132.2,165.4L132.2,165.4z"></path> <g class="st20"> <path d="M132.1,165.4c-11,4.4-19.9,0-19.9,0s1.1-2.6,9.9-2.5C131,163,132.2,165.4,132.1,165.4L132.1,165.4z"></path> </g> <path class="st2" d="M124.1,146.9C124.1,146.9,124.1,146.9,124.1,146.9c0.1,0,0.1,0,0.1,0c0.1,0,0.2,0,0.3,0 c0.3,0,0.7,0.1,1.3,0.2c0.5,0.1,1.1,0.3,1.8,0.6c0.6,0.3,1.3,0.7,1.9,1.2c0.6,0.5,1.2,1.1,1.6,1.7c0.4,0.6,0.7,1.1,0.9,1.6 c0.2,0.5,0.3,0.9,0.4,1.2c0,0.1,0.1,0.3,0.1,0.3c0,0,0,0.1,0,0.1c0,0,0,0,0,0c0,0,0,0,0,0c0,0,0-0.1,0-0.1c0-0.1,0-0.2-0.1-0.3 c-0.1-0.3-0.2-0.7-0.4-1.2s-0.5-1-0.9-1.6c-0.4-0.6-0.9-1.1-1.6-1.7c-0.6-0.5-1.3-0.9-1.9-1.2c-0.6-0.3-1.2-0.5-1.8-0.6 c-0.5-0.1-0.9-0.2-1.2-0.2c-0.1,0-0.3,0-0.3,0C124.2,146.9,124.2,146.9,124.1,146.9C124.1,146.9,124.1,146.9,124.1,146.9 L124.1,146.9z"></path> <path class="st2" d="M132.4,157c0,0,0.1-0.4,0.2-0.9c0.1-0.5,0.1-1,0.1-1c0,0,0,0.1,0,0.3c0,0.2,0,0.4,0,0.7 c0,0.3-0.1,0.5-0.2,0.7C132.4,156.9,132.4,157,132.4,157L132.4,157z"></path> <path class="st2" d="M134.6,156.3c0,0,0.1-0.1,0.2-0.3c0.1-0.2,0.2-0.5,0.1-0.9c0-0.3-0.2-0.6-0.3-0.8c-0.1-0.2-0.3-0.3-0.3-0.3 c0,0,0,0,0.1,0s0.1,0.1,0.2,0.2c0.2,0.2,0.3,0.5,0.4,0.8c0,0.4,0,0.7-0.2,0.9C134.7,156.1,134.7,156.2,134.6,156.3 C134.6,156.3,134.6,156.3,134.6,156.3L134.6,156.3z"></path> <path class="st2" d="M122.6,142.6C122.6,142.6,122.6,142.6,122.6,142.6c0.1-0.1,0.2-0.1,0.3-0.1c0.2,0,0.5,0.1,0.7,0.4 c0.2,0.3,0.1,0.6,0.1,0.8c0,0.1-0.1,0.2-0.1,0.2c0,0-0.1,0.1-0.1,0.1c0,0,0.1-0.1,0.1-0.3c0.1-0.2,0.1-0.5-0.1-0.7 c-0.2-0.2-0.4-0.3-0.6-0.4C122.7,142.6,122.6,142.6,122.6,142.6L122.6,142.6z"></path> <path class="st2" d="M111.1,154.7c0,0,0.2-0.2,0.5-0.4c0.3-0.2,0.6-0.2,0.6-0.2c0,0-0.3,0.1-0.6,0.2 C111.4,154.5,111.1,154.7,111.1,154.7L111.1,154.7z"></path> <path class="st2" d="M129.1,177.6C129.1,177.6,129.1,177.6,129.1,177.6c0-0.1,0-0.1,0-0.1c0-0.1,0.1-0.2,0.1-0.3 c0-0.1,0.1-0.1,0.1-0.2c0-0.1,0.1-0.2,0.1-0.3c0.1-0.2,0.2-0.4,0.3-0.7c0-0.1,0.1-0.3,0.2-0.4c0-0.1,0.1-0.3,0.2-0.4 c0.1-0.3,0.2-0.6,0.3-0.9c0.2-0.7,0.4-1.4,0.6-2.2c0.2-0.8,0.3-1.5,0.4-2.2c0.1-0.7,0.2-1.3,0.2-1.8c0-0.3,0-0.5,0.1-0.7 c0-0.2,0-0.4,0-0.5c0-0.1,0-0.3,0-0.3c0,0,0-0.1,0-0.1c0,0,0,0,0,0s0,0,0,0c0,0,0,0.1,0,0.1c0,0.1,0,0.2,0,0.3c0,0.1,0,0.3,0,0.5 c0,0.2,0,0.4-0.1,0.7c0,0.5-0.1,1.2-0.2,1.8c-0.1,0.7-0.2,1.4-0.4,2.2c-0.2,0.8-0.4,1.5-0.6,2.2c-0.1,0.3-0.2,0.7-0.3,0.9 c-0.1,0.1-0.1,0.3-0.2,0.4c-0.1,0.1-0.1,0.3-0.2,0.4c-0.1,0.2-0.2,0.5-0.3,0.7c0,0.1-0.1,0.2-0.1,0.3c0,0.1-0.1,0.2-0.1,0.2 C129.3,177.4,129.2,177.5,129.1,177.6C129.2,177.6,129.2,177.6,129.1,177.6C129.1,177.6,129.1,177.7,129.1,177.6L129.1,177.6z"></path> <path class="st2" d="M135.2,166.9c0.5,0,1-0.1,1,0C136.2,166.8,135.8,166.9,135.2,166.9c-0.5,0.1-1,0.1-1,0.1 C134.3,166.9,134.7,166.9,135.2,166.9z"></path> <path class="st2" d="M139.6,163.3c0.3-0.5,0.5-0.9,0.5-0.9C140.2,162.4,140,162.8,139.6,163.3c-0.2,0.5-0.4,0.9-0.4,0.9 C139.2,164.1,139.4,163.8,139.6,163.3z"></path> <path class="st2" d="M124.5,181.8c0,0,0.2-0.1,0.5-0.2c0.2-0.1,0.4-0.1,0.6-0.2c0.2-0.1,0.4-0.2,0.7-0.4c0.2-0.2,0.4-0.3,0.6-0.5 c0.2-0.2,0.3-0.3,0.4-0.5c0.2-0.3,0.3-0.5,0.3-0.5c0,0,0,0.1-0.1,0.1c0,0.1-0.1,0.2-0.2,0.4s-0.2,0.3-0.4,0.5 c-0.2,0.2-0.4,0.3-0.6,0.5c-0.2,0.2-0.5,0.3-0.7,0.4c-0.2,0.1-0.4,0.2-0.6,0.2c-0.2,0-0.3,0.1-0.4,0.1 C124.5,181.8,124.5,181.8,124.5,181.8L124.5,181.8z"></path> <path class="st2" d="M122.5,175.7c0,0,0.1,0,0.4,0c0.2,0,0.6-0.1,0.9-0.2c0.2-0.1,0.4-0.2,0.6-0.3c0.2-0.1,0.4-0.2,0.6-0.4 c0.4-0.3,0.8-0.8,1.1-1.4c0.2-0.6,0.3-1.2,0.3-1.7c0-0.3-0.1-0.5-0.1-0.8c-0.1-0.2-0.1-0.4-0.2-0.6c-0.2-0.4-0.4-0.6-0.5-0.8 c-0.2-0.2-0.2-0.3-0.2-0.3c0,0,0,0,0.1,0.1c0,0,0.1,0.1,0.2,0.2c0.2,0.2,0.4,0.4,0.5,0.8c0.1,0.2,0.2,0.4,0.2,0.6 c0.1,0.2,0.1,0.5,0.1,0.8c0,0.5,0,1.2-0.3,1.7c-0.3,0.6-0.7,1.1-1.1,1.4c-0.2,0.2-0.4,0.3-0.7,0.4c-0.2,0.1-0.4,0.2-0.6,0.3 c-0.4,0.1-0.7,0.2-1,0.2C122.7,175.7,122.6,175.7,122.5,175.7C122.5,175.7,122.5,175.7,122.5,175.7L122.5,175.7z"></path> <path class="st2" d="M138.3,165.4c0,0,0.1-0.1,0.3-0.1c0.2-0.1,0.4-0.1,0.7,0c0.3,0.1,0.5,0.2,0.6,0.3c0.1,0.1,0.2,0.2,0.2,0.2 c0,0-0.1-0.1-0.2-0.2c-0.1-0.1-0.3-0.2-0.6-0.3c-0.3-0.1-0.5,0-0.7,0C138.4,165.4,138.3,165.4,138.3,165.4L138.3,165.4z"></path> <path class="st2" d="M122.6,152.3c2,0,3.6,0,3.6,0C126.2,152.4,124.6,152.4,122.6,152.3c-2,0.1-3.6,0.1-3.6,0 C119,152.3,120.6,152.3,122.6,152.3z"></path> <path class="st2" d="M125.1,160.6C125.1,160.6,125.1,160.6,125.1,160.6c0.1,0,0.2,0,0.2,0c0.1,0,0.2,0,0.3,0c0.1,0,0.2,0,0.4,0 c0.3,0,0.6,0,1-0.1c0.4,0,0.7-0.1,1.2-0.2c0.4-0.1,0.8-0.2,1.1-0.3c0.3-0.1,0.6-0.2,0.9-0.4c0.1-0.1,0.2-0.1,0.3-0.2 c0.1,0,0.2-0.1,0.2-0.1c0.1,0,0.1-0.1,0.2-0.1c0,0,0.1,0,0.1,0c0,0,0,0,0,0c0,0-0.1,0.1-0.2,0.1c-0.1,0-0.1,0.1-0.2,0.1 c-0.1,0-0.2,0.1-0.3,0.2c-0.2,0.1-0.5,0.2-0.9,0.4c-0.3,0.1-0.7,0.2-1.1,0.3c-0.4,0.1-0.8,0.2-1.2,0.2c-0.4,0-0.7,0.1-1,0.1 c-0.1,0-0.3,0-0.4,0c-0.1,0-0.2,0-0.3,0C125.3,160.6,125.2,160.6,125.1,160.6C125.1,160.6,125.1,160.5,125.1,160.6L125.1,160.6z"></path> <path class="st2" d="M114.6,166.5C114.6,166.5,114.6,166.5,114.6,166.5c0.1,0,0.1,0,0.1,0c0.1,0,0.2,0.1,0.4,0.1 c0.2,0.1,0.4,0.1,0.6,0.2c0.2,0.1,0.5,0.1,0.8,0.2c0.1,0,0.3,0.1,0.5,0.1c0.2,0,0.3,0.1,0.5,0.1c0.3,0.1,0.7,0.1,1.1,0.2 c0.8,0.1,1.7,0.2,2.6,0.3c0.9,0.1,1.8,0.1,2.6,0c0.4,0,0.8,0,1.1-0.1c0.2,0,0.3,0,0.5,0c0.2,0,0.3,0,0.5-0.1 c0.3,0,0.6-0.1,0.8-0.1c0.2,0,0.4-0.1,0.6-0.1c0.2,0,0.3-0.1,0.4-0.1c0,0,0.1,0,0.1,0c0,0,0,0,0,0c0,0,0,0,0,0c0,0-0.1,0-0.1,0 c-0.1,0-0.2,0-0.4,0.1c-0.2,0-0.4,0.1-0.6,0.1c-0.2,0-0.5,0.1-0.8,0.1c-0.2,0-0.3,0-0.5,0.1c-0.2,0-0.3,0-0.5,0.1 c-0.4,0-0.7,0.1-1.1,0.1c-0.8,0-1.7,0-2.6,0c-0.9-0.1-1.8-0.2-2.6-0.3c-0.4-0.1-0.8-0.1-1.1-0.2c-0.2,0-0.3-0.1-0.5-0.1 c-0.2,0-0.3-0.1-0.5-0.1c-0.3-0.1-0.6-0.2-0.8-0.2c-0.2-0.1-0.4-0.1-0.6-0.2c-0.2-0.1-0.3-0.1-0.4-0.1 C114.7,166.5,114.7,166.5,114.6,166.5C114.6,166.5,114.6,166.5,114.6,166.5L114.6,166.5z"></path> </g> </g> <g> <g> <path class="st1" d="M213.2,188.4h-43.5c-3.8,0-6.9-3.1-6.9-6.9V84.7c0-3.8,3.1-6.9,6.9-6.9h43.5c3.8,0,6.9,3.1,6.9,6.9v96.8 C220.1,185.4,217,188.4,213.2,188.4z"></path> <path class="st2" d="M213,186.9h-43.1c-3.3,0-6-2.7-6-6v-96c0-3.3,2.7-6,6-6H213c3.3,0,6,2.7,6,6v96 C219,184.2,216.3,186.9,213,186.9z"></path> <path class="st3" d="M216.6,84.7v95.9c0,2.2-1.8,4.1-4.1,4.1h-42.1c-2.2,0-4.1-1.8-4.1-4.1V84.7c0-2.2,1.8-4.1,4.1-4.1h7 c0.4,0,0.7,0.2,0.9,0.6l0.7,1.5c0.3,0.7,1,1.1,1.8,1.1h21.1c0.7,0,1.5-0.4,1.8-1.1l0.7-1.5c0.2-0.3,0.5-0.6,0.9-0.6h7 C214.8,80.6,216.6,82.4,216.6,84.7z"></path> <path class="st3" d="M200.3,82h-17c-0.4,0-0.7-0.3-0.7-0.7l0,0c0-0.4,0.3-0.7,0.7-0.7h17c0.4,0,0.7,0.3,0.7,0.7l0,0 C201,81.7,200.7,82,200.3,82z"></path> </g> <path class="st21" d="M209.9,181.3H172c-1.5,0-2.7-1.2-2.7-2.7v-13.4c0-1.5,1.2-2.7,2.7-2.7h37.9c1.5,0,2.7,1.2,2.7,2.7v13.4 C212.6,180.1,211.4,181.3,209.9,181.3z"></path> <g> <path class="st1" d="M212,159.4h-38.8c-1.3,0-2.3-1-2.3-2.3v-16.4c0-1.3,1-2.3,2.3-2.3H212c1.3,0,2.3,1,2.3,2.3v16.4 C214.3,158.4,213.3,159.4,212,159.4z"></path> <path class="st7" d="M212.6,139v16.4c0,1.3-1,2.3-2.3,2.3h-38.7c-1.3,0-2.3-1-2.3-2.3V139c0-1.3,1-2.3,2.3-2.3h38.6 C211.6,136.7,212.6,137.8,212.6,139z"></path> <path class="st2" d="M184.3,156h-11.4c-0.9,0-1.6-0.7-1.6-1.6v-11.4c0-0.9,0.7-1.6,1.6-1.6h11.4c0.9,0,1.6,0.7,1.6,1.6v11.4 C185.8,155.3,185.1,156,184.3,156z"></path> <g> <path class="st3" d="M197.8,143.3h-10c-0.3,0-0.5-0.2-0.5-0.5l0,0c0-0.3,0.2-0.5,0.5-0.5h10c0.3,0,0.5,0.2,0.5,0.5l0,0 C198.2,143.1,198,143.3,197.8,143.3z"></path> <path class="st3" d="M193.2,145.3h-5.5c-0.3,0-0.5-0.2-0.5-0.5l0,0c0-0.3,0.2-0.5,0.5-0.5h5.5c0.3,0,0.5,0.2,0.5,0.5l0,0 C193.7,145.1,193.5,145.3,193.2,145.3z"></path> <path class="st3" d="M210,145.3h-14.8c-0.3,0-0.5-0.2-0.5-0.5l0,0c0-0.3,0.2-0.5,0.5-0.5H210c0.3,0,0.5,0.2,0.5,0.5l0,0 C210.5,145.1,210.2,145.3,210,145.3z"></path> <path class="st3" d="M196.2,147.3h-8.4c-0.3,0-0.5-0.2-0.5-0.5l0,0c0-0.3,0.2-0.5,0.5-0.5h8.4c0.3,0,0.5,0.2,0.5,0.5l0,0 C196.7,147,196.5,147.3,196.2,147.3z"></path> <path class="st3" d="M203.4,147.3H198c-0.3,0-0.5-0.2-0.5-0.5l0,0c0-0.3,0.2-0.5,0.5-0.5h5.3c0.3,0,0.5,0.2,0.5,0.5l0,0 C203.8,147,203.6,147.3,203.4,147.3z"></path> <path class="st3" d="M210,147.3h-4.9c-0.3,0-0.5-0.2-0.5-0.5l0,0c0-0.3,0.2-0.5,0.5-0.5h4.9c0.3,0,0.5,0.2,0.5,0.5l0,0 C210.5,147,210.2,147.3,210,147.3z"></path> <path class="st3" d="M210,149.2h-22.2c-0.3,0-0.5-0.2-0.5-0.5l0,0c0-0.3,0.2-0.5,0.5-0.5H210c0.3,0,0.5,0.2,0.5,0.5l0,0 C210.5,149,210.2,149.2,210,149.2z"></path> <path class="st3" d="M200,151.2h-12.2c-0.3,0-0.5-0.2-0.5-0.5l0,0c0-0.3,0.2-0.5,0.5-0.5H200c0.3,0,0.5,0.2,0.5,0.5l0,0 C200.5,151,200.2,151.2,200,151.2z"></path> <path class="st3" d="M210,151.2h-8c-0.3,0-0.5-0.2-0.5-0.5l0,0c0-0.3,0.2-0.5,0.5-0.5h8c0.3,0,0.5,0.2,0.5,0.5l0,0 C210.5,151,210.2,151.2,210,151.2z"></path> <path class="st3" d="M194.9,153.2h-7.2c-0.3,0-0.5-0.2-0.5-0.5l0,0c0-0.3,0.2-0.5,0.5-0.5h7.2c0.3,0,0.5,0.2,0.5,0.5l0,0 C195.4,153,195.2,153.2,194.9,153.2z"></path> <path class="st3" d="M204.1,153.2h-7.2c-0.3,0-0.5-0.2-0.5-0.5l0,0c0-0.3,0.2-0.5,0.5-0.5h7.2c0.3,0,0.5,0.2,0.5,0.5l0,0 C204.6,153,204.3,153.2,204.1,153.2z"></path> <path class="st3" d="M210,153.2h-4.2c-0.3,0-0.5-0.2-0.5-0.5l0,0c0-0.3,0.2-0.5,0.5-0.5h4.2c0.3,0,0.5,0.2,0.5,0.5l0,0 C210.5,153,210.2,153.2,210,153.2z"></path> <path class="st3" d="M197.8,155.1h-10c-0.3,0-0.5-0.2-0.5-0.5l0,0c0-0.3,0.2-0.5,0.5-0.5h10c0.3,0,0.5,0.2,0.5,0.5l0,0 C198.2,154.9,198,155.1,197.8,155.1z"></path> <path class="st3" d="M210,143.3h-10c-0.3,0-0.5-0.2-0.5-0.5l0,0c0-0.3,0.2-0.5,0.5-0.5h10c0.3,0,0.5,0.2,0.5,0.5l0,0 C210.5,143.1,210.2,143.3,210,143.3z"></path> </g> <g> <path class="st5" d="M212.6,139v0.7h-43.3V139c0-1.3,1-2.3,2.3-2.3h38.6C211.6,136.7,212.6,137.8,212.6,139z"></path> <g> <path class="st22" d="M204.5,138.3c0,0.3-0.2,0.5-0.5,0.5c-0.3,0-0.5-0.2-0.5-0.5c0-0.3,0.2-0.5,0.5-0.5 C204.2,137.7,204.5,138,204.5,138.3z"></path> <path class="st22" d="M207.2,138.3c0,0.3-0.2,0.5-0.5,0.5c-0.3,0-0.5-0.2-0.5-0.5c0-0.3,0.2-0.5,0.5-0.5 C207,137.7,207.2,138,207.2,138.3z"></path> <path class="st22" d="M209.9,138.3c0,0.3-0.2,0.5-0.5,0.5c-0.3,0-0.5-0.2-0.5-0.5c0-0.3,0.2-0.5,0.5-0.5S209.9,138,209.9,138.3z "></path> </g> </g> </g> </g> <g> <path class="st23" d="M240.4,118.8h-31.1c-1.7,0-3.1-1.4-3.1-3.1l0,0c0-1.7,1.4-3.1,3.1-3.1h31.1c1.7,0,3.1,1.4,3.1,3.1l0,0 C243.6,117.4,242.2,118.8,240.4,118.8z"></path> <g> <path class="st24" d="M240,115.5c0,0.9-0.7,1.6-1.6,1.6c-0.9,0-1.6-0.7-1.6-1.6c0-0.9,0.7-1.6,1.6-1.6 C239.2,113.8,240,114.6,240,115.5z"></path> <line class="st25" x1="239.5" y1="116.6" x2="240.4" y2="117.6"></line> </g> </g> <g> <g> <path class="st26" d="M191.8,94.1h6.7l-11.3,11.3l-2.9,2.9l-3.4-3.4L191.8,94.1z M191.7,104.3c0.1-0.1,0.3-0.1,0.4-0.1h6.5 l-5.9,5.9l-3.4-3.4L191.7,104.3z"></path> <path class="st27" d="M185.9,110.1l3.4-3.4l3.4,3.4v0l-3.4,3.4L185.9,110.1L185.9,110.1z"></path> <path class="st28" d="M189.3,113.4l3.4-3.4l5.9,5.9c-2.2,0-4.4,0-6.6,0c-0.1,0-0.2-0.1-0.3-0.1L189.3,113.4L189.3,113.4z"></path> </g> <path class="st29" d="M180.9,120.4h3.2v0.6c-0.8,0-1.7,0-2.5,0c-0.1,0,0,0.1,0,0.1v1.7c0,0.1,0.1,0,0.1,0h2.1v0.6c-0.7,0-1.3,0-2,0 c-0.1,0-0.2,0-0.3,0v2.4c-0.2,0-0.4,0-0.6,0L180.9,120.4C180.9,120.5,180.9,120.4,180.9,120.4z M184.8,120.4h0.7v3.7v1.8 c-0.2,0-0.4,0-0.6,0c0-0.1,0-0.2,0-0.3C184.8,125.6,184.8,120.4,184.8,120.4z M191.2,120.9h0.7v1.1c0.3,0,0.6,0,1,0 c0,0.2,0,0.4,0,0.6c-0.3,0-0.6,0-1,0v2.2c0,0.2,0.1,0.5,0.3,0.5c0.2,0.1,0.5,0.1,0.7-0.1v0.6c-0.2,0.1-0.5,0.1-0.7,0.1 c-0.3-0.1-0.7-0.3-0.8-0.7c-0.1-0.2-0.1-0.4-0.1-0.6v-2.1l0,0c-0.2,0-0.5,0-0.7,0c0-0.2,0-0.4,0-0.6c0.2,0,0.5,0,0.7,0L191.2,120.9 L191.2,120.9z M194,120.9c0.2,0,0.4,0,0.7,0l0,0c0,0.4,0,0.7,0,1.1c0.3,0,0.6,0,0.9,0v0.6c-0.3,0-0.6,0-0.9,0v2.2 c0,0.2,0.1,0.4,0.2,0.5c0.2,0.1,0.5,0.1,0.7-0.1v0.6c-0.2,0.1-0.5,0.1-0.7,0.1c-0.3,0-0.6-0.2-0.8-0.5c-0.1-0.1-0.1-0.3-0.1-0.5 v-2.4c-0.2,0-0.5,0-0.7,0V122c0.2,0,0.4,0,0.7,0C194,121.6,194,121.2,194,120.9L194,120.9z M197.1,122c0.5-0.2,1-0.2,1.4,0 c0.5,0.2,0.9,0.6,1.1,1.2c0.1,0.3,0.1,0.6,0.1,0.9h-3.1c0,0.3,0.1,0.7,0.3,0.9c0.3,0.4,0.9,0.5,1.4,0.4c0.3-0.1,0.6-0.3,0.7-0.6 c0.2,0.1,0.4,0.2,0.5,0.3c-0.3,0.5-0.7,0.9-1.3,1c-0.5,0.1-1,0.1-1.4-0.1c-0.5-0.3-0.9-0.8-1-1.4c-0.1-0.5-0.1-0.9,0.1-1.4 C196.3,122.6,196.7,122.2,197.1,122 M197.4,122.5c-0.4,0.2-0.6,0.6-0.7,1h2.4c0-0.3-0.1-0.5-0.3-0.7 C198.4,122.4,197.8,122.4,197.4,122.5z M201.1,122.6c0.3-0.6,1-0.9,1.6-0.7v0.7c-0.3-0.1-0.5-0.2-0.8-0.1c-0.4,0.1-0.6,0.4-0.7,0.8 c-0.1,0.2-0.1,0.5,0,0.7c0,0.3,0,0.6,0,1c0,0.3,0,0.5,0,0.8c-0.2,0-0.4,0-0.7,0c0-0.8,0-1.7,0-2.5V122c0.2,0,0.4,0,0.6,0 C201.1,122.2,201.1,122.4,201.1,122.6L201.1,122.6z M186.4,122c0.2,0,0.4,0,0.7,0v2.3c0,0.3,0,0.6,0.2,0.8c0.3,0.3,0.7,0.3,1,0.2 c0.5-0.2,0.8-0.7,0.8-1.2V122h0.7v3.9c-0.2,0-0.4,0-0.6,0v-0.5c-0.1,0.2-0.3,0.3-0.5,0.5c-0.4,0.3-0.9,0.3-1.4,0.1 c-0.3-0.1-0.5-0.3-0.7-0.5c-0.2-0.3-0.2-0.6-0.2-1V122L186.4,122z"></path> </g> <g> <path class="st8" d="M96.3,116.3c0.4,0.8,1.5,2.4,1.1,2.6c-0.4,0.2-1.6,0.6-2,0.5c-0.3-0.1-1.9-1.1-2.3-1.4 c-0.1-0.1-0.2-0.1-0.2-0.2c0-0.1,0-0.2,0-0.3c0.1-0.5,0.1-0.9,0.2-1.4c0-0.1,0-0.1,0-0.1c0,0,0.1-0.1,0.2-0.1 c0.8-0.2,1.7-0.1,2.5,0.1c0.1,0,0.2,0,0.3,0.1C96.2,116.1,96.2,116.2,96.3,116.3L96.3,116.3z"></path> <path class="st30" d="M105.4,130.2c0.2,1.3-1.3,4.8-4.6,0.2c-0.4-0.6-1.7-3.1-2-3.7c-1.2-2.8-2.2-4.8-3.9-7.3 c0.4-1.2,2.3-1.7,2.8-1C98.6,119.5,105,127.3,105.4,130.2L105.4,130.2z"></path> <g class="st31"> <path d="M105.4,130.2c0.2,1.3-1.3,4.8-4.6,0.2c-0.4-0.6-1.7-3.1-2-3.7c-1.2-2.8-2.2-4.8-3.9-7.3c0.4-1.2,2.3-1.7,2.8-1 C98.6,119.5,105,127.3,105.4,130.2L105.4,130.2z"></path> </g> <g> <g> <path class="st8" d="M82.1,137l-1.1,1.7c-0.2,0.4,1.2,2.1,1.2,2.1c0.2,0.2,0.5,0.2,0.8,0.1c1.2-0.4,2.2-1.5,2.7-2 c0.2-0.2,0.1-0.4,0-0.6l-0.9-0.8C84.2,137.1,82.1,137,82.1,137L82.1,137z"></path> <path class="st30" d="M76.7,137.2c-4.4-2.4-6.3-5.4-5.4-6.4c0.8-0.9,10.3-9.8,12.3-10c2.9-0.3,3.2,1.5,0.7,4.3 c-3.2,3.1-8.2,6.8-8.2,6.8l5.4,4.5l0.8,0.7c0,0-0.1,2.4-2.1,1.5l-2.9-1.1C77.1,137.4,76.9,137.3,76.7,137.2L76.7,137.2z"></path> <path class="st7" d="M76.7,137.2c-4.4-2.4-6.3-5.4-5.4-6.4c0.8-0.9,10.3-9.8,12.3-10c2.9-0.3,3.2,1.5,0.7,4.3 c-3.2,3.1-8.2,6.8-8.2,6.8l5.4,4.5l0.8,0.7c0,0-0.1,2.4-2.1,1.5l-2.9-1.1C77.1,137.4,76.9,137.3,76.7,137.2L76.7,137.2z"></path> <path class="st19" d="M75.2,127.5C75.2,127.5,75.2,127.5,75.2,127.5C75.2,127.5,75.2,127.5,75.2,127.5z"></path> </g> <g id="_Group_"> <path class="st19" d="M93.7,110c0.1,0.3,0.2,0.4,0.4,0.4c0.2,0,0.3-0.3,0.2-0.5c-0.1-0.3-0.2-0.4-0.4-0.4 C93.7,109.5,93.6,109.7,93.7,110z"></path> <path class="st8" d="M94.3,112.8l-0.5-2.4c0.5,0.7,1,1.4,1.6,1.9C95.2,112.6,94.8,112.8,94.3,112.8L94.3,112.8z"></path> <path class="st19" d="M92.6,108.7c0,0-0.1,0-0.1,0c-0.1,0-0.1-0.1-0.1-0.2c0,0,0-0.1,0-0.1c0.3-0.4,0.8-0.5,1.3-0.5 c0.1,0,0.2,0.1,0.2,0.2c0,0.1-0.1,0.2-0.2,0.2c0,0-0.1,0-0.1,0l0,0C93.2,108.3,92.8,108.4,92.6,108.7L92.6,108.7z"></path> <path class="st8" d="M90.6,124c4.8,0.1,2.3-2,2.3-2c-1.7-0.6-1.9-2.3-1.6-4c0,0,0-0.1,0-0.1c0,0,0,0-0.1,0 c-1,0.2-2.1,0.1-3.1-0.6c-0.5-0.4-0.9-0.8-1.3-1.3c0.2,2.1,0.1,4.4-1.2,5.6C85.7,121.6,86.3,123.9,90.6,124L90.6,124z"></path> <path class="st32" d="M91.5,117.2l-0.2-0.1l-4.6-2.7c0.1,0.5,0.2,1,0.2,1.5c0.3,0.5,0.7,0.9,1.3,1.3c1,0.7,2.1,0.9,3.1,0.6 c0,0,0,0,0.1,0C91.4,117.6,91.4,117.4,91.5,117.2L91.5,117.2z"></path> <path class="st30" d="M85.2,121.4l8.4-0.3c0,0-0.6-1.5-1.2-1.7c-0.6-0.3-4.7-1-5.6-0.4C85.9,119.5,85.2,121.4,85.2,121.4 L85.2,121.4z"></path> <path class="st33" d="M85.2,121.4l8.4-0.3c0,0-0.6-1.5-1.2-1.7c-0.6-0.3-4.7-1-5.6-0.4C85.9,119.5,85.2,121.4,85.2,121.4 L85.2,121.4z"></path> <g> <path class="st30" d="M90.5,214.3c-0.3,0-0.6,0-0.9-0.1c0,0-0.1,0-0.1-0.1c0,0,0-0.1,0-0.1c0.1,0,1.1-0.6,1.6-0.5 c0.1,0,0.2,0.1,0.2,0.2c0.1,0.1,0.1,0.2,0,0.3C91.3,214.3,90.9,214.3,90.5,214.3L90.5,214.3z M91,213.7L91,213.7 c-0.4,0-0.8,0.2-1.2,0.4c0.6,0.1,1.3,0.1,1.5-0.1c0,0,0.1-0.1,0-0.2c0-0.1-0.1-0.1-0.1-0.1C91.1,213.7,91.1,213.7,91,213.7 L91,213.7z"></path> <path class="st30" d="M89.6,214.2C89.6,214.2,89.6,214.2,89.6,214.2C89.5,214.2,89.5,214.2,89.6,214.2c-0.1-0.1,0-0.9,0.4-1.2 c0.1-0.1,0.3-0.1,0.4-0.1c0.2,0,0.3,0.1,0.3,0.2C90.7,213.4,90,214.1,89.6,214.2L89.6,214.2L89.6,214.2z M90.4,213 c-0.1,0-0.2,0-0.3,0.1c-0.2,0.3-0.4,0.6-0.4,0.9c0.4-0.2,0.9-0.7,0.8-0.9C90.5,213.1,90.5,213,90.4,213L90.4,213L90.4,213z"></path> <polygon class="st8" points="86.3,214.2 89.3,214.2 89.6,207.2 86.5,207.2 "></polygon> <path class="st9" d="M89.3,213.8H86c-0.1,0-0.2,0.1-0.3,0.2l-0.6,2.7c-0.1,0.2,0.1,0.5,0.3,0.5c0,0,0.1,0,0.1,0 c1.2,0,2.9-0.1,4.4-0.1c1.8,0,2,0.1,4,0.1c1.3,0,1.6-1.3,1.1-1.4c-2.4-0.5-3-0.6-5.1-1.8C89.8,213.9,89.5,213.8,89.3,213.8z"></path> <polygon class="st34" points="89.6,207.2 89.4,211.1 86.4,211.1 86.5,207.2 "></polygon> <path class="st30" d="M64,213.1c0,0.3-0.1,0.6-0.2,1c0,0,0,0.1-0.1,0.1c0,0-0.1,0-0.1,0c0-0.1-0.5-1.2-0.3-1.7 c0-0.1,0.1-0.2,0.2-0.2c0.1-0.1,0.2-0.1,0.3,0C64,212.3,64,212.6,64,213.1L64,213.1z M63.4,212.5L63.4,212.5 c0,0.4,0.1,0.9,0.3,1.3c0.1-0.6,0.2-1.4,0-1.5c0,0-0.1-0.1-0.2,0c-0.1,0-0.1,0.1-0.1,0.1C63.4,212.4,63.4,212.5,63.4,212.5 L63.4,212.5z"></path> <path class="st30" d="M63.8,214C63.8,214,63.8,214,63.8,214C63.8,214.1,63.8,214.1,63.8,214c-0.1,0.1-1-0.1-1.2-0.5 c-0.1-0.1-0.1-0.3-0.1-0.4c0-0.2,0.2-0.3,0.2-0.3C63.1,212.8,63.7,213.6,63.8,214C63.8,214,63.8,214,63.8,214L63.8,214z M62.6,213.1L62.6,213.1c0,0.1,0,0.2,0.1,0.3c0.3,0.3,0.6,0.4,0.9,0.5c-0.2-0.4-0.7-1-0.9-0.9C62.7,213,62.6,213,62.6,213.1 C62.6,213.1,62.6,213.1,62.6,213.1L62.6,213.1z"></path> <polygon class="st8" points="64.2,214.2 67.2,214.4 68.9,207.3 66,207.1 "></polygon> <path class="st9" d="M63.5,213.6c0.2-0.2,0.5-0.3,0.8-0.3l3-0.1c0.1,0,0.2,0.1,0.3,0.2l0.6,2.8c0.1,0.2-0.1,0.5-0.3,0.6 c0,0-0.1,0-0.1,0c-1.3,0-2.6,0-4.2,0c-1.8,0-0.7,0.1-2.8,0.1c-1.3,0-1.7-1.3-1.1-1.4C62.1,215,62.6,214.5,63.5,213.6L63.5,213.6 z"></path> <polygon class="st34" points="68.9,207.3 68,211 65.1,210.7 66,207.1 "></polygon> <path class="st30" d="M81.9,145.9l9.5,0c0,0-6.5,20.9-9,28.9c-2.8,8.9-12.7,35.1-12.7,35.1l-5.3-1.2c0,0,6.6-22,9.7-34.4 c1-4,2.4-8,3.4-13.2c0.5-3,0-5.3,1.6-9.6C80.3,148.4,81.9,145.9,81.9,145.9L81.9,145.9z"></path> <path class="st9" d="M81.9,145.9l9.5,0c0,0-6.5,20.9-9,28.9c-2.8,8.9-12.7,35.1-12.7,35.1l-5.3-1.2c0,0,6.6-22,9.7-34.4 c1-4,2.4-8,3.4-13.2c0.5-3,0-5.3,1.6-9.6C80.3,148.4,81.9,145.9,81.9,145.9L81.9,145.9z"></path> <g> <path class="st30" d="M63.9,207.7l6.9,0.5c0,0-0.5,2.1-0.5,2.1l-6.4-0.7L63.9,207.7L63.9,207.7z"></path> <path class="st33" d="M63.9,207.7l6.9,0.5c0,0-0.5,2.1-0.5,2.1l-6.4-0.7L63.9,207.7L63.9,207.7z"></path> </g> <path class="st35" d="M88.5,155.5c-0.2-0.1-0.4-0.1-0.6,0c-3.7,0.5-5.1,12.7-5.6,20c0.1-0.2,0.1-0.5,0.2-0.7 C83.9,170.4,86.4,162.1,88.5,155.5L88.5,155.5z"></path> <path class="st30" d="M86.8,145.8l10.4,0.2c0,0-2.2,20.2-3.1,28.7c-0.9,9-3.4,35.3-3.4,35.3l-5.1,0c0,0-0.7-25.8-0.5-34.6 C85.3,165.9,86.8,145.8,86.8,145.8L86.8,145.8z"></path> <path class="st9" d="M86.8,145.8l10.4,0.2c0,0-2.2,20.2-3.1,28.7c-0.9,9-3.4,35.3-3.4,35.3l-5.1,0c0,0-0.7-25.8-0.5-34.6 C85.3,165.9,86.8,145.8,86.8,145.8L86.8,145.8z"></path> <g> <path class="st30" d="M84.8,208.3l6.7-0.2c0,0-0.3,2.1-0.3,2.1l-6.2,0L84.8,208.3L84.8,208.3z"></path> <path class="st33" d="M84.8,208.3l6.7-0.2c0,0-0.3,2.1-0.3,2.1l-6.2,0L84.8,208.3L84.8,208.3z"></path> </g> </g> <g> <path class="st7" d="M76.9,152.2l5.4-11.1c0.1-3.6-0.1-9-1.5-16.4c-0.4-2.2,1.9-4.1,4.2-4.3c0,0,1.4-0.1,1.4-0.1 c2.2-0.1,4.3-0.1,6.5,0.1c0.7,0.1,1.4,0.2,2,0.3c1.7,0.3,2.9,1.6,3.2,3.3c0.6,3.1,0.9,9.4-1,22c0,0-1.8,7.7-1.8,7.8 c0,0.1-0.9-0.3-1.9-0.8c-1.9-0.9-4-1.3-6.2-1.3l-0.7,0l0.5-4l-1.7,3.8c-2.3-0.5-4.8-0.5-7.1,0.2L76.9,152.2L76.9,152.2z"></path> <path class="st34" d="M93.9,123.7l4.6,3.2c0.1,1.1,0,7.3,0,7.3C96.9,128.5,94.8,125.2,93.9,123.7z"></path> </g> <g> <path class="st8" d="M94.6,113.8c0.1-2.9-1.2-7.4-4.5-8.1c-2.3-0.5-4.6,1-5.1,3.4c-0.1,0.7-0.1,1.3,0.1,2 c0.6,2.2,0.9,3.7,1.7,4.9c0.3,0.5,0.7,0.9,1.3,1.3c1,0.7,2.1,0.9,3.1,0.6c0,0,0,0,0.1,0c0.4-0.1,0.7-0.2,1.1-0.4c0,0,0,0,0,0h0 C93.7,116.7,94.6,115.4,94.6,113.8L94.6,113.8z"></path> <path class="st34" d="M92.4,117.4c-0.2,0-0.9-1.5-0.9-1.5c0,0-0.2,1.9-0.2,1.9C91.7,117.8,92.1,117.6,92.4,117.4L92.4,117.4z"></path> </g> <path class="st9" d="M81.4,111.5c0.4,0.2,0.9,0,1.1-0.4c0.2-0.4,0.2-0.8,0.2-1.2c-0.1-0.4-0.2-0.8-0.1-1.3c0-0.4,0.3-0.7,0.7-0.8 c-0.2-0.5,0-1.1,0.4-1.5c0.4-0.4,0.9-0.6,1.5-0.4c0.1-0.5,0.6-1,1.1-1.2c0.5-0.2,1.1-0.1,1.6,0.3c0.3-0.5,1-0.8,1.5-0.9 c0.4,0,0.8,0.1,1.1,0.4c0.3-0.1,0.5-0.1,0.5-0.1s1.4,0.4,1.5,1.1c0.1,0.7-0.2,1.2-0.2,1.2s0.7-0.4,1,0.9c0.1,0.5,0.1,1-0.2,1.2 c0,0,0,0.1,0,0.1c0,0.4-0.5,0.8-0.3,1c0.4,0.3,0.2,1.3,0.3,1.7l-0.3,0.1c-1.1,0.5-1.9,3.9-2.1,4c0,0-0.2,0.1-0.3,0.1 c-0.6,0.2-1.2,0.3-1.8,0.3c-0.6,0-1.1-0.1-1.7-0.3c0,0-2.1-1.9-3.2-3.6c-0.3,0.1-0.6,0.2-1,0.2C82.2,112.5,81.7,112,81.4,111.5 L81.4,111.5z"></path> <path class="st8" d="M90.3,111.2c0.2,0.8,0.6,1.4,1.2,1.9c0.8,0.6,1.4,0.1,1.4-0.9c0-0.9-0.5-2.2-1.4-2.5 C90.6,109.5,90.1,110.3,90.3,111.2z"></path> </g> <path class="st7" d="M99.2,124c-2.2-3.6-3.9-3-4.9-2c-0.7,0.7-0.7,1.6-0.2,2.7l6.8,7.9c1.9,1.8,4.7-0.2,3.9-2.1L99.2,124L99.2,124 z"></path> </g> </g> </svg> 