<?xml version="1.0" encoding="UTF-8"?> <svg xmlns="http://www.w3.org/2000/svg" xmlns:xlink="http://www.w3.org/1999/xlink" version="1.1" id="Warstwa_1" x="0px" y="0px" viewBox="0 0 379 293" style="enable-background:new 0 0 379 293;" xml:space="preserve"> <style type="text/css"> .st0{fill:#E1E1E1;} .st1{fill:#F0F0F0;} .st2{fill:#F5F5F5;} .st3{fill:#1A2E35;} .st4{opacity:0.3;fill:#FFFFFF;enable-background:new ;} .st5{fill:#007CFF;} .st6{opacity:0.5;fill:#FFFFFF;enable-background:new ;} .st7{opacity:0.2;fill:#FFFFFF;enable-background:new ;} .st8{fill:none;stroke:#FFFFFF;stroke-width:0.3534;stroke-linecap:round;stroke-linejoin:round;stroke-miterlimit:10;} .st9{fill:none;stroke:#1A2E35;stroke-width:0.3534;stroke-linecap:round;stroke-linejoin:round;stroke-miterlimit:10;} .st10{opacity:0.5;fill:#FFFFFF;} .st11{fill:none;stroke:#1A2E35;stroke-width:0.1897;stroke-miterlimit:10;} .st12{opacity:0.3;} .st13{opacity:0.4;} .st14{fill:#FFFFFF;} .st15{opacity:0.4;fill:#FFFFFF;} .st16{opacity:0.2;} .st17{opacity:0.2;enable-background:new ;} .st18{fill:#FBB473;} .st19{fill:#ED883E;} .st20{fill:none;stroke:#1A2E35;stroke-width:0.2845;stroke-linecap:round;stroke-linejoin:round;stroke-miterlimit:10;} .st21{opacity:0.2;fill:none;stroke:#000000;stroke-width:0.1897;stroke-linecap:round;stroke-linejoin:round;stroke-miterlimit:10;} .st22{opacity:0.3;fill:#FFFFFF;} .st23{opacity:0.8;fill:#FFFFFF;} .st24{fill:#A7681B;} </style> <path class="st0" d="M170.5,125.1c2.5-2.9,11.8-4.9,16.9-0.3c0,0-1.8-2.7,0-5.1c0,0-2.3,1.5-4.4,0c-2.1-1.5-2.6-9.1-2.6-9.1 s-0.5,7.7-3.9,8.4c-3.4,0.7-5.6-4.2-5.6-4.2s1.9,5.4,0.9,6.2c-0.9,0.8-2.8,0-2.8,0L170.5,125.1z"></path> <path class="st0" d="M163.8,132.5c0,0-3.4,6.6,0,12.5c-1.4-0.9-3.2-1.1-4.8-0.5c0,0,1.3-1.4,1.1-2.9c-0.2-1.5-6.3-3.6-6.3-3.6 s4.8,0.4,5.9-1.2c1.1-1.7-2.7-4.9-2.7-4.9s4.1,2.2,4.9,1.5c0.9-0.7,0-2.9,0-2.9L163.8,132.5z"></path> <path class="st0" d="M194.1,145.8c0,0,3.4-4.7,0.7-11.9l2.3-1.4c0,0-0.9,1.5-0.4,2.5c0.5,1,5.5,0.3,5.5,0.3s-3.9,0.8-4.1,2.9 c-0.2,2.1,4.9,5.1,4.9,5.1s-4.6-1.2-5.6,0c-1,1.2,1.1,3.4,1.1,3.4S196.3,144.9,194.1,145.8z"></path> <path class="st0" d="M125.8,102c-1,1.5-1.7,3.2-2,4.9l-2.7,0.3l0,5.3l2.7,0.3c0.4,1.7,1,3.4,2,4.9l-1.7,2.1l3.7,3.7l2.1-1.7 c1.5,1,3.2,1.7,4.9,2l0.3,2.7l5.3,0l0.3-2.7c1.7-0.4,3.4-1,4.9-2l2.1,1.7l3.7-3.7l-1.7-2.1c1-1.5,1.7-3.2,2-4.9l2.7-0.3l0-5.3 l-2.7-0.3c-0.4-1.7-1-3.4-2-4.9l1.7-2.1l-3.7-3.7l-2.1,1.7c-1.5-1-3.2-1.7-4.9-2l-0.3-2.7l-5.3,0l-0.3,2.7c-1.7,0.4-3.4,1-4.9,2 l-2.1-1.7l-3.7,3.7L125.8,102z M142.8,104.7c2.8,2.8,2.8,7.3,0,10.1c-2.8,2.8-7.3,2.8-10.1,0c-2.8-2.8-2.8-7.3,0-10.1 C135.4,101.9,140,101.9,142.8,104.7z"></path> <path class="st1" d="M158.5,76.4c-0.5,0.8-0.9,1.7-1.1,2.7l-1.5,0.1l0,2.9l1.5,0.1c0.2,0.9,0.6,1.8,1.1,2.7l-1,1.2l2,2l1.2-1 c0.8,0.5,1.7,0.9,2.7,1.1l0.1,1.5l2.9,0l0.1-1.5c0.9-0.2,1.8-0.6,2.7-1.1l1.2,1l2-2l-1-1.2c0.5-0.8,0.9-1.7,1.1-2.7l1.5-0.1l0-2.9 l-1.5-0.1c-0.2-0.9-0.6-1.8-1.1-2.7l1-1.2l-2-2l-1.2,1c-0.8-0.5-1.7-0.9-2.7-1.1l-0.1-1.5l-2.9,0l-0.1,1.5c-0.9,0.2-1.8,0.6-2.7,1.1 l-1.2-1l-2,2L158.5,76.4z M167.8,77.9c1.5,1.5,1.5,4,0,5.5c-1.5,1.5-4,1.5-5.5,0c-1.5-1.5-1.5-4,0-5.5 C163.8,76.4,166.3,76.4,167.8,77.9z"></path> <path class="st0" d="M211.5,131.1c-0.4,0.6-0.6,1.2-0.8,1.9l-1,0.1l0,2l1,0.1c0.1,0.7,0.4,1.3,0.8,1.9l-0.7,0.8l1.4,1.4l0.8-0.7 c0.6,0.4,1.2,0.6,1.9,0.8l0.1,1l2,0l0.1-1c0.7-0.1,1.3-0.4,1.9-0.8l0.8,0.7l1.4-1.4l-0.7-0.8c0.4-0.6,0.6-1.2,0.8-1.9l1-0.1l0-2 l-1-0.1c-0.1-0.7-0.4-1.3-0.8-1.9l0.7-0.8l-1.4-1.4l-0.8,0.7c-0.6-0.4-1.2-0.6-1.9-0.8l-0.1-1l-2,0l-0.1,1c-0.7,0.1-1.3,0.4-1.9,0.8 l-0.8-0.7l-1.4,1.4L211.5,131.1z M218,132.2c1.1,1.1,1.1,2.8,0,3.9c-1.1,1.1-2.8,1.1-3.9,0c-1.1-1.1-1.1-2.8,0-3.9 C215.2,131.1,216.9,131.1,218,132.2z"></path> <path class="st0" d="M187.6,195.6c-0.4,0.6-0.6,1.2-0.8,1.9l-1,0.1l0,2l1,0.1c0.1,0.7,0.4,1.3,0.8,1.9l-0.7,0.8l1.4,1.4l0.8-0.7 c0.6,0.4,1.2,0.6,1.9,0.8l0.1,1l2,0l0.1-1c0.7-0.1,1.3-0.4,1.9-0.8l0.8,0.7l1.4-1.4l-0.7-0.8c0.4-0.6,0.6-1.2,0.8-1.9l1-0.1l0-2 l-1-0.1c-0.1-0.7-0.4-1.3-0.8-1.9l0.7-0.8l-1.4-1.4l-0.8,0.7c-0.6-0.4-1.2-0.6-1.9-0.8l-0.1-1l-2,0l-0.1,1c-0.7,0.1-1.3,0.4-1.9,0.8 l-0.8-0.7l-1.4,1.4L187.6,195.6z M194.1,196.6c1.1,1.1,1.1,2.8,0,3.9c-1.1,1.1-2.8,1.1-3.9,0c-1.1-1.1-1.1-2.8,0-3.9 C191.3,195.5,193.1,195.5,194.1,196.6z"></path> <path class="st0" d="M205.9,148c-0.5,0.8-0.9,1.7-1.1,2.7l-1.5,0.1l0,2.9l1.5,0.1c0.2,0.9,0.6,1.8,1.1,2.7l-1,1.2l2,2l1.2-1 c0.8,0.5,1.7,0.9,2.7,1.1l0.1,1.5l2.9,0l0.1-1.5c0.9-0.2,1.8-0.6,2.7-1.1l1.2,1l2-2l-1-1.2c0.5-0.8,0.9-1.7,1.1-2.7l1.5-0.1l0-2.9 l-1.5-0.1c-0.2-0.9-0.6-1.8-1.1-2.7l1-1.2l-2-2l-1.1,1c-0.8-0.5-1.7-0.9-2.7-1.1l-0.1-1.5l-2.9,0l-0.1,1.5c-0.9,0.2-1.8,0.6-2.7,1.1 l-1.2-1l-2,2L205.9,148z M215.2,149.5c1.5,1.5,1.5,4,0,5.5c-1.5,1.5-4,1.5-5.5,0c-1.5-1.5-1.5-4,0-5.5 C211.2,148,213.6,148,215.2,149.5z"></path> <path class="st1" d="M227.4,142.4c-0.8,1.2-1.3,2.4-1.6,3.8l-2.1,0.2l0,4.1l2.1,0.2c0.3,1.3,0.8,2.6,1.6,3.8L226,156l2.9,2.9 l1.6-1.3c1.2,0.8,2.4,1.3,3.8,1.6l0.2,2.1l4.1,0l0.2-2.1c1.3-0.3,2.6-0.8,3.8-1.6l1.6,1.3l2.9-2.9l-1.3-1.6c0.8-1.2,1.3-2.4,1.6-3.8 l2.1-0.2l0-4.1l-2.1-0.2c-0.3-1.3-0.8-2.6-1.6-3.8l1.3-1.6l-2.9-2.9l-1.6,1.3c-1.2-0.8-2.4-1.3-3.8-1.6l-0.2-2.1l-4.1,0l-0.2,2.1 c-1.3,0.3-2.6,0.8-3.8,1.6l-1.6-1.3l-2.9,2.9L227.4,142.4z M240.4,144.5c2.2,2.2,2.2,5.7,0,7.8c-2.2,2.2-5.7,2.2-7.8,0 c-2.2-2.2-2.2-5.7,0-7.8C234.8,142.3,238.3,142.3,240.4,144.5z"></path> <path class="st1" d="M206.8,80.1c-0.6,1-1.1,2-1.3,3.1l-1.7,0.2l0,3.4l1.7,0.2c0.2,1.1,0.7,2.2,1.3,3.1l-1.1,1.3l2.4,2.4l1.3-1.1 c1,0.6,2,1.1,3.1,1.3l0.2,1.7l3.4,0l0.2-1.7c1.1-0.2,2.2-0.7,3.1-1.3l1.3,1.1l2.4-2.4L222,90c0.6-1,1.1-2,1.3-3.1l1.7-0.2l0-3.4 l-1.7-0.2c-0.2-1.1-0.7-2.2-1.3-3.1l1.1-1.3l-2.4-2.4l-1.3,1.1c-1-0.6-2-1.1-3.1-1.3l-0.2-1.7l-3.4,0l-0.2,1.7 c-1.1,0.2-2.2,0.7-3.1,1.3l-1.3-1.1l-2.4,2.4L206.8,80.1z M217.7,81.8c1.8,1.8,1.8,4.7,0,6.5c-1.8,1.8-4.7,1.8-6.5,0 c-1.8-1.8-1.8-4.7,0-6.5C213,80,215.9,80,217.7,81.8z"></path> <path class="st1" d="M120.5,153c-0.6,0.9-1,1.9-1.2,3l-1.6,0.2l0,3.2l1.6,0.2c0.2,1,0.6,2,1.2,3l-1.1,1.3l2.3,2.3l1.3-1.1 c0.9,0.6,1.9,1,3,1.2l0.2,1.6l3.2,0l0.2-1.6c1-0.2,2-0.6,3-1.2l1.3,1.1l2.3-2.3l-1.1-1.3c0.6-0.9,1-1.9,1.2-3l1.6-0.2l0-3.2 l-1.6-0.2c-0.2-1-0.6-2-1.2-2.9l1.1-1.3l-2.3-2.3l-1.3,1.1c-0.9-0.6-1.9-1-3-1.2l-0.2-1.6l-3.2,0l-0.2,1.6c-1,0.2-2,0.6-3,1.2 l-1.3-1.1l-2.3,2.3L120.5,153z M130.7,154.6c1.7,1.7,1.7,4.4,0,6.1c-1.7,1.7-4.4,1.7-6.1,0c-1.7-1.7-1.7-4.4,0-6.1 C126.3,152.9,129,152.9,130.7,154.6z"></path> <path class="st1" d="M157.5,192.4c-0.8,1.1-1.3,2.4-1.5,3.7l-2.1,0.2l0,4l2.1,0.2c0.3,1.3,0.8,2.6,1.5,3.7l-1.3,1.6l2.8,2.8l1.6-1.3 c1.1,0.8,2.4,1.3,3.7,1.5l0.2,2.1l4,0l0.2-2.1c1.3-0.3,2.6-0.8,3.7-1.5l1.6,1.3l2.8-2.8l-1.3-1.6c0.8-1.1,1.3-2.4,1.5-3.7l2.1-0.2 l0-4l-2.1-0.2c-0.3-1.3-0.8-2.6-1.5-3.7l1.3-1.6l-2.8-2.8l-1.6,1.3c-1.1-0.8-2.4-1.3-3.7-1.5l-0.2-2.1l-4,0l-0.2,2.1 c-1.3,0.3-2.6,0.8-3.7,1.5L159,188l-2.8,2.8L157.5,192.4z M170.3,194.5c2.1,2.1,2.1,5.5,0,7.7c-2.1,2.1-5.5,2.1-7.7,0 c-2.1-2.1-2.1-5.5,0-7.7C164.8,192.4,168.2,192.4,170.3,194.5z"></path> <g> <g> <g> <g> <g> <path class="st0" d="M263.1,172.7h-68.6c-1.2,0-2.2-1-2.2-2.2V70.6c0-1.2,1-2.2,2.2-2.2h68.6c1.2,0,2.2,1,2.2,2.2v99.9 C265.3,171.7,264.3,172.7,263.1,172.7z M194.5,68.5c-1.2,0-2.1,1-2.1,2.1v99.9c0,1.2,1,2.1,2.1,2.1h68.6c1.2,0,2.1-1,2.1-2.1 V70.6c0-1.2-1-2.1-2.1-2.1H194.5z"></path> </g> </g> <g> <g> <path class="st0" d="M184,172.7h-68.6c-1.2,0-2.2-1-2.2-2.2V70.6c0-1.2,1-2.2,2.2-2.2H184c1.2,0,2.2,1,2.2,2.2v99.9 C186.2,171.7,185.2,172.7,184,172.7z M115.4,68.5c-1.2,0-2.1,1-2.1,2.1v99.9c0,1.2,1,2.1,2.1,2.1H184c1.2,0,2.1-1,2.1-2.1V70.6 c0-1.2-1-2.1-2.1-2.1H115.4z"></path> </g> </g> </g> <g> <g> <rect x="94.7" y="195.8" class="st0" width="189.7" height="0.1"></rect> </g> </g> </g> <rect x="114.3" y="201.3" class="st0" width="6.1" height="0.1"></rect> <rect x="159.3" y="200.2" class="st0" width="20.3" height="0.1"></rect> <rect x="120.7" y="204.8" class="st0" width="13.8" height="0.1"></rect> <rect x="238.2" y="200.2" class="st0" width="16.4" height="0.1"></rect> <rect x="257.9" y="200.2" class="st0" width="2.4" height="0.1"></rect> <rect x="214.6" y="202.5" class="st0" width="20.4" height="0.1"></rect> </g> <g> <g> <path class="st2" d="M268.7,216.1c0,1.3-35.5,2.3-79.2,2.3s-79.2-1-79.2-2.3c0-1.3,35.5-2.3,79.2-2.3S268.7,214.8,268.7,216.1z"></path> </g> </g> <g id="freepik--light-bulb--inject-2"> <g> <g> <path class="st3" d="M184.8,161.5c0,1.8-2.5,3.2-5.5,3.2c-3,0-5.5-1.5-5.4-3.3c0-1.8,2.5-3.2,5.5-3.2 C182.4,158.2,184.8,159.7,184.8,161.5z"></path> <path class="st3" d="M187.2,155.5c0.3-0.3,0.5-0.7,0.5-1.1c0-1.8-3.7-3.2-8.3-3.3c-4.6,0-8.4,1.3-8.4,3.1c0,0.4,0.2,0.8,0.5,1.1 c-0.1,0.2-0.1,0.4-0.1,0.5c0,0.4,0.2,0.8,0.5,1.1c-0.1,0.2-0.2,0.4-0.2,0.6c0,0.4,0.2,0.8,0.5,1.1c-0.1,0.2-0.2,0.4-0.2,0.6 c0,0.4,0.2,0.8,0.5,1c-0.1,0.2-0.2,0.4-0.2,0.6c0,1.5,3.1,2.7,6.9,2.7c3.8,0,7-1.1,7-2.6c0-0.2-0.1-0.4-0.2-0.6 c0.3-0.3,0.5-0.6,0.5-1c0-0.2-0.1-0.4-0.2-0.6c0.3-0.3,0.5-0.6,0.5-1c0-0.2-0.1-0.4-0.1-0.6c0.3-0.3,0.5-0.6,0.5-1.1 C187.3,155.9,187.3,155.7,187.2,155.5z"></path> <path class="st4" d="M187.2,155.5c0.3-0.3,0.5-0.7,0.5-1.1c0-1.8-3.7-3.2-8.3-3.3c-4.6,0-8.4,1.3-8.4,3.1c0,0.4,0.2,0.8,0.5,1.1 c-0.1,0.2-0.1,0.4-0.1,0.5c0,0.4,0.2,0.8,0.5,1.1c-0.1,0.2-0.2,0.4-0.2,0.6c0,0.4,0.2,0.8,0.5,1.1c-0.1,0.2-0.2,0.4-0.2,0.6 c0,0.4,0.2,0.8,0.5,1c-0.1,0.2-0.2,0.4-0.2,0.6c0,1.5,3.1,2.7,6.9,2.7c3.8,0,7-1.1,7-2.6c0-0.2-0.1-0.4-0.2-0.6 c0.3-0.3,0.5-0.6,0.5-1c0-0.2-0.1-0.4-0.2-0.6c0.3-0.3,0.5-0.6,0.5-1c0-0.2-0.1-0.4-0.1-0.6c0.3-0.3,0.5-0.6,0.5-1.1 C187.3,155.9,187.3,155.7,187.2,155.5z"></path> <path class="st5" d="M194.1,140c0.1-8.2-6.4-14.9-14.6-15c-8.2-0.1-14.9,6.4-15,14.6c-0.1,4.4,1.9,8.7,5.3,11.5 c0.6,0.5,1,1.3,0.9,2.1c0,0,0,0.1,0,0.1c0,1.8,3.8,3.3,8.5,3.3c4.7,0.1,8.5-1.4,8.5-3.1c0,0,0-0.1,0-0.1 c-0.1-0.8,0.3-1.6,0.9-2.1C192,148.6,194,144.4,194.1,140z"></path> <path class="st6" d="M194.1,140c0.1-8.2-6.4-14.9-14.6-15c-8.2-0.1-14.9,6.4-15,14.6c-0.1,4.4,1.9,8.7,5.3,11.5 c0.6,0.5,1,1.3,0.9,2.1c0,0,0,0.1,0,0.1c0,1.8,3.8,3.3,8.5,3.3c4.7,0.1,8.5-1.4,8.5-3.1c0,0,0-0.1,0-0.1 c-0.1-0.8,0.3-1.6,0.9-2.1C192,148.6,194,144.4,194.1,140z"></path> <path class="st7" d="M186.8,131.4c0,2.9-3.4,5.2-7.5,5.2c-4.2,0-7.5-2.3-7.5-5.2c0-2.9,3.4-5.2,7.5-5.2 C183.4,126.2,186.8,128.6,186.8,131.4z"></path> </g> <path class="st8" d="M168,145.5c-1.3-2.2-1.8-4.9-1.4-7.4c0.4-2.5,1.6-4.9,3.5-6.7"></path> <g> <path class="st3" d="M172.5,160.3c4.3,1.8,9.2,1.8,13.5,0.2C181.7,162.3,176.7,162.3,172.5,160.3L172.5,160.3z"></path> </g> <g> <path class="st3" d="M172.4,158.7c4.3,1.8,9.2,1.8,13.5,0.2C181.6,160.7,176.5,160.7,172.4,158.7L172.4,158.7z"></path> </g> <g> <path class="st3" d="M172.3,157.1c4.3,1.8,9.2,1.8,13.5,0.2C181.5,159.2,176.4,159.1,172.3,157.1L172.3,157.1z"></path> </g> <path class="st9" d="M176.1,153.6c1.1-3.9,1.3-8.1,0.6-12c-0.1-0.6-0.4-1.4-1-1.4c-0.5,0-0.9,0.6-1,1.2c-0.4,2,0.7,4.1,2,5.5 c0.7,0.8,1.6,1.4,2.6,1.5c1,0,1.9-0.5,2.7-1.3c1.4-1.5,2.1-3.8,1.6-5.9c-0.2-0.9-0.8-1.8-1.6-1.7c-0.5,0.1-0.8,0.6-0.9,1.1 c-0.1,0.5-0.1,1.1,0,1.6c0.5,3.9,1.5,7.8,2.8,11.4"></path> </g> </g> <g> <g> <path class="st5" d="M229.1,105.4c0.2,0,3.6,4,3.6,4l2.9-4.1L229.1,105.4z"></path> <path class="st10" d="M229.1,105.4c0.2,0,3.6,4,3.6,4l2.9-4.1L229.1,105.4z"></path> </g> <g> <g> <path class="st5" d="M250.3,105.4h-33.9c-0.9,0-1.6-0.7-1.6-1.6V85c0-0.9,0.7-1.6,1.6-1.6h33.9c0.9,0,1.6,0.7,1.6,1.6v18.8 C251.8,104.7,251.1,105.4,250.3,105.4z"></path> <path class="st10" d="M250.3,105.4h-33.9c-0.9,0-1.6-0.7-1.6-1.6V85c0-0.9,0.7-1.6,1.6-1.6h33.9c0.9,0,1.6,0.7,1.6,1.6v18.8 C251.8,104.7,251.1,105.4,250.3,105.4z"></path> </g> <path class="st11" d="M220.4,95.7c0.2-0.1,4.5-4.4,4.5-4.4l4.3,2.1l4.2-4.9l4.3,6.2l4.2-2.7"></path> <rect x="219.7" y="97.6" class="st5" width="2" height="4.4"></rect> <rect x="223.9" y="94.7" class="st5" width="2" height="7.4"></rect> <rect x="228.1" y="95.4" class="st5" width="2" height="6.6"></rect> <rect x="232.3" y="91.3" class="st5" width="2" height="10.8"></rect> <rect x="236.7" y="97" class="st5" width="2" height="5.1"></rect> <path class="st5" d="M221.8,95.2c0,0.6-0.5,1.1-1.1,1.1c-0.6,0-1.1-0.5-1.1-1.1c0-0.6,0.5-1.1,1.1-1.1 C221.3,94.1,221.8,94.6,221.8,95.2z"></path> <path class="st5" d="M225.9,91.3c0,0.6-0.5,1.1-1.1,1.1c-0.6,0-1.1-0.5-1.1-1.1c0-0.6,0.5-1.1,1.1-1.1 C225.5,90.2,225.9,90.7,225.9,91.3z"></path> <path class="st5" d="M230.2,93c0,0.6-0.5,1.1-1.1,1.1c-0.6,0-1.1-0.5-1.1-1.1c0-0.6,0.5-1.1,1.1-1.1 C229.8,91.9,230.2,92.4,230.2,93z"></path> <path class="st5" d="M234.4,88.4c0,0.6-0.5,1.1-1.1,1.1c-0.6,0-1.1-0.5-1.1-1.1c0-0.6,0.5-1.1,1.1-1.1 C233.9,87.4,234.4,87.8,234.4,88.4z"></path> <path class="st5" d="M238.7,94.6c0,0.6-0.5,1.1-1.1,1.1c-0.6,0-1.1-0.5-1.1-1.1c0-0.6,0.5-1.1,1.1-1.1 C238.2,93.5,238.7,94,238.7,94.6z"></path> <rect x="240.9" y="94.4" class="st5" width="2" height="7.6"></rect> <rect x="223.9" y="94.7" class="st12" width="2" height="7.4"></rect> <rect x="232.3" y="91.3" class="st12" width="2" height="10.8"></rect> <rect x="240.9" y="94.4" class="st12" width="2" height="7.6"></rect> <rect x="245.4" y="97" class="st5" width="2" height="5.1"></rect> <line class="st11" x1="241.8" y1="91.9" x2="246.4" y2="94.4"></line> <path class="st5" d="M243.1,91.9c0,0.6-0.5,1.1-1.1,1.1c-0.6,0-1.1-0.5-1.1-1.1c0-0.6,0.5-1.1,1.1-1.1 C242.6,90.8,243.1,91.3,243.1,91.9z"></path> <path class="st5" d="M247.5,94.4c0,0.6-0.5,1.1-1.1,1.1c-0.6,0-1.1-0.5-1.1-1.1c0-0.6,0.5-1.1,1.1-1.1 C247,93.4,247.5,93.8,247.5,94.4z"></path> </g> </g> <g> <g> <g> <path class="st5" d="M221.1,193.3v-17.6c0-0.8,0.9-1.3,1.6-0.8l11.2,8.8c0.5,0.4,0.5,1.1,0,1.5l-11.2,8.8 C222,194.6,221.1,194.1,221.1,193.3z"></path> </g> <g> <rect x="170" y="179.2" class="st5" width="52.9" height="10.5"></rect> </g> </g> <g> <path class="st5" d="M179.2,189.8h-49.6l5.7-5.3l-5.7-5.4h49.6c21.3,0,38.6-17.3,38.6-38.6c0-21.3-17.3-38.6-38.6-38.6V91 c27.2,0,49.4,22.2,49.4,49.4C228.6,167.6,206.5,189.8,179.2,189.8z"></path> </g> <g class="st13"> <path class="st14" d="M179.2,189.8h-49.6l5.7-5.3l-5.7-5.4h49.6c21.3,0,38.6-17.3,38.6-38.6c0-21.3-17.3-38.6-38.6-38.6V91 c27.2,0,49.4,22.2,49.4,49.4C228.6,167.6,206.5,189.8,179.2,189.8z"></path> </g> <g> <g> <path class="st5" d="M142.4,174.9c-8.3-9.2-12.9-21.2-12.9-33.7c0-22.8,15.4-42.8,37.4-48.6l-3.7,4.7l6.5,5.9 c-17.2,4.5-29.3,20.2-29.3,38c0,9.7,3.6,19.1,10.1,26.3L142.4,174.9z"></path> </g> <path class="st5" d="M143.5,175.5c0.4-0.1,13.8,0,13.8,0l-6.8-8l-8.1,7.3L143.5,175.5z"></path> </g> <g> <path class="st5" d="M179.4,87l1,17.6c0,0.8-0.9,1.3-1.5,0.8l-11.7-8.2c-0.5-0.4-0.6-1.1-0.1-1.5l10.7-9.4 C178.5,85.8,179.4,86.2,179.4,87z"></path> <path class="st15" d="M179.4,87l1,17.6c0,0.8-0.9,1.3-1.5,0.8l-11.7-8.2c-0.5-0.4-0.6-1.1-0.1-1.5l10.7-9.4 C178.5,85.8,179.4,86.2,179.4,87z"></path> </g> </g> <path class="st12" d="M145.7,104.2h6.8c0.9,0,1.5-0.7,1.5-1.5V98C154.1,98,148.2,101.7,145.7,104.2z"></path> <path class="st16" d="M223.7,121.9c0,0-0.9,0.5-0.9,1.5c0,1,1.3,2.8,1.2,3.4c-0.1,0.6-0.1,2.3,0.5,3.1c0.6,0.8,3.7,1.4,3.7,1.4 c0,0-0.3-2.2-0.8-4.4C227.1,124.4,223.7,121.9,223.7,121.9"></path> <g> <g> <g> <path class="st5" d="M114.9,164.5c-5.5,6.4-7,15.8-4,23.6c3.4-3,5.8-7.7,5.9-11.7C117,172.4,116,168.4,114.9,164.5z"></path> </g> <g> <path class="st5" d="M114,188.9c-1.8,2.8-2.7,6.3-2.5,9.7c2.9-1,5.5-4.4,7.1-7.1c1.6-2.7,2.4-5.7,3.2-8.8 C118.6,183.9,115.8,186.1,114,188.9z"></path> </g> <g> <g> <path class="st3" d="M113.3,175.7c-2.8,10.1-3.8,20.7-3,31.2c0,0.2,0.3,0.2,0.3,0c-0.8-10.5,0.2-21,3-31.1 C113.6,175.6,113.3,175.5,113.3,175.7L113.3,175.7z"></path> </g> </g> <g> <g> <path class="st3" d="M110.4,201.2c2.2-5.3,5.2-10.3,8.6-15c0.1-0.1-0.1-0.3-0.2-0.1c-3.4,4.7-6.4,9.7-8.6,15 C110,201.3,110.3,201.4,110.4,201.2L110.4,201.2z"></path> </g> </g> <g> <path class="st5" d="M107.2,193.3c1.5,2.4,2.3,5.2,2.1,8.1c-2.5-0.9-4.6-3.6-5.9-5.9c-1.3-2.3-2-4.8-2.7-7.3 C103.3,189.1,105.6,190.9,107.2,193.3z"></path> </g> <g> <g> <path class="st3" d="M110.3,203.2c-1.8-4.4-4.3-8.4-7.1-12.2c-0.1-0.1-0.4,0-0.2,0.1c2.8,3.8,5.2,7.8,7,12.2 C110.1,203.5,110.4,203.4,110.3,203.2L110.3,203.2z"></path> </g> </g> <g> <g> <path class="st3" d="M110.4,204.7c3.5-3.6,7-7.1,10.5-10.6c0.1-0.1-0.1-0.3-0.2-0.2c-3.5,3.6-7,7.1-10.5,10.6 C110.1,204.6,110.3,204.8,110.4,204.7L110.4,204.7z"></path> </g> </g> <g> <path class="st5" d="M121,192.4c-3,2.9-5.7,6.1-8.2,9.5l0.6,0c2.3-0.1,4.5-1.2,5.9-3S121.4,194.7,121,192.4z"></path> </g> <g> <g> <g> <path class="st3" d="M106.7,185.5c1.3,2.1,2.5,4.3,3.6,6.5c0.1,0.2,0.3,0,0.2-0.1c-1.1-2.2-2.4-4.4-3.6-6.5 C106.9,185.2,106.6,185.3,106.7,185.5L106.7,185.5z"></path> </g> </g> <g> <path class="st5" d="M103.6,174.8c-0.5,2.2-1,5.1-1,7.4c0,2.3,0.7,4.6,2,6.1c1.3,1.5,4,2.2,5,1.3L103.6,174.8z"></path> </g> </g> </g> <rect x="103.5" y="205.7" class="st3" width="13.1" height="2.4"></rect> <polygon class="st3" points="114.6,216.8 106.4,216.8 104.9,207.6 115.7,207.6 "></polygon> <polygon class="st16" points="105,208.2 115.7,208.2 115.5,209.2 105.2,209.2 "></polygon> </g> <g> <g> <g> <path class="st5" d="M150.7,102.6h-26c-1,0-1.9-0.8-1.9-1.9V79.5c0-1,0.8-1.9,1.9-1.9h26c1,0,1.9,0.8,1.9,1.9v21.2 C152.5,101.8,151.7,102.6,150.7,102.6z"></path> <path class="st10" d="M150.7,102.6h-26c-1,0-1.9-0.8-1.9-1.9V79.5c0-1,0.8-1.9,1.9-1.9h26c1,0,1.9,0.8,1.9,1.9v21.2 C152.5,101.8,151.7,102.6,150.7,102.6z"></path> <path class="st5" d="M152.5,82h-29.7v-2.6c0-1,0.8-1.8,1.8-1.8h26.2c1,0,1.7,0.8,1.7,1.7V82z"></path> </g> <g> <path class="st10" d="M150.9,80.1c0,0.5-0.4,1-1,1c-0.5,0-1-0.4-1-1c0-0.5,0.4-1,1-1C150.4,79.2,150.9,79.6,150.9,80.1z"></path> <path class="st10" d="M148.2,80.1c0,0.5-0.4,1-1,1c-0.5,0-1-0.4-1-1c0-0.5,0.4-1,1-1C147.7,79.2,148.2,79.6,148.2,80.1z"></path> <path class="st10" d="M145.5,80.1c0,0.5-0.4,1-1,1c-0.5,0-1-0.4-1-1c0-0.5,0.4-1,1-1C145,79.2,145.5,79.6,145.5,80.1z"></path> </g> </g> <g> <path class="st2" d="M137.2,92.2l2.6-7.1c1,0.3,1.8,0.9,2.6,1.6c0.7,0.7,1.3,1.5,1.7,2.5L137.2,92.2z"></path> <path class="st5" d="M137.2,92.2l2.2,7.2c-0.7,0.2-1.5,0.3-2.2,0.3c-4.1,0-7.5-3.4-7.5-7.5c0-4.1,3.4-7.5,7.5-7.5 c0.9,0,1.7,0.1,2.5,0.4L137.2,92.2z"></path> <path class="st5" d="M137.2,92.2l6.9-3c0.4,0.9,0.6,2,0.6,3c0,3.3-2.2,6.2-5.3,7.2L137.2,92.2z"></path> <path class="st12" d="M137.2,92.2l6.9-3c0.4,0.9,0.6,2,0.6,3c0,3.3-2.2,6.2-5.3,7.2L137.2,92.2z"></path> </g> </g> <g> <path class="st5" d="M245.5,117.3c-1.3,0.3-1.8,1.3-3.1,3.9c-1.6,3.4-4,9.4-4.5,9.5c-0.7,0.1-10.3-3.7-10.3-3.7l-1.5,1.7 c0,0,5,6.7,12.9,8.8c1.4,0.4,3.2-1.2,4.9-3.4c0.3-0.4,0.7-0.9,1-1.3c1.8-2.6,3.3-5.3,4.7-8.2L245.5,117.3L245.5,117.3z"></path> <path class="st17" d="M245.1,121.6c-0.4,1.6-1.2,4.1-1.9,5.8c-0.2,0.6-0.3,1.2-0.2,1.8c0.3,1.7,0.7,3.2,1.2,4.5 c0.3,0.8,1.5,0.7,1.6,1.6c0.3-0.4,0.7-0.9,1-1.3l0.7-2.9L245.1,121.6z"></path> <path class="st3" d="M239.5,132c0.4-0.1,0.7-0.6,0.6-1l-3.2-13.4c-0.2-0.6-0.8-1.1-1.4-1.1l-10.2-0.2c-0.1,0-0.2,0-0.3,0 c-0.4,0.1-0.7,0.6-0.6,1l3.2,13.4c0.2,0.6,0.8,1.1,1.4,1.1l10.2,0.2C239.3,132.1,239.4,132.1,239.5,132z"></path> <path class="st7" d="M239.5,132c0.4-0.1,0.7-0.6,0.6-1l-3.2-13.4c-0.2-0.6-0.8-1.1-1.4-1.1l-10.2-0.2c-0.1,0-0.2,0-0.3,0 c-0.4,0.1-0.7,0.6-0.6,1l3.2,13.4c0.2,0.6,0.8,1.1,1.4,1.1l10.2,0.2C239.3,132.1,239.4,132.1,239.5,132z"></path> <path class="st3" d="M238.5,132c0.4-0.1,0.7-0.6,0.6-1l-3.2-13.4c-0.2-0.6-0.8-1.1-1.4-1.1l-10.2-0.2c-0.1,0-0.2,0-0.3,0 c-0.4,0.1-0.7,0.6-0.6,1l3.2,13.4c0.2,0.6,0.8,1.1,1.4,1.1l10.2,0.2C238.2,132.1,238.4,132,238.5,132z"></path> <path class="st4" d="M238.5,132c0.4-0.1,0.7-0.6,0.6-1l-3.2-13.4c-0.2-0.6-0.8-1.1-1.4-1.1l-10.2-0.2c-0.1,0-0.2,0-0.3,0 c-0.4,0.1-0.7,0.6-0.6,1l3.2,13.4c0.2,0.6,0.8,1.1,1.4,1.1l10.2,0.2C238.2,132.1,238.4,132,238.5,132z"></path> <path class="st7" d="M229.8,123.2c0-0.4,0.4-0.7,0.8-0.7c0.6,0,1.1,0.4,1.3,1c0,0.1,0,0.2,0,0.3c0,0.4-0.4,0.7-0.8,0.7 c-0.6,0-1.1-0.4-1.3-1C229.8,123.4,229.8,123.3,229.8,123.2z"></path> <path class="st18" d="M225.8,124.7c0.2,0,1.1,0.4,1.5,0.1c0.4-0.3,0-0.5,0-0.5c-0.7-0.2-1.5-1.1-2-0.8c-0.4,0.3-1.2,0.6-1.1,1 c0.1,0.4,0.3,0.8,0.4,1.1c-0.1,0.2-0.1,0.4,0,0.6c0.1,0.2,0.3,0.4,0.5,0.4c-0.1,0.1-0.2,0.3-0.2,0.5c0,0.3,0.9,0.7,0.9,0.7 s-0.2,0.5,0,0.7c0.3,0.3,0.8,0.4,1.2,0.3c0.5-0.1,0.8-0.3,0.8-0.8c0-0.5-0.9-0.5-0.9-0.5s1.7-0.5,1.3-0.8c-0.4-0.3-1.7-0.3-1.7-0.3 s2.2-0.4,1.9-0.9c-0.4-0.5-2.6-0.3-2.6-0.3S225.6,124.8,225.8,124.7z"></path> <g> <g> <g> <g> <polygon class="st18" points="244.9,204.4 245.8,212.6 242.9,213 239.8,205.3 "></polygon> </g> </g> </g> <path class="st5" d="M240.6,211c0-0.5,0-0.9,0.6-0.9l0.8,0c0.3,0,0.5,0.2,0.8,0.4c1.9,1.2,2.7-0.4,3.4-0.4c0.9,0,0.3,2.8,0.4,2.9 l1,3.2c0.1,0.3-0.1,0.8-0.4,0.9c-0.1,0-0.1,0-0.2,0c-1.7,0-2.5,0-4.5,0h-6.4c-1.7,0-1.8-1.9-1-2.1c3.2-0.6,4.5-1.6,5.5-2.3 C240.6,212.7,240.7,211.7,240.6,211z"></path> <path class="st15" d="M236.1,217h6.4c2.1,0,2.9,0,4.5,0c0.1,0,0.1,0,0.2,0c0.2-0.1,0.4-0.3,0.4-0.6l0-0.2h-12.9 C234.9,216.6,235.3,217,236.1,217z"></path> <g> <g> <path class="st3" d="M238.9,213.9c0.1,0.1,0.3,0.2,0.4,0.4c0,0,0,0,0,0c0,0,0,0,0,0c0,0,0,0,0,0c0,0,0.1,0.1,0.1,0.1 c0,0.1,0.1,0.1,0.1,0.2c0,0.1,0.1,0.1,0.2,0.1c0.1,0,0.1-0.1,0.1-0.2c-0.2-0.3-0.4-0.6-0.7-0.8c-0.1,0-0.1-0.1-0.2,0 C238.8,213.7,238.8,213.8,238.9,213.9L238.9,213.9z"></path> </g> </g> <g> <g> <path class="st3" d="M239.9,213.3c0.1,0.1,0.2,0.2,0.3,0.3c0,0,0,0,0,0c0,0,0,0,0,0c0,0,0,0,0,0c0,0,0,0.1,0.1,0.1 c0,0.1,0.1,0.1,0.1,0.2c0,0.1,0.1,0.1,0.2,0.1c0.1,0,0.1-0.1,0.1-0.2c-0.2-0.3-0.4-0.6-0.6-0.8c-0.1,0-0.1-0.1-0.2,0 C239.8,213.2,239.8,213.2,239.9,213.3L239.9,213.3z"></path> </g> </g> <g> <g> <path class="st3" d="M240.6,212.8c0.1,0,0.1,0.1,0.2,0.1c0,0,0,0,0,0c0,0,0,0,0,0c0,0,0,0,0,0c0,0,0,0,0.1,0.1c0,0,0,0,0.1,0.1 c0,0,0,0,0,0c0,0,0,0,0,0c0,0,0,0,0,0c0,0,0,0,0,0c0,0.1,0.1,0.1,0.1,0.2c0,0.1,0.1,0.1,0.2,0.1c0.1,0,0.1-0.1,0.1-0.2 c-0.1-0.3-0.4-0.5-0.6-0.6c-0.1,0-0.2,0-0.2,0.1C240.6,212.7,240.6,212.8,240.6,212.8L240.6,212.8z"></path> </g> </g> <g> <g> <path class="st3" d="M240.7,211.8c0.1,0,0.1,0,0.2,0c0.1,0,0.1,0,0.2,0c0.1,0,0.3,0.1,0.4,0.1c0.1,0,0.2,0,0.2-0.1 c0-0.1,0-0.1-0.1-0.2c-0.3-0.1-0.6-0.2-0.9-0.2c-0.1,0-0.1,0.1-0.1,0.1C240.6,211.8,240.6,211.8,240.7,211.8L240.7,211.8z"></path> </g> </g> <g class="st12"> <path d="M243.8,211.9c0,0.3,0.1,0.6,0.4,0.7c0.2,0.1,0.4,0.1,0.6,0.1c0.6,0,1.2,0,1.7,0l0,0c0.1-0.8,0.3-2.6-0.4-2.6 c-0.6,0-1.2,1.1-2.3,0.7C243.8,211.2,243.8,211.7,243.8,211.9z"></path> </g> <g> <path class="st3" d="M235.9,179.1c0.5-4.7,7.1-29.7,7.1-29.7l8.3-0.2l12.8-0.4c0,0,0.7,6.7,0.8,15.5c0,0-0.6,37.5-1.1,46.4 l-7.1,0.3c-0.8-7-1.9-28.9-1.9-28.9c-0.5-4-0.9-15.7-1.3-19c-0.1-0.7-0.3-1.5-0.4-2.2c-1.4,3.6-7.7,19.1-8.1,21.3l2.6,29.5 l-7.6-0.3C240,211.4,235.3,183.8,235.9,179.1z"></path> <path d="M247.4,150.4c-0.8,2.4-2.8,4.3-5.4,5c-0.1,0-0.1,0.2,0.1,0.2c2.6-0.7,4.8-2.7,5.5-5.2 C247.6,150.3,247.4,150.2,247.4,150.4L247.4,150.4z"></path> <path d="M253.8,150.7c-0.2,2.1-0.3,4.2-0.4,6.3c0,0.1-0.2,0.1-0.2,0c0.1-1.1,0.2-2.2,0.2-3.2c-0.5,0.4-1.2-0.1-1.4-0.6 c-0.3-0.9-0.2-1.9,0-2.8c0-0.1,0.3-0.1,0.2,0.1c-0.2,0.6-0.2,1.2-0.2,1.9c0,0.3,0.1,0.7,0.2,1c0.2,0.3,0.6,0.6,1,0.3 c0,0,0.1,0,0.1,0c0.1-1,0.1-1.9,0.2-2.9C253.5,150.6,253.8,150.6,253.8,150.7z"></path> <path d="M259,150.3c0,2.8,2.2,5.1,5.2,5.3c0.1,0,0.1-0.2,0-0.2c-2.8-0.2-5-2.5-5-5.1C259.2,150.2,259,150.2,259,150.3L259,150.3z "></path> </g> <g> <g> <polygon class="st3" points="257.9,204.8 259.2,213.2 262.1,213.3 263.1,205.2 "></polygon> </g> </g> <g> <path class="st5" d="M264.7,217.1H258c0,0-0.1-0.3,0-0.9c0-0.1,0.1-0.2,0.1-0.4c0,0,0,0,0,0c0.1-0.2,0.1-0.4,0.2-0.7 c0.3-1,0.5-3.4,0.5-3.4s1.3-1.2,2.6-0.6c1.1,0.5,1,1.1,1,1.1s0,1.6,0.9,2.3c0.5,0.4,1.1,0.8,1.3,1.3c0,0.1,0.1,0.2,0.1,0.3 c0,0,0,0,0,0C264.8,216.4,264.7,216.7,264.7,217.1z"></path> </g> <path class="st15" d="M258,216.1c-0.2,0.7,0,0.9,0,0.9h6.6c0.1-0.4,0.1-0.7,0-0.9H258z"></path> <g> <g> <path class="st3" d="M262,213.3c-0.4-0.3-0.9-0.2-1.2,0.1c-0.1,0.1-0.2,0-0.1-0.1c0.4-0.4,1-0.4,1.5-0.1 C262.3,213.2,262.1,213.3,262,213.3L262,213.3z"></path> </g> </g> <g> <g> <path class="st3" d="M262.2,213.8c-0.4-0.3-0.9-0.2-1.2,0.1c-0.1,0.1-0.2,0-0.1-0.1c0.4-0.4,1-0.4,1.5-0.1 C262.4,213.8,262.3,213.9,262.2,213.8L262.2,213.8z"></path> </g> </g> <g> <g> <path class="st3" d="M262.4,214.4c-0.4-0.3-0.9-0.2-1.2,0.1c-0.1,0.1-0.2,0-0.1-0.1c0.4-0.4,1-0.4,1.5-0.1 C262.6,214.3,262.5,214.4,262.4,214.4L262.4,214.4z"></path> </g> </g> <path class="st5" d="M243,147.4c-1.2,1.9-1.2,3.5-0.1,3.9c0,0,10.3,1.7,20.7,0.5c2.5,0.1,1.3-2.2,1.3-2.2l0.1-32.4 c-8-1.7-17.6-0.1-19.6,0L243,147.4z"></path> <path class="st17" d="M265,136.1v-10.7c0,0,1.6,11,0.8,13.7L265,136.1z"></path> <g> <path class="st3" d="M250.5,103c0,0-3.9-2.2-1.6-4.5c1.8-1.8,3.4-1.6,5.8-1.1c5.9,1.1,5.6,3.6,5.6,3.6L250.5,103z"></path> <g> <path class="st18" d="M258.1,115.5c0,0-0.3-2.3,1-6.2c0,0-0.2-0.1-0.2-0.1c0.2-0.6,0.4-1.1,0.6-1.5c0,0,0,0,0,0l-5.6,3.1 c0.1,1.3-0.5,3.7-0.8,4.8c0,0-0.8,1.9,1.7,2.1C256.6,117.7,258.1,115.5,258.1,115.5z"></path> <path class="st16" d="M253.7,112.5l3.2-0.6c-0.3,1-1.2,2.1-3.4,2.1C253.4,114.1,253.7,113,253.7,112.5z"></path> </g> <g> <path class="st18" d="M259.6,104.9c-0.5,3.5-0.7,5.4-2.7,7c-2.9,2.4-6.9,0.5-7.5-3c-0.5-3.2,0.5-8.3,4-9.4 C257,98.5,260.1,101.5,259.6,104.9z"></path> <path class="st3" d="M260.4,100.8c-4.2-4.1-8.6-1.8-10.2,0.4l7.4,0.1c0.3,0,0.5,0.3,0.4,0.9c0,0-2.6,4.6,1,7.2 c1.3-0.5,1.5-2.6,2-3.8C261.8,103.8,262.7,101.1,260.4,100.8z"></path> <path class="st18" d="M260.7,108c-0.4,0.9-1.1,1.5-1.8,1.8c-1.1,0.4-1.4-0.7-1.2-1.8c0.2-1,0.6-2.2,1.7-2.1 C260.6,105.8,261.1,107,260.7,108z"></path> <path class="st3" d="M254.2,105.6c0,0.4-0.2,0.6-0.5,0.6c-0.2,0-0.4-0.3-0.4-0.7c0-0.4,0.2-0.6,0.5-0.6 C254.1,104.9,254.3,105.2,254.2,105.6z"></path> <path class="st3" d="M250.9,105.4c0,0.4-0.2,0.6-0.5,0.6c-0.2,0-0.4-0.3-0.4-0.7c0-0.4,0.2-0.6,0.5-0.6 C250.8,104.8,251,105.1,250.9,105.4z"></path> <path class="st19" d="M252.2,105.2c0,0-1.3,1.7-1.7,2.4c0.5,0.5,1.3,0.4,1.3,0.4L252.2,105.2z"></path> <path class="st3" d="M255.6,103.9c-0.1,0-0.1,0-0.2,0c-0.5-0.5-1.1-0.4-1.2-0.4c-0.1,0-0.2,0-0.2-0.1c0-0.1,0-0.2,0.1-0.2 c0,0,0.8-0.2,1.5,0.5C255.7,103.7,255.7,103.8,255.6,103.9C255.6,103.9,255.6,103.9,255.6,103.9z"></path> <path class="st20" d="M252.9,109.1c0.6,0.1,1-0.2,1.5-0.6"></path> </g> <path class="st21" d="M260,106.9c-0.1-0.2-0.4-0.3-0.6-0.3c-0.2,0-0.5,0.2-0.6,0.4c-0.2,0.2-0.3,0.5-0.4,0.8"></path> <path class="st3" d="M249.7,103.6C249.6,103.6,249.6,103.6,249.7,103.6c-0.1-0.1-0.1-0.2-0.1-0.3c0.7-0.6,1.4-0.4,1.5-0.3 c0.1,0,0.1,0.1,0.1,0.2c0,0.1-0.1,0.1-0.2,0.1c0,0-0.6-0.2-1.2,0.3C249.8,103.6,249.7,103.6,249.7,103.6z"></path> <path class="st22" d="M261.6,104.2l-4.2,0.1c0,0,0.2-0.7,0.5-1.4h4.1C261.8,102.9,261.8,103.4,261.6,104.2z"></path> <g class="st16"> <path d="M254.7,107.7c0.3,0.3,0.5,0.8,0.4,1.2c0,0,0.2-0.4,0.1-0.7C255.2,107.9,254.7,107.7,254.7,107.7z"></path> </g> </g> <g> <polygon class="st5" points="253.1,114.5 251,116.5 254.6,120.9 259.9,116.5 258.3,114.2 255,116.9 "></polygon> <polygon class="st23" points="253.1,114.5 251,116.5 254.6,120.9 259.9,116.5 258.3,114.2 255,116.9 "></polygon> </g> </g> <path class="st17" d="M264.9,140.7v3.8c0,0-8.4-2.5-13.4-6.9c-3.5-3.2-3-4.5-3-4.5l4,0.4L264.9,140.7z"></path> <path class="st17" d="M262.2,126.4l0.5,8.9c1.5,1,2.5-0.4,2.7-1.7V131L262.2,126.4z"></path> <path class="st5" d="M262.2,126.9c0,0,2.7,7.1,2,7.5c-0.7,0.4-11.7-1.7-11.7-1.7l-1.7,2.4c0.4,1.6,19,11.7,20.5,3.3 c0.8-4.4-2.3-14.8-3.4-18c-0.3-0.9-2-2.8-2.9-3.1c-0.3-0.1-0.7-0.1-0.9-0.1C260.6,117.9,262.2,126.9,262.2,126.9z"></path> <path class="st24" d="M263.4,135.3"></path> <path class="st18" d="M250.7,135.4c-1.3,0.1-1.3-1.8-2-1.9c-0.4,0-0.8-0.1-1.1-0.3c0,0,0.4,1.2,0,1.1c-0.4-0.1-1.8-0.2-2.1-1.3 c-0.3-1.1,0.9-3.4,1.1-3.8c0.3-0.3,1.7-0.2,1.7-0.2s-1.5-0.4-2.4-0.5c-0.8-0.1-1-1.1,0.2-0.9c0.5,0.1,4.3,0.1,4.7,0.5 c0.4,0.4,2,4.3,2,4.3C253.4,132.8,252,136,250.7,135.4z"></path> <g class="st12"> <path d="M248.4,128.9c0.4,0,0.8,0,1.2,0.1c0.1,0,0.1,0.1,0.1,0.1c0,0.1-0.1,0.1-0.1,0.1c-0.4-0.1-0.7-0.1-1.1-0.1 C248.3,129.1,248.3,128.9,248.4,128.9z"></path> <path d="M246.4,130.1c-0.1,0.1-0.2-0.1-0.1-0.2c0.7-0.4,1.5-0.2,2.2,0.1c0.1,0,0,0.2-0.1,0.2C247.8,130,247.1,129.8,246.4,130.1z"></path> <path d="M245.9,131c0.6-0.4,1.4-0.4,2-0.1c0.1,0,0.1,0.1,0,0.2c0,0-0.1,0.1-0.1,0c-0.6-0.3-1.3-0.3-1.8,0.1 C245.9,131.3,245.7,131.1,245.9,131z"></path> <path d="M246.9,132.6c-0.1-0.1-0.1-0.2-0.1-0.4c0-0.1,0.2-0.2,0.2-0.1c0.1,0.4,0.3,0.8,0.7,1c0.1,0.1,0,0.3-0.1,0.2h0 c-0.2-0.1-0.4-0.3-0.6-0.5c0,0,0,0,0,0c-0.2-0.1-0.5,0-0.6,0.2c-0.1,0.1-0.3,0-0.2-0.1C246.4,132.7,246.6,132.6,246.9,132.6z"></path> </g> </g> </svg> 