<?xml version="1.0" encoding="UTF-8"?> <svg xmlns="http://www.w3.org/2000/svg" width="379" height="293" viewBox="0 0 379 293" fill="none"><rect width="379" height="293" fill="white"></rect><path d="M0 15C0 6.71573 6.71573 0 15 0H364C372.284 0 379 6.71573 379 15V293H0V15Z" fill="#F6FBFE"></path><path d="M282.549 202.154H96V202.248H282.549V202.154Z" fill="#EBEBEB"></path><path d="M263.857 208.156H251.5V208.25H263.857V208.156Z" fill="#EBEBEB"></path><path d="M219.577 209.172H216.335V209.265H219.577V209.172Z" fill="#EBEBEB"></path><path d="M251.128 204.693H243.968V204.787H251.128V204.693Z" fill="#EBEBEB"></path><path d="M131.686 205.322H115.572V205.416H131.686V205.322Z" fill="#EBEBEB"></path><path d="M137.374 205.322H135.013V205.416H137.374V205.322Z" fill="#EBEBEB"></path><path d="M180.004 206.893H145.052V206.986H180.004V206.893Z" fill="#EBEBEB"></path><path d="M184.424 185.512H112.383C111.818 185.511 111.277 185.286 110.879 184.887C110.48 184.487 110.256 183.946 110.256 183.382V82.1117C110.261 81.5506 110.487 81.0141 110.885 80.6187C111.283 80.2233 111.821 80.001 112.383 80H184.424C184.989 80 185.531 80.2245 185.93 80.624C186.33 81.0235 186.554 81.5654 186.554 82.1304V183.382C186.554 183.947 186.33 184.489 185.93 184.888C185.531 185.288 184.989 185.512 184.424 185.512ZM112.383 80.0746C111.843 80.0756 111.326 80.2907 110.944 80.6726C110.563 81.0545 110.349 81.5721 110.349 82.1117V183.382C110.349 183.921 110.563 184.439 110.944 184.821C111.326 185.203 111.843 185.418 112.383 185.419H184.424C184.964 185.418 185.482 185.203 185.863 184.821C186.245 184.439 186.46 183.922 186.461 183.382V82.1117C186.46 81.5718 186.245 81.0542 185.863 80.6724C185.482 80.2905 184.964 80.0756 184.424 80.0746H112.383Z" fill="#EBEBEB"></path><path d="M265.129 185.512H193.084C192.519 185.511 191.978 185.286 191.578 184.887C191.179 184.488 190.954 183.946 190.953 183.382V82.1117C190.959 81.5503 191.186 81.0137 191.585 80.6184C191.984 80.2232 192.522 80.001 193.084 80H265.129C265.689 80.0019 266.226 80.2247 266.624 80.62C267.021 81.0153 267.247 81.5512 267.252 82.1117V183.382C267.252 183.946 267.028 184.486 266.63 184.886C266.232 185.285 265.693 185.51 265.129 185.512ZM193.084 80.0746C192.544 80.0756 192.026 80.2905 191.644 80.6724C191.262 81.0542 191.047 81.5718 191.046 82.1117V183.382C191.047 183.922 191.262 184.439 191.644 184.821C192.026 185.203 192.544 185.418 193.084 185.419H265.129C265.669 185.418 266.186 185.203 266.568 184.821C266.95 184.439 267.165 183.922 267.166 183.382V82.1117C267.165 81.5718 266.95 81.0542 266.568 80.6724C266.186 80.2905 265.669 80.0756 265.129 80.0746H193.084Z" fill="#EBEBEB"></path><path d="M267.259 202.208V198.119H263.3V179.871H260.151V173.744H257.677V163.037H255.23V150.676H254.346V163.037H252.939V160.514H250.551V163.037H248.764V173.744H244.414V164.51H242.477V162.801H240.373V164.51H237.616V173.744H233.262V188.68H225.893V184.926H224.334V193.769H222.367V190.795H219.577V188.027H221.576V187.269H219.577V183.893H217.954V170.819H216.954V164.119H215.831V170.819H213.704V183.893H204.653V193.146H199.239V189.377H196.355V179.52H195.109V189.377H194.419V197.701H189.893V193.063H188.076V188.728H187.628V193.063H185.072V189.56H179.472V187.892H177.495V183.893H176.558V187.892H172.163V193.063H169.514V187.683H162.209V193.063H160.045V190.515H155.747V172.924H154.863V190.515H152.736V193.063H151.65V183.008H149.55V179.057H141.006V181.333H137.447V193.063H134.801V181.035H127.492V193.063H125.328V185.064H118.023V193.063H116.934V174.375H113.117V193.063H111.762V198.119H109.304V202.208H267.259Z" fill="#F5F5F5"></path><path d="M147.841 105.317C149.885 99.9683 147.207 93.9747 141.858 91.93C136.509 89.8854 130.515 92.5639 128.471 97.9127C126.426 103.262 129.105 109.255 134.453 111.3C139.802 113.344 145.796 110.666 147.841 105.317Z" fill="#EBEBEB"></path><path d="M185.594 90.5941C185.593 90.3132 185.527 90.0363 185.401 89.7854C185.274 89.5346 185.091 89.3166 184.866 89.1489C184.641 88.9812 184.379 88.8684 184.103 88.8193C183.826 88.7703 183.542 88.7865 183.273 88.8666C183.353 88.3243 183.316 87.7711 183.163 87.2446C183.01 86.7182 182.746 86.2309 182.387 85.8161C182.029 85.4014 181.585 85.0688 181.086 84.8413C180.587 84.6137 180.045 84.4965 179.497 84.4976C179.262 84.4972 179.027 84.5197 178.796 84.5648C178.42 83.946 177.853 83.4663 177.18 83.1981C176.508 82.93 175.766 82.8879 175.068 83.0784C174.369 83.2688 173.752 83.6814 173.308 84.2537C172.865 84.8261 172.62 85.5272 172.61 86.2512H172.554C171.738 86.2512 170.956 86.5751 170.38 87.1516C169.803 87.7282 169.479 88.5102 169.479 89.3255C169.479 90.1409 169.803 90.9228 170.38 91.4994C170.956 92.0759 171.738 92.3998 172.554 92.3998H183.84C184.31 92.3881 184.758 92.1925 185.085 91.8549C185.413 91.5173 185.596 91.0646 185.594 90.5941Z" fill="#EBEBEB"></path><path d="M174.228 147.069C174.228 146.832 174.182 146.598 174.091 146.379C174.001 146.16 173.868 145.962 173.701 145.794C173.533 145.627 173.335 145.494 173.116 145.404C172.897 145.313 172.663 145.267 172.426 145.267C172.251 145.267 172.076 145.292 171.908 145.341C171.988 144.799 171.951 144.246 171.798 143.719C171.645 143.193 171.38 142.706 171.022 142.291C170.663 141.876 170.22 141.543 169.721 141.316C169.222 141.088 168.68 140.971 168.132 140.972C167.897 140.972 167.662 140.994 167.431 141.039C167.055 140.421 166.488 139.941 165.815 139.673C165.143 139.405 164.401 139.363 163.702 139.553C163.004 139.743 162.386 140.156 161.943 140.728C161.499 141.301 161.254 142.002 161.245 142.726H161.189C160.373 142.726 159.591 143.05 159.015 143.626C158.438 144.203 158.114 144.985 158.114 145.8C158.114 146.615 158.438 147.397 159.015 147.974C159.591 148.551 160.373 148.874 161.189 148.874H172.486C172.954 148.86 173.399 148.663 173.724 148.326C174.05 147.988 174.231 147.537 174.228 147.069Z" fill="#EBEBEB"></path><path d="M263.101 114.004C263.101 113.723 263.035 113.447 262.909 113.196C262.783 112.945 262.601 112.727 262.376 112.559C262.151 112.391 261.89 112.278 261.613 112.229C261.337 112.18 261.053 112.197 260.784 112.277C260.86 111.735 260.819 111.184 260.665 110.659C260.51 110.134 260.245 109.649 259.887 109.235C259.53 108.822 259.088 108.489 258.591 108.26C258.095 108.031 257.555 107.911 257.008 107.908C256.771 107.907 256.535 107.93 256.303 107.975C255.927 107.356 255.36 106.876 254.687 106.608C254.015 106.34 253.273 106.298 252.575 106.489C251.876 106.679 251.259 107.092 250.815 107.664C250.372 108.236 250.127 108.937 250.117 109.661H250.065C249.249 109.661 248.467 109.985 247.891 110.562C247.314 111.138 246.99 111.92 246.99 112.736C246.99 113.551 247.314 114.333 247.891 114.91C248.467 115.486 249.249 115.81 250.065 115.81H261.351C261.821 115.797 262.267 115.601 262.594 115.264C262.921 114.926 263.103 114.474 263.101 114.004Z" fill="#EBEBEB"></path><path d="M128.132 129.054C128.132 128.816 128.179 128.58 128.271 128.36C128.362 128.141 128.497 127.941 128.666 127.774C128.836 127.606 129.036 127.474 129.257 127.384C129.478 127.295 129.714 127.25 129.953 127.252C130.128 127.251 130.303 127.278 130.471 127.331C130.444 127.147 130.431 126.961 130.43 126.775C130.43 126.274 130.529 125.777 130.721 125.314C130.912 124.851 131.194 124.43 131.548 124.076C131.902 123.721 132.323 123.44 132.786 123.249C133.249 123.057 133.746 122.958 134.247 122.958C134.483 122.959 134.719 122.982 134.952 123.025C135.327 122.405 135.894 121.925 136.566 121.656C137.239 121.387 137.981 121.345 138.68 121.535C139.378 121.726 139.996 122.139 140.439 122.712C140.882 123.285 141.126 123.987 141.134 124.712H141.19C142.006 124.712 142.788 125.035 143.364 125.612C143.941 126.189 144.265 126.971 144.265 127.786C144.265 128.601 143.941 129.383 143.364 129.96C142.788 130.536 142.006 130.86 141.19 130.86H129.885C129.416 130.847 128.97 130.65 128.642 130.313C128.315 129.976 128.132 129.524 128.132 129.054Z" fill="#EBEBEB"></path><path d="M131.171 156.781C131.171 156.484 131.053 156.199 130.843 155.989C130.633 155.779 130.349 155.661 130.052 155.661C129.943 155.661 129.835 155.676 129.731 155.706C129.746 155.592 129.753 155.478 129.753 155.363C129.753 154.734 129.503 154.13 129.058 153.685C128.613 153.24 128.01 152.99 127.38 152.99C127.234 152.99 127.088 153.004 126.944 153.031C126.711 152.646 126.359 152.347 125.94 152.179C125.522 152.012 125.061 151.986 124.626 152.104C124.192 152.223 123.808 152.48 123.533 152.836C123.257 153.193 123.106 153.629 123.101 154.08H123.064C122.557 154.08 122.071 154.281 121.713 154.639C121.355 154.997 121.153 155.483 121.153 155.99C121.153 156.496 121.355 156.982 121.713 157.341C122.071 157.699 122.557 157.9 123.064 157.9H130.082C130.373 157.892 130.65 157.771 130.854 157.562C131.057 157.353 131.171 157.073 131.171 156.781Z" fill="#EBEBEB"></path><path d="M226.626 94.2151C226.626 93.9183 226.744 93.6336 226.954 93.4237C227.164 93.2138 227.448 93.0958 227.745 93.0958C227.855 93.0968 227.964 93.1131 228.07 93.1444C228.052 93.0308 228.043 92.916 228.044 92.8011C228.044 92.1718 228.294 91.5682 228.739 91.1232C229.184 90.6782 229.787 90.4282 230.417 90.4282C230.563 90.4286 230.709 90.4423 230.853 90.4692C231.087 90.0847 231.44 89.7866 231.858 89.62C232.276 89.4534 232.737 89.4273 233.171 89.5457C233.605 89.664 233.989 89.9204 234.265 90.2761C234.541 90.6318 234.693 91.0676 234.7 91.5176H234.733C235.226 91.5394 235.691 91.7504 236.032 92.1066C236.373 92.4628 236.563 92.9368 236.563 93.4298C236.563 93.9228 236.373 94.3968 236.032 94.753C235.691 95.1092 235.226 95.3201 234.733 95.3419H227.704C227.413 95.3312 227.138 95.2076 226.937 94.9972C226.735 94.7869 226.624 94.5063 226.626 94.2151Z" fill="#EBEBEB"></path><path d="M136.496 96.5815C126.351 99.9394 118.762 104.555 119.546 106.931C119.893 107.98 121.811 108.424 124.721 108.286C123.915 108.106 123.396 107.789 123.228 107.334C122.583 105.372 128.825 101.551 137.208 98.7977C145.592 96.0442 152.878 95.4025 153.52 97.365C153.673 97.8239 153.442 98.3835 152.901 99.0066C155.318 97.3836 156.606 95.8912 156.259 94.8428C155.498 92.4662 146.64 93.246 136.496 96.5815Z" fill="#F5F5F5"></path><path d="M189.274 219C229.226 219 261.614 217.109 261.614 214.776C261.614 212.444 229.226 210.553 189.274 210.553C149.321 210.553 116.934 212.444 116.934 214.776C116.934 217.109 149.321 219 189.274 219Z" fill="#F5F5F5"></path><path d="M188.912 192.422H185.927V214.349H188.912V192.422Z" fill="#188EF8"></path><path d="M191.116 205.893L190.862 204.52H183.979L183.725 205.893C183.626 206.415 183.348 206.886 182.94 207.226C182.531 207.566 182.018 207.754 181.486 207.758V212.093H193.381V207.762C192.844 207.765 192.323 207.579 191.909 207.238C191.496 206.896 191.215 206.42 191.116 205.893Z" fill="#188EF8"></path><path opacity="0.5" d="M191.116 205.893L190.862 204.52H183.979L183.725 205.893C183.626 206.415 183.348 206.886 182.94 207.226C182.531 207.566 182.018 207.754 181.486 207.758V212.093H193.381V207.762C192.844 207.765 192.323 207.579 191.909 207.238C191.496 206.896 191.215 206.42 191.116 205.893Z" fill="white"></path><path d="M201.978 213.231H172.876L175.902 208.754C176.12 208.432 176.413 208.168 176.757 207.986C177.1 207.804 177.483 207.709 177.872 207.709H196.993C197.382 207.709 197.765 207.804 198.108 207.986C198.452 208.168 198.745 208.432 198.963 208.754L201.978 213.231Z" fill="#188EF8"></path><path opacity="0.3" d="M201.978 213.231H172.876L175.902 208.754C176.12 208.432 176.413 208.168 176.757 207.986C177.1 207.804 177.483 207.709 177.872 207.709H196.993C197.382 207.709 197.765 207.804 198.108 207.986C198.452 208.168 198.745 208.432 198.963 208.754L201.978 213.231Z" fill="white"></path><path d="M166.38 211.947H208.462C208.82 211.947 209.164 212.09 209.417 212.343C209.671 212.596 209.813 212.94 209.813 213.298V214.529H165.041V213.298C165.041 212.942 165.182 212.6 165.433 212.347C165.684 212.094 166.024 211.95 166.38 211.947Z" fill="#188EF8"></path><path opacity="0.5" d="M166.38 211.947H208.462C208.82 211.947 209.164 212.09 209.417 212.343C209.671 212.596 209.813 212.94 209.813 213.298V214.529H165.041V213.298C165.041 212.942 165.182 212.6 165.433 212.347C165.684 212.094 166.024 211.95 166.38 211.947Z" fill="white"></path><path d="M186.8 193.896C177.764 193.902 168.897 191.436 161.161 186.766L162.698 184.21C167.978 187.386 173.831 189.492 179.924 190.405C186.018 191.319 192.231 191.024 198.21 189.537C204.189 188.05 209.817 185.399 214.772 181.737C219.726 178.075 223.911 173.473 227.088 168.193C230.264 162.914 232.369 157.06 233.283 150.967C234.197 144.874 233.902 138.66 232.414 132.681C230.927 126.702 228.277 121.074 224.615 116.12C220.952 111.165 216.35 106.98 211.07 103.804L212.611 101.248C221.966 106.873 229.218 115.41 233.256 125.552C237.293 135.693 237.893 146.879 234.964 157.394C232.034 167.91 225.737 177.174 217.037 183.767C208.338 190.36 197.716 193.918 186.8 193.896Z" fill="#188EF8"></path><g opacity="0.3"><path opacity="0.3" d="M186.8 193.894C177.764 193.9 168.897 191.434 161.161 186.764L162.698 184.208C167.978 187.384 173.831 189.49 179.924 190.404C186.018 191.318 192.231 191.022 198.21 189.535C204.189 188.048 209.817 185.397 214.772 181.735C219.726 178.073 223.911 173.471 227.088 168.191C230.264 162.912 232.369 157.058 233.283 150.965C234.197 144.872 233.902 138.658 232.414 132.679C230.927 126.7 228.277 121.073 224.615 116.118C220.952 111.163 216.35 106.978 211.07 103.802L212.611 101.246C221.966 106.871 229.218 115.408 233.256 125.55C237.293 135.691 237.893 146.877 234.964 157.393C232.034 167.908 225.737 177.172 217.037 183.765C208.338 190.358 197.716 193.916 186.8 193.894Z" fill="white"></path></g><path d="M213.182 99.2204L159.621 188.221L160.58 188.798L214.141 99.7976L213.182 99.2204Z" fill="#188EF8"></path><path d="M214.972 100.293C214.816 100.553 214.586 100.761 214.311 100.89C214.037 101.019 213.73 101.064 213.43 101.019C213.13 100.973 212.851 100.84 212.626 100.636C212.402 100.432 212.243 100.166 212.17 99.8716C212.097 99.5772 212.113 99.2678 212.216 98.9824C212.319 98.6971 212.504 98.4486 212.748 98.2685C212.992 98.0883 213.284 97.9846 213.587 97.9704C213.89 97.9562 214.19 98.0322 214.45 98.1888C214.798 98.3986 215.049 98.7382 215.147 99.1328C215.245 99.5274 215.182 99.9447 214.972 100.293Z" fill="#188EF8"></path><path d="M161.421 189.315C161.265 189.574 161.035 189.782 160.761 189.911C160.486 190.04 160.18 190.085 159.88 190.04C159.58 189.995 159.3 189.862 159.076 189.658C158.851 189.454 158.692 189.187 158.619 188.893C158.546 188.599 158.562 188.289 158.665 188.004C158.768 187.719 158.953 187.47 159.197 187.29C159.441 187.11 159.733 187.006 160.036 186.992C160.339 186.978 160.639 187.054 160.899 187.21C161.247 187.42 161.498 187.76 161.596 188.154C161.694 188.549 161.631 188.966 161.421 189.315Z" fill="#188EF8"></path><g opacity="0.3"><path opacity="0.3" d="M214.972 100.293C214.816 100.553 214.586 100.761 214.311 100.89C214.037 101.019 213.73 101.064 213.43 101.019C213.13 100.973 212.851 100.84 212.626 100.636C212.402 100.432 212.243 100.166 212.17 99.8716C212.097 99.5772 212.113 99.2678 212.216 98.9824C212.319 98.6971 212.504 98.4486 212.748 98.2685C212.992 98.0883 213.284 97.9846 213.587 97.9704C213.89 97.9562 214.19 98.0322 214.45 98.1888C214.798 98.3986 215.049 98.7382 215.147 99.1328C215.245 99.5274 215.182 99.9447 214.972 100.293Z" fill="white"></path></g><g opacity="0.3"><path opacity="0.3" d="M161.421 189.315C161.265 189.574 161.035 189.782 160.761 189.911C160.486 190.04 160.18 190.085 159.88 190.04C159.58 189.995 159.3 189.862 159.076 189.658C158.851 189.454 158.692 189.187 158.619 188.893C158.546 188.599 158.562 188.289 158.665 188.004C158.768 187.719 158.953 187.47 159.197 187.29C159.441 187.11 159.733 187.006 160.036 186.992C160.339 186.978 160.639 187.054 160.899 187.21C161.247 187.42 161.498 187.76 161.596 188.154C161.694 188.549 161.631 188.966 161.421 189.315Z" fill="white"></path></g><path d="M146.389 123.353C147.075 122.01 147.821 120.717 148.627 119.473C154.727 109.979 164.139 103.092 175.034 100.15C185.928 97.2088 197.528 98.4229 207.577 103.557C207.823 103.684 208.069 103.81 208.323 103.93C213.22 106.538 217.597 110.023 221.236 114.212C226.656 120.464 230.27 128.075 231.688 136.226C233.107 144.378 232.277 152.762 229.287 160.477C228.724 161.923 228.088 163.34 227.381 164.722C221.889 175.462 212.356 183.58 200.878 187.291C189.401 191.002 176.92 190.002 166.18 184.51C160.862 181.79 156.132 178.05 152.26 173.503C148.387 168.956 145.448 163.69 143.611 158.007C139.9 146.53 140.901 134.048 146.393 123.309L146.389 123.353Z" fill="#188EF8"></path><g opacity="0.6"><path opacity="0.6" d="M146.389 123.353C147.075 122.01 147.821 120.717 148.627 119.473C154.727 109.979 164.139 103.092 175.034 100.15C185.928 97.2088 197.528 98.4229 207.577 103.557C207.823 103.684 208.069 103.81 208.323 103.93C213.22 106.538 217.597 110.023 221.236 114.212C226.656 120.464 230.27 128.075 231.688 136.226C233.107 144.378 232.277 152.762 229.287 160.477C228.724 161.923 228.088 163.34 227.381 164.722C221.889 175.462 212.356 183.58 200.878 187.291C189.401 191.002 176.92 190.002 166.18 184.51C160.862 181.79 156.132 178.05 152.26 173.503C148.387 168.956 145.448 163.69 143.611 158.007C139.9 146.53 140.901 134.048 146.393 123.309L146.389 123.353Z" fill="white"></path></g><path opacity="0.4" d="M159.497 167.157C158.702 166.836 157.878 167.59 157.329 168.276L154.859 171.336C155.911 172.709 154.915 174.343 153.669 175.156C147.276 168.32 143.146 159.679 141.842 150.411C140.537 141.143 142.121 131.698 146.379 123.363C147.065 122.019 147.811 120.726 148.617 119.482H148.752C150.121 119.535 150.498 120.926 151.054 121.889C151.177 122.105 152.983 124.538 153.184 124.228C152.528 125.231 152.025 126.327 151.692 127.478C151.659 127.563 151.659 127.657 151.692 127.743C151.792 127.933 152.065 127.81 152.236 127.657C152.609 127.284 152.941 126.81 153.356 126.444C153.549 126.25 153.783 126.101 154.041 126.007C154.299 125.914 154.575 125.878 154.848 125.903C155.389 126 155.811 126.437 156.34 126.624C156.665 126.717 157.006 126.737 157.339 126.681C157.672 126.626 157.989 126.496 158.266 126.303C158.794 125.922 159.271 125.474 159.683 124.971C159.594 126.534 161.444 126.504 161.762 127.955C161.866 128.426 161.944 129.075 162.426 129.116C162.907 129.157 163.258 128.538 163.687 128.698C163.989 128.81 164.034 129.228 163.929 129.53C163.781 129.813 163.673 130.116 163.608 130.429C163.607 130.541 163.629 130.651 163.671 130.754C163.714 130.857 163.777 130.951 163.856 131.029C163.935 131.107 164.03 131.169 164.133 131.21C164.237 131.251 164.348 131.271 164.459 131.269C164.862 131.242 165.179 130.929 165.53 130.724C165.881 130.519 166.422 130.481 166.601 130.843C166.639 130.93 166.659 131.024 166.657 131.119C166.657 131.806 166 132.295 165.373 132.578C164.746 132.862 164.041 133.097 163.687 133.697C163.723 133.763 163.772 133.82 163.83 133.867C163.889 133.913 163.956 133.947 164.028 133.967C164.099 133.987 164.175 133.993 164.249 133.984C164.323 133.975 164.394 133.951 164.459 133.914C164.539 133.846 164.63 133.792 164.728 133.753C164.952 133.705 165.101 133.947 165.228 134.145C165.497 134.612 165.856 135.022 166.283 135.35C166.711 135.679 167.199 135.92 167.72 136.059L169.847 132.477C170.13 132.612 170.305 132.683 170.559 132.451C171.014 133.828 171.358 135.235 171.951 136.574C172.04 136.727 172.079 136.905 172.063 137.081C172.022 137.257 171.872 137.391 171.798 137.559C171.552 138.111 172.197 138.626 172.742 138.891C172.854 139.059 172.63 139.264 172.428 139.264C172.231 139.234 172.031 139.216 171.831 139.212C171.689 139.26 171.563 139.349 171.47 139.468C171.378 139.586 171.322 139.73 171.309 139.88C171.232 140.397 171.362 140.925 171.669 141.348C171.977 141.771 172.438 142.057 172.954 142.144C173.08 142.172 173.211 142.158 173.328 142.103C173.57 141.973 173.578 141.641 173.678 141.387C174.077 140.383 174.988 141.141 175.327 141.648C175.783 142.342 175.652 143.476 175.417 144.215C175.148 145.081 173.01 150.647 175.145 150.834C175.346 150.837 175.543 150.773 175.704 150.651C176.208 150.304 176.488 149.722 176.935 149.308C177.383 148.894 178.204 148.737 178.54 149.244C178.674 149.45 178.693 149.711 178.812 149.924C179.14 150.517 180.066 150.491 180.487 151.043C180.64 151.314 180.771 151.597 180.879 151.89C181.025 152.166 181.36 152.405 181.625 152.263C181.89 152.121 181.924 151.614 182.215 151.416C182.506 151.218 182.961 151.52 182.991 151.89C182.981 152.074 182.918 152.251 182.81 152.4C182.701 152.549 182.551 152.664 182.379 152.729C182.194 152.783 182.024 152.879 181.883 153.009C181.663 153.274 181.819 153.669 181.98 153.975C182.233 154.46 182.491 154.945 182.748 155.43C182.647 155.551 182.512 155.64 182.361 155.685C182.21 155.73 182.049 155.73 181.898 155.684C181.592 155.617 181.308 155.468 180.995 155.416C179.502 155.177 178.51 157.08 177.025 155.833C177.105 155.716 177.156 155.582 177.175 155.441C177.194 155.3 177.18 155.157 177.134 155.023C177.088 154.888 177.012 154.767 176.91 154.667C176.809 154.568 176.686 154.493 176.551 154.449C175.857 154.281 175.003 154.953 174.484 154.449C174.301 154.281 174.238 154.013 174.048 153.848C173.529 153.401 172.764 154.158 172.395 154.46C171.175 155.46 171.955 156.061 171.32 157.191C171.033 157.71 170.414 157.938 170.048 158.419C169.682 158.9 169.623 159.426 169.302 159.87C168.44 161.098 167.112 159.389 166.418 158.837C166.448 159.803 165.351 160.385 164.403 160.549C162.941 160.799 163.157 160.825 162.429 161.904C162.341 162.052 162.213 162.172 162.06 162.253C161.908 162.333 161.736 162.37 161.564 162.359C160.971 162.277 160.739 161.527 160.239 161.202C159.997 161.046 159.698 160.99 159.471 160.829C158.866 160.374 159.06 159.445 158.896 158.71C158.821 158.388 158.669 158.089 158.454 157.838C158.24 157.586 157.967 157.39 157.661 157.266C157.436 157.579 157.256 157.922 157.124 158.285L157.87 159.546C158.119 159.902 158.284 160.31 158.351 160.74C158.336 160.982 158.358 161.225 158.419 161.46C158.598 161.904 159.165 161.993 159.616 162.187C160.683 162.657 162.034 164.18 162.862 165.023C163.743 165.926 163.724 166.87 164.526 167.717C164.556 167.758 164.576 167.805 164.585 167.855C164.595 167.905 164.593 167.957 164.581 168.006C164.568 168.055 164.545 168.101 164.513 168.141C164.481 168.181 164.441 168.213 164.396 168.235C164.203 168.314 163.987 168.314 163.795 168.235C163.338 168.087 162.944 167.79 162.676 167.392C163.023 167.911 160.985 168.347 160.698 168.272C160.228 168.146 159.825 167.526 159.407 167.287C158.366 166.679 157.639 166.571 157.736 168.093C157.773 168.675 157.792 169.403 157.277 169.675C157.154 169.553 156.993 169.478 156.821 169.461C156.649 169.445 156.476 169.489 156.333 169.586C156.05 169.785 155.84 170.072 155.736 170.403C155.635 170.614 155.61 170.854 155.665 171.082C155.722 171.192 155.767 171.309 155.799 171.429C155.84 171.832 155.262 171.944 154.863 171.899" fill="#188EF8"></path><path opacity="0.4" d="M218.852 139.32C218.65 138.898 218.076 138.854 217.609 138.902C217.143 138.951 216.602 139.01 216.285 138.667L217.031 137.212C217.086 137.126 217.108 137.022 217.091 136.921C217.068 136.874 217.035 136.833 216.995 136.799C216.956 136.766 216.909 136.741 216.859 136.727L215.908 136.287C215.501 136.436 216.042 137.156 215.747 137.473C215.617 137.611 215.397 137.585 215.203 137.589C213.576 137.611 213.643 139.454 213.819 140.525C214.024 141.767 213.345 142.965 212.699 144.047C212.464 144.42 212.184 144.849 211.744 144.95C211.304 145.051 210.882 144.808 210.442 144.722C209.696 144.569 208.912 144.913 208.14 144.894C205.428 144.834 205.207 141.786 206.856 140.331C207.711 139.585 207.774 139.838 208.088 138.723C208.222 138.257 208.618 137.835 208.33 137.32C208.254 137.194 208.147 137.089 208.019 137.016C207.891 136.943 207.747 136.903 207.6 136.901C207.452 136.898 207.307 136.934 207.177 137.003C207.047 137.073 206.937 137.174 206.856 137.298C206.532 137.835 206.133 138.294 206.088 138.932C205.573 138.365 204.737 138.119 204.04 137.757C203.967 137.918 203.853 138.058 203.71 138.163C203.567 138.267 203.4 138.333 203.224 138.354C203.048 138.375 202.869 138.351 202.706 138.283C202.542 138.214 202.399 138.105 202.29 137.966C202.469 137.66 202.611 137.182 202.29 137.022C202.195 136.98 202.09 136.966 201.988 136.981C201.555 137.003 201.126 137.111 200.693 137.092C200.025 137.063 198.548 136.145 197.932 136.742C197.824 136.846 197.753 136.984 197.637 137.085C197.508 137.181 197.348 137.227 197.187 137.216C197.026 137.204 196.875 137.135 196.76 137.022C196.652 136.902 196.576 136.756 196.542 136.598C196.508 136.44 196.516 136.276 196.566 136.122C196.626 135.917 196.749 135.749 196.794 135.522C197.044 134.402 195.645 134.656 195.331 134.16C195.182 133.921 195.164 131.795 195.249 131.586C194.9 131.763 194.514 131.857 194.122 131.861C193.729 131.865 193.342 131.778 192.988 131.608C192.242 131.168 192.22 130.377 192.436 129.534C192.653 128.69 193.149 127.69 193.276 127.023C193.343 126.649 193.459 126.247 193.802 126.123C194.231 125.967 194.757 126.385 195.137 126.123C195.251 126.033 195.347 125.923 195.421 125.799C195.692 125.478 196.079 125.276 196.497 125.236C196.915 125.196 197.333 125.322 197.66 125.586C197.977 125.553 198.16 125.213 198.32 124.941C198.48 124.668 198.786 124.374 199.066 124.5C199.346 124.627 199.331 125.153 199.156 125.478C198.974 125.808 198.75 126.113 198.488 126.385C198.264 126.557 198.101 126.796 198.022 127.067C198.014 127.281 198.069 127.493 198.182 127.675C198.381 128.152 198.724 128.554 199.163 128.825C199.387 128.95 199.649 128.989 199.9 128.935C200.151 128.881 200.373 128.737 200.525 128.53C200.577 128.399 200.642 128.274 200.719 128.157C200.95 127.892 201.394 127.989 201.685 128.19C201.94 128.436 202.233 128.636 202.555 128.784C202.894 128.881 203.357 128.612 203.256 128.276C203.745 128.343 204.375 128.578 204.323 129.071C204.292 129.226 204.232 129.374 204.148 129.507C203.711 130.38 204.148 132.194 205.345 131.668C206.14 131.324 205.872 129.802 206.991 129.769C207.528 129.769 207.983 130.25 208.521 130.22C208.726 130.134 208.614 129.817 208.446 129.664C208.18 129.429 207.858 129.266 207.511 129.191C207.164 129.115 206.804 129.131 206.465 129.235C206.465 128.601 207.245 128.056 207.006 127.474C206.767 126.892 205.737 126.892 205.655 126.273C205.648 126.093 205.69 125.916 205.775 125.758C206.125 124.944 207.114 123.635 206.077 122.93C205.942 122.857 205.817 122.768 205.704 122.665C205.398 122.318 205.681 121.788 205.961 121.422C206.468 121.46 206.752 121.997 207.043 122.419C207.334 122.84 207.95 123.202 208.308 122.84C208.565 122.583 208.524 122.072 208.86 121.926C209.017 121.859 209.207 121.904 209.353 121.818C209.707 121.613 209.394 121.072 209.494 120.661C209.629 120.117 210.442 120.139 210.923 120.437C211.405 120.736 211.875 121.184 212.416 121.105C212.591 121.075 212.755 120.993 212.927 120.949C213.464 120.818 214.009 121.064 214.505 121.322C215.292 121.695 215.188 117.591 215.27 117.378C215.908 115.822 217.844 115.822 219.21 115.33C219.913 115.044 220.582 114.678 221.202 114.24C231.623 126.254 235.059 143.342 230.007 158.437C229.8 159.125 229.545 159.797 229.242 160.448C228.455 159.702 227.377 158.277 226.153 158.348C224.597 158.445 224.541 160.654 222.9 160.46C222.564 160.281 222.952 159.773 222.9 159.396C222.836 159.193 222.724 159.008 222.575 158.855C222.448 158.684 222.381 158.419 222.542 158.277C222.366 157.904 221.795 157.975 221.396 158.09C220.916 158.255 220.4 158.285 219.904 158.176C218.9 157.896 218.411 156.814 217.818 155.956C217.309 155.262 216.737 154.616 216.109 154.027C216.449 154.233 216.882 153.837 216.915 153.442C216.891 153.045 216.809 152.654 216.673 152.281C216.531 151.617 217.105 151.229 217.046 150.569C216.971 149.752 216.434 148.923 216.747 148.166C217.12 147.245 218.389 147.189 219.378 147.289C219.46 146.069 218.631 144.778 219.202 143.693C219.453 143.294 219.789 142.956 220.187 142.704L222.497 140.984C222.845 140.783 223.11 140.464 223.243 140.085C223.344 139.63 223.053 139.186 222.78 138.809L221.892 137.578C221.785 137.397 221.625 137.254 221.433 137.167C221.214 137.121 220.984 137.16 220.792 137.275C219.687 137.797 218.819 138.716 218.363 139.85C217.047 138.896 215.853 137.783 214.811 136.537C214.531 137.436 213.718 138.167 213.572 139.07" fill="#188EF8"></path><path opacity="0.4" d="M181.994 128.694C181.729 128.72 181.473 128.805 181.245 128.943C181.016 129.08 180.821 129.267 180.674 129.488C180.536 129.785 180.418 130.091 180.319 130.403C180.266 130.558 180.171 130.696 180.044 130.801C179.918 130.906 179.765 130.975 179.603 131C179.185 131 178.909 130.582 178.719 130.209C178.524 129.925 178.446 129.578 178.498 129.238C178.605 129.015 178.723 128.797 178.853 128.586C179.043 128.13 178.816 127.627 178.67 127.157C178.525 126.686 178.517 126.06 178.946 125.825C179.23 125.668 179.599 125.75 179.89 125.608C180.599 125.265 180.263 124.082 180.868 123.743C181.614 123.347 182.45 124.187 182.852 124.787C183.255 125.388 183.371 126.187 183.524 126.884C183.961 128.877 183.666 128.451 181.994 128.694Z" fill="#188EF8"></path><path opacity="0.4" d="M177.924 99.4804C187.718 97.1373 198.706 99.0252 207.582 103.562C207.828 103.689 208.074 103.816 208.328 103.935C208.809 105.857 208.134 108.67 205.578 107.935C205.448 108.185 205.56 108.308 205.578 108.591C205.612 109.013 205.071 109.237 204.653 109.2C203.273 109.08 201.907 108.334 201.295 109.946C200.549 111.893 202.041 111.177 202.638 112.337C202.703 112.515 202.747 112.699 202.769 112.886C202.933 113.561 203.646 113.927 204.28 114.207C204.294 114.098 204.33 113.994 204.386 113.9C204.442 113.806 204.517 113.725 204.606 113.661C204.695 113.598 204.796 113.553 204.903 113.531C205.01 113.509 205.121 113.509 205.228 113.531C205.379 113.599 205.543 113.637 205.709 113.643C206.063 113.591 206.082 113.05 205.866 112.778C205.649 112.505 205.272 112.378 205.011 112.128C204.75 111.878 204.664 111.382 204.981 111.214C205.123 111.162 205.279 111.162 205.422 111.214C205.725 111.297 206.004 111.453 206.235 111.669C206.465 111.884 206.639 112.152 206.742 112.449C206.87 112.328 207.035 112.252 207.21 112.236C207.385 112.219 207.561 112.262 207.709 112.358C207.857 112.454 207.969 112.597 208.025 112.763C208.082 112.93 208.081 113.111 208.022 113.278C207.85 113.759 207.227 114.21 207.518 114.628C207.363 114.489 207.172 114.397 206.967 114.361C206.762 114.324 206.551 114.346 206.358 114.423C204.847 115.039 204.011 118.012 201.776 116.288C201.448 115.976 201.1 115.685 200.735 115.415C200.55 115.285 200.326 115.218 200.099 115.227C199.871 115.236 199.653 115.319 199.478 115.464C199.351 114.445 197.941 113.912 197.915 112.886C197.914 112.643 197.994 112.407 198.143 112.215C198.292 112.023 198.5 111.886 198.736 111.826C198.817 111.816 198.895 111.788 198.963 111.744C199.086 111.636 199.038 111.434 199.094 111.281C199.187 111.013 199.56 110.957 199.724 110.726C199.952 110.401 199.665 109.979 199.351 109.7C199.038 109.42 198.706 109.091 198.814 108.707C198.855 108.58 198.945 108.468 198.982 108.334C199.007 108.199 198.99 108.06 198.935 107.934C198.88 107.808 198.788 107.702 198.672 107.629C198.436 107.491 198.175 107.402 197.904 107.368C197.672 107.42 197.605 107.741 197.669 107.95C197.763 108.163 197.841 108.384 197.9 108.61C197.9 108.741 196.508 110.666 196.695 110.692C195.811 110.561 194.195 109.77 193.938 111.065C193.844 111.52 193.863 112.05 193.516 112.356C194.117 112.483 194.721 112.613 195.318 112.755C195.359 112.99 195.027 113.128 194.792 113.057C194.557 112.987 194.318 112.867 194.094 112.957C193.941 113.038 193.821 113.17 193.755 113.33L192.915 114.748C192.609 115.259 192.225 115.826 191.636 115.897C190.964 115.975 190.401 115.341 190.207 114.692C190.185 114.529 190.101 114.382 189.972 114.281C189.833 114.229 189.681 114.229 189.543 114.281C189.17 114.39 188.776 114.41 188.394 114.338C188.012 114.266 187.653 114.105 187.345 113.867C187.047 113.618 186.85 113.269 186.79 112.885C186.73 112.502 186.812 112.109 187.02 111.781C187.199 111.543 187.479 111.285 187.367 111.009C187.3 110.845 187.102 110.729 187.125 110.554C187.147 110.379 187.457 110.326 187.677 110.289C187.873 110.253 188.051 110.151 188.182 110.001C188.313 109.85 188.389 109.66 188.397 109.461C188.397 109.256 187.255 107.901 186.972 107.894C186.319 107.875 185.688 109.315 185.341 109.819C185.288 109.924 185.215 110.017 185.125 110.094C185.035 110.17 184.931 110.227 184.819 110.263C184.446 110.323 184.185 109.923 184.114 109.561C184.104 109.194 184.012 108.833 183.845 108.506C183.704 108.347 183.531 108.22 183.338 108.133C183.164 108.003 182.965 107.91 182.754 107.859C182.544 107.807 182.325 107.799 182.11 107.834C181.92 107.894 181.756 108.028 181.562 108.091C181.335 108.136 181.099 108.116 180.883 108.034C180.666 107.952 180.476 107.812 180.334 107.629C180.021 107.289 179.797 106.883 179.454 106.558C178.73 105.894 177.559 105.812 176.991 104.987C176.715 104.614 176.723 103.924 177.178 103.778C177.551 103.655 178.1 103.987 178.353 103.667C178.607 103.346 178.014 102.424 178.025 102.047C178.025 101.749 178.514 101.443 178.473 100.861C178.439 100.38 177.962 99.9915 177.924 99.4804Z" fill="#188EF8"></path><path opacity="0.4" d="M197.423 183.026C198.068 182.951 198.702 183.048 199.213 182.474C199.907 181.694 199.62 181.06 198.553 180.929C198.457 180.928 198.364 180.895 198.288 180.836C198.075 180.619 198.456 180.332 198.736 180.209C199.044 180.053 199.308 179.822 199.504 179.537C199.7 179.252 199.82 178.922 199.855 178.578C199.878 178.418 202.426 179.668 202.624 179.963C203.318 181 201.609 182.739 202.915 182.974C203.4 182.227 203.78 181.392 204.198 180.597L205.37 181.153C205.079 181.015 206.011 179.634 206.19 179.526C206.892 179.101 207.922 179.97 208.429 178.739C209.071 177.183 206.347 175.381 205.817 177.269C204.741 177.104 203.707 176.731 202.773 176.172C202.594 176.463 202.418 176.761 202.243 177.053C202.097 177.063 201.951 177.038 201.816 176.981C201.682 176.923 201.563 176.834 201.471 176.72C201.45 176.217 201.579 175.718 201.84 175.286C202.102 174.855 202.485 174.51 202.941 174.295C202.874 173.62 203.612 173.176 204.239 172.915C203.586 171.594 204.911 169.792 206.366 170.02C207.821 170.247 208.533 172.37 207.507 173.426C208.08 173.814 208.516 174.373 208.754 175.023C209.216 174.255 209.906 173.651 210.728 173.294C211.55 172.937 212.462 172.845 213.339 173.031C214.212 173.236 215.122 173.721 215.951 173.404C216.324 173.262 216.622 172.971 216.984 172.803C217.805 172.43 218.753 172.766 219.573 173.135C220.123 173.384 220.662 173.651 221.189 173.937C214.226 181.923 204.696 187.23 194.24 188.943C193.949 188.827 193.692 188.638 193.494 188.395C193.169 187.917 193.326 187.275 193.494 186.719C194.154 184.563 194.986 183.444 197.225 183.052L197.423 183.026Z" fill="#188EF8"></path><path opacity="0.7" d="M159.497 167.157C158.702 166.836 157.878 167.59 157.329 168.276L154.859 171.336C155.911 172.709 154.915 174.343 153.669 175.156C147.276 168.32 143.146 159.679 141.842 150.411C140.537 141.143 142.121 131.698 146.379 123.363C147.065 122.019 147.811 120.726 148.617 119.482H148.752C150.121 119.535 150.498 120.926 151.054 121.889C151.177 122.105 152.983 124.538 153.184 124.228C152.528 125.231 152.025 126.327 151.692 127.478C151.659 127.563 151.659 127.657 151.692 127.743C151.792 127.933 152.065 127.81 152.236 127.657C152.609 127.284 152.941 126.81 153.356 126.444C153.549 126.25 153.783 126.101 154.041 126.007C154.299 125.914 154.575 125.878 154.848 125.903C155.389 126 155.811 126.437 156.34 126.624C156.665 126.717 157.006 126.737 157.339 126.681C157.672 126.626 157.989 126.496 158.266 126.303C158.794 125.922 159.271 125.474 159.683 124.971C159.594 126.534 161.444 126.504 161.762 127.955C161.866 128.426 161.944 129.075 162.426 129.116C162.907 129.157 163.258 128.538 163.687 128.698C163.989 128.81 164.034 129.228 163.929 129.53C163.781 129.813 163.673 130.116 163.608 130.429C163.607 130.541 163.629 130.651 163.671 130.754C163.714 130.857 163.777 130.951 163.856 131.029C163.935 131.107 164.03 131.169 164.133 131.21C164.237 131.251 164.348 131.271 164.459 131.269C164.862 131.242 165.179 130.929 165.53 130.724C165.881 130.519 166.422 130.481 166.601 130.843C166.639 130.93 166.659 131.024 166.657 131.119C166.657 131.806 166 132.295 165.373 132.578C164.746 132.862 164.041 133.097 163.687 133.697C163.723 133.763 163.772 133.82 163.83 133.867C163.889 133.913 163.956 133.947 164.028 133.967C164.099 133.987 164.175 133.993 164.249 133.984C164.323 133.975 164.394 133.951 164.459 133.914C164.539 133.846 164.63 133.792 164.728 133.753C164.952 133.705 165.101 133.947 165.228 134.145C165.497 134.612 165.856 135.022 166.283 135.35C166.711 135.679 167.199 135.92 167.72 136.059L169.847 132.477C170.13 132.612 170.305 132.683 170.559 132.451C171.014 133.828 171.358 135.235 171.951 136.574C172.04 136.727 172.079 136.905 172.063 137.081C172.022 137.257 171.872 137.391 171.798 137.559C171.552 138.111 172.197 138.626 172.742 138.891C172.854 139.059 172.63 139.264 172.428 139.264C172.231 139.234 172.031 139.216 171.831 139.212C171.689 139.26 171.563 139.349 171.47 139.468C171.378 139.586 171.322 139.73 171.309 139.88C171.232 140.397 171.362 140.925 171.669 141.348C171.977 141.771 172.438 142.057 172.954 142.144C173.08 142.172 173.211 142.158 173.328 142.103C173.57 141.973 173.578 141.641 173.678 141.387C174.077 140.383 174.988 141.141 175.327 141.648C175.783 142.342 175.652 143.476 175.417 144.215C175.148 145.081 173.01 150.647 175.145 150.834C175.346 150.837 175.543 150.773 175.704 150.651C176.208 150.304 176.488 149.722 176.935 149.308C177.383 148.894 178.204 148.737 178.54 149.244C178.674 149.45 178.693 149.711 178.812 149.924C179.14 150.517 180.066 150.491 180.487 151.043C180.64 151.314 180.771 151.597 180.879 151.89C181.025 152.166 181.36 152.405 181.625 152.263C181.89 152.121 181.924 151.614 182.215 151.416C182.506 151.218 182.961 151.52 182.991 151.89C182.981 152.074 182.918 152.251 182.81 152.4C182.701 152.549 182.551 152.664 182.379 152.729C182.194 152.783 182.024 152.879 181.883 153.009C181.663 153.274 181.819 153.669 181.98 153.975C182.233 154.46 182.491 154.945 182.748 155.43C182.647 155.551 182.512 155.64 182.361 155.685C182.21 155.73 182.049 155.73 181.898 155.684C181.592 155.617 181.308 155.468 180.995 155.416C179.502 155.177 178.51 157.08 177.025 155.833C177.105 155.716 177.156 155.582 177.175 155.441C177.194 155.3 177.18 155.157 177.134 155.023C177.088 154.888 177.012 154.767 176.91 154.667C176.809 154.568 176.686 154.493 176.551 154.449C175.857 154.281 175.003 154.953 174.484 154.449C174.301 154.281 174.238 154.013 174.048 153.848C173.529 153.401 172.764 154.158 172.395 154.46C171.175 155.46 171.955 156.061 171.32 157.191C171.033 157.71 170.414 157.938 170.048 158.419C169.682 158.9 169.623 159.426 169.302 159.87C168.44 161.098 167.112 159.389 166.418 158.837C166.448 159.803 165.351 160.385 164.403 160.549C162.941 160.799 163.157 160.825 162.429 161.904C162.341 162.052 162.213 162.172 162.06 162.253C161.908 162.333 161.736 162.37 161.564 162.359C160.971 162.277 160.739 161.527 160.239 161.202C159.997 161.046 159.698 160.99 159.471 160.829C158.866 160.374 159.06 159.445 158.896 158.71C158.821 158.388 158.669 158.089 158.454 157.838C158.24 157.586 157.967 157.39 157.661 157.266C157.436 157.579 157.256 157.922 157.124 158.285L157.87 159.546C158.119 159.902 158.284 160.31 158.351 160.74C158.336 160.982 158.358 161.225 158.419 161.46C158.598 161.904 159.165 161.993 159.616 162.187C160.683 162.657 162.034 164.18 162.862 165.023C163.743 165.926 163.724 166.87 164.526 167.717C164.556 167.758 164.576 167.805 164.585 167.855C164.595 167.905 164.593 167.957 164.581 168.006C164.568 168.055 164.545 168.101 164.513 168.141C164.481 168.181 164.441 168.213 164.396 168.235C164.203 168.314 163.987 168.314 163.795 168.235C163.338 168.087 162.944 167.79 162.676 167.392C163.023 167.911 160.985 168.347 160.698 168.272C160.228 168.146 159.825 167.526 159.407 167.287C158.366 166.679 157.639 166.571 157.736 168.093C157.773 168.675 157.792 169.403 157.277 169.675C157.154 169.553 156.993 169.478 156.821 169.461C156.649 169.445 156.476 169.489 156.333 169.586C156.05 169.785 155.84 170.072 155.736 170.403C155.635 170.614 155.61 170.854 155.665 171.082C155.722 171.192 155.767 171.309 155.799 171.429C155.84 171.832 155.262 171.944 154.863 171.899" fill="white"></path><path opacity="0.7" d="M218.852 139.32C218.65 138.898 218.076 138.854 217.609 138.902C217.143 138.951 216.602 139.01 216.285 138.667L217.031 137.212C217.086 137.126 217.108 137.022 217.091 136.921C217.068 136.874 217.035 136.833 216.995 136.799C216.956 136.766 216.909 136.741 216.859 136.727L215.908 136.287C215.501 136.436 216.042 137.156 215.747 137.473C215.617 137.611 215.397 137.585 215.203 137.589C213.576 137.611 213.643 139.454 213.819 140.525C214.024 141.767 213.345 142.965 212.699 144.047C212.464 144.42 212.184 144.849 211.744 144.95C211.304 145.051 210.882 144.808 210.442 144.722C209.696 144.569 208.912 144.913 208.14 144.894C205.428 144.834 205.207 141.786 206.856 140.331C207.711 139.585 207.774 139.838 208.088 138.723C208.222 138.257 208.618 137.835 208.33 137.32C208.254 137.194 208.147 137.089 208.019 137.016C207.891 136.943 207.747 136.903 207.6 136.901C207.452 136.898 207.307 136.934 207.177 137.003C207.047 137.073 206.937 137.174 206.856 137.298C206.532 137.835 206.133 138.294 206.088 138.932C205.573 138.365 204.737 138.119 204.04 137.757C203.967 137.918 203.853 138.058 203.71 138.163C203.567 138.267 203.4 138.333 203.224 138.354C203.048 138.375 202.869 138.351 202.706 138.283C202.542 138.214 202.399 138.105 202.29 137.966C202.469 137.66 202.611 137.182 202.29 137.022C202.195 136.98 202.09 136.966 201.988 136.981C201.555 137.003 201.126 137.111 200.693 137.092C200.025 137.063 198.548 136.145 197.932 136.742C197.824 136.846 197.753 136.984 197.637 137.085C197.508 137.181 197.348 137.227 197.187 137.216C197.026 137.204 196.875 137.135 196.76 137.022C196.652 136.902 196.576 136.756 196.542 136.598C196.508 136.44 196.516 136.276 196.566 136.122C196.626 135.917 196.749 135.749 196.794 135.522C197.044 134.402 195.645 134.656 195.331 134.16C195.182 133.921 195.164 131.795 195.249 131.586C194.9 131.763 194.514 131.857 194.122 131.861C193.729 131.865 193.342 131.778 192.988 131.608C192.242 131.168 192.22 130.377 192.436 129.534C192.653 128.69 193.149 127.69 193.276 127.023C193.343 126.649 193.459 126.247 193.802 126.123C194.231 125.967 194.757 126.385 195.137 126.123C195.251 126.033 195.347 125.923 195.421 125.799C195.692 125.478 196.079 125.276 196.497 125.236C196.915 125.196 197.333 125.322 197.66 125.586C197.977 125.553 198.16 125.213 198.32 124.941C198.48 124.668 198.786 124.374 199.066 124.5C199.346 124.627 199.331 125.153 199.156 125.478C198.974 125.808 198.75 126.113 198.488 126.385C198.264 126.557 198.101 126.796 198.022 127.067C198.014 127.281 198.069 127.493 198.182 127.675C198.381 128.152 198.724 128.554 199.163 128.825C199.387 128.95 199.649 128.989 199.9 128.935C200.151 128.881 200.373 128.737 200.525 128.53C200.577 128.399 200.642 128.274 200.719 128.157C200.95 127.892 201.394 127.989 201.685 128.19C201.94 128.436 202.233 128.636 202.555 128.784C202.894 128.881 203.357 128.612 203.256 128.276C203.745 128.343 204.375 128.578 204.323 129.071C204.292 129.226 204.232 129.374 204.148 129.507C203.711 130.38 204.148 132.194 205.345 131.668C206.14 131.324 205.872 129.802 206.991 129.769C207.528 129.769 207.983 130.25 208.521 130.22C208.726 130.134 208.614 129.817 208.446 129.664C208.18 129.429 207.858 129.266 207.511 129.191C207.164 129.115 206.804 129.131 206.465 129.235C206.465 128.601 207.245 128.056 207.006 127.474C206.767 126.892 205.737 126.892 205.655 126.273C205.648 126.093 205.69 125.916 205.775 125.758C206.125 124.944 207.114 123.635 206.077 122.93C205.942 122.857 205.817 122.768 205.704 122.665C205.398 122.318 205.681 121.788 205.961 121.422C206.468 121.46 206.752 121.997 207.043 122.419C207.334 122.84 207.95 123.202 208.308 122.84C208.565 122.583 208.524 122.072 208.86 121.926C209.017 121.859 209.207 121.904 209.353 121.818C209.707 121.613 209.394 121.072 209.494 120.661C209.629 120.117 210.442 120.139 210.923 120.437C211.405 120.736 211.875 121.184 212.416 121.105C212.591 121.075 212.755 120.993 212.927 120.949C213.464 120.818 214.009 121.064 214.505 121.322C215.292 121.695 215.188 117.591 215.27 117.378C215.908 115.822 217.844 115.822 219.21 115.33C219.913 115.044 220.582 114.678 221.202 114.24C231.623 126.254 235.059 143.342 230.007 158.437C229.8 159.125 229.545 159.797 229.242 160.448C228.455 159.702 227.377 158.277 226.153 158.348C224.597 158.445 224.541 160.654 222.9 160.46C222.564 160.281 222.952 159.773 222.9 159.396C222.836 159.193 222.724 159.008 222.575 158.855C222.448 158.684 222.381 158.419 222.542 158.277C222.366 157.904 221.795 157.975 221.396 158.09C220.916 158.255 220.4 158.285 219.904 158.176C218.9 157.896 218.411 156.814 217.818 155.956C217.309 155.262 216.737 154.616 216.109 154.027C216.449 154.233 216.882 153.837 216.915 153.442C216.891 153.045 216.809 152.654 216.673 152.281C216.531 151.617 217.105 151.229 217.046 150.569C216.971 149.752 216.434 148.923 216.747 148.166C217.12 147.245 218.389 147.189 219.378 147.289C219.46 146.069 218.631 144.778 219.202 143.693C219.453 143.294 219.789 142.956 220.187 142.704L222.497 140.984C222.845 140.783 223.11 140.464 223.243 140.085C223.344 139.63 223.053 139.186 222.78 138.809L221.892 137.578C221.785 137.397 221.625 137.254 221.433 137.167C221.214 137.121 220.984 137.16 220.792 137.275C219.687 137.797 218.819 138.716 218.363 139.85C217.047 138.896 215.853 137.783 214.811 136.537C214.531 137.436 213.718 138.167 213.572 139.07" fill="white"></path><path opacity="0.7" d="M181.994 128.694C181.729 128.72 181.473 128.805 181.245 128.943C181.016 129.08 180.821 129.267 180.674 129.488C180.536 129.785 180.418 130.091 180.319 130.403C180.266 130.558 180.171 130.696 180.044 130.801C179.918 130.906 179.765 130.975 179.603 131C179.185 131 178.909 130.582 178.719 130.209C178.524 129.925 178.446 129.578 178.498 129.238C178.605 129.015 178.723 128.797 178.853 128.586C179.043 128.13 178.816 127.627 178.67 127.157C178.525 126.686 178.517 126.06 178.946 125.825C179.23 125.668 179.599 125.75 179.89 125.608C180.599 125.265 180.263 124.082 180.868 123.743C181.614 123.347 182.45 124.187 182.852 124.787C183.255 125.388 183.371 126.187 183.524 126.884C183.961 128.877 183.666 128.451 181.994 128.694Z" fill="white"></path><path opacity="0.7" d="M177.924 99.4804C187.718 97.1373 198.706 99.0252 207.582 103.562C207.828 103.689 208.074 103.816 208.328 103.935C208.809 105.857 208.134 108.67 205.578 107.935C205.448 108.185 205.56 108.308 205.578 108.591C205.612 109.013 205.071 109.237 204.653 109.2C203.273 109.08 201.907 108.334 201.295 109.946C200.549 111.893 202.041 111.177 202.638 112.337C202.703 112.515 202.747 112.699 202.769 112.886C202.933 113.561 203.646 113.927 204.28 114.207C204.294 114.098 204.33 113.994 204.386 113.9C204.442 113.806 204.517 113.725 204.606 113.661C204.695 113.598 204.796 113.553 204.903 113.531C205.01 113.509 205.121 113.509 205.228 113.531C205.379 113.599 205.543 113.637 205.709 113.643C206.063 113.591 206.082 113.05 205.866 112.778C205.649 112.505 205.272 112.378 205.011 112.128C204.75 111.878 204.664 111.382 204.981 111.214C205.123 111.162 205.279 111.162 205.422 111.214C205.725 111.297 206.004 111.453 206.235 111.669C206.465 111.884 206.639 112.152 206.742 112.449C206.87 112.328 207.035 112.252 207.21 112.236C207.385 112.219 207.561 112.262 207.709 112.358C207.857 112.454 207.969 112.597 208.025 112.763C208.082 112.93 208.081 113.111 208.022 113.278C207.85 113.759 207.227 114.21 207.518 114.628C207.363 114.489 207.172 114.397 206.967 114.361C206.762 114.324 206.551 114.346 206.358 114.423C204.847 115.039 204.011 118.012 201.776 116.288C201.448 115.976 201.1 115.685 200.735 115.415C200.55 115.285 200.326 115.218 200.099 115.227C199.871 115.236 199.653 115.319 199.478 115.464C199.351 114.445 197.941 113.912 197.915 112.886C197.914 112.643 197.994 112.407 198.143 112.215C198.292 112.023 198.5 111.886 198.736 111.826C198.817 111.816 198.895 111.788 198.963 111.744C199.086 111.636 199.038 111.434 199.094 111.281C199.187 111.013 199.56 110.957 199.724 110.726C199.952 110.401 199.665 109.979 199.351 109.7C199.038 109.42 198.706 109.091 198.814 108.707C198.855 108.58 198.945 108.468 198.982 108.334C199.007 108.199 198.99 108.06 198.935 107.934C198.88 107.808 198.788 107.702 198.672 107.629C198.436 107.491 198.175 107.402 197.904 107.368C197.672 107.42 197.605 107.741 197.669 107.95C197.763 108.163 197.841 108.384 197.9 108.61C197.9 108.741 196.508 110.666 196.695 110.692C195.811 110.561 194.195 109.77 193.938 111.065C193.844 111.52 193.863 112.05 193.516 112.356C194.117 112.483 194.721 112.613 195.318 112.755C195.359 112.99 195.027 113.128 194.792 113.057C194.557 112.987 194.318 112.867 194.094 112.957C193.941 113.038 193.821 113.17 193.755 113.33L192.915 114.748C192.609 115.259 192.225 115.826 191.636 115.897C190.964 115.975 190.401 115.341 190.207 114.692C190.185 114.529 190.101 114.382 189.972 114.281C189.833 114.229 189.681 114.229 189.543 114.281C189.17 114.39 188.776 114.41 188.394 114.338C188.012 114.266 187.653 114.105 187.345 113.867C187.047 113.618 186.85 113.269 186.79 112.885C186.73 112.502 186.812 112.109 187.02 111.781C187.199 111.543 187.479 111.285 187.367 111.009C187.3 110.845 187.102 110.729 187.125 110.554C187.147 110.379 187.457 110.326 187.677 110.289C187.873 110.253 188.051 110.151 188.182 110.001C188.313 109.85 188.389 109.66 188.397 109.461C188.397 109.256 187.255 107.901 186.972 107.894C186.319 107.875 185.688 109.315 185.341 109.819C185.288 109.924 185.215 110.017 185.125 110.094C185.035 110.17 184.931 110.227 184.819 110.263C184.446 110.323 184.185 109.923 184.114 109.561C184.104 109.194 184.012 108.833 183.845 108.506C183.704 108.347 183.531 108.22 183.338 108.133C183.164 108.003 182.965 107.91 182.754 107.859C182.544 107.807 182.325 107.799 182.11 107.834C181.92 107.894 181.756 108.028 181.562 108.091C181.335 108.136 181.099 108.116 180.883 108.034C180.666 107.952 180.476 107.812 180.334 107.629C180.021 107.289 179.797 106.883 179.454 106.558C178.73 105.894 177.559 105.812 176.991 104.987C176.715 104.614 176.723 103.924 177.178 103.778C177.551 103.655 178.1 103.987 178.353 103.667C178.607 103.346 178.014 102.424 178.025 102.047C178.025 101.749 178.514 101.443 178.473 100.861C178.439 100.38 177.962 99.9915 177.924 99.4804Z" fill="white"></path><path opacity="0.7" d="M197.423 183.026C198.068 182.951 198.702 183.048 199.213 182.474C199.907 181.694 199.62 181.06 198.553 180.929C198.457 180.928 198.364 180.895 198.288 180.836C198.075 180.619 198.456 180.332 198.736 180.209C199.044 180.053 199.308 179.822 199.504 179.537C199.7 179.252 199.82 178.922 199.855 178.578C199.878 178.418 202.426 179.668 202.624 179.963C203.318 181 201.609 182.739 202.915 182.974C203.4 182.227 203.78 181.392 204.198 180.597L205.37 181.153C205.079 181.015 206.011 179.634 206.19 179.526C206.892 179.101 207.922 179.97 208.429 178.739C209.071 177.183 206.347 175.381 205.817 177.269C204.741 177.104 203.707 176.731 202.773 176.172C202.594 176.463 202.418 176.761 202.243 177.053C202.097 177.063 201.951 177.038 201.816 176.981C201.682 176.923 201.563 176.834 201.471 176.72C201.45 176.217 201.579 175.718 201.84 175.286C202.102 174.855 202.485 174.51 202.941 174.295C202.874 173.62 203.612 173.176 204.239 172.915C203.586 171.594 204.911 169.792 206.366 170.02C207.821 170.247 208.533 172.37 207.507 173.426C208.08 173.814 208.516 174.373 208.754 175.023C209.216 174.255 209.906 173.651 210.728 173.294C211.55 172.937 212.462 172.845 213.339 173.031C214.212 173.236 215.122 173.721 215.951 173.404C216.324 173.262 216.622 172.971 216.984 172.803C217.805 172.43 218.753 172.766 219.573 173.135C220.123 173.384 220.662 173.651 221.189 173.937C214.226 181.923 204.696 187.23 194.24 188.943C193.949 188.827 193.692 188.638 193.494 188.395C193.169 187.917 193.326 187.275 193.494 186.719C194.154 184.563 194.986 183.444 197.225 183.052L197.423 183.026Z" fill="white"></path><path d="M189.083 110.559L191.06 112.581L193.075 110.589C193.341 110.329 193.553 110.019 193.699 109.678C193.845 109.336 193.922 108.969 193.926 108.598C193.93 108.227 193.861 107.858 193.723 107.513C193.584 107.169 193.38 106.854 193.12 106.589C192.861 106.323 192.551 106.111 192.21 105.964C191.868 105.818 191.501 105.741 191.129 105.737C190.758 105.732 190.389 105.802 190.044 105.94C189.7 106.079 189.386 106.284 189.12 106.544C188.853 106.805 188.64 107.115 188.493 107.458C188.347 107.802 188.269 108.17 188.266 108.544C188.262 108.917 188.333 109.287 188.473 109.633C188.613 109.979 188.821 110.293 189.083 110.559ZM190.284 109.383C190.123 109.223 190.014 109.018 189.969 108.795C189.924 108.572 189.947 108.341 190.034 108.131C190.121 107.921 190.268 107.741 190.457 107.614C190.646 107.488 190.868 107.421 191.096 107.421C191.323 107.421 191.546 107.488 191.735 107.614C191.924 107.741 192.071 107.921 192.158 108.131C192.245 108.341 192.267 108.572 192.223 108.795C192.178 109.018 192.068 109.223 191.907 109.383C191.691 109.597 191.4 109.717 191.096 109.717C190.792 109.717 190.5 109.597 190.284 109.383Z" fill="#0C0641"></path><path opacity="0.2" d="M189.13 106.564C189.397 106.302 189.714 106.096 190.062 105.958C190.409 105.819 190.781 105.751 191.156 105.758L191.137 107.437C190.983 107.434 190.83 107.46 190.687 107.516C190.543 107.572 190.412 107.655 190.301 107.762C190.138 107.922 190.027 108.128 189.981 108.352C189.935 108.576 189.957 108.809 190.044 109.02C190.131 109.232 190.279 109.413 190.469 109.54C190.659 109.668 190.882 109.736 191.111 109.736L191.081 112.567V112.586L189.103 110.564C188.843 110.299 188.636 109.986 188.496 109.642C188.356 109.298 188.286 108.93 188.288 108.559C188.291 108.187 188.366 107.82 188.511 107.478C188.655 107.135 188.865 106.825 189.13 106.564Z" fill="#0C0641"></path><path d="M152.576 167.9L154.553 169.922L156.575 167.944C156.841 167.685 157.053 167.375 157.199 167.034C157.345 166.692 157.422 166.325 157.426 165.954C157.43 165.582 157.361 165.214 157.223 164.869C157.085 164.524 156.88 164.21 156.62 163.945C156.36 163.679 156.051 163.467 155.71 163.321C155.368 163.175 155.001 163.098 154.63 163.094C154.258 163.09 153.89 163.159 153.545 163.297C153.2 163.435 152.886 163.64 152.621 163.9C152.355 164.16 152.143 164.469 151.997 164.811C151.851 165.152 151.774 165.519 151.77 165.891C151.766 166.262 151.835 166.631 151.973 166.975C152.111 167.32 152.316 167.634 152.576 167.9ZM153.777 166.728C153.618 166.566 153.511 166.36 153.469 166.136C153.427 165.913 153.452 165.682 153.541 165.473C153.63 165.263 153.78 165.086 153.97 164.961C154.161 164.837 154.384 164.772 154.611 164.775C154.839 164.777 155.06 164.847 155.248 164.976C155.435 165.105 155.58 165.286 155.665 165.497C155.749 165.708 155.769 165.94 155.722 166.162C155.675 166.385 155.563 166.588 155.4 166.747C155.182 166.958 154.889 167.075 154.585 167.071C154.281 167.068 153.991 166.945 153.777 166.728Z" fill="#0C0641"></path><path opacity="0.2" d="M152.619 163.9C152.887 163.639 153.203 163.433 153.551 163.295C153.899 163.156 154.271 163.088 154.645 163.094L154.626 164.773C154.397 164.767 154.171 164.829 153.978 164.952C153.784 165.075 153.632 165.253 153.54 165.463C153.449 165.673 153.422 165.906 153.464 166.132C153.506 166.357 153.615 166.565 153.775 166.728C153.883 166.838 154.011 166.925 154.153 166.984C154.294 167.043 154.446 167.072 154.6 167.071L154.57 169.914H154.551L152.574 167.892C152.052 167.356 151.763 166.635 151.772 165.887C151.78 165.139 152.085 164.424 152.619 163.9Z" fill="#0C0641"></path><path d="M151.183 130.519L153.161 132.541L155.187 130.564C155.722 130.039 156.028 129.323 156.036 128.573C156.044 127.823 155.755 127.101 155.231 126.564C154.972 126.298 154.662 126.086 154.321 125.94C153.979 125.795 153.612 125.717 153.241 125.713C152.87 125.709 152.501 125.778 152.156 125.916C151.811 126.055 151.497 126.259 151.232 126.519C150.966 126.779 150.754 127.088 150.608 127.429C150.461 127.771 150.384 128.137 150.379 128.509C150.375 128.88 150.443 129.249 150.581 129.594C150.719 129.939 150.924 130.253 151.183 130.519ZM152.385 129.347C152.226 129.185 152.119 128.979 152.078 128.755C152.036 128.532 152.062 128.301 152.151 128.092C152.24 127.884 152.39 127.706 152.58 127.582C152.771 127.458 152.993 127.393 153.221 127.396C153.448 127.398 153.669 127.468 153.856 127.597C154.044 127.725 154.189 127.906 154.274 128.117C154.358 128.328 154.379 128.559 154.332 128.781C154.285 129.003 154.174 129.207 154.011 129.366C153.903 129.472 153.776 129.555 153.635 129.611C153.495 129.668 153.345 129.696 153.194 129.694C153.043 129.692 152.894 129.661 152.755 129.601C152.616 129.542 152.49 129.455 152.385 129.347Z" fill="#0C0641"></path><path opacity="0.2" d="M151.234 126.519C151.501 126.257 151.818 126.051 152.166 125.912C152.513 125.774 152.885 125.706 153.26 125.713L153.241 127.392C152.936 127.389 152.643 127.507 152.425 127.72C152.207 127.933 152.082 128.224 152.079 128.528C152.075 128.833 152.193 129.127 152.406 129.345C152.619 129.563 152.91 129.687 153.215 129.691L153.181 132.522V132.541L151.208 130.519C150.946 130.255 150.74 129.942 150.599 129.598C150.459 129.254 150.388 128.885 150.391 128.514C150.393 128.142 150.469 127.775 150.613 127.432C150.758 127.09 150.969 126.78 151.234 126.519Z" fill="#0C0641"></path><path d="M203.118 170.876L205.096 172.898L207.118 170.921C207.384 170.662 207.596 170.352 207.742 170.011C207.889 169.669 207.966 169.302 207.97 168.93C207.974 168.559 207.905 168.19 207.767 167.845C207.628 167.501 207.423 167.187 207.163 166.921C206.903 166.656 206.593 166.444 206.252 166.298C205.91 166.152 205.543 166.075 205.172 166.07C204.801 166.066 204.432 166.135 204.087 166.274C203.743 166.412 203.428 166.617 203.163 166.877C202.627 167.401 202.322 168.117 202.314 168.867C202.305 169.617 202.595 170.339 203.118 170.876ZM204.32 169.705C204.161 169.542 204.054 169.336 204.012 169.113C203.971 168.889 203.996 168.659 204.086 168.45C204.175 168.241 204.325 168.063 204.515 167.939C204.705 167.815 204.928 167.751 205.155 167.753C205.383 167.756 205.604 167.826 205.791 167.954C205.979 168.082 206.124 168.263 206.209 168.474C206.293 168.685 206.314 168.916 206.267 169.139C206.22 169.361 206.109 169.564 205.946 169.723C205.838 169.829 205.711 169.912 205.57 169.969C205.43 170.025 205.28 170.053 205.129 170.051C204.978 170.05 204.829 170.018 204.69 169.959C204.551 169.899 204.425 169.813 204.32 169.705Z" fill="#0C0641"></path><path opacity="0.2" d="M203.15 166.877C203.418 166.615 203.736 166.409 204.084 166.271C204.433 166.132 204.805 166.064 205.18 166.071L205.161 167.753C205.007 167.747 204.853 167.772 204.709 167.828C204.566 167.884 204.435 167.969 204.325 168.078C204.162 168.238 204.05 168.443 204.004 168.667C203.958 168.891 203.98 169.124 204.067 169.336C204.154 169.547 204.302 169.728 204.492 169.855C204.682 169.982 204.906 170.049 205.135 170.048L205.101 172.88V172.898L203.124 170.876C202.863 170.612 202.657 170.299 202.517 169.955C202.377 169.611 202.306 169.242 202.309 168.871C202.311 168.5 202.387 168.132 202.531 167.79C202.675 167.448 202.886 167.137 203.15 166.877Z" fill="#0C0641"></path><path d="M224.819 135.349L226.796 137.371L228.819 135.394C229.084 135.134 229.296 134.825 229.442 134.483C229.588 134.142 229.665 133.775 229.669 133.403C229.674 133.032 229.604 132.663 229.466 132.319C229.328 131.974 229.123 131.66 228.863 131.394C228.338 130.859 227.623 130.553 226.873 130.545C226.123 130.537 225.4 130.826 224.864 131.35C224.598 131.609 224.386 131.919 224.24 132.26C224.094 132.602 224.017 132.969 224.013 133.34C224.009 133.712 224.078 134.08 224.216 134.425C224.354 134.77 224.559 135.084 224.819 135.349ZM226.02 134.178C225.861 134.015 225.754 133.809 225.712 133.586C225.67 133.362 225.695 133.131 225.784 132.922C225.874 132.713 226.023 132.535 226.213 132.411C226.404 132.287 226.627 132.222 226.854 132.224C227.082 132.227 227.303 132.297 227.491 132.426C227.678 132.554 227.824 132.736 227.908 132.947C227.993 133.158 228.012 133.389 227.965 133.612C227.918 133.834 227.806 134.038 227.643 134.196C227.425 134.408 227.132 134.525 226.828 134.521C226.524 134.518 226.234 134.394 226.02 134.178Z" fill="#0C0641"></path><path opacity="0.2" d="M224.863 131.35C225.131 131.088 225.448 130.882 225.796 130.745C226.143 130.607 226.515 130.54 226.889 130.547L226.871 132.226C226.716 132.22 226.563 132.245 226.419 132.301C226.275 132.357 226.144 132.442 226.035 132.551C225.82 132.767 225.699 133.059 225.699 133.364C225.699 133.669 225.82 133.962 226.035 134.178C226.141 134.288 226.27 134.376 226.411 134.435C226.553 134.494 226.706 134.523 226.859 134.521L226.83 137.356H226.811L224.833 135.334C224.312 134.801 224.022 134.082 224.027 133.336C224.033 132.589 224.333 131.875 224.863 131.35Z" fill="#0C0641"></path><path d="M214.836 167.813L216.395 169.406L217.988 167.848C218.197 167.644 218.364 167.4 218.479 167.131C218.594 166.862 218.655 166.572 218.658 166.28C218.662 165.987 218.607 165.697 218.498 165.425C218.389 165.153 218.228 164.906 218.023 164.697C217.61 164.275 217.046 164.034 216.455 164.027C215.864 164.021 215.295 164.249 214.872 164.661C214.662 164.866 214.496 165.11 214.381 165.379C214.265 165.648 214.205 165.937 214.201 166.23C214.198 166.523 214.252 166.813 214.361 167.085C214.47 167.356 214.632 167.604 214.836 167.813ZM215.783 166.89C215.658 166.762 215.573 166.6 215.54 166.423C215.507 166.247 215.527 166.065 215.597 165.901C215.668 165.736 215.785 165.596 215.935 165.498C216.085 165.4 216.261 165.349 216.44 165.351C216.619 165.353 216.794 165.408 216.942 165.509C217.09 165.611 217.204 165.753 217.271 165.92C217.337 166.086 217.353 166.269 217.316 166.444C217.279 166.619 217.19 166.779 217.062 166.905C216.89 167.071 216.659 167.163 216.42 167.16C216.18 167.158 215.951 167.06 215.783 166.89Z" fill="#0C0641"></path><path opacity="0.2" d="M214.874 164.662C215.084 164.456 215.334 164.294 215.608 164.185C215.882 164.077 216.175 164.024 216.47 164.03L216.455 165.353C216.334 165.348 216.213 165.368 216.099 165.412C215.986 165.456 215.883 165.523 215.797 165.608C215.627 165.779 215.532 166.009 215.532 166.249C215.532 166.49 215.627 166.72 215.797 166.89C215.881 166.978 215.982 167.047 216.093 167.093C216.205 167.14 216.325 167.163 216.446 167.161L216.423 169.395H216.408L214.85 167.802C214.439 167.381 214.211 166.815 214.215 166.227C214.219 165.639 214.456 165.076 214.874 164.662Z" fill="#0C0641"></path><path d="M188.093 120.266L189.651 121.86L191.245 120.301C191.454 120.097 191.621 119.853 191.736 119.584C191.851 119.315 191.912 119.026 191.915 118.733C191.919 118.44 191.864 118.15 191.755 117.878C191.646 117.607 191.485 117.359 191.28 117.15C190.867 116.728 190.302 116.487 189.712 116.481C189.121 116.474 188.552 116.702 188.129 117.115C187.919 117.319 187.752 117.563 187.637 117.832C187.522 118.101 187.461 118.39 187.458 118.683C187.455 118.976 187.509 119.266 187.618 119.538C187.727 119.809 187.889 120.057 188.093 120.266ZM189.04 119.343C188.915 119.215 188.83 119.053 188.797 118.877C188.764 118.7 188.784 118.518 188.854 118.354C188.924 118.189 189.042 118.049 189.192 117.951C189.342 117.853 189.518 117.802 189.697 117.804C189.876 117.806 190.051 117.861 190.199 117.962C190.346 118.064 190.461 118.207 190.527 118.373C190.594 118.539 190.61 118.722 190.573 118.897C190.535 119.072 190.447 119.233 190.319 119.358C190.147 119.524 189.916 119.616 189.676 119.613C189.437 119.611 189.208 119.514 189.04 119.343Z" fill="#0C0641"></path><path opacity="0.2" d="M188.128 117.115C188.339 116.909 188.589 116.747 188.863 116.638C189.137 116.53 189.43 116.477 189.725 116.483L189.71 117.806C189.589 117.801 189.467 117.821 189.354 117.865C189.241 117.909 189.138 117.976 189.052 118.062C188.882 118.232 188.787 118.462 188.787 118.702C188.787 118.943 188.882 119.173 189.052 119.343C189.136 119.431 189.237 119.5 189.348 119.546C189.46 119.593 189.58 119.616 189.701 119.614L189.678 121.848H189.663L188.105 120.255C187.694 119.834 187.465 119.268 187.47 118.68C187.474 118.092 187.711 117.529 188.128 117.115Z" fill="#0C0641"></path><path d="M170.263 164.84L171.821 166.434L173.415 164.876C173.624 164.671 173.791 164.427 173.906 164.158C174.021 163.889 174.082 163.6 174.085 163.307C174.088 163.014 174.034 162.724 173.925 162.452C173.816 162.181 173.655 161.933 173.45 161.724C173.036 161.302 172.472 161.061 171.882 161.055C171.291 161.048 170.721 161.276 170.298 161.689C170.089 161.893 169.922 162.137 169.807 162.406C169.692 162.675 169.631 162.965 169.628 163.257C169.625 163.55 169.679 163.84 169.788 164.112C169.897 164.384 170.059 164.631 170.263 164.84ZM171.21 163.917C171.084 163.789 171 163.627 170.967 163.451C170.934 163.275 170.954 163.093 171.024 162.928C171.094 162.763 171.212 162.623 171.362 162.525C171.512 162.427 171.688 162.376 171.867 162.378C172.046 162.38 172.221 162.435 172.369 162.537C172.516 162.638 172.631 162.781 172.697 162.947C172.764 163.114 172.78 163.296 172.742 163.471C172.705 163.646 172.617 163.807 172.489 163.932C172.317 164.099 172.086 164.19 171.846 164.188C171.607 164.185 171.378 164.088 171.21 163.917Z" fill="#0C0641"></path><path opacity="0.2" d="M170.3 161.691C170.511 161.485 170.761 161.323 171.035 161.214C171.309 161.106 171.602 161.053 171.897 161.059L171.882 162.382C171.761 162.377 171.639 162.397 171.526 162.441C171.413 162.485 171.31 162.552 171.223 162.638C171.054 162.808 170.959 163.038 170.959 163.279C170.959 163.519 171.054 163.749 171.223 163.92C171.307 164.007 171.408 164.076 171.52 164.122C171.632 164.169 171.752 164.192 171.873 164.19L171.85 166.424H171.835L170.277 164.831C169.866 164.41 169.637 163.844 169.642 163.256C169.646 162.668 169.883 162.105 170.3 161.691Z" fill="#0C0641"></path><path d="M197.809 130.984L199.787 133.006L201.809 131.028C202.075 130.769 202.287 130.459 202.433 130.118C202.579 129.776 202.656 129.409 202.66 129.038C202.664 128.666 202.595 128.298 202.457 127.953C202.318 127.608 202.114 127.294 201.854 127.029C201.594 126.763 201.285 126.551 200.944 126.404C200.602 126.258 200.236 126.18 199.864 126.176C199.493 126.171 199.124 126.24 198.779 126.378C198.434 126.516 198.12 126.721 197.854 126.98C197.318 127.505 197.012 128.222 197.003 128.973C196.995 129.723 197.285 130.447 197.809 130.984ZM199.011 129.808C198.852 129.646 198.745 129.44 198.704 129.216C198.662 128.993 198.688 128.762 198.777 128.553C198.867 128.345 199.016 128.167 199.206 128.043C199.397 127.919 199.62 127.854 199.847 127.857C200.074 127.859 200.295 127.929 200.483 128.058C200.67 128.186 200.815 128.367 200.9 128.578C200.985 128.789 201.005 129.02 200.958 129.242C200.911 129.464 200.8 129.668 200.638 129.827C200.53 129.933 200.402 130.016 200.262 130.072C200.121 130.129 199.971 130.157 199.82 130.155C199.669 130.153 199.52 130.122 199.381 130.062C199.242 130.003 199.116 129.916 199.011 129.808Z" fill="#0C0641"></path><path opacity="0.2" d="M197.854 126.979C198.122 126.717 198.439 126.511 198.787 126.374C199.134 126.236 199.506 126.169 199.88 126.176L199.862 127.855C199.708 127.849 199.555 127.875 199.412 127.931C199.269 127.987 199.139 128.072 199.03 128.18C198.923 128.287 198.838 128.413 198.78 128.553C198.722 128.693 198.692 128.842 198.692 128.993C198.692 129.144 198.722 129.294 198.78 129.434C198.838 129.573 198.923 129.7 199.03 129.807C199.136 129.917 199.264 130.005 199.406 130.064C199.548 130.123 199.701 130.152 199.854 130.15L199.791 132.974L199.772 132.993L197.795 130.971C197.275 130.432 196.99 129.71 197.001 128.962C197.012 128.214 197.319 127.501 197.854 126.979Z" fill="#0C0641"></path><path d="M189.078 124.023L188.332 123.866C188.455 123.277 188.552 122.949 188.556 122.934L189.272 123.143C189.272 123.143 189.198 123.456 189.078 124.023Z" fill="#0C0641"></path><path d="M213.048 163.973C212.72 163.449 212.353 162.95 211.951 162.481L212.522 162.003C212.951 162.505 213.34 163.039 213.686 163.6L213.048 163.973ZM209.832 160.313C209.395 159.918 208.925 159.511 208.388 159.067L208.862 158.493C209.406 158.944 209.888 159.358 210.332 159.757L209.832 160.313ZM205.985 157.168C205.488 156.785 204.978 156.397 204.455 156.004L204.907 155.411L206.44 156.575L205.985 157.168ZM202.004 154.138C201.501 153.747 200.993 153.351 200.486 152.945L200.952 152.363C201.456 152.765 201.959 153.157 202.463 153.545L202.004 154.138ZM198.109 150.967C197.602 150.527 197.12 150.087 196.673 149.669L197.184 149.124C197.624 149.538 198.102 149.967 198.598 150.404L198.109 150.967ZM194.494 147.456C194.05 146.96 193.624 146.464 193.236 145.964L193.822 145.501C194.195 145.979 194.613 146.464 195.05 146.949L194.494 147.456ZM191.449 143.423C191.11 142.871 190.793 142.304 190.498 141.718L191.166 141.382C191.449 141.942 191.759 142.502 192.084 143.035L191.449 143.423ZM189.274 138.849C189.058 138.241 188.864 137.614 188.696 136.983L189.416 136.789C189.58 137.398 189.77 138.006 189.976 138.595L189.274 138.849ZM188.062 133.935C187.968 133.301 187.894 132.648 187.845 131.999L188.591 131.939C188.64 132.573 188.711 133.208 188.804 133.805L188.062 133.935ZM188.517 128.906L187.771 128.883C187.789 128.238 187.826 127.585 187.89 126.943L188.636 127.011C188.573 127.634 188.535 128.272 188.517 128.902V128.906Z" fill="#0C0641"></path><path d="M219.763 140.914L219.114 140.541C219.402 140.037 219.54 139.746 219.54 139.742L220.215 140.063C220.215 140.063 220.066 140.38 219.763 140.914Z" fill="#0C0641"></path><path d="M181.379 164.976L181.252 164.23C181.841 164.133 182.423 164.029 182.994 163.917L183.136 164.663C182.558 164.771 181.972 164.879 181.379 164.976ZM185.934 164.066L185.763 163.338C186.345 163.204 186.916 163.062 187.479 162.913L187.669 163.637C187.106 163.786 186.52 163.928 185.934 164.066ZM190.412 162.853L190.191 162.141C190.762 161.965 191.311 161.768 191.874 161.596L192.113 162.301C191.563 162.49 190.999 162.674 190.419 162.853H190.412ZM194.803 161.324L194.531 160.63C195.079 160.417 195.627 160.193 196.168 159.962L196.459 160.648C195.922 160.898 195.363 161.107 194.81 161.324H194.803ZM199.067 159.458L198.743 158.787C199.273 158.529 199.806 158.26 200.321 157.992L200.664 158.652C200.164 158.932 199.616 159.204 199.075 159.466L199.067 159.458ZM203.171 157.261L202.798 156.619C203.313 156.313 203.811 156.004 204.291 155.694L204.69 156.324C204.209 156.645 203.694 156.958 203.175 157.268L203.171 157.261ZM207.074 154.72L206.641 154.112C207.119 153.772 207.596 153.418 208.059 153.059L208.514 153.653C208.048 154.022 207.563 154.38 207.078 154.727L207.074 154.72ZM210.734 151.843L210.249 151.276C210.693 150.903 211.137 150.496 211.562 150.101L212.07 150.646C211.641 151.056 211.193 151.459 210.738 151.851L210.734 151.843ZM214.111 148.631L213.596 148.123C213.999 147.698 214.402 147.262 214.786 146.825L215.346 147.317C214.935 147.761 214.529 148.213 214.114 148.638L214.111 148.631ZM217.151 145.094L216.581 144.646C216.954 144.176 217.293 143.698 217.622 143.225L218.233 143.654C217.883 144.135 217.525 144.62 217.155 145.101L217.151 145.094Z" fill="#0C0641"></path><path d="M177.61 165.202L177.521 164.456L178.442 164.34L178.539 165.086L177.61 165.202Z" fill="#0C0641"></path><path d="M155.703 115.178C155.385 114.865 155.18 114.63 155.068 114.503L155.609 113.988V114.011C155.714 114.13 155.912 114.354 156.206 114.649L155.703 115.178Z" fill="#0C0641"></path><path d="M177.163 121.783V121.037C177.778 121.037 178.413 121.007 179.028 120.977L179.062 121.724C178.428 121.735 177.778 121.753 177.163 121.783ZM174.114 121.738C173.473 121.709 172.831 121.668 172.208 121.615L172.275 120.869C172.887 120.925 173.518 120.966 174.141 120.992L174.114 121.738ZM169.197 121.22C168.559 121.115 167.929 120.996 167.332 120.847L167.492 120.119C168.089 120.25 168.708 120.365 169.331 120.466L169.197 121.22ZM164.347 120.071C163.731 119.873 163.123 119.657 162.541 119.425L162.817 118.731C163.384 118.959 163.974 119.168 164.574 119.362L164.347 120.071ZM159.758 118.123C159.183 117.806 158.638 117.47 158.112 117.123L158.53 116.504C159.03 116.84 159.564 117.164 160.12 117.47L159.758 118.123Z" fill="#0C0641"></path><path d="M182.119 121.478L182.044 120.732L182.965 120.635L183.051 121.381L182.119 121.478Z" fill="#0C0641"></path><path d="M172.138 168.735C171.914 168.224 171.765 167.926 171.765 167.926L172.421 167.553C172.421 167.553 172.597 167.877 172.832 168.426L172.138 168.735Z" fill="#0C0641"></path><path d="M172.439 182.925L171.809 182.529C172.129 182.011 172.411 181.47 172.652 180.91L173.338 181.205C173.082 181.8 172.781 182.375 172.439 182.925ZM174.208 178.231L173.461 178.108C173.561 177.503 173.621 176.893 173.641 176.28L174.387 176.306C174.369 176.951 174.309 177.594 174.208 178.231ZM173.461 173.344C173.368 172.747 173.245 172.139 173.088 171.534L173.808 171.348C173.97 171.963 174.101 172.585 174.2 173.213L173.461 173.344Z" fill="#0C0641"></path><path d="M169.815 186.005L169.318 185.445C169.546 185.244 169.77 185.035 169.979 184.822L170.509 185.348C170.288 185.583 170.053 185.792 169.815 186.005Z" fill="#0C0641"></path><path d="M195.616 121.181C195.019 121.181 194.676 121.154 194.665 121.154L194.71 120.408C194.71 120.408 195.046 120.431 195.62 120.434L195.616 121.181Z" fill="#0C0641"></path><path d="M198.913 121.039L198.846 120.293C199.521 120.237 200.2 120.159 200.857 120.062L200.961 120.808C200.29 120.909 199.599 120.987 198.913 121.039ZM204.207 120.177L204.028 119.454C204.692 119.286 205.345 119.08 205.968 118.898L206.199 119.606C205.558 119.823 204.89 120.013 204.207 120.185V120.177ZM209.274 118.364L208.945 117.696C209.545 117.402 210.129 117.077 210.695 116.722L211.091 117.353C210.504 117.726 209.898 118.066 209.274 118.372V118.364ZM213.729 115.308L213.221 114.779C213.702 114.321 214.149 113.829 214.561 113.309L215.146 113.771C214.712 114.32 214.238 114.836 213.729 115.316V115.308Z" fill="#0C0641"></path><path d="M216.894 110.907L216.207 110.59C216.334 110.321 216.453 110.037 216.58 109.754L217.278 110.023C217.151 110.325 217.024 110.623 216.894 110.907Z" fill="#0C0641"></path><path d="M193.904 135.39L193.232 135.065C193.365 134.802 193.48 134.53 193.579 134.252L194.288 134.491C194.179 134.798 194.05 135.098 193.904 135.39Z" fill="#0C0641"></path><path d="M187.587 139.885C186.936 139.868 186.29 139.765 185.665 139.579L185.874 138.862C186.435 139.031 187.016 139.124 187.602 139.138L187.587 139.885ZM190.62 139.138L190.247 138.489C190.753 138.198 191.215 137.836 191.62 137.415L192.154 137.937C191.7 138.401 191.184 138.799 190.62 139.12V139.138ZM182.89 138.318C182.572 138.12 182.248 137.903 181.923 137.672C181.725 137.53 181.528 137.389 181.337 137.243L181.785 136.646C181.972 136.784 182.158 136.926 182.356 137.064C182.666 137.288 182.979 137.493 183.281 137.68L182.89 138.318ZM179.013 135.355C178.562 134.982 178.11 134.549 177.629 134.102L178.151 133.538C178.621 133.982 179.065 134.389 179.509 134.777L179.013 135.355ZM175.502 132.02L175.215 131.732L174.189 130.71L174.715 130.18C175.051 130.512 175.394 130.852 175.741 131.206L176.028 131.49L175.502 132.02ZM172.04 128.714C171.579 128.324 171.095 127.962 170.592 127.628L170.999 127.005C171.528 127.348 172.035 127.723 172.517 128.128L172.04 128.714ZM168.018 126.475C167.448 126.341 166.864 126.283 166.279 126.3L166.257 125.554C166.907 125.535 167.556 125.601 168.189 125.748L168.018 126.475Z" fill="#0C0641"></path><path d="M162.631 127.193L162.332 126.507C162.634 126.38 162.933 126.261 163.224 126.156L163.474 126.861C163.198 126.958 162.914 127.07 162.631 127.193Z" fill="#0C0641"></path><path d="M200.537 173.522L200.313 172.81C200.888 172.631 201.228 172.541 201.228 172.541L201.41 173.265C201.41 173.265 201.063 173.351 200.537 173.522Z" fill="#0C0641"></path><path d="M186.456 184.751L185.732 184.569C185.889 183.952 186.102 183.351 186.37 182.774L187.046 183.087C186.798 183.623 186.601 184.18 186.456 184.751ZM188.564 180.692L187.99 180.222C188.387 179.736 188.815 179.275 189.269 178.842L189.784 179.383C189.352 179.795 188.945 180.232 188.564 180.692ZM192.023 177.566L191.583 176.954C192.079 176.607 192.605 176.267 193.153 175.943L193.526 176.584C193.012 176.901 192.5 177.23 192.023 177.566ZM196.127 175.226L195.81 174.551C196.362 174.293 196.929 174.043 197.511 173.805L197.791 174.495C197.216 174.73 196.657 174.972 196.116 175.226H196.127Z" fill="#0C0641"></path><path d="M185.562 188.57C185.513 188.249 185.48 187.925 185.461 187.611L186.207 187.566C186.226 187.861 186.256 188.16 186.3 188.462L185.562 188.57Z" fill="#0C0641"></path><path d="M184.908 112.32L184.859 111.574C185.423 111.537 185.762 111.492 185.766 111.492L185.863 112.238C185.863 112.238 185.497 112.283 184.908 112.32Z" fill="#0C0641"></path><path d="M181.808 112.325C181.14 112.284 180.487 112.213 179.872 112.12L179.983 111.374C180.58 111.467 181.207 111.531 181.849 111.572L181.808 112.325ZM176.835 111.337C176.214 111.111 175.617 110.826 175.051 110.486L175.424 109.848C175.953 110.161 176.508 110.426 177.084 110.639L176.835 111.337ZM172.697 108.352C172.313 107.799 172.009 107.195 171.794 106.557L172.503 106.318C172.693 106.889 172.965 107.429 173.309 107.923L172.697 108.352Z" fill="#0C0641"></path><path d="M172.109 103.419L171.362 103.396C171.362 103.083 171.396 102.762 171.429 102.438L172.176 102.516C172.138 102.818 172.12 103.124 172.109 103.419Z" fill="#0C0641"></path></svg> 