<?xml version="1.0" encoding="UTF-8"?> <svg xmlns="http://www.w3.org/2000/svg" xmlns:xlink="http://www.w3.org/1999/xlink" version="1.1" id="Warstwa_1" x="0px" y="0px" viewBox="0 0 379 293" style="enable-background:new 0 0 379 293;" xml:space="preserve"> <style type="text/css"> .st0{fill:#ECECEC;} .st1{fill:#F5F5F5;} .st2{fill:#E1E1E1;} .st3{fill:#FFFFFF;} .st4{fill:#F0F0F0;} .st5{fill:#007CFF;} .st6{opacity:0.5;} .st7{fill:#FFC3BD;} .st8{opacity:0.6;} .st9{opacity:0.2;enable-background:new ;} .st10{fill:#1A2E35;} .st11{fill:#FF847F;} .st12{opacity:0.1;} .st13{opacity:0.2;} .st14{opacity:0.5;fill:#FFFFFF;} .st15{opacity:0.3;fill:#FFFFFF;} .st16{opacity:0.1;fill:#FFFFFF;} .st17{opacity:0.4;} .st18{opacity:0.6;enable-background:new ;} .st19{opacity:0.7;fill:#FFFFFF;} .st20{opacity:0.2;fill:#FFFFFF;} .st21{fill:#375A64;} .st22{opacity:0.8;fill:#1A2E35;} .st23{fill:#F99470;} .st24{fill:#F48C68;} </style> <rect x="258.2" y="209.2" class="st0" width="13.7" height="0.1"></rect> <rect x="219.4" y="210.3" class="st0" width="3.6" height="0.1"></rect> <rect x="249.9" y="205.4" class="st0" width="7.9" height="0.1"></rect> <rect x="108.1" y="206.1" class="st0" width="17.8" height="0.1"></rect> <rect x="129.6" y="206.1" class="st0" width="2.6" height="0.1"></rect> <rect x="140.7" y="207.8" class="st0" width="38.6" height="0.1"></rect> <g> <path class="st0" d="M184.7,184.2h-79.6c-1.3,0-2.4-1.1-2.4-2.4V70c0-1.3,1.1-2.4,2.4-2.4h79.6c1.3,0,2.4,1.1,2.4,2.4v111.9 C187.1,183.1,186,184.2,184.7,184.2z M105.1,67.7c-1.2,0-2.2,1-2.2,2.2v111.9c0,1.2,1,2.2,2.2,2.2h79.6c1.2,0,2.2-1,2.2-2.2V70 c0-1.2-1-2.2-2.2-2.2H105.1z"></path> <path class="st0" d="M273.9,184.2h-79.6c-1.3,0-2.4-1.1-2.4-2.4V70c0-1.3,1.1-2.4,2.4-2.4h79.6c1.3,0,2.4,1.1,2.4,2.4v111.9 C276.2,183.1,275.2,184.2,273.9,184.2z M194.3,67.7c-1.2,0-2.2,1-2.2,2.2v111.9c0,1.2,1,2.2,2.2,2.2h79.6c1.2,0,2.2-1,2.2-2.2V70 c0-1.2-1-2.2-2.2-2.2H194.3z"></path> </g> <rect x="86.5" y="202.6" class="st0" width="206.1" height="0.1"></rect> <g> <path class="st0" d="M261.6,199.4c-0.7,0.6-1.3,1-1.9,1.2c-1.4,0.7-2.7,0.8-3.1,0.8c-1.4-0.3-2.9-0.9-4.2-1.8 c-1.4-1-2.6-2.2-3.5-3.6c0.1,0.1,0.1,0.1,0.2,0.2c0.2,0.1,0.3,0.3,0.5,0.4c0.9,0.6,2,1.1,3.2,1.5c1.8,0.6,4,0.9,6.5,0.9 C259.9,199,260.8,199.2,261.6,199.4z"></path> <path class="st0" d="M264.1,200.8c-1.7,0.7-3.5,1.1-5.4,1c0.5-0.1,1-0.3,1.6-0.6c0.8-0.4,1.6-0.9,2.3-1.5c0.6,0.2,1,0.4,1.2,0.6 C264,200.5,264,200.6,264.1,200.8z"></path> <path class="st0" d="M268.1,197.9c-1,1.1-2.2,2-3.5,2.6c-0.1-0.2-0.2-0.4-0.4-0.7c-0.2-0.3-0.7-0.5-1.2-0.6 c0.2-0.2,0.3-0.3,0.5-0.5c0.4-0.4,0.7-0.8,1-1.3C266,197.8,267.2,198,268.1,197.9z"></path> <path class="st0" d="M269.3,196.4c-0.2,0.3-0.4,0.6-0.6,0.8l0,0c-0.6,0.3-1.5,0.2-2.8,0c-0.3-0.1-0.6-0.2-1-0.3 c0.5-0.7,0.9-1.5,1.3-2.3c0.7,0.2,1.7,0.3,2.7-0.3c0.9-0.6,1.7-1.7,2.4-3.3C271.1,192.9,270.4,194.7,269.3,196.4z"></path> <path class="st0" d="M268.8,193.6c-0.8,0.5-1.6,0.4-2.2,0.3c0.1-0.2,0.1-0.3,0.2-0.5c1-2.3,1.5-4.6,1.6-6.6c0-1.7-0.2-3.2-0.7-4.6 c-0.4-1-0.8-1.8-1.3-2.3c2.2,1.5,3.8,3.7,4.6,6.1c0.7,2,0.5,4.3-0.6,6.1C269.9,192.7,269.4,193.3,268.8,193.6z"></path> <path class="st0" d="M265.9,193.6c-1.1-0.4-2.1-1.9-2.6-2.9c-3.9-9.1-6.2-11.8-7.3-12.5c2.8-0.9,6-0.7,8.8,0.7 c0.3,0.3,1.4,1.4,2.2,3.3c0.8,2.1,1.3,5.7-0.8,10.9C266,193.2,266,193.4,265.9,193.6z"></path> <path class="st0" d="M264.2,196.5c-0.9-0.3-1.8-0.7-2.8-1.2c-3.2-1.6-6.4-3.8-8.6-6c-2.2-2.3-3.2-3.9-3.5-4.8 c-0.1-0.3-0.2-0.6-0.3-0.8c0.2-0.3,0.3-0.5,0.5-0.8c1.4-2.1,3.4-3.6,5.6-4.4c0.2,0.1,0.7,0.3,1.6,1.3c1.6,2,3.6,5.7,6,11.2 c0.4,0.9,1.3,2.2,2.3,2.9c0.2,0.1,0.4,0.2,0.5,0.3C265.1,195.1,264.7,195.9,264.2,196.5z"></path> <path class="st0" d="M263.9,197.1c-0.5,0.7-1.1,1.3-1.6,1.8c-1.1-0.3-2.4-0.5-2.6-0.5l0,0c-5.5-0.1-8.5-1.5-9.9-2.7 c-0.6-0.4-1-0.9-1.3-1.3c-1.3-3.1-1.3-6.7,0.3-9.8c0,0.1,0.1,0.2,0.1,0.3c0.6,1.4,1.8,3.1,3.7,5c1.2,1.2,2.7,2.4,4.4,3.6 c1.4,0.9,2.8,1.8,4.3,2.5C262.1,196.4,263,196.8,263.9,197.1z"></path> </g> <g> <g> <rect x="217.4" y="174.6" class="st1" width="4.6" height="28"></rect> <polygon class="st0" points="223.7,202.8 215.5,202.8 217.4,201.3 222,201.3 "></polygon> <polygon class="st2" points="234.4,202.8 233,202.8 233,201.5 "></polygon> <polygon class="st2" points="233,174.8 233,202.8 223.7,202.8 222,201.3 222,174.8 "></polygon> </g> <g> <path class="st0" d="M218,195c0,1.7-1.4,3.1-3.1,3.1s-3.1-1.4-3.1-3.1s1.4-3.1,3.1-3.1S218,193.3,218,195z"></path> <path class="st0" d="M227.7,195c0,1.7-1.4,3.1-3.1,3.1s-3.1-1.4-3.1-3.1s1.4-3.1,3.1-3.1S227.7,193.3,227.7,195z"></path> <rect x="216.6" y="193.8" class="st0" width="6.3" height="3.1"></rect> <polygon class="st0" points="211.9,195 211.9,202.8 214.1,202.8 217.4,196.8 "></polygon> <polygon class="st0" points="227.7,195 227.7,202.8 225.4,202.8 222.2,196.8 "></polygon> <path class="st2" d="M211.9,202h1.1c0.6,0,1.1-0.3,1.4-0.8l2.7-5.4h5.1v1.1h-4.8l-2.7,5c-0.3,0.6-0.9,0.9-1.6,0.9h-1.2V202z"></path> <path class="st2" d="M227.7,202h-1.1c-0.6,0-1.1-0.3-1.4-0.8l-2.7-5.4h-5.1v1.1h4.8l2.7,5c0.3,0.6,0.9,0.9,1.6,0.9h1.2V202z"></path> <rect x="224.3" y="193.2" class="st3" width="1" height="2.7"></rect> <rect x="224.3" y="193.2" transform="matrix(6.123234e-17 -1 1 6.123234e-17 30.3231 419.3555)" class="st3" width="1" height="2.7"></rect> <circle class="st3" cx="213.6" cy="193.9" r="0.5"></circle> <circle class="st3" cx="215.6" cy="193.9" r="0.5"></circle> <circle class="st3" cx="213.6" cy="195.6" r="0.5"></circle> <circle class="st3" cx="215.6" cy="195.6" r="0.5"></circle> </g> </g> <path class="st4" d="M210.9,165.4c0,0-3.9-2.1-4.5-2.1c-0.6,0-2.9,2-2.9,2L210.9,165.4z"></path> <ellipse id="_x3C_Path_x3E__00000096780994204220100230000013952173612633628332_" class="st1" cx="189.5" cy="216.3" rx="79.9" ry="4.7"></ellipse> <g> <g> <path class="st5" d="M109,204.9c-1,0.3-1.4,1.4-0.9,2.3c1.8,3.1,6.6,7.6,12.5,9c12.2,3,26.3,1.5,39.4-3.6c1.1-0.4,1.4-1.8,0.6-2.6 C155.3,204.6,141.3,194.7,109,204.9z"></path> <path class="st6" d="M109,204.9c-1,0.3-1.4,1.4-0.9,2.3c1.8,3.1,6.6,7.6,12.5,9c12.2,3,26.3,1.5,39.4-3.6c1.1-0.4,1.4-1.8,0.6-2.6 C155.3,204.6,141.3,194.7,109,204.9z"></path> <g> <path class="st7" d="M132.1,167.9c0.1,1.3,0.2,2.6,0.3,3.8c0.1,1.3,0.3,2.5,0.5,3.8c0.4,2.6,1,5.1,1.9,7.6l0.4,1l0.1,0.2l0,0.1 l0,0.1l0.1,0.3c0.1,0.3,0.3,0.6,0.5,0.8c1.3,1.5,6.5,3.6,9.5,3.5c0.8,0,1.4-0.7,1.4-1.4l0,0c0-0.7-0.5-1.3-1.2-1.4 c0,0-4.6-2.6-5.5-3.1c-0.3-0.1-0.5-0.3-0.6-0.5c0-0.1,0.1,0.2,0-0.2l-0.2-0.8c-0.6-2.3-1-4.5-1.3-6.9c-0.2-1.2-0.3-2.4-0.4-3.6 c0,0,0,0,0,0c-0.2-2-1.9-3.4-3.9-3.3L132.1,167.9z"></path> <path class="st7" d="M143,185.5l0.4,4.2c0,0,0,0,0,0c0.3,0,3,0.2,3.3-1.3l-0.5-1.8l-2.8-1.2l-0.1,0L143,185.5z"></path> <g> <g> <g id="_x3C_Group_x3E__2_"> <path class="st5" d="M129,168.4c-0.3,3.2,2.9,10.4,2.9,10.4l7.9-1.8c-1.5-2.7-2.4-6.7-4.2-9.2 C134,165.5,129.3,164.9,129,168.4z"></path> <path class="st8" d="M129,168.4c-0.3,3.2,2.9,10.4,2.9,10.4l7.9-1.8c-1.5-2.7-2.4-6.7-4.2-9.2 C134,165.5,129.3,164.9,129,168.4z"></path> <path class="st5" d="M117.4,167.2c-1,0.2-1.7,1.3-1.4,2.3c0,0,0,0,0,0.1c0.8,3,1.3,6.1,1.7,9.2c0.3,2.6,0.6,5.1,0.7,7.4 c0.3,5.3,0.3,9.3,0.4,10.7l17.8-0.3c1.7-14.4-0.4-24.6-1.6-28.3c-0.4-1.2-1.4-2-2.7-2.2c-0.7-0.1-1.5-0.2-2.4-0.2 c-0.3,0-0.6,0-0.9,0c-2.6,0-5.1,0.2-7.7,0.6c-0.5,0.1-1,0.1-1.4,0.2C119,166.9,118.1,167.1,117.4,167.2z"></path> <path class="st6" d="M117.4,167.2c-1,0.2-1.7,1.3-1.4,2.3c0,0,0,0,0,0.1c0.8,3,1.3,6.1,1.7,9.2c0.3,2.6,0.6,5.1,0.7,7.4 c0.3,5.3,0.3,9.3,0.4,10.7l17.8-0.3c1.7-14.4-0.4-24.6-1.6-28.3c-0.4-1.2-1.4-2-2.7-2.2c-0.7-0.1-1.5-0.2-2.4-0.2 c-0.3,0-0.6,0-0.9,0c-2.6,0-5.1,0.2-7.7,0.6c-0.5,0.1-1,0.1-1.4,0.2C119,166.9,118.1,167.1,117.4,167.2z"></path> <path class="st7" d="M121.4,157.8c0.7,2.4,1.5,6.9-0.1,8.7c4.2,2.8,6.9,6.7,7.7,5.8c0.4-0.5,0.5-5.7,0-6.4 c-2.8-0.4-2.9-2.5-2.6-4.4L121.4,157.8z"></path> <path class="st9" d="M123.5,159.3l3,2.1c-0.1,0.5-0.1,0.9-0.1,1.4c-1.1-0.1-2.6-1.1-2.8-2.2 C123.4,160.2,123.4,159.7,123.5,159.3z"></path> <path class="st10" d="M130,150.7c1.6,0.1,2.6,2.9,0.9,5.3C129.3,158.3,127.8,150.6,130,150.7z"></path> <path class="st7" d="M121.9,153.3c-0.2,3.3-0.4,5.3,1.1,7.2c2.2,2.8,6.5,1.8,7.7-1.5c1-2.9,1.1-7.9-2-9.6 c-2.2-1.2-5-0.4-6.2,1.8C122.1,151.9,122,152.6,121.9,153.3z"></path> <path class="st10" d="M125.1,153.5c-0.2,0.7-0.7,1.3-1.4,1.4c-0.3,0.7-0.3,1.6,0,2.3c-0.4,0.1-0.8,0.2-1.2,0.3 c0-1-1-1.8-2-1.8c0.5,1.3,1,2.6,1.6,3.8c-1.4-1-2.6-2.3-3.4-3.8c-0.4-0.7-0.7-1.5-0.7-2.4c0-0.8,0.2-1.7,0.8-2.3 c0.8-0.8,2-1,3-0.8C123.7,150.5,125.7,151.2,125.1,153.5z"></path> <path class="st7" d="M119.9,156.1c0.1,0.8,0.6,1.6,1.3,2c0.9,0.6,1.7-0.1,1.8-1.2c0-1-0.4-2.4-1.5-2.6 C120.5,154.1,119.8,155,119.9,156.1z"></path> <path class="st10" d="M126.9,154.7c0,0.3,0.1,0.5,0.3,0.5c0.2,0,0.3-0.2,0.4-0.5c0-0.3-0.1-0.5-0.3-0.5 C127.1,154.3,126.9,154.5,126.9,154.7z"></path> <path class="st10" d="M129.9,155.1c0,0.3,0.1,0.5,0.3,0.5c0.2,0,0.3-0.2,0.4-0.5c0-0.3-0.1-0.5-0.3-0.5 C130.1,154.6,130,154.8,129.9,155.1z"></path> <path class="st11" d="M128.9,155.1c0.2,0.9,0.6,1.7,1,2.5c-0.4,0.2-0.9,0.3-1.3,0.1L128.9,155.1z"></path> <path class="st10" d="M126,153.7c0.1,0,0.1,0,0.2,0c0.3-0.3,0.7-0.5,1.1-0.4c0.1,0,0.2,0,0.2-0.1c0,0,0,0,0,0 c0-0.1,0-0.2-0.1-0.2c0,0,0,0,0,0c-0.5-0.1-1,0.1-1.4,0.5C125.9,153.4,125.9,153.5,126,153.7C126,153.6,126,153.6,126,153.7 C126,153.6,126,153.6,126,153.7z"></path> <path class="st10" d="M127.3,158.8L127.3,158.8c-0.8-0.2-1.4-0.7-1.8-1.4c0,0,0-0.1,0-0.1c0,0,0.1,0,0.1,0.1 c0.3,0.7,0.9,1.2,1.6,1.3C127.3,158.6,127.4,158.7,127.3,158.8C127.3,158.7,127.3,158.8,127.3,158.8z"></path> <path class="st10" d="M131.4,154.2C131.4,154.2,131.4,154.2,131.4,154.2c0.2,0,0.2-0.1,0.2-0.2c-0.2-0.5-0.6-0.9-1-1 c-0.1,0-0.2,0-0.2,0.1c0,0,0,0,0,0c0,0.1,0,0.2,0.1,0.2c0,0,0,0,0,0l0,0c0.4,0.1,0.7,0.4,0.8,0.8 C131.3,154.1,131.3,154.2,131.4,154.2z"></path> <g> <g> <path class="st12" d="M118.4,168.9c1.5-0.4,2.1,0.1,3.4,2c1.1,1.8,2.2,7.1,2.2,7.1c0.5,2.9,0.8,2.6-1.9,3.1 c-1.8,0.3-4,0.9-4,0.9S114,170,118.4,168.9z"></path> </g> <path class="st7" d="M114.6,172.1c0.1,1.3,0.3,2.5,0.4,3.8c0.2,1.3,0.4,2.5,0.7,3.8c0.5,2.6,1.2,5.1,2.2,7.5l0.4,0.9l0.1,0.2 l0,0.1l0,0.1c0,0,0.3,3.2,7.2,3c2.6,0.2,5.2,0,7.7-0.4l-0.1-2.5l-1.8-0.2c-0.6-0.1-1.2-0.2-1.8-0.2c-1.2-0.2-2.4-0.3-3.5-0.6 c-1-0.2-3.5-0.8-3.7-1c0-0.1,0.1,0.2,0-0.2l-0.3-0.8c-0.7-2.2-1.2-4.5-1.6-6.8c-0.2-1.2-0.4-2.4-0.6-3.5 c-0.2-1.2-0.3-2.4-0.4-3.5L114.6,172.1z"></path> <g> <g> <g> <path class="st5" d="M140.3,192.5l-3.7,0.3c-0.8,0.1-1.5-0.5-1.5-1.4l0-10.2c0-0.4,0.3-0.7,0.6-0.7l4.5-0.4 c0.8-0.1,1.5,0.5,1.5,1.4l0,9.3C141.8,191.7,141.1,192.4,140.3,192.5z"></path> <path class="st13" d="M140.3,192.5l-3.7,0.3c-0.8,0.1-1.5-0.5-1.5-1.4l0-10.2c0-0.4,0.3-0.7,0.6-0.7l4.5-0.4 c0.8-0.1,1.5,0.5,1.5,1.4l0,9.3C141.8,191.7,141.1,192.4,140.3,192.5z"></path> </g> <g> <g> <g> <path class="st5" d="M140.5,192.7l-3.7,0.3c-0.8,0.1-1.5-0.5-1.5-1.4l0-10.2c0-0.4,0.3-0.7,0.6-0.7l4.5-0.4 c0.8-0.1,1.5,0.5,1.5,1.4l0,9.3C142,191.8,141.4,192.6,140.5,192.7z"></path> <path class="st14" d="M140.5,192.7l-3.6,0.3c-0.8,0.1-1.5-0.6-1.5-1.4l0-10.1c0-0.4,0.3-0.7,0.7-0.7l4.4-0.4 c0.8-0.1,1.5,0.6,1.5,1.4l0,9.3C142,191.8,141.3,192.6,140.5,192.7z"></path> <polygon class="st7" points="143.1,185.4 142.9,185.4 140.5,186.1 140.9,189.7 143.5,189.6 143.2,185.4 "></polygon> </g> <path class="st15" d="M137.7,183.6l-1.6,0.1c-0.4,0-0.7-0.3-0.7-0.6l0-1.7c0-0.4,0.3-0.7,0.6-0.7l1.7-0.1 c0.4,0,0.7,0.3,0.7,0.6l0,1.6C138.4,183.2,138.1,183.6,137.7,183.6z"></path> <path class="st10" d="M137.5,183.5l-1.5,0.1c-0.4,0-0.7-0.3-0.7-0.6l0-1.5c0-0.4,0.3-0.7,0.7-0.8l1.5-0.1 c0.4,0,0.7,0.3,0.7,0.6l0,1.5C138.2,183.1,137.9,183.5,137.5,183.5z"></path> </g> <path class="st16" d="M137.5,183.5l-1.5,0.1c-0.4,0-0.7-0.3-0.7-0.6l0-1.5c0-0.4,0.3-0.7,0.7-0.8l1.5-0.1 c0.4,0,0.7,0.3,0.7,0.6l0,1.5C138.2,183.1,137.9,183.5,137.5,183.5z"></path> </g> </g> <path class="st3" d="M139.4,186.7c0,0.4-0.3,0.8-0.7,0.8c-0.4,0-0.7-0.3-0.7-0.7c0-0.4,0.3-0.8,0.7-0.8 C139.1,186,139.4,186.3,139.4,186.7z"></path> </g> <path class="st7" d="M132.1,188.5l3.1-1.6l0.2,4.3c0,0-2.9,0.8-3.5-0.7L132.1,188.5z"></path> <polygon class="st7" points="138,187.5 137.9,191 135.4,191.3 135.2,187 "></polygon> </g> <g> <path class="st5" d="M114.2,169.7c-1.6,2.8-0.1,11.5-0.1,11.5l8.6-1.7c0,0,0.4-5-1.3-8.8 C119.6,166.5,116.2,166.3,114.2,169.7z"></path> </g> </g> <g> <polygon class="st7" points="144.8,206.6 140,209.8 137.6,211.3 139,214 141.3,212.8 147.1,210.1 "></polygon> <g> <g> <path class="st5" d="M141.2,216.7c0-0.3-0.5-0.8-1-1.2c-0.1-0.1-0.2-0.2-0.3-0.3l0,0c0,0,0,0-0.1,0 c-0.1-0.1-0.2-0.1-0.2-0.2c0,0-0.1,0-0.1,0c0,0-0.1,0,0,0.1c0.1,0.3,0.2,0.6,0.3,0.9c0,0.1,0.1,0.1,0.1,0.2 c0.1,0.2,0.2,0.4,0.4,0.6c0.1,0.1,0.1,0.1,0.2,0.2c0.2,0.1,0.4,0.1,0.5,0C141.1,216.9,141.2,216.8,141.2,216.7z M140.9,216.8c-0.1,0-0.2,0-0.4,0c-0.2-0.1-0.3-0.2-0.4-0.5c-0.1-0.2-0.2-0.4-0.3-0.7c0-0.1-0.1-0.2-0.1-0.3 c0,0,0.1,0.1,0.1,0.1c0,0,0.1,0,0.1,0.1c0.4,0.3,0.8,0.7,1,1C141,216.6,141,216.7,140.9,216.8 C141,216.7,141,216.8,140.9,216.8z"></path> <path class="st5" d="M142,215.2c-0.1-0.1-0.3-0.2-0.5-0.3c-0.7-0.1-1.5,0.3-1.6,0.4c0,0,0,0,0,0c0,0,0,0,0,0c0,0,0,0,0,0.1 c0,0,0,0,0,0c0,0,0,0,0,0c0,0,0,0,0,0c0.1,0,0.2,0.1,0.3,0.1c0.6,0.2,1.6,0.3,1.8,0C142.1,215.5,142.2,215.4,142,215.2z M140.2,215.3c0.3-0.1,0.9-0.4,1.3-0.3c0.1,0,0.2,0.1,0.3,0.2l0,0c0.1,0.1,0.1,0.2,0,0.2 C141.7,215.6,140.7,215.5,140.2,215.3z"></path> </g> <path class="st10" d="M139.9,213.9l-1.9-3.3c-0.1-0.1-0.2-0.2-0.4-0.2l-3.6,0.6c-0.4,0.1-0.5,0.4-0.4,0.7c0,0,0,0,0,0.1 c2.3,5.6,3.9,7.4,4.2,8c1.1,1.7,2.5,0.9,2.3,0.3c-0.8-2.8-0.5-3.6-0.2-4.8C140,214.7,140,214.1,139.9,213.9z"></path> </g> <polygon class="st9" points="144.8,206.6 140,209.8 141.3,212.8 147.1,210.1 "></polygon> <polygon class="st7" points="152.3,214.2 158,215.4 160.8,216 161.7,213.2 159.3,212.3 153.2,210.1 "></polygon> <polygon class="st9" points="152.3,214.2 158,215.4 159.3,212.3 153.2,210.1 "></polygon> <path class="st5" d="M117.4,202.2c0.1-0.3,0.2-0.6,0.4-0.8c1.6-2.3,8.2-2.9,12.2-2.9c1.8,0,4.3,0.7,7,1.7 c0.4-0.7,0.8-1.2,1.3-1.6c3.1-2.3,7.6-3.4,12.1-3.8c-6.5,0.4-13.8,1.8-13.8,1.8l-17.7,0.3C118,198.7,117.5,200.5,117.4,202.2z "></path> <path class="st17" d="M114.2,169.7c-1.6,2.8-0.1,11.5-0.1,11.5l8.6-1.7c0,0,0.4-5-1.3-8.8 C119.6,166.5,116.2,166.3,114.2,169.7z"></path> <path class="st13" d="M117.4,202.2c0.1-0.3,0.2-0.6,0.4-0.8c1.6-2.3,8.2-2.9,12.2-2.9c1.8,0,4.3,0.7,7,1.7 c0.4-0.7,0.8-1.2,1.3-1.6c3.1-2.3,7.6-3.4,12.1-3.8c-6.5,0.4-13.8,1.8-13.8,1.8l-17.7,0.3C118,198.7,117.5,200.5,117.4,202.2z "></path> <path class="st5" d="M136.8,207.7c1.1,1.4,3,2.1,4.9,2.1c1.8,0,3.6-0.5,5.4-1c1.5-0.4,3.1-0.9,4.6-1.3c2.5-0.7,5-1.4,7.5-2.1 c1.4-0.4,2.8-0.8,4-1.6c3.9-2.7,4.4-5.3,2.1-7c-0.6-0.5-1.5-0.8-2.5-1.1c0,0-0.1,0-0.1,0c-2.1-0.5-4.8-0.9-7.7-1 c0,0-0.1,0-0.1,0c-1.4,0-2.9,0-4.4,0.1c-4.5,0.4-9,1.5-12.1,3.8c-0.5,0.4-0.9,0.9-1.3,1.6C135.8,202.5,135.5,206,136.8,207.7z "></path> <path class="st13" d="M136.8,207.7c1.1,1.4,3,2.1,4.9,2.1c1.8,0,3.6-0.5,5.4-1c1.5-0.4,3.1-0.9,4.6-1.3c2.5-0.7,5-1.4,7.5-2.1 c1.4-0.4,2.8-0.8,4-1.6c3.9-2.7,4.4-5.3,2.1-7c-0.6-0.5-1.5-0.8-2.5-1.1c0,0-0.1,0-0.1,0c-2.1-0.5-4.8-0.9-7.7-1 c0,0-0.1,0-0.1,0c-1.4,0-2.9,0-4.4,0.1c-4.5,0.4-9,1.5-12.1,3.8c-0.5,0.4-0.9,0.9-1.3,1.6C135.8,202.5,135.5,206,136.8,207.7z "></path> <g> <path class="st5" d="M164,196.2c0,0,4.6,1.8,4.1,6.2c0,0-0.4,2.9-8.6,5.3c-8.1,2.5-16.4,4.1-16.4,4.1l-1.4-3.3 c0,0,7.8-9.2,15.9-12C161.1,195.3,164,196.2,164,196.2z"></path> <path class="st12" d="M164,196.2c0,0,4.6,1.8,4.1,6.2c0,0-0.4,2.9-8.6,5.3c-8.1,2.5-16.4,4.1-16.4,4.1l-1.4-3.3 c0,0,7.8-9.2,15.9-12C161.1,195.3,164,196.2,164,196.2z"></path> <g> <g> <polygon class="st5" points="142.8,213.2 145.4,212.9 142.4,206.5 140.4,208 "></polygon> </g> <g class="st18"> <polygon class="st3" points="142.8,213.2 145.4,212.9 142.4,206.5 140.4,208 "></polygon> </g> </g> </g> <g> <path class="st5" d="M137,210.8c0,0.2-7.8,3.2-10.8,2.4C116.6,210.9,138.3,201.2,137,210.8z"></path> <path class="st13" d="M137,210.8c0,0.2-7.8,3.2-10.8,2.4C116.6,210.9,138.3,201.2,137,210.8z"></path> </g> <path class="st5" d="M118.2,207.6c0.3,0.6,0.6,1.3,1,1.8c0,0,0,0,0,0c0.1,0.1,0.1,0.2,0.2,0.3c0.2,0.2,0.4,0.5,0.5,0.7 c0,0,0,0,0,0c0.1,0.1,0.2,0.2,0.3,0.3c2.7,2.8,9,3.4,10.3,1.3c0.8-1.3,1.1-3.1,1.1-3.1s7,2.9,16.2,5c2.8,0.6,5.9,1.2,8.9,1.6 l1.4-3.9c0,0-0.3-0.2-0.8-0.5c-1.1-0.7-3.2-2-5.8-3.5c-4.2-2.4-9.8-5.4-14.6-7.3c-2.7-1-5.2-1.7-7-1.7 c-4.1,0-10.7,0.6-12.2,2.9c-0.2,0.2-0.3,0.5-0.4,0.8C117,203.6,117.4,205.7,118.2,207.6z"></path> <g> <g> <polygon class="st5" points="158.4,210.8 156.2,209.2 154.1,215.9 156.6,216.2 "></polygon> </g> <g class="st18"> <polygon class="st3" points="158.4,210.8 156.2,209.2 154.1,215.9 156.6,216.2 "></polygon> </g> </g> </g> <g> <g> <path class="st5" d="M163.2,209.8c-0.3,0.2-0.3,0.9-0.4,1.5c0,0.2,0,0.3,0,0.4l0,0c0,0,0,0,0,0.1c0,0.1,0,0.2,0,0.3 c0,0,0,0.1,0,0.1c0,0,0.1,0,0.1,0c0.2-0.2,0.4-0.5,0.5-0.8c0-0.1,0.1-0.1,0.1-0.2c0.1-0.2,0.2-0.4,0.2-0.7c0-0.1,0-0.2,0-0.3 c0-0.2-0.2-0.3-0.3-0.4C163.3,209.8,163.2,209.8,163.2,209.8z M163.4,210c0.1,0.1,0.2,0.2,0.2,0.3c0,0.2,0,0.4-0.1,0.6 c-0.1,0.2-0.2,0.4-0.3,0.7c-0.1,0.1-0.1,0.2-0.2,0.3c0-0.1,0-0.1,0-0.2c0,0,0-0.1,0-0.1c0-0.5,0.1-1,0.2-1.5 c0-0.1,0.1-0.1,0.1-0.1C163.3,210,163.3,210,163.4,210z"></path> <path class="st5" d="M161.4,210.2c0,0.2,0,0.4,0.1,0.6c0.3,0.6,1.1,1,1.3,1.1c0,0,0,0,0,0c0,0,0,0,0,0c0,0,0.1,0,0.1,0 c0,0,0,0,0,0c0,0,0,0,0,0c0,0,0,0,0,0c0-0.1-0.1-0.2-0.1-0.3c-0.2-0.6-0.7-1.4-1.1-1.5C161.6,209.9,161.5,209.9,161.4,210.2z M162.7,211.5c-0.3-0.1-0.8-0.5-1-0.9c-0.1-0.1-0.1-0.2-0.1-0.4l0-0.1c0-0.2,0.1-0.2,0.1-0.2 C162,210.1,162.5,211,162.7,211.5z"></path> </g> <path class="st10" d="M161.6,212.9l-1.2,2.9c-0.1,0.1,0,0.3,0.1,0.4l3.1,1.9c0.3,0.2,0.6,0.2,0.8-0.1c0,0,0,0,0-0.1 c3.1-5.2,3.7-7.5,3.9-8.1c0.7-1.9-0.8-2.5-1.1-2c-1.7,2.3-3.1,3.6-4.2,4C161.5,212.5,161.7,212.7,161.6,212.9z"></path> </g> </g> <path class="st10" d="M131.3,152.1c0.3,0,0.6-0.2,0.7-0.5c0.1-0.3-0.1-0.8-0.6-0.9c0.4-0.1,1.2-0.5,1-1c-0.1-0.5-0.5-0.9-1-0.9 c0.3-0.4,0.2-1-0.2-1.3c-0.4-0.3-1-0.3-1.3,0c0.1-0.6-0.3-1.2-0.8-1.4c-0.5-0.2-1.3,0-1.6,0.4c0.2-0.8-0.5-1.7-1.3-1.8 c-0.8-0.1-1.5,0.7-1.5,1.5c-0.1-0.9-0.9-1.6-1.8-1.5c-0.9,0-1.6,0.9-1.6,1.7c-0.5-0.3-1.2-0.2-1.6,0.3c-0.4,0.4-0.5,1.2-0.2,1.7 c-0.4,0-0.7,0.1-0.9,0.4s-0.2,0.8,0,1.1c-0.4,0.3-0.6,0.8-0.6,1.2c0.1,0.5,0.5,0.9,1,1c1.7,0.4,3.5-0.1,5-1 c0.3-0.2,0.4,0.1,0.5,0.3c0,0.1,0.1,0.1,0.1,0.2c0.2,0.2,0.7,0.3,1,0.2c0.3-0.1,0.3-0.5,0.3-0.6c0.1,0.2,0.1,0.3,0.2,0.5 c0.2,0.2,0.5,0.2,0.7,0.2c0.3,0,0.5-0.5,0.3-0.7c0.2,0.3,0.2,0.5,0.4,0.6c0.3,0.2,0.6,0.2,0.9,0c0.3-0.2,0.1-0.8,0.1-0.8 s0.2,0.8,0.9,0.7c0.7-0.1,0.5-0.8,0.5-0.8s0.2,0.4,0.5,0.6C130.8,152.1,131,152.1,131.3,152.1z"></path> </g> </g> </g> </g> <g> <g> <path class="st5" d="M140.9,146.4l-3,0.4l0.2-3.1c-0.3-0.6-0.4-1.2-0.5-1.8c-0.2-2.7,1.9-4.9,4.6-4.9s5.1,2.2,5.3,4.9 c0.2,2.7-1.9,4.9-4.6,4.9C142.3,146.9,141.6,146.7,140.9,146.4z"></path> </g> <g> <g> <path class="st5" d="M123.5,124.4c-1.2-1.2-3.1-1.2-4.3-0.1c-1.3-1.1-3.2-1.1-4.3,0.1c-1.2,1.2-1.2,3.1,0,4.3l0,0l0.1,0.1l0,0 l4.4,4.3l4.3-4.3l0.1-0.1l0,0C124.7,127.5,124.7,125.6,123.5,124.4z"></path> </g> <g> <path class="st5" d="M128.1,136.3c-0.7-0.7-1.7-0.7-2.4-0.1c-0.7-0.6-1.8-0.6-2.4,0.1c-0.7,0.7-0.7,1.7,0,2.4l0,0l0.1,0.1l0,0 l2.5,2.4l2.4-2.4l0.1-0.1l0,0C128.8,138.1,128.8,137,128.1,136.3z"></path> </g> </g> <g> <g> <g> <path class="st5" d="M109.1,140.7h-2.7l0.2-0.4c0.4-1.1,0.5-2.2,0.3-3.3l0,0c-0.1-0.6-0.6-1-1.2-1h-0.9c-0.2,0-0.4,0.2-0.4,0.4 l0,0c0,1.2-0.3,2.3-1,3.2l-0.9,1.3c-0.2,0.3-0.3,0.6-0.3,0.9l0.1,5c0,0.7,0.6,1.2,1.2,1.2h4.7c0.4,0,0.8-0.2,1.1-0.5l0.4-0.5 c0.2-0.2,0.3-0.4,0.3-0.7l0.6-4c0.1-0.4,0-0.8-0.3-1.1l0,0C110,140.9,109.6,140.7,109.1,140.7z"></path> </g> </g> <g> <path class="st5" d="M100.7,140.7h-1.2c-0.5,0-1,0.4-1,1l0.1,5.3c0,0.5,0.5,1,1,1h1.2c0.5,0,1-0.4,1-1l-0.1-5.3 C101.7,141.1,101.3,140.7,100.7,140.7z"></path> </g> </g> </g> <polygon class="st0" points="101.5,115.8 117.4,115.7 133.4,115.7 133.2,115.8 134.4,111.2 134.6,110.5 134.7,111.2 137,120.9 136.7,120.9 138.9,105.2 139.1,104 139.3,105.2 141.5,116.5 141.2,116.5 142.9,111.1 143.1,110.5 143.3,111.1 145.6,118.7 145.3,118.7 146.1,115.8 146.1,115.7 146.3,115.7 167.2,115.7 188.2,115.8 167.2,116 146.3,116 146.4,115.9 145.6,118.8 145.4,119.3 145.3,118.8 142.9,111.2 143.3,111.2 141.5,116.6 141.3,117.3 141.2,116.6 138.9,105.2 139.3,105.2 137,121 136.9,121.9 136.7,121 134.4,111.2 134.7,111.2 133.5,115.8 133.5,116 133.4,116 117.4,115.9 "></polygon> <g> <g> <g> <g> <g> <g> <path class="st5" d="M154.6,181.9c0,2.9,1.7,5.3,4.6,5.3H198c2.9,0,5.3-2.4,5.3-5.3H154.6z"></path> </g> <g> <path class="st3" d="M194.3,185.9h-0.8c-0.6,0-1-0.4-0.9-1l0.1-0.8c0-0.6,0.5-1,1.1-1h0.8c0.6,0,1,0.4,0.9,1l-0.1,0.8 C195.3,185.5,194.8,185.9,194.3,185.9z"></path> </g> <g> <g> <path class="st3" d="M178.8,183h-1.1c-0.5,0-1,0.4-1.1,1l-0.1,1.1c0,0.5,0.4,1,0.9,1h1.1c0.5,0,1-0.4,1-1l0.1-1.1 C179.8,183.5,179.4,183,178.8,183z M179.4,185.1c0,0.4-0.4,0.8-0.9,0.8h-1.1c-0.4,0-0.7-0.4-0.7-0.8l0.1-1.1 c0-0.4,0.4-0.8,0.8-0.8h1.1c0.4,0,0.8,0.4,0.7,0.8L179.4,185.1z"></path> </g> <g> <polygon class="st3" points="178.2,185.3 178,185.3 178.1,183.8 178.3,183.8 "></polygon> </g> <g> <polygon class="st3" points="178.9,184.6 177.4,184.6 177.4,184.4 178.9,184.4 "></polygon> </g> </g> <g> <g> <g> <path class="st3" d="M187.6,184.2c-0.1-0.6-0.4-0.7-0.8-0.7c0,0-0.1,0-0.1,0h-1c0,0-0.1,0-0.1,0c-0.4,0-0.7,0.1-0.9,0.7 l-0.1,0.4c-0.1,0.3,0,0.6,0.2,0.9c0.3,0.3,0.7,0.5,1.2,0.5c0.5,0,0.9-0.2,1.3-0.5c0.2-0.3,0.4-0.6,0.4-0.9L187.6,184.2z M187.1,185.4c-0.3,0.3-0.7,0.4-1.1,0.4c-0.4,0-0.8-0.2-1-0.4c-0.2-0.2-0.2-0.5-0.2-0.7l0.1-0.4c0.2-0.5,0.4-0.5,0.8-0.5h1 c0.4,0,0.7,0,0.7,0.5l0,0.4C187.4,184.9,187.3,185.2,187.1,185.4z"></path> </g> </g> <g> <path class="st3" d="M186.1,184.8c-0.3,0-0.6-0.3-0.5-0.6h0.2c0,0.2,0.1,0.4,0.4,0.4c0.2,0,0.4-0.2,0.5-0.4h0.2 C186.7,184.5,186.4,184.8,186.1,184.8z"></path> </g> <g> <path class="st3" d="M186.8,183.6h-0.2c0-0.2-0.1-0.4-0.4-0.4c-0.2,0-0.4,0.2-0.5,0.4h-0.2c0-0.3,0.3-0.6,0.7-0.6 C186.6,183,186.8,183.3,186.8,183.6z"></path> </g> </g> <g> <g> <g> <g> <path class="st3" d="M171.1,183.3c-0.2-0.2-0.4-0.3-0.6-0.3c0,0-0.1,0-0.2,0c-0.3,0-0.6,0.1-0.8,0.3 c-0.2,0.2-0.4,0.5-0.4,0.8c0,0.3,0.1,0.6,0.3,0.8c0.1,0.1,0.2,0.2,0.4,0.3c0.1,0,0.2,0.1,0.4,0.1c0.3,0,0.5-0.1,0.8-0.3 c0,0,0,0,0.1-0.1c0,0,0,0,0.1-0.1c0.2-0.2,0.3-0.5,0.3-0.7C171.4,183.8,171.3,183.5,171.1,183.3z M170.8,184.8 c-0.2,0.2-0.4,0.3-0.7,0.3c-0.1,0-0.2,0-0.3-0.1c-0.1,0-0.2-0.1-0.3-0.2c-0.2-0.2-0.2-0.4-0.2-0.7c0-0.3,0.1-0.5,0.3-0.7 c0.2-0.2,0.4-0.3,0.7-0.3c0,0,0.1,0,0.1,0c0.2,0,0.4,0.1,0.5,0.3c0.2,0.2,0.2,0.4,0.2,0.7 C171.1,184.4,171,184.6,170.8,184.8z"></path> </g> </g> </g> <g> <rect x="171.3" y="184.6" transform="matrix(0.72 -0.694 0.694 0.72 -80.666 170.8663)" class="st3" width="0.2" height="1.5"></rect> </g> </g> <g> <path class="st3" d="M162.3,183l-0.8,0.7l-0.9,0.8l-0.1,1.6h3l0.1-1.6L162.3,183z M163.3,185.9h-2.7l0.1-1.3l0.6-0.5l0.9-0.8 l1.2,1.3L163.3,185.9z"></path> </g> </g> <g> <g> <g> <path class="st10" d="M195.3,86.4h-0.8l0,0.1h0.7c0.9,0,1.7-0.3,2.4-0.8C196.9,86.1,196.1,86.4,195.3,86.4z M205.3,78H167 c-4.8,0-9,3.9-9.4,8.8l-6,85.5l-0.7,9.8c-0.1,1.5,0.2,3,0.8,4.2c1.3,2.7,4.1,4.6,7.4,4.6h38.3c4.8,0,9-3.9,9.4-8.8l6.7-95.3 C213.8,81.9,210.1,78,205.3,78z M209.8,86.8l-6.6,95v0c-0.2,2.8-2.6,5.1-5.4,5.3c-0.1,0-0.2,0-0.3,0h-38c-0.1,0-0.2,0-0.2,0 c0,0,0,0-0.1,0c-1.3-0.1-2.5-0.6-3.3-1.5c0,0,0,0,0,0c-0.9-1-1.4-2.3-1.3-3.7l0.4-5.4l1.2-17.6l5-72c0.2-2.9,2.7-5.3,5.7-5.3 h6.7c0.6,0,1.1,0.5,1.1,1.1c0,0,0,0.1,0,0.1c-0.1,2.1,1.4,3.8,3.5,3.8h17.1c0.9,0,1.7-0.3,2.4-0.8c0,0,0,0,0,0 c0.1-0.1,0.2-0.2,0.3-0.2c0.7-0.7,1.2-1.6,1.3-2.7c0-0.4,0.2-0.7,0.5-0.9c0.2-0.1,0.4-0.2,0.7-0.2h4.4 C207.8,81.6,210,83.9,209.8,86.8z"></path> </g> </g> </g> <g> <path class="st10" d="M200.6,81.5c-0.6,0-1.2,0.5-1.2,1.2v0c-0.1,2.1-2,3.8-4.1,3.8h-17.1c-2.1,0-3.7-1.7-3.5-3.8v0 c0-0.6-0.4-1.2-1.1-1.2H200.6z"></path> <g> <path class="st5" d="M192.3,83c0,0.4-0.4,0.7-0.8,0.7s-0.7-0.3-0.7-0.7c0-0.4,0.4-0.7,0.8-0.7C192,82.2,192.3,82.6,192.3,83z"></path> <path class="st5" d="M187.9,82.2c-0.3,0-4.5,0-4.8,0c-0.4,0-0.8,0.3-0.8,0.7c0,0.4,0.3,0.7,0.7,0.7c0.3,0,4.5,0,4.8,0 c0.4,0,0.8-0.3,0.8-0.7C188.6,82.6,188.3,82.2,187.9,82.2z"></path> </g> </g> </g> <path class="st10" d="M215.8,86.7l-6.7,95.3c-0.3,4.8-4.5,8.8-9.4,8.8h-2.4c4.8,0,9-3.9,9.4-8.8l6.7-95.3 c0.3-4.8-3.3-8.8-8.1-8.8h2.4C212.5,78,216.2,81.9,215.8,86.7z"></path> <path class="st19" d="M215.8,86.7l-6.7,95.3c-0.3,4.8-4.5,8.8-9.4,8.8h-2.4c4.8,0,9-3.9,9.4-8.8l6.7-95.3 c0.3-4.8-3.3-8.8-8.1-8.8h2.4C212.5,78,216.2,81.9,215.8,86.7z"></path> </g> </g> <path class="st16" d="M173.7,81.7H167c-2.9,0-5.4,2.4-5.7,5.3l-6.6,95c-0.2,2.9,2,5.3,4.9,5.3h38c2.9,0,5.4-2.4,5.7-5.3l6.6-95 c0.2-2.9-2-5.3-4.9-5.3h-4.4c-0.6,0-1.2,0.5-1.2,1.2v0c-0.1,2.1-2,3.8-4.1,3.8h-17.1c-2.1,0-3.7-1.7-3.5-3.8v0 C174.8,82.2,174.3,81.7,173.7,81.7"></path> <polygon class="st20" points="197.4,78 159.1,190.8 167.8,190.9 205.3,78 "></polygon> <path class="st20" d="M187.6,78l-1.2,3.5l-0.3,0.8l-0.5,1.5l-0.9,2.7l0,0.1l-29.8,90l-3.2,9.7c-0.6-1.2-0.9-2.7-0.8-4.2l0.7-9.8 l4.5-13.4l24.6-72.4l0-0.1l1.7-4.9l1.2-3.5H187.6z"></path> </g> <g> <g> <g> <g> <g> <g> <g> <g> <g> <g> <g> <g> <g> <g> <path class="st3" d="M205,79.3l-7.3,0c-1,0-1.8,0.9-1.9,1.9l-0.1,1.4c-0.1,1.1-0.9,1.9-1.9,1.9l-14.2,0 c-1,0-1.7-0.9-1.6-2l0.1-1.4c0.1-1.1-0.7-2-1.6-2l-2.6,0l-6.4,0c-3.2,0-5.9,2.7-6.2,6l-6.8,96.9c-0.2,3.3,2.1,6,5.3,6 l37.6,0c3.2,0,5.9-2.7,6.2-6l6.8-97C210.5,82,208.2,79.3,205,79.3z"></path> </g> <g> <g> <path class="st10" d="M205,79.3c0,0,0.1,0,0.2,0c0.1,0,0.3,0,0.6,0.1c0.5,0.1,1.3,0.3,2.2,0.8c0.8,0.5,1.7,1.5,2.2,3 c0.2,0.7,0.3,1.5,0.2,2.4c-0.1,0.9-0.1,1.8-0.2,2.8c-0.5,7.9-1.3,19.4-2.3,33.6c-1,14.2-2.2,31.1-3.5,49.8 c-0.2,2.3-0.3,4.7-0.5,7.1c-0.1,1.2-0.2,2.4-0.3,3.6c0,0.3-0.1,0.6-0.2,0.9c-0.1,0.3-0.2,0.6-0.3,0.9 c-0.2,0.6-0.6,1.1-1,1.6c-0.4,0.5-0.9,0.9-1.4,1.3c-0.5,0.4-1.1,0.6-1.7,0.8c-0.6,0.2-1.3,0.2-1.9,0.2 c-0.6,0-1.2,0-1.9,0c-2.5,0-5,0-7.6,0c-5.1,0-10.3,0-15.6,0c-2.6,0-5.3,0-8,0c-1.3,0-2.7,0-4,0c-0.7,0-1.4,0-2-0.3 c-0.6-0.2-1.2-0.5-1.7-1c-0.5-0.4-0.9-0.9-1.3-1.5c-0.3-0.6-0.5-1.2-0.7-1.9c-0.1-0.7-0.1-1.4,0-2 c0-0.7,0.1-1.3,0.1-2c0.2-2.7,0.4-5.3,0.6-8c0.4-5.3,0.7-10.5,1.1-15.6c0.7-10.2,1.4-20.1,2.1-29.4 c0.7-9.4,1.3-18.3,1.9-26.6c0.3-4.2,0.6-8.2,0.9-12.1c0.1-1,0.1-1.9,0.2-2.9c0.1-1,0.4-1.9,0.9-2.7 c1-1.7,2.7-2.9,4.5-3.2l0.3-0.1l0.3,0c0.2,0,0.4,0,0.7,0c0.4,0,0.9,0,1.3,0c0.9,0,1.7,0,2.6,0c0.8,0,1.7,0,2.5,0 c0.4,0,0.8,0,1.2,0c0.2,0,0.4,0,0.6,0c0.2,0,0.4,0,0.6,0c0.4,0.1,0.8,0.3,1,0.6c0.2,0.3,0.4,0.7,0.4,1.1 c0,0.4,0,0.8-0.1,1.2c0,0.4-0.1,0.8,0,1.1c0.1,0.7,0.7,1.3,1.4,1.3c0.7,0,1.4,0,2.1,0c2.8,0,5.4,0,7.9,0 c1.2,0,2.4,0,3.5,0c0.3,0,0.5,0,0.8,0c0.3,0,0.5,0,0.8-0.1c0.5-0.2,0.9-0.6,1-1.1c0.3-0.9,0.1-1.9,0.4-2.8 c0.2-0.4,0.5-0.8,0.9-1c0.2-0.1,0.4-0.2,0.6-0.2c0.2,0,0.4,0,0.6,0c1.5,0,2.8,0,3.9,0c1,0,1.8,0,2.4,0 C204.7,79.3,205,79.3,205,79.3s-0.3,0-0.8,0c-0.5,0-1.3,0-2.4,0c-1,0-2.3,0-3.9,0c-0.2,0-0.4,0-0.6,0 c-0.2,0-0.4,0.1-0.6,0.2c-0.4,0.2-0.7,0.6-0.8,1c-0.3,0.8-0.1,1.8-0.4,2.8c-0.2,0.5-0.6,0.9-1.1,1.1 c-0.3,0.1-0.5,0.2-0.8,0.2c-0.3,0-0.5,0-0.8,0c-1.1,0-2.3,0-3.5,0c-2.4,0-5,0-7.9,0c-0.7,0-1.4,0-2.2,0 c-0.8,0-1.4-0.7-1.5-1.4c-0.1-0.4,0-0.8,0-1.1c0-0.4,0.1-0.8,0.1-1.1c0-0.4-0.2-0.7-0.4-1c-0.2-0.3-0.6-0.5-0.9-0.5 c-0.2,0-0.4,0-0.6,0c-0.2,0-0.4,0-0.6,0c-0.4,0-0.8,0-1.2,0c-0.8,0-1.7,0-2.5,0c-0.8,0-1.7,0-2.6,0 c-0.4,0-0.9,0-1.3,0c-0.2,0-0.4,0-0.7,0l-0.3,0l-0.3,0.1c-1.8,0.3-3.4,1.5-4.4,3.1c-0.5,0.8-0.8,1.7-0.8,2.7 c-0.1,0.9-0.1,1.9-0.2,2.9c-0.3,3.9-0.6,7.9-0.8,12.1c-0.6,8.3-1.2,17.3-1.9,26.6c-0.7,9.4-1.3,19.2-2.1,29.4 c-0.4,5.1-0.7,10.3-1.1,15.6c-0.2,2.6-0.4,5.3-0.6,8c0,0.7-0.1,1.3-0.1,2c-0.1,0.7-0.1,1.3,0,2 c0.1,0.6,0.3,1.3,0.6,1.8c0.3,0.6,0.7,1.1,1.2,1.5c0.5,0.4,1.1,0.7,1.7,0.9c0.6,0.2,1.3,0.3,1.9,0.2c1.3,0,2.7,0,4,0 c2.7,0,5.3,0,8,0c5.3,0,10.5,0,15.6,0c2.6,0,5.1,0,7.6,0c0.6,0,1.3,0,1.9,0c0.6,0,1.2,0,1.8-0.2 c0.6-0.2,1.2-0.5,1.7-0.8c0.5-0.4,1-0.8,1.4-1.3c0.4-0.5,0.7-1,1-1.6c0.1-0.3,0.2-0.6,0.3-0.9 c0.1-0.3,0.1-0.6,0.2-0.9c0.1-1.2,0.2-2.4,0.3-3.6c0.2-2.4,0.3-4.8,0.5-7.1c1.3-18.8,2.5-35.7,3.5-49.8 c1-14.2,1.8-25.7,2.4-33.6c0.1-1,0.1-1.9,0.2-2.8c0.1-0.9,0-1.7-0.2-2.4c-0.4-1.4-1.3-2.4-2.1-3 c-0.8-0.6-1.6-0.8-2.1-0.8c-0.3-0.1-0.5,0-0.6-0.1C205.1,79.3,205,79.3,205,79.3z"></path> </g> </g> </g> </g> </g> </g> </g> </g> </g> </g> </g> </g> </g> </g> </g> <g> <g> <path class="st10" d="M167.9,93.4h-2.5c-0.1,0-0.2-0.1-0.2-0.2c0-0.1,0.1-0.2,0.2-0.2h2.5c0.1,0,0.2,0.1,0.2,0.2 C168.1,93.3,168,93.4,167.9,93.4z"></path> </g> <g> <path class="st10" d="M168,92.4h-2.5c-0.1,0-0.2-0.1-0.2-0.2c0-0.1,0.1-0.2,0.2-0.2h2.5c0.1,0,0.2,0.1,0.2,0.2 C168.2,92.3,168.1,92.4,168,92.4z"></path> </g> <g> <path class="st10" d="M168.1,91.3h-1.6c-0.1,0-0.2-0.1-0.2-0.2c0-0.1,0.1-0.2,0.2-0.2h1.6c0.1,0,0.2,0.1,0.2,0.2 C168.3,91.2,168.2,91.3,168.1,91.3z"></path> </g> </g> <g> <g> <path class="st10" d="M203.1,93.5c-0.8,0-1.5-0.7-1.4-1.5c0.1-0.8,0.8-1.5,1.6-1.5c0.8,0,1.5,0.7,1.4,1.5 C204.7,92.8,204,93.5,203.1,93.5z M203.3,90.9c-0.6,0-1.2,0.5-1.2,1.1c0,0.6,0.4,1.1,1.1,1.1c0.6,0,1.2-0.5,1.2-1.1 C204.4,91.4,204,90.9,203.3,90.9z"></path> </g> <g> <path class="st10" d="M204.8,93.8c0,0-0.1,0-0.1-0.1l-0.7-0.7c-0.1-0.1-0.1-0.2,0-0.3c0.1-0.1,0.2-0.1,0.3,0l0.7,0.7 c0.1,0.1,0.1,0.2,0,0.3C204.9,93.8,204.8,93.8,204.8,93.8z"></path> </g> </g> <g> <path class="st2" d="M173.1,180.2h-10.6c-1.5,0-2.7-1.2-2.6-2.8l0.7-10.6c0.1-1.5,1.4-2.8,3-2.8h10.6c1.5,0,2.7,1.2,2.6,2.8 l-0.7,10.6C176,178.9,174.7,180.2,173.1,180.2z"></path> </g> <g> <path class="st21" d="M194.6,180.2H184c-1.5,0-2.7-1.2-2.6-2.8l0.7-10.6c0.1-1.5,1.4-2.8,3-2.8h10.6c1.5,0,2.7,1.2,2.6,2.8 l-0.7,10.6C197.5,178.9,196.2,180.2,194.6,180.2z"></path> </g> <g> <g> <path class="st5" d="M169.1,133.9l-0.1,1.4h-0.2l0.1-1.2h-0.3l0-0.2H169.1z"></path> <path class="st5" d="M170.5,134.7l0,0.6h-0.2l0-0.6c0-0.2-0.1-0.3-0.3-0.3c-0.2,0-0.3,0.1-0.4,0.4l0,0.6h-0.2l0.1-1.5h0.2l0,0.6 c0.1-0.1,0.2-0.2,0.4-0.2C170.3,134.3,170.5,134.4,170.5,134.7z"></path> <path class="st5" d="M172.2,134.9c0,0.2-0.2,0.4-0.6,0.4c-0.2,0-0.4-0.1-0.5-0.2l0.1-0.2c0.1,0.1,0.2,0.2,0.4,0.2 c0.2,0,0.3-0.1,0.4-0.3c0-0.1-0.1-0.2-0.3-0.2h-0.1l0-0.1l0.4-0.4h-0.7l0-0.2h0.9l0,0.1l-0.4,0.5 C172.1,134.5,172.3,134.7,172.2,134.9z"></path> <path class="st5" d="M172.4,134.6c0-0.5,0.3-0.7,0.6-0.7c0.3,0,0.6,0.3,0.5,0.7c0,0.5-0.3,0.7-0.6,0.7 C172.6,135.4,172.4,135.1,172.4,134.6z M173.4,134.6c0-0.4-0.1-0.5-0.3-0.5c-0.2,0-0.4,0.2-0.4,0.5c0,0.4,0.1,0.5,0.3,0.5 C173.2,135.2,173.4,135,173.4,134.6z"></path> <path class="st5" d="M176.2,134.7l0,0.6H176l0-0.6c0-0.2-0.1-0.3-0.3-0.3c-0.2,0-0.3,0.1-0.3,0.4l0,0.6h-0.2l0-0.6 c0-0.2-0.1-0.3-0.3-0.3c-0.2,0-0.3,0.1-0.3,0.4l0,0.6h-0.2l0.1-1.1h0.2l0,0.2c0.1-0.1,0.2-0.2,0.4-0.2c0.2,0,0.3,0.1,0.4,0.2 c0.1-0.1,0.2-0.2,0.4-0.2C176.1,134.3,176.2,134.4,176.2,134.7z"></path> <path class="st5" d="M176.6,133.9c0-0.1,0.1-0.1,0.1-0.1c0.1,0,0.1,0.1,0.1,0.1c0,0.1-0.1,0.1-0.1,0.1 C176.6,134.1,176.6,134,176.6,133.9z M176.6,134.3h0.2l-0.1,1.1h-0.2L176.6,134.3z"></path> <path class="st5" d="M178.1,134.7l0,0.6h-0.2l0-0.6c0-0.2-0.1-0.3-0.3-0.3c-0.2,0-0.3,0.1-0.4,0.4l0,0.6h-0.2l0.1-1.1h0.2l0,0.2 c0.1-0.1,0.2-0.2,0.4-0.2C178,134.3,178.2,134.4,178.1,134.7z"></path> </g> <g> <path class="st5" d="M165.8,136c-0.4,0-0.8-0.2-1-0.5c-0.5-0.6-0.4-1.5,0.2-2.1c0.4-0.4,1-0.5,1.5-0.3c0,0,0.1,0.1,0.1,0.1 c0,0-0.1,0.1-0.1,0.1c-0.4-0.1-0.9,0-1.3,0.3c-0.6,0.5-0.6,1.3-0.2,1.8c0.4,0.5,1.2,0.6,1.8,0.1c0.3-0.2,0.4-0.5,0.5-0.9 c0-0.3-0.1-0.7-0.3-0.9c0,0,0-0.1,0-0.1c0,0,0.1,0,0.1,0c0.2,0.3,0.3,0.7,0.3,1c0,0.4-0.2,0.7-0.5,1 C166.5,135.8,166.2,136,165.8,136z"></path> </g> <g> <path class="st5" d="M166.8,133.3c0,0.2-0.1,0.3-0.3,0.3s-0.3-0.1-0.3-0.3c0-0.2,0.1-0.3,0.3-0.3 C166.7,133,166.8,133.1,166.8,133.3z"></path> </g> <g> <path class="st5" d="M166.3,135.1C166.3,135.1,166.3,135.1,166.3,135.1l-0.5-0.5c0,0,0,0,0-0.1l0.1-0.7c0,0,0-0.1,0.1-0.1 s0.1,0,0.1,0.1l0,0.7l0.4,0.5C166.4,135,166.4,135,166.3,135.1C166.3,135.1,166.3,135.1,166.3,135.1z"></path> </g> </g> <g> <g> <path class="st10" d="M191.9,134.9c0,0.2-0.2,0.4-0.6,0.4c-0.2,0-0.4-0.1-0.5-0.2l0.1-0.2c0.1,0.1,0.2,0.2,0.4,0.2 c0.2,0,0.3-0.1,0.4-0.3c0-0.1-0.1-0.2-0.3-0.2h-0.1l0-0.1l0.4-0.4H191l0-0.2h0.9l0,0.1l-0.4,0.5 C191.8,134.5,192,134.7,191.9,134.9z"></path> <path class="st10" d="M193.1,134.9c0,0.2-0.2,0.4-0.6,0.4c-0.2,0-0.4-0.1-0.5-0.2l0.1-0.2c0.1,0.1,0.2,0.2,0.4,0.2 c0.2,0,0.3-0.1,0.4-0.3c0-0.2-0.1-0.3-0.4-0.3h-0.3l0.1-0.7h0.8l0,0.2h-0.6l-0.1,0.4h0.2C193,134.5,193.1,134.7,193.1,134.9z"></path> <path class="st10" d="M195.7,134.7l0,0.6h-0.2l0-0.6c0-0.2-0.1-0.3-0.3-0.3c-0.2,0-0.3,0.1-0.3,0.4l0,0.6h-0.2l0-0.6 c0-0.2-0.1-0.3-0.3-0.3c-0.2,0-0.3,0.1-0.3,0.4l0,0.6h-0.2l0.1-1.1h0.2l0,0.2c0.1-0.1,0.2-0.2,0.4-0.2c0.2,0,0.3,0.1,0.4,0.2 c0.1-0.1,0.2-0.2,0.4-0.2C195.6,134.3,195.7,134.4,195.7,134.7z"></path> <path class="st10" d="M196.1,133.9c0-0.1,0.1-0.1,0.1-0.1c0.1,0,0.1,0.1,0.1,0.1c0,0.1-0.1,0.1-0.1,0.1 C196.1,134.1,196.1,134,196.1,133.9z M196.1,134.3h0.2l-0.1,1.1H196L196.1,134.3z"></path> <path class="st10" d="M197.6,134.7l0,0.6h-0.2l0-0.6c0-0.2-0.1-0.3-0.3-0.3c-0.2,0-0.3,0.1-0.4,0.4l0,0.6h-0.2l0.1-1.1h0.2l0,0.2 c0.1-0.1,0.2-0.2,0.4-0.2C197.5,134.3,197.7,134.4,197.6,134.7z"></path> </g> <g> <path class="st10" d="M188.2,136c-0.4,0-0.8-0.2-1-0.5c-0.2-0.3-0.3-0.7-0.3-1c0-0.4,0.2-0.7,0.5-1c0.4-0.4,1-0.5,1.5-0.3 c0,0,0.1,0.1,0,0.1c0,0-0.1,0.1-0.1,0.1c-0.4-0.1-0.9,0-1.3,0.3c-0.3,0.2-0.4,0.5-0.5,0.9c0,0.3,0.1,0.7,0.3,0.9 c0.4,0.5,1.2,0.6,1.8,0.1c0.3-0.2,0.4-0.5,0.5-0.9c0-0.3-0.1-0.7-0.3-0.9c0,0,0-0.1,0-0.1c0,0,0.1,0,0.1,0c0.2,0.3,0.3,0.7,0.3,1 c0,0.4-0.2,0.7-0.5,1C188.9,135.8,188.5,136,188.2,136z"></path> </g> <g> <path class="st10" d="M189.1,133.3c0,0.2-0.1,0.3-0.3,0.3c-0.2,0-0.3-0.1-0.3-0.3c0-0.2,0.1-0.3,0.3-0.3 C189,133,189.1,133.1,189.1,133.3z"></path> </g> <g> <path class="st10" d="M188.7,135.1C188.7,135.1,188.6,135.1,188.7,135.1l-0.5-0.5c0,0,0,0,0-0.1l0.1-0.7c0,0,0-0.1,0.1-0.1 c0,0,0.1,0,0.1,0.1l0,0.7l0.4,0.5C188.8,135,188.8,135,188.7,135.1C188.7,135.1,188.7,135.1,188.7,135.1z"></path> </g> </g> <g> <g> <path class="st10" d="M168.2,159.1h-0.3l0,0.3h-0.2l0-0.3h-0.8l0-0.1l0.8-0.9h0.2l-0.8,0.9h0.5l0-0.3h0.2l0,0.3h0.3L168.2,159.1z"></path> <path class="st10" d="M169.3,159c0,0.2-0.2,0.4-0.6,0.4c-0.2,0-0.4-0.1-0.5-0.2l0.1-0.2c0.1,0.1,0.2,0.2,0.4,0.2 c0.2,0,0.3-0.1,0.4-0.3c0-0.2-0.1-0.3-0.4-0.3h-0.3l0.1-0.7h0.8l0,0.2h-0.6l-0.1,0.4h0.2C169.1,158.6,169.3,158.8,169.3,159z"></path> <path class="st10" d="M171.9,158.8l0,0.6h-0.2l0-0.6c0-0.2-0.1-0.3-0.3-0.3c-0.2,0-0.3,0.1-0.3,0.4l0,0.6h-0.2l0-0.6 c0-0.2-0.1-0.3-0.3-0.3c-0.2,0-0.3,0.1-0.3,0.4l0,0.6H170l0.1-1.1h0.2l0,0.2c0.1-0.1,0.2-0.2,0.4-0.2c0.2,0,0.3,0.1,0.4,0.2 c0.1-0.1,0.2-0.2,0.4-0.2C171.7,158.3,171.9,158.5,171.9,158.8z"></path> <path class="st10" d="M172.2,158c0-0.1,0.1-0.1,0.1-0.1c0.1,0,0.1,0.1,0.1,0.1c0,0.1-0.1,0.1-0.1,0.1 C172.3,158.2,172.2,158.1,172.2,158z M172.3,158.4h0.2l-0.1,1.1h-0.2L172.3,158.4z"></path> <path class="st10" d="M173.8,158.8l0,0.6h-0.2l0-0.6c0-0.2-0.1-0.3-0.3-0.3c-0.2,0-0.3,0.1-0.4,0.4l0,0.6h-0.2l0.1-1.1h0.2l0,0.2 c0.1-0.1,0.2-0.2,0.4-0.2C173.7,158.3,173.8,158.5,173.8,158.8z"></path> </g> <g> <path class="st10" d="M164.1,160c-0.4,0-0.8-0.2-1-0.5c-0.5-0.6-0.4-1.5,0.2-2.1c0.4-0.4,1-0.5,1.5-0.3c0,0,0.1,0.1,0.1,0.1 c0,0-0.1,0.1-0.1,0.1c-0.4-0.1-0.9,0-1.3,0.3c-0.6,0.5-0.6,1.3-0.2,1.8c0.4,0.5,1.2,0.6,1.8,0.1c0.3-0.2,0.4-0.5,0.5-0.9 c0-0.3-0.1-0.7-0.3-0.9c0,0,0-0.1,0-0.1c0,0,0.1,0,0.1,0c0.2,0.3,0.3,0.7,0.3,1c0,0.4-0.2,0.7-0.5,1 C164.8,159.9,164.5,160,164.1,160z"></path> </g> <g> <path class="st10" d="M165.1,157.3c0,0.2-0.1,0.3-0.3,0.3c-0.2,0-0.3-0.1-0.3-0.3c0-0.2,0.1-0.3,0.3-0.3 C165,157.1,165.1,157.2,165.1,157.3z"></path> </g> <g> <path class="st10" d="M164.6,159.2C164.6,159.2,164.6,159.2,164.6,159.2l-0.5-0.5c0,0,0,0,0-0.1l0.1-0.7c0,0,0-0.1,0.1-0.1 s0.1,0,0.1,0.1l0,0.7l0.4,0.5C164.7,159,164.7,159.1,164.6,159.2C164.7,159.2,164.7,159.2,164.6,159.2z"></path> </g> </g> <g> <g> <path class="st10" d="M166.5,183.3h-0.3l0,0.3H166l0-0.3h-0.8l0-0.1l0.8-0.9h0.2l-0.8,0.9h0.5l0-0.3h0.2l0,0.3h0.3L166.5,183.3z"></path> <path class="st10" d="M167.6,183.2c0,0.2-0.2,0.4-0.6,0.4c-0.2,0-0.4-0.1-0.5-0.2l0.1-0.2c0.1,0.1,0.2,0.2,0.4,0.2 c0.2,0,0.3-0.1,0.4-0.3c0-0.2-0.1-0.3-0.4-0.3h-0.3l0.1-0.7h0.8l0,0.2h-0.6l-0.1,0.4h0.2C167.4,182.8,167.6,183,167.6,183.2z"></path> <path class="st10" d="M170.2,183l0,0.6h-0.2l0-0.6c0-0.2-0.1-0.3-0.3-0.3c-0.2,0-0.3,0.1-0.3,0.4l0,0.6h-0.2l0-0.6 c0-0.2-0.1-0.3-0.3-0.3c-0.2,0-0.3,0.1-0.3,0.4l0,0.6h-0.2l0.1-1.1h0.2l0,0.2c0.1-0.1,0.2-0.2,0.4-0.2c0.2,0,0.3,0.1,0.4,0.2 c0.1-0.1,0.2-0.2,0.4-0.2C170,182.6,170.2,182.7,170.2,183z"></path> <path class="st10" d="M170.5,182.2c0-0.1,0.1-0.1,0.1-0.1c0.1,0,0.1,0.1,0.1,0.1c0,0.1-0.1,0.1-0.1,0.1 C170.6,182.4,170.5,182.3,170.5,182.2z M170.6,182.6h0.2l-0.1,1.1h-0.2L170.6,182.6z"></path> <path class="st10" d="M172.1,183l0,0.6h-0.2l0-0.6c0-0.2-0.1-0.3-0.3-0.3c-0.2,0-0.3,0.1-0.4,0.4l0,0.6H171l0.1-1.1h0.2l0,0.2 c0.1-0.1,0.2-0.2,0.4-0.2C172,182.6,172.1,182.7,172.1,183z"></path> </g> <g> <path class="st10" d="M162.4,184.2c-0.4,0-0.8-0.2-1-0.5c-0.5-0.6-0.4-1.5,0.2-2.1c0.4-0.4,1-0.5,1.5-0.3c0,0,0.1,0.1,0.1,0.1 c0,0-0.1,0.1-0.1,0.1c-0.4-0.1-0.9,0-1.3,0.3c-0.6,0.5-0.6,1.3-0.2,1.8c0.4,0.5,1.2,0.6,1.8,0.1c0.3-0.2,0.4-0.5,0.5-0.9 c0-0.3-0.1-0.7-0.3-0.9c0,0,0-0.1,0-0.1c0,0,0.1,0,0.1,0c0.2,0.3,0.3,0.7,0.3,1c0,0.4-0.2,0.7-0.5,1 C163.2,184.1,162.8,184.2,162.4,184.2z"></path> </g> <g> <path class="st10" d="M163.4,181.6c0,0.2-0.1,0.3-0.3,0.3c-0.2,0-0.3-0.1-0.3-0.3s0.1-0.3,0.3-0.3 C163.3,181.3,163.4,181.4,163.4,181.6z"></path> </g> <g> <path class="st10" d="M162.9,183.4C162.9,183.4,162.9,183.4,162.9,183.4l-0.5-0.5c0,0,0,0,0-0.1l0.1-0.7c0,0,0-0.1,0.1-0.1 s0.1,0,0.1,0.1l0,0.7l0.4,0.5C163,183.3,163,183.3,162.9,183.4C163,183.4,163,183.4,162.9,183.4z"></path> </g> </g> <g> <g> <path class="st10" d="M188.8,183.2c0,0.2-0.2,0.4-0.6,0.4c-0.2,0-0.4-0.1-0.5-0.2l0.1-0.2c0.1,0.1,0.2,0.2,0.4,0.2 c0.2,0,0.3-0.1,0.4-0.3c0-0.2-0.1-0.3-0.4-0.3h-0.3l0.1-0.7h0.8l0,0.2h-0.6l-0.1,0.4h0.2C188.7,182.8,188.8,183,188.8,183.2z"></path> <path class="st10" d="M190,183.2c0,0.2-0.2,0.4-0.6,0.4c-0.2,0-0.4-0.1-0.5-0.2l0.1-0.2c0.1,0.1,0.2,0.2,0.4,0.2 c0.2,0,0.3-0.1,0.4-0.3c0-0.2-0.1-0.3-0.4-0.3H189l0.1-0.7h0.8l0,0.2h-0.6l-0.1,0.4h0.2C189.8,182.8,190,183,190,183.2z"></path> <path class="st10" d="M192.6,183l0,0.6h-0.2l0-0.6c0-0.2-0.1-0.3-0.3-0.3c-0.2,0-0.3,0.1-0.3,0.4l0,0.6h-0.2l0-0.6 c0-0.2-0.1-0.3-0.3-0.3c-0.2,0-0.3,0.1-0.3,0.4l0,0.6h-0.2l0.1-1.1h0.2l0,0.2c0.1-0.1,0.2-0.2,0.4-0.2c0.2,0,0.3,0.1,0.4,0.2 c0.1-0.1,0.2-0.2,0.4-0.2C192.4,182.6,192.6,182.7,192.6,183z"></path> <path class="st10" d="M192.9,182.2c0-0.1,0.1-0.1,0.1-0.1c0.1,0,0.1,0.1,0.1,0.1c0,0.1-0.1,0.1-0.1,0.1 C193,182.4,192.9,182.3,192.9,182.2z M192.9,182.6h0.2l-0.1,1.1h-0.2L192.9,182.6z"></path> <path class="st10" d="M194.5,183l0,0.6h-0.2l0-0.6c0-0.2-0.1-0.3-0.3-0.3c-0.2,0-0.3,0.1-0.4,0.4l0,0.6h-0.2l0.1-1.1h0.2l0,0.2 c0.1-0.1,0.2-0.2,0.4-0.2C194.3,182.6,194.5,182.7,194.5,183z"></path> </g> <g> <path class="st10" d="M185,184.2c-0.4,0-0.8-0.2-1-0.5c-0.5-0.6-0.4-1.5,0.2-2.1c0.4-0.4,1-0.5,1.5-0.3c0,0,0.1,0.1,0.1,0.1 c0,0-0.1,0.1-0.1,0.1c-0.4-0.1-0.9,0-1.3,0.3c-0.6,0.5-0.6,1.3-0.2,1.8c0.4,0.5,1.2,0.6,1.8,0.1c0.3-0.2,0.4-0.5,0.5-0.9 c0-0.3-0.1-0.7-0.3-0.9c0,0,0-0.1,0-0.1c0,0,0.1,0,0.1,0c0.2,0.3,0.3,0.7,0.3,1c0,0.4-0.2,0.7-0.5,1 C185.7,184.1,185.4,184.2,185,184.2z"></path> </g> <g> <path class="st10" d="M186,181.6c0,0.2-0.1,0.3-0.3,0.3c-0.2,0-0.3-0.1-0.3-0.3c0-0.2,0.1-0.3,0.3-0.3S186,181.4,186,181.6z"></path> </g> <g> <path class="st10" d="M185.5,183.4C185.5,183.4,185.5,183.4,185.5,183.4l-0.5-0.5c0,0,0,0,0-0.1l0.1-0.7c0,0,0-0.1,0.1-0.1 s0.1,0,0.1,0.1l0,0.7l0.4,0.5C185.6,183.3,185.6,183.3,185.5,183.4C185.6,183.4,185.5,183.4,185.5,183.4z"></path> </g> </g> <g> <g> <path class="st10" d="M191.1,159.3l0,0.2h-1l0-0.1l0.6-0.6c0.2-0.1,0.2-0.2,0.2-0.3c0-0.1-0.1-0.2-0.3-0.2c-0.2,0-0.3,0-0.4,0.2 l-0.1-0.1c0.1-0.1,0.3-0.2,0.5-0.2c0.3,0,0.5,0.2,0.5,0.4c0,0.1-0.1,0.3-0.3,0.4l-0.5,0.4H191.1z"></path> <path class="st10" d="M191.3,158.7c0-0.5,0.3-0.7,0.6-0.7c0.3,0,0.6,0.3,0.5,0.7c0,0.5-0.3,0.7-0.6,0.7 C191.4,159.4,191.2,159.2,191.3,158.7z M192.2,158.7c0-0.4-0.1-0.5-0.3-0.5c-0.2,0-0.4,0.2-0.4,0.5c0,0.4,0.1,0.5,0.3,0.5 C192,159.3,192.2,159.1,192.2,158.7z"></path> <path class="st10" d="M195,158.8l0,0.6h-0.2l0-0.6c0-0.2-0.1-0.3-0.3-0.3c-0.2,0-0.3,0.1-0.3,0.4l0,0.6H194l0-0.6 c0-0.2-0.1-0.3-0.3-0.3c-0.2,0-0.3,0.1-0.3,0.4l0,0.6h-0.2l0.1-1.1h0.2l0,0.2c0.1-0.1,0.2-0.2,0.4-0.2c0.2,0,0.3,0.1,0.4,0.2 c0.1-0.1,0.2-0.2,0.4-0.2C194.9,158.3,195,158.5,195,158.8z"></path> <path class="st10" d="M195.4,158c0-0.1,0.1-0.1,0.1-0.1c0.1,0,0.1,0.1,0.1,0.1c0,0.1-0.1,0.1-0.1,0.1 C195.4,158.2,195.4,158.1,195.4,158z M195.4,158.4h0.2l-0.1,1.1h-0.2L195.4,158.4z"></path> <path class="st10" d="M196.9,158.8l0,0.6h-0.2l0-0.6c0-0.2-0.1-0.3-0.3-0.3c-0.2,0-0.3,0.1-0.4,0.4l0,0.6h-0.2l0.1-1.1h0.2l0,0.2 c0.1-0.1,0.2-0.2,0.4-0.2C196.8,158.3,197,158.5,196.9,158.8z"></path> </g> <g> <path class="st10" d="M187.3,160C187.3,160,187.2,160,187.3,160c-0.5,0-0.8-0.2-1-0.5c-0.5-0.6-0.4-1.5,0.2-2.1 c0.4-0.4,1-0.5,1.5-0.3c0,0,0.1,0.1,0.1,0.1c0,0-0.1,0.1-0.1,0.1c-0.4-0.1-0.9,0-1.3,0.3c-0.6,0.5-0.6,1.3-0.2,1.8 c0.2,0.3,0.5,0.4,0.9,0.4c0.3,0,0.7-0.1,0.9-0.3c0.3-0.2,0.4-0.5,0.5-0.9c0-0.3-0.1-0.7-0.3-0.9c0,0,0-0.1,0-0.1c0,0,0.1,0,0.1,0 c0.2,0.3,0.3,0.7,0.3,1c0,0.4-0.2,0.7-0.5,1C188,159.9,187.6,160,187.3,160z"></path> </g> <g> <path class="st10" d="M188.2,157.3c0,0.2-0.1,0.3-0.3,0.3c-0.2,0-0.3-0.1-0.3-0.3s0.1-0.3,0.3-0.3S188.2,157.2,188.2,157.3z"></path> </g> <g> <path class="st10" d="M187.8,159.2C187.8,159.2,187.7,159.2,187.8,159.2l-0.5-0.5c0,0,0,0,0-0.1l0.1-0.7c0,0,0-0.1,0.1-0.1 s0.1,0,0.1,0.1l0,0.7l0.4,0.5C187.9,159,187.9,159.1,187.8,159.2C187.8,159.2,187.8,159.2,187.8,159.2z"></path> </g> </g> <g> <g> <path class="st2" d="M196.6,155.8H186c-1.5,0-2.7-1.2-2.6-2.8l0.7-10.6c0.1-1.5,1.4-2.8,3-2.8h10.6c1.5,0,2.7,1.2,2.6,2.8 l-0.7,10.6C199.4,154.5,198.1,155.8,196.6,155.8z"></path> </g> <g> <g> <g> <path class="st3" d="M192.2,145.2c-0.9,0-1.1-0.7-1.2-1.4c0-0.4,0.1-0.9,0.4-1.2c0.2-0.3,0.5-0.5,0.9-0.5c0.4-0.1,0.8,0,1.1,0.3 c0.3,0.2,0.4,0.6,0.4,1l0,0c0,0.8-0.4,1.7-1.2,1.8C192.4,145.2,192.3,145.2,192.2,145.2z M192.5,142.3c-0.1,0-0.2,0-0.2,0 c-0.3,0-0.6,0.2-0.8,0.5c-0.2,0.3-0.4,0.7-0.3,1.1c0.1,0.8,0.3,1.3,1.3,1.2c0.7-0.1,1-0.9,1-1.6l0,0c0-0.4-0.1-0.7-0.3-0.9 C193,142.4,192.8,142.3,192.5,142.3z"></path> </g> <g> <g> <path class="st3" d="M195.5,151.1c-0.2,0-0.3-0.1-0.5-0.2l-1-1.1c0,0,0,0,0,0l-0.3-1.4l-0.1,2.4c0,0,0,0.1-0.1,0.1c0,0,0,0,0,0 c0,0-0.1,0-0.1-0.1l0.2-3.1c0,0,0-0.1,0.1-0.1c0,0,0.1,0,0.1,0.1l0.4,2.1l1,1.1c0.1,0.2,0.4,0.2,0.6,0.1 c0.1-0.1,0.2-0.2,0.2-0.3c0-0.1,0-0.2-0.1-0.3l-0.9-1.2c0,0,0,0,0,0l-0.1-1.1c-0.1-1.2-0.4-2.4-3.2-2.1c0,0-0.1,0-0.1-0.1 s0-0.1,0.1-0.1c2.6-0.2,3.3,0.8,3.4,2.3l0.1,1.1l0.9,1.2c0.1,0.1,0.1,0.3,0.1,0.4c0,0.2-0.1,0.3-0.3,0.4 C195.8,151,195.7,151.1,195.5,151.1z"></path> </g> <g> <path class="st3" d="M188.1,151.1c-0.1,0-0.3,0-0.4-0.1c-0.1-0.1-0.2-0.2-0.2-0.4c0-0.2,0-0.3,0.2-0.4l1.1-1.2l0.3-1.1 c0.2-1,0.6-2,2.1-2.2c0,0,0.1,0,0.1,0.1c0,0,0,0.1-0.1,0.1c-1.3,0.2-1.7,1-1.9,2.1l-0.3,1.1c0,0,0,0,0,0l-1.1,1.2 c-0.1,0.1-0.1,0.2-0.1,0.3c0,0.1,0.1,0.2,0.1,0.3c0.2,0.1,0.5,0.1,0.6-0.1l1.1-1.1l0.7-2.1c0,0,0.1-0.1,0.1-0.1 c0,0,0.1,0,0.1,0.1l-0.3,3.1c0,0,0,0.1-0.1,0.1c0,0,0,0,0,0c0,0-0.1,0-0.1-0.1l0.2-2.4l-0.5,1.4c0,0,0,0,0,0l-1.1,1.1 C188.5,151,188.3,151.1,188.1,151.1z"></path> </g> </g> <g> <g> <path class="st3" d="M192.7,153.1h-4.5c-0.5,0-0.9-0.4-0.8-0.9l0-0.1c0-0.5,0.5-0.9,0.9-0.9h4.5c0.5,0,0.9,0.4,0.8,0.9l0,0.1 C193.6,152.7,193.2,153.1,192.7,153.1z M188.3,151.4c-0.4,0-0.7,0.3-0.8,0.7l0,0.1c0,0.4,0.3,0.7,0.7,0.7h4.5 c0.4,0,0.7-0.3,0.8-0.7l0-0.1c0-0.4-0.3-0.7-0.7-0.7H188.3z"></path> </g> <g> <path class="st3" d="M195.1,153.1h-4.5c-0.5,0-0.9-0.4-0.8-0.9l0-0.1c0-0.5,0.5-0.9,0.9-0.9h4.5c0.5,0,0.9,0.4,0.8,0.9l0,0.1 C196.1,152.7,195.6,153.1,195.1,153.1z M190.8,151.4c-0.4,0-0.7,0.3-0.8,0.7l0,0.1c0,0.4,0.3,0.7,0.7,0.7h4.5 c0.4,0,0.7-0.3,0.8-0.7l0-0.1c0-0.4-0.3-0.7-0.7-0.7H190.8z"></path> </g> </g> </g> </g> <g> <path class="st3" d="M191.9,148.7c-0.2,0-0.3-0.1-0.5-0.2c-0.1-0.1-0.2-0.3-0.3-0.6c0,0,0-0.1,0-0.1c0-0.1,0.1-0.1,0.2-0.1 c0.4,0,0.8,0.4,0.8,0.8c0,0,0,0.1-0.1,0.1C192.1,148.7,192,148.7,191.9,148.7z M191.3,148c0.1,0.2,0.1,0.3,0.3,0.4 c0.1,0.1,0.3,0.2,0.4,0.1C191.9,148.2,191.6,148,191.3,148z"></path> </g> <g> <path class="st3" d="M192.2,148.7c-0.1,0-0.1,0-0.2,0c0,0-0.1-0.1-0.1-0.1c0.1-0.5,0.5-0.8,0.9-0.9c0.1,0,0.2,0,0.2,0.1 c0,0,0,0.1,0,0.1c-0.1,0.2-0.2,0.4-0.4,0.6C192.5,148.7,192.3,148.7,192.2,148.7z M192.1,148.5c0.1,0,0.3-0.1,0.4-0.2 c0.1-0.1,0.2-0.3,0.3-0.4C192.5,148,192.2,148.2,192.1,148.5z"></path> </g> <g> <path class="st3" d="M192,148.7C192,148.7,192,148.7,192,148.7c-0.4-0.4-0.3-0.9,0-1.2c0.1-0.1,0.1-0.1,0.2-0.1c0,0,0,0,0.1,0.1 c0.1,0.2,0.2,0.4,0.2,0.6C192.4,148.3,192.3,148.6,192,148.7C192.1,148.7,192,148.7,192,148.7z M192.1,147.6 c-0.2,0.3-0.2,0.6-0.1,0.9c0.1-0.1,0.2-0.3,0.2-0.4C192.3,147.9,192.2,147.8,192.1,147.6z"></path> </g> </g> <g> <g> <path class="st21" d="M197.9,131.2h-10.6c-1.5,0-2.7-1.2-2.6-2.8l0.7-10.6c0.1-1.5,1.4-2.8,3-2.8h10.6c1.5,0,2.7,1.2,2.6,2.8 l-0.7,10.6C200.8,129.9,199.4,131.2,197.9,131.2z"></path> </g> <g> <path class="st3" d="M195.2,129.2c-0.4,0-0.7-0.3-0.7-0.7l0-2.4l-2.3-1.8c0,0-0.4-0.5,0.2-1.4c0.4-0.7,0.9-1.8,1.1-2.1l-1,0 l-1.2,2.2c-0.1,0.3-0.4,0.4-0.7,0.3c-0.1-0.1-0.2-0.2-0.3-0.3c0-0.1,0-0.3,0-0.4l1.2-2.3c0.2-0.3,0.5-0.5,0.8-0.5h2.2 c0.3,0,0.6,0.1,0.7,0.3c0.2,0.2,0.3,0.5,0.1,1c-0.4,0.8-1.2,2.4-1.3,2.7l1.5,1.3c0.2,0.2,0.4,0.5,0.4,0.8l0,2.6 c0,0.2-0.1,0.4-0.2,0.5C195.6,129.1,195.4,129.2,195.2,129.2z M192.4,124.1l2.4,1.8c0,0,0,0,0,0.1l0,2.5c0,0.3,0.2,0.5,0.5,0.5 c0.2,0,0.3-0.1,0.4-0.2c0.1-0.1,0.2-0.3,0.2-0.4l0-2.6c0-0.3-0.1-0.5-0.3-0.7l-1.6-1.3c0,0,0-0.1,0-0.1c0,0,0.9-1.9,1.4-2.7 c0.2-0.3,0.1-0.6-0.1-0.8c-0.1-0.2-0.4-0.2-0.6-0.2h-2.2c-0.3,0-0.5,0.2-0.7,0.4l-1.2,2.3c0,0,0,0,0,0c0,0.1-0.1,0.2,0,0.3 c0,0.1,0.1,0.2,0.2,0.2c0.2,0.1,0.4,0,0.5-0.2l1.2-2.3c0,0,0.1,0,0.1-0.1l1.2,0c0,0,0.1,0,0.1,0c0,0,0,0.1,0,0.1 c0,0-0.6,1.4-1.1,2.3C192.2,123.7,192.4,124.1,192.4,124.1z M190.5,122.5L190.5,122.5L190.5,122.5z"></path> </g> <g> <path class="st3" d="M191.2,126.9H189c-0.4,0-0.6-0.3-0.6-0.6c0-0.4,0.3-0.6,0.7-0.6h2.2c0.6-1.1,0.6-1.1,0.7-1.1c0,0,0.1,0,0.1,0 l0.9,0.8c0,0,0,0.1,0,0.1l-0.5,0.8C192.1,126.7,191.7,126.9,191.2,126.9z M189.1,125.8c-0.3,0-0.5,0.2-0.5,0.5 c0,0.3,0.2,0.5,0.4,0.5h2.3c0.4,0,0.7-0.2,0.9-0.6l0.4-0.8l-0.7-0.7c-0.1,0.2-0.3,0.6-0.6,1c0,0-0.1,0.1-0.1,0.1H189.1z"></path> </g> <g> <path class="st3" d="M196.6,123.4H195c0,0-0.1,0-0.1,0c0,0,0-0.1,0-0.1l0.4-0.9c0,0,0.1-0.1,0.1-0.1h1.4c0.3,0,0.5,0.2,0.5,0.5 C197.2,123.1,196.9,123.4,196.6,123.4z M195.1,123.2h1.5c0.2,0,0.4-0.2,0.4-0.3c0-0.2-0.1-0.3-0.3-0.3h-1.3L195.1,123.2z"></path> </g> <g> <path class="st3" d="M195.1,119.5c-1,0-1-0.6-1-1.2c0-0.7,0.6-1.2,1.2-1.2c0.3,0,0.6,0.1,0.8,0.3c0.2,0.2,0.2,0.5,0.1,0.9 C196.1,118.9,195.7,119.5,195.1,119.5z M195.3,117.2c-0.5,0-0.9,0.5-1,1.1c0,0.7,0.1,1.1,0.8,1.1c0.5,0,0.8-0.6,0.9-1.1l0,0 c0.1-0.3,0-0.5-0.1-0.7C195.8,117.3,195.6,117.2,195.3,117.2z"></path> </g> <g> <path class="st3" d="M193.5,128.1h-2c0,0-0.1,0-0.1-0.1s0-0.1,0.1-0.1h2C193.6,127.9,193.6,128,193.5,128.1 C193.6,128.1,193.6,128.1,193.5,128.1z"></path> </g> <g> <path class="st3" d="M192.9,128.6h-2c0,0-0.1,0-0.1-0.1c0,0,0-0.1,0.1-0.1h2C193,128.5,193,128.5,192.9,128.6 C193,128.6,193,128.6,192.9,128.6z"></path> </g> </g> <g> <g> <path class="st21" d="M175.4,155.8h-10.6c-1.5,0-2.7-1.2-2.6-2.8l0.7-10.6c0.1-1.5,1.4-2.8,3-2.8h10.6c1.5,0,2.7,1.2,2.6,2.8 l-0.7,10.6C178.3,154.5,176.9,155.8,175.4,155.8z"></path> </g> <g> <g> <path class="st3" d="M170.4,150.8C170.3,150.8,170.3,150.8,170.4,150.8c-0.4,0-0.6-0.3-0.5-0.6l0.3-1.9l-1.2-0.7 c-0.1,0-0.8-0.5-0.4-1.4c0.4-0.7,1.1-1.4,1.4-1.7c0.3-0.2,0.6-0.4,0.9-0.4c0,0,0,0,0,0c0.3,0,0.6,0.1,0.8,0.4 c0.4,0.6,0.8,1.3,0.8,1.4l1,0.7c0.2,0.1,0.2,0.4,0.1,0.6c-0.1,0.2-0.4,0.3-0.6,0.2l-1.3-0.7c0,0,0,0,0,0l-0.7-0.8l-0.8,0.8 c0,0,0,0,0,0.1c0,0,0,0,0,0.1l0.9,0.8c0.2,0.2,0.3,0.4,0.2,0.7l-0.4,2.1C170.9,150.6,170.7,150.8,170.4,150.8z M170.9,144.3 c-0.3,0-0.6,0.1-0.8,0.3c-0.4,0.3-1,0.9-1.4,1.6c-0.4,0.8,0.3,1.1,0.3,1.1c0,0,0,0,0,0l1.3,0.8c0,0,0,0,0,0.1l-0.3,1.9 c0,0.2,0.1,0.4,0.3,0.4c0.2,0,0.4-0.1,0.5-0.4l0.4-2.1c0-0.2,0-0.4-0.2-0.6l-0.9-0.8c-0.1,0-0.1-0.1-0.1-0.2c0-0.1,0-0.1,0.1-0.2 l0.9-0.9c0,0,0.1,0,0.1,0c0,0,0,0,0.1,0l0.7,0.9l1.3,0.7c0.1,0.1,0.3,0,0.3-0.1c0.1-0.1,0.1-0.3-0.1-0.3l-1-0.7c0,0,0,0,0,0 c0,0-0.4-0.8-0.8-1.4C171.4,144.4,171.2,144.3,170.9,144.3C170.9,144.3,170.9,144.3,170.9,144.3z"></path> </g> <g> <path class="st3" d="M171.1,143.4C171.1,143.4,171.1,143.4,171.1,143.4C171,143.4,171,143.3,171.1,143.4 c-0.1-0.2,0.1-0.7,0.4-0.9c0.2-0.2,0.4-0.2,0.7-0.2c0.8,0.1,0.8,0.9,0.8,0.9c0,0,0,0.1-0.1,0.1L171.1,143.4 C171.1,143.4,171.1,143.4,171.1,143.4z M172,142.4c-0.2,0-0.3,0.1-0.4,0.2c-0.2,0.2-0.3,0.5-0.4,0.6l1.6-0.1 C172.7,142.9,172.6,142.5,172,142.4C172.1,142.4,172.1,142.4,172,142.4z"></path> </g> <g> <path class="st3" d="M166.9,152.1c-1.2,0-2.2-1-2.1-2.2s1.2-2.2,2.4-2.2c0.3,0,0.7,0.1,1,0.2c0,0,0.1,0.1,0,0.1 c0,0-0.1,0.1-0.1,0c-0.3-0.1-0.6-0.2-0.9-0.2c-1.1,0-2.1,0.9-2.2,2.1c-0.1,1.1,0.8,2.1,1.9,2.1c1.1,0,2.1-0.9,2.2-2.1 c0-0.5-0.1-1-0.4-1.4c0,0,0-0.1,0-0.1c0,0,0.1,0,0.1,0c0.4,0.4,0.5,1,0.5,1.5C169.2,151.1,168.1,152.1,166.9,152.1z"></path> </g> <g> <path class="st3" d="M171,149.5C171,149.5,171,149.5,171,149.5c-0.1,0-0.1-0.1-0.1-0.1l1.7-2.1l-2.1,0c0,0,0,0,0,0 c0,0-0.1,0-0.1-0.1c0,0,0-0.1,0.1-0.1l2.3,0c0,0,0,0,0,0c0,0,0.1,0,0.1,0c0,0,0,0.1,0,0.1L171,149.5 C171.1,149.5,171.1,149.5,171,149.5z"></path> </g> <g> <path class="st3" d="M169.9,150.2C169.9,150.2,169.9,150.2,169.9,150.2l-3-0.3c0,0-0.1,0-0.1-0.1c0,0,0-0.1,0-0.1l2.1-2.3 c0,0,0.1,0,0.1,0c0,0,0,0.1,0,0.1l-2,2.2l2.8,0.3C170,150.1,170,150.1,169.9,150.2C170,150.2,170,150.2,169.9,150.2z"></path> </g> <g> <path class="st3" d="M173.8,149.8C173.8,149.8,173.8,149.8,173.8,149.8l-0.9-2.6c0,0,0-0.1,0.1-0.1c0,0,0.1,0,0.1,0.1l0.8,2.6 C174,149.8,173.9,149.8,173.8,149.8C173.9,149.8,173.9,149.8,173.8,149.8z"></path> </g> <g> <path class="st3" d="M173.8,152.1c-1.3,0-2.2-1-2.1-2.3c0.1-1.3,1.2-2.3,2.4-2.3c1.3,0,2.2,1,2.1,2.3 C176.1,151.1,175,152.1,173.8,152.1z M174.1,147.7c-1.2,0-2.2,0.9-2.2,2.1c-0.1,1.2,0.8,2.1,1.9,2.1c1.2,0,2.2-0.9,2.2-2.1 C176.1,148.7,175.2,147.7,174.1,147.7z"></path> </g> <g> <path class="st3" d="M171.9,144.2c-0.7,0-0.7-0.4-0.7-0.8c0,0,0-0.1,0.1-0.1s0.1,0,0.1,0.1c0,0.5,0,0.7,0.5,0.7 c0.3,0,0.6-0.4,0.6-0.8c0,0,0.1-0.1,0.1-0.1c0,0,0.1,0.1,0.1,0.1C172.6,143.7,172.4,144.2,171.9,144.2z"></path> </g> </g> <g> <path class="st3" d="M171.9,144.1C171.9,144.1,171.8,144.1,171.9,144.1c-0.1-0.3-0.1-0.6-0.1-0.9c0,0,0-0.1,0.1-0.1 c0,0,0.1,0,0.1,0.1c0,0.3,0,0.5,0,0.8C172,144.1,172,144.1,171.9,144.1C171.9,144.1,171.9,144.1,171.9,144.1z"></path> </g> </g> <g> <g> <path class="st5" d="M177,131.4h-10.6c-1.5,0-2.7-1.2-2.6-2.8l0.7-10.6c0.1-1.5,1.4-2.8,3-2.8h10.6c1.5,0,2.7,1.2,2.6,2.8 l-0.7,10.6C179.8,130.2,178.5,131.4,177,131.4z"></path> </g> <g> <g> <path class="st3" d="M172.6,120.7c-0.8,0-0.9-0.5-0.9-1.1c0-0.6,0.5-1.1,1-1.1c0.3,0,0.6,0.1,0.7,0.3c0.1,0.2,0.2,0.4,0.1,0.8 C173.5,120.1,173.2,120.7,172.6,120.7z M172.7,118.7c-0.4,0-0.8,0.4-0.8,0.9c0,0.6,0.1,0.9,0.7,0.9c0.4,0,0.7-0.5,0.8-0.9l0,0 c0.1-0.3,0-0.5-0.1-0.6C173.2,118.8,173,118.7,172.7,118.7z"></path> </g> <g> <path class="st3" d="M173.4,129c-0.3,0-0.5-0.2-0.6-0.5l-0.5-3.2h0l-1.1,3.3c-0.1,0.3-0.3,0.5-0.6,0.5c-0.2,0-0.3-0.1-0.5-0.2 c-0.1-0.1-0.1-0.3-0.1-0.5l1-3.7l0.2-2.8l-1.1-1.1c-0.1-0.1-0.2-0.3-0.2-0.5l-0.1-1.7c0-0.1,0-0.3,0.1-0.4 c0.1-0.1,0.2-0.2,0.4-0.2c0.2,0,0.4,0.2,0.4,0.4c0,0,0,0,0,0c0,0.5,0.1,1.4,0.2,1.6l1,0.9h1.3l1.1-0.9l0.4-1.6 c0.1-0.2,0.3-0.4,0.5-0.4c0.1,0,0.3,0.1,0.4,0.2c0.1,0.1,0.1,0.2,0.1,0.4l-0.4,1.6c0,0.2-0.1,0.4-0.3,0.5l-1,1.1l-0.2,2.8 l0.3,3.8c0,0.2-0.1,0.4-0.2,0.5C173.7,128.9,173.5,129,173.4,129z M172.2,125.1h0.2c0,0,0.1,0,0.1,0.1l0.5,3.3 c0,0.2,0.2,0.4,0.4,0.4c0.1,0,0.3-0.1,0.4-0.2c0.1-0.1,0.1-0.2,0.1-0.4l-0.3-3.8l0.2-2.8c0,0,0,0,0-0.1l1.1-1.1 c0.1-0.1,0.2-0.3,0.2-0.4l0.4-1.6c0-0.1,0-0.2-0.1-0.2c-0.1-0.1-0.1-0.1-0.2-0.1c-0.1,0-0.3,0.1-0.3,0.2l-0.4,1.6c0,0,0,0,0,0 l-1.1,1c0,0,0,0-0.1,0h-1.4c0,0,0,0-0.1,0l-1.1-0.9c0,0,0,0,0-0.1c0,0-0.1-1.1-0.2-1.6l0,0c0-0.1-0.1-0.2-0.3-0.2 c-0.1,0-0.2,0-0.2,0.1c-0.1,0.1-0.1,0.1-0.1,0.2l0.1,1.7c0,0.2,0.1,0.3,0.2,0.4l1.1,1.1c0,0,0,0,0,0.1l-0.2,2.9l-1,3.7 c0,0.1,0,0.3,0.1,0.4c0.1,0.1,0.2,0.2,0.3,0.2c0.2,0,0.4-0.1,0.4-0.3L172.2,125.1C172.1,125.1,172.2,125.1,172.2,125.1z"></path> </g> <g> <path class="st3" d="M169.9,118.4h-0.6c0,0-0.1,0-0.1-0.1c0,0,0-0.1,0.1-0.1h0.6C169.9,118.2,170,118.3,169.9,118.4 C170,118.4,169.9,118.4,169.9,118.4z"></path> </g> <g> <path class="st3" d="M174.7,118.4h-4.1c0,0-0.1,0-0.1-0.1c0,0,0-0.1,0.1-0.1h4.1C174.8,118.2,174.8,118.3,174.7,118.4 C174.8,118.4,174.8,118.4,174.7,118.4z"></path> </g> <g> <path class="st3" d="M176.1,118.4h-0.6c0,0-0.1,0-0.1-0.1c0,0,0-0.1,0.1-0.1h0.6C176.2,118.2,176.2,118.3,176.1,118.4 C176.2,118.4,176.1,118.4,176.1,118.4z"></path> </g> <g> <path class="st3" d="M177.2,118.4h-0.6c0,0-0.1,0-0.1-0.1c0,0,0-0.1,0.1-0.1h0.6C177.2,118.2,177.3,118.3,177.2,118.4 C177.3,118.4,177.2,118.4,177.2,118.4z"></path> </g> <g> <path class="st3" d="M176,119.4C176,119.4,175.9,119.3,176,119.4l0-1.9c0,0,0-0.1,0.1-0.1s0.1,0,0.1,0.1L176,119.4 C176.1,119.3,176.1,119.4,176,119.4z"></path> </g> <g> <path class="st3" d="M176.4,119.4C176.4,119.4,176.3,119.3,176.4,119.4l0-1.9c0,0,0-0.1,0.1-0.1c0,0,0.1,0,0.1,0.1L176.4,119.4 C176.5,119.3,176.5,119.4,176.4,119.4z"></path> </g> <g> <path class="st3" d="M168.8,118.4h-0.6c0,0-0.1,0-0.1-0.1c0,0,0-0.1,0.1-0.1h0.6C168.9,118.2,168.9,118.3,168.8,118.4 C168.9,118.4,168.9,118.4,168.8,118.4z"></path> </g> <g> <path class="st3" d="M169.2,119.4C169.2,119.4,169.1,119.3,169.2,119.4l0-1.9c0,0,0-0.1,0.1-0.1c0,0,0.1,0,0.1,0.1L169.2,119.4 C169.3,119.3,169.3,119.4,169.2,119.4z"></path> </g> <g> <path class="st3" d="M168.8,119.4C168.8,119.4,168.7,119.3,168.8,119.4l0-1.9c0,0,0-0.1,0.1-0.1s0.1,0,0.1,0.1L168.8,119.4 C168.9,119.3,168.9,119.4,168.8,119.4z"></path> </g> <g> <path class="st3" d="M168.3,120.8C168.3,120.8,168.3,120.8,168.3,120.8c-0.1-0.1-0.1-0.1-0.1-0.2l0.5-0.5c0,0,0,0,0.1,0l0,0 c0,0,0,0,0.1,0l0.4,0.5c0,0,0,0.1,0,0.1c0,0-0.1,0-0.1,0l-0.4-0.4L168.3,120.8C168.4,120.8,168.3,120.8,168.3,120.8z"></path> </g> <g> <path class="st3" d="M168.7,121.7C168.7,121.7,168.6,121.6,168.7,121.7l0-1.4c0,0,0-0.1,0.1-0.1s0.1,0,0.1,0.1L168.7,121.7 C168.8,121.6,168.8,121.7,168.7,121.7z"></path> </g> <g> <path class="st3" d="M169.2,122.8C169.1,122.8,169.1,122.8,169.2,122.8l-0.5-0.5c0,0,0-0.1,0-0.1c0,0,0.1,0,0.1,0l0.4,0.4 l0.4-0.4c0,0,0.1,0,0.1,0c0,0,0,0.1,0,0.1L169.2,122.8C169.2,122.8,169.2,122.8,169.2,122.8z"></path> </g> <g> <path class="st3" d="M169.2,122.7C169.1,122.7,169.1,122.7,169.2,122.7l0-1.4c0,0,0-0.1,0.1-0.1s0.1,0,0.1,0.1L169.2,122.7 C169.3,122.7,169.2,122.7,169.2,122.7z"></path> </g> </g> </g> <g> <g> <path class="st3" d="M171.3,171.1C171.3,171.1,171.3,171.1,171.3,171.1c-0.1-0.1-0.1-0.1,0-0.2l1.8-1.2c0,0,0.1,0,0.1,0 c0,0,0,0.1,0,0.1L171.3,171.1C171.4,171.1,171.3,171.1,171.3,171.1z"></path> </g> <g> <path class="st3" d="M172.1,177.5H163c0,0-0.1,0-0.1-0.1s0-0.1,0.1-0.1h9.1c0.5,0,0.9-0.4,0.9-0.9l0,0c0.1-1.7-0.1-3.4-0.7-4.9 l-0.3-0.9c0,0,0-0.1,0.1-0.1c0,0,0.1,0,0.1,0l0.3,0.9c0.6,1.6,0.8,3.3,0.7,5l0,0C173.2,177.1,172.7,177.5,172.1,177.5z"></path> </g> <g> <path class="st3" d="M169.2,176.7c-0.3,0-0.6-0.3-0.6-0.6l0-2.1l-2-1.6c0,0-0.3-0.4,0.2-1.3c0.4-0.6,0.8-1.5,0.9-1.9l-0.8,0 l-1,1.9c-0.1,0.2-0.4,0.3-0.6,0.2c-0.1,0-0.2-0.1-0.2-0.3c0-0.1,0-0.2,0-0.4l0,0l1-2c0.1-0.3,0.4-0.5,0.7-0.5h1.9 c0.3,0,0.5,0.1,0.6,0.3c0.2,0.2,0.3,0.5,0.1,0.9c-0.3,0.7-1,2-1.2,2.3l1.3,1.1c0.2,0.2,0.3,0.4,0.3,0.7l0,2.3 c0,0.2-0.1,0.4-0.2,0.5C169.5,176.6,169.3,176.7,169.2,176.7z M166.7,172.3l2.1,1.6c0,0,0,0,0,0.1l0,2.2c0,0.2,0.2,0.4,0.4,0.4 c0.1,0,0.3-0.1,0.4-0.1c0.1-0.1,0.1-0.2,0.1-0.4l0-2.3c0-0.2-0.1-0.4-0.3-0.6L168,172c0,0,0-0.1,0-0.1c0,0,0.8-1.6,1.2-2.4 c0.1-0.3,0.1-0.5-0.1-0.7c-0.1-0.1-0.3-0.2-0.5-0.2h-1.9c-0.2,0-0.5,0.1-0.6,0.4l-1,2c0,0.1,0,0.2,0,0.2c0,0.1,0.1,0.1,0.1,0.2 c0.1,0.1,0.3,0,0.4-0.1l1-2c0,0,0.1,0,0.1-0.1l1,0c0,0,0.1,0,0.1,0s0,0.1,0,0.1c0,0-0.5,1.2-1,2 C166.5,171.9,166.6,172.2,166.7,172.3z"></path> </g> <g> <path class="st3" d="M165.7,174.7h-2c-0.3,0-0.6-0.3-0.5-0.6s0.3-0.6,0.6-0.6h1.9c0.5-1,0.5-1,0.6-1c0,0,0.1,0,0.1,0l0.7,0.7 c0,0,0,0.1,0,0.1l-0.4,0.7C166.4,174.5,166.1,174.7,165.7,174.7z M163.7,173.8c-0.2,0-0.4,0.2-0.4,0.4s0.2,0.4,0.4,0.4h2 c0.3,0,0.6-0.2,0.8-0.5l0.4-0.7l-0.6-0.6c-0.1,0.2-0.3,0.5-0.5,0.9c0,0-0.1,0.1-0.1,0.1H163.7z"></path> </g> <g> <path class="st3" d="M170.4,171.7h-1.5c0,0-0.1,0-0.1,0c0,0,0-0.1,0-0.1l0.3-0.8c0,0,0.1-0.1,0.1-0.1h1.2c0.3,0,0.5,0.2,0.4,0.5 C170.8,171.4,170.6,171.7,170.4,171.7z M169,171.5h1.3c0.2,0,0.3-0.1,0.3-0.3c0-0.2-0.1-0.3-0.3-0.3h-1.1L169,171.5z"></path> </g> <g> <path class="st3" d="M169,168.3c-0.8,0-0.9-0.6-0.9-1.1c0-0.6,0.5-1.1,1-1.1c0.3,0,0.6,0.1,0.7,0.3c0.2,0.2,0.2,0.5,0.1,0.8 C169.9,167.7,169.6,168.3,169,168.3z M169.2,166.3c-0.4,0-0.8,0.4-0.8,0.9c0,0.6,0.1,0.9,0.7,0.9c0.4,0,0.7-0.5,0.8-1l0.1,0 l-0.1,0c0.1-0.3,0-0.5-0.1-0.6C169.6,166.4,169.4,166.3,169.2,166.3z"></path> </g> <g> <path class="st3" d="M167.7,175.8h-1.8c0,0-0.1,0-0.1-0.1s0-0.1,0.1-0.1h1.8C167.7,175.6,167.8,175.6,167.7,175.8 C167.7,175.7,167.7,175.8,167.7,175.8z"></path> </g> <g> <path class="st3" d="M167.1,176.2h-1.8c0,0-0.1,0-0.1-0.1c0,0,0-0.1,0.1-0.1h1.8C167.2,176.1,167.2,176.1,167.1,176.2 C167.2,176.2,167.2,176.2,167.1,176.2z"></path> </g> <g> <path class="st3" d="M172.2,178.1h-9.1c0,0-0.1,0-0.1-0.1s0-0.1,0.1-0.1h9.1C172.3,177.9,172.3,177.9,172.2,178.1 C172.3,178,172.3,178.1,172.2,178.1z"></path> </g> </g> <g> <g> <path class="st3" d="M188.7,178.1c-0.1,0-0.2,0-0.3-0.1c-0.1-0.1-0.2-0.2-0.2-0.4c0-0.1,0.1-0.3,0.2-0.4l1.4-1.4l0.1-1.1 c0-0.1,0-0.1-0.1-0.1s-0.1,0.1-0.1,0.1l-0.1,0.8c0,0.4-0.2,0.7-0.5,1l-1.4,1.5c-0.2,0.2-0.6,0.2-0.8,0c-0.2-0.2-0.2-0.5,0-0.8 l1.4-1.4l0.3-3.6l-0.5,0.5c-0.2,0.2-0.6,0.2-0.8,0l-0.8-0.7c-0.1-0.1-0.1-0.2-0.1-0.3c0-0.1,0.1-0.2,0.2-0.3 c0.2-0.1,0.4-0.1,0.5,0c0,0,0,0,0,0l0.6,0.5l1-1c0.2-0.2,0.4-0.3,0.7-0.3h1.3c0.3,0,0.5,0.1,0.6,0.3l0.8,1l0.6-0.5 c0.1-0.1,0.2-0.1,0.3-0.1c0.1,0,0.2,0.1,0.3,0.1c0.1,0.1,0.1,0.2,0.1,0.3c0,0.1-0.1,0.2-0.2,0.3l-0.9,0.7c-0.2,0.2-0.5,0.2-0.7,0 l-0.6-0.6l-0.2,3.4c0,0.4-0.2,0.7-0.5,1l-1.3,1.3C189,178.1,188.9,178.1,188.7,178.1z M189.7,174.4c0.2,0,0.3,0.1,0.3,0.3 l-0.1,1.2c0,0,0,0,0,0.1l-1.4,1.4c-0.1,0.1-0.1,0.2-0.1,0.3c0,0.1,0,0.2,0.1,0.2c0.1,0.1,0.3,0.1,0.5,0l1.3-1.3 c0.2-0.2,0.4-0.5,0.4-0.9l0.2-3.6c0,0,0-0.1,0.1-0.1c0,0,0.1,0,0.1,0l0.8,0.8c0.1,0.1,0.3,0.1,0.4,0l0.9-0.7 c0.1,0,0.1-0.1,0.1-0.2c0-0.1,0-0.1,0-0.2c0-0.1-0.1-0.1-0.2-0.1c-0.1,0-0.1,0-0.2,0.1l-0.7,0.6c0,0,0,0-0.1,0c0,0,0,0-0.1,0 l-0.9-1.1c-0.1-0.1-0.3-0.2-0.5-0.2h-1.3c-0.2,0-0.4,0.1-0.5,0.2l-1,1c0,0-0.1,0-0.1,0l-0.7-0.6c-0.1-0.1-0.2-0.1-0.3,0 c-0.1,0-0.1,0.1-0.1,0.2c0,0.1,0,0.1,0.1,0.2l0.8,0.7c0.1,0.1,0.4,0.1,0.5,0l0.7-0.6c0,0,0.1,0,0.1,0c0,0,0.1,0,0.1,0.1l-0.3,3.8 c0,0,0,0,0,0.1l-1.5,1.4c-0.1,0.1-0.2,0.4,0,0.5c0.1,0.1,0.4,0.1,0.5,0l1.4-1.5c0.2-0.2,0.4-0.5,0.4-0.9l0.1-0.8 C189.4,174.5,189.6,174.4,189.7,174.4z"></path> </g> <g> <path class="st3" d="M193.2,171.5C193.2,171.5,193.1,171.5,193.2,171.5l0.1-2.1c0.1-1.7-1.2-3.2-2.9-3.2c-1.7,0-3.3,1.4-3.4,3.2 l-0.1,2c0,0,0,0.1-0.1,0.1c0,0-0.1,0-0.1-0.1l0.1-2c0.1-1.8,1.7-3.3,3.6-3.3c1.8,0,3.2,1.5,3.1,3.3L193.2,171.5 C193.3,171.5,193.3,171.5,193.2,171.5z"></path> </g> <g> <path class="st3" d="M190,170.4c-0.3,0-0.5-0.1-0.7-0.3c-0.1-0.2-0.2-0.4-0.1-0.7c0-0.3,0.1-0.5,0.3-0.7c0.2-0.2,0.4-0.3,0.7-0.3 c0.3,0,0.5,0.1,0.7,0.3c0.2,0.2,0.2,0.4,0.2,0.7C190.9,169.8,190.6,170.3,190,170.4C190,170.4,190,170.4,190,170.4z M190.2,168.5 C190.2,168.5,190.1,168.5,190.2,168.5c-0.2,0-0.4,0.1-0.6,0.3c-0.1,0.2-0.2,0.4-0.2,0.6c0,0.3,0,0.5,0.1,0.6 c0.1,0.2,0.3,0.2,0.6,0.2c0.4,0,0.7-0.5,0.7-0.9l0.1,0l-0.1,0c0-0.2,0-0.4-0.1-0.6C190.6,168.5,190.4,168.5,190.2,168.5z"></path> </g> </g> <g> <path class="st2" d="M177.8,112.4h-10.6c-1.5,0-2.7-1.2-2.6-2.8l0.7-10.6c0.1-1.5,1.4-2.8,3-2.8H179c1.5,0,2.7,1.2,2.6,2.8 l-0.7,10.6C180.7,111.2,179.4,112.4,177.8,112.4z"></path> </g> <g> <path class="st5" d="M199.3,112.4h-10.6c-1.5,0-2.7-1.2-2.6-2.8l0.7-10.6c0.1-1.5,1.4-2.8,3-2.8h10.6c1.5,0,2.7,1.2,2.6,2.8 l-0.7,10.6C202.2,111.2,200.9,112.4,199.3,112.4z"></path> </g> <g> <g> <path class="st3" d="M176,103.4C176,103.4,176,103.4,176,103.4c-0.1-0.1-0.1-0.1,0-0.2l1.8-1.2c0,0,0.1,0,0.1,0c0,0,0,0.1,0,0.1 L176,103.4C176.1,103.4,176,103.4,176,103.4z"></path> </g> <g> <path class="st3" d="M176.8,109.8h-9.1c0,0-0.1,0-0.1-0.1s0-0.1,0.1-0.1h9.1c0.5,0,0.9-0.4,0.9-0.9l0,0c0.1-1.7-0.1-3.4-0.7-4.9 l-0.3-0.9c0,0,0-0.1,0.1-0.1c0,0,0.1,0,0.1,0l0.3,0.9c0.6,1.6,0.8,3.3,0.7,5l0,0C177.9,109.3,177.4,109.8,176.8,109.8z"></path> </g> <g> <path class="st3" d="M173.8,109c-0.3,0-0.6-0.3-0.6-0.6l0-2.1l-2-1.6c0,0-0.3-0.4,0.2-1.3c0.4-0.6,0.8-1.5,0.9-1.9l-0.8,0l-1,1.9 c-0.1,0.2-0.4,0.3-0.6,0.2c-0.1,0-0.2-0.1-0.2-0.3c0-0.1,0-0.2,0-0.4l0,0l1-2c0.1-0.3,0.4-0.5,0.7-0.5h1.9c0.3,0,0.5,0.1,0.6,0.3 c0.2,0.2,0.3,0.5,0.1,0.9c-0.3,0.7-1,2-1.2,2.3l1.3,1.1c0.2,0.2,0.3,0.4,0.3,0.7l0,2.3c0,0.2-0.1,0.4-0.2,0.5 C174.2,108.9,174,109,173.8,109z M171.4,104.5l2.1,1.6c0,0,0,0,0,0.1l0,2.2c0,0.2,0.2,0.4,0.4,0.4c0.1,0,0.3-0.1,0.4-0.1 c0.1-0.1,0.1-0.2,0.1-0.4l0-2.3c0-0.2-0.1-0.4-0.3-0.6l-1.4-1.2c0,0,0-0.1,0-0.1c0,0,0.8-1.6,1.2-2.4c0.1-0.3,0.1-0.5-0.1-0.7 c-0.1-0.1-0.3-0.2-0.5-0.2h-1.9c-0.2,0-0.5,0.1-0.6,0.4l-1,2c0,0.1,0,0.2,0,0.2c0,0.1,0.1,0.1,0.1,0.2c0.1,0.1,0.3,0,0.4-0.1l1-2 c0,0,0.1,0,0.1-0.1l1,0c0,0,0.1,0,0.1,0s0,0.1,0,0.1c0,0-0.5,1.2-1,2C171.2,104.2,171.3,104.5,171.4,104.5z"></path> </g> <g> <path class="st3" d="M170.4,107h-2c-0.3,0-0.6-0.3-0.5-0.6s0.3-0.6,0.6-0.6h1.9c0.5-1,0.5-1,0.6-1c0,0,0.1,0,0.1,0l0.7,0.7 c0,0,0,0.1,0,0.1l-0.4,0.7C171.1,106.8,170.8,107,170.4,107z M168.4,106c-0.2,0-0.4,0.2-0.4,0.4s0.2,0.4,0.4,0.4h2 c0.3,0,0.6-0.2,0.8-0.5l0.4-0.7l-0.6-0.6c-0.1,0.2-0.3,0.5-0.5,0.9c0,0-0.1,0.1-0.1,0.1H168.4z"></path> </g> <g> <path class="st3" d="M175.1,103.9h-1.5c0,0-0.1,0-0.1,0c0,0,0-0.1,0-0.1l0.3-0.8c0,0,0.1-0.1,0.1-0.1h1.2c0.3,0,0.5,0.2,0.4,0.5 C175.5,103.7,175.3,103.9,175.1,103.9z M173.7,103.7h1.3c0.2,0,0.3-0.1,0.3-0.3c0-0.2-0.1-0.3-0.3-0.3H174L173.7,103.7z"></path> </g> <g> <path class="st3" d="M173.7,100.6c-0.8,0-0.9-0.6-0.9-1.1c0-0.6,0.5-1.1,1-1.1c0.3,0,0.6,0.1,0.7,0.3c0.2,0.2,0.2,0.5,0.1,0.8 C174.6,100,174.3,100.6,173.7,100.6z M173.9,98.5c-0.4,0-0.8,0.4-0.8,0.9c0,0.6,0.1,0.9,0.7,0.9c0.4,0,0.7-0.5,0.8-1l0.1,0l-0.1,0 c0.1-0.3,0-0.5-0.1-0.6C174.3,98.6,174.1,98.5,173.9,98.5z"></path> </g> <g> <path class="st3" d="M172.3,108h-1.8c0,0-0.1,0-0.1-0.1c0,0,0-0.1,0.1-0.1h1.8C172.4,107.9,172.4,107.9,172.3,108 C172.4,108,172.4,108,172.3,108z"></path> </g> <g> <path class="st3" d="M171.8,108.5h-1.8c0,0-0.1,0-0.1-0.1s0-0.1,0.1-0.1h1.8C171.9,108.3,171.9,108.4,171.8,108.5 C171.9,108.5,171.9,108.5,171.8,108.5z"></path> </g> <g> <path class="st3" d="M176.9,110.4h-9.1c0,0-0.1,0-0.1-0.1s0-0.1,0.1-0.1h9.1C177,110.2,177,110.2,176.9,110.4 C177,110.3,177,110.4,176.9,110.4z"></path> </g> </g> <g> <g> <path class="st3" d="M193.4,110.4c-0.1,0-0.2,0-0.3-0.1c-0.1-0.1-0.2-0.2-0.2-0.4c0-0.1,0.1-0.3,0.2-0.4l1.4-1.4l0.1-1.1 c0-0.1,0-0.1-0.1-0.1c-0.1,0-0.1,0.1-0.1,0.1l-0.1,0.8c0,0.4-0.2,0.7-0.5,1l-1.4,1.5c-0.2,0.2-0.6,0.2-0.8,0 c-0.2-0.2-0.2-0.5,0-0.8l1.4-1.4l0.3-3.6l-0.5,0.5c-0.2,0.2-0.6,0.2-0.8,0l-0.8-0.7c-0.1-0.1-0.1-0.2-0.1-0.3 c0-0.1,0.1-0.2,0.2-0.3c0.2-0.1,0.4-0.1,0.5,0c0,0,0,0,0,0l0.6,0.5l1-1c0.2-0.2,0.4-0.3,0.7-0.3h1.3c0.3,0,0.5,0.1,0.6,0.3l0.8,1 l0.6-0.5c0.1-0.1,0.2-0.1,0.3-0.1c0.1,0,0.2,0.1,0.3,0.1c0.1,0.1,0.1,0.2,0.1,0.3c0,0.1-0.1,0.2-0.2,0.3l-0.9,0.7 c-0.2,0.2-0.5,0.2-0.7,0l-0.6-0.6l-0.2,3.4c0,0.4-0.2,0.7-0.5,1l-1.3,1.3C193.7,110.3,193.6,110.4,193.4,110.4z M194.4,106.7 c0.2,0,0.3,0.1,0.3,0.3l-0.1,1.2c0,0,0,0,0,0.1l-1.4,1.4c-0.1,0.1-0.1,0.2-0.1,0.3c0,0.1,0,0.2,0.1,0.2c0.1,0.1,0.3,0.1,0.5,0 l1.3-1.3c0.2-0.2,0.4-0.5,0.4-0.9l0.2-3.6c0,0,0-0.1,0.1-0.1c0,0,0.1,0,0.1,0l0.8,0.8c0.1,0.1,0.3,0.1,0.4,0l0.9-0.7 c0.1,0,0.1-0.1,0.1-0.2c0-0.1,0-0.1,0-0.2c0-0.1-0.1-0.1-0.2-0.1c-0.1,0-0.1,0-0.2,0.1l-0.7,0.6c0,0,0,0-0.1,0c0,0,0,0-0.1,0 l-0.9-1.1c-0.1-0.1-0.3-0.2-0.5-0.2H194c-0.2,0-0.4,0.1-0.5,0.2l-1,1c0,0-0.1,0-0.1,0l-0.7-0.6c-0.1-0.1-0.2-0.1-0.3,0 c-0.1,0-0.1,0.1-0.1,0.2c0,0.1,0,0.1,0.1,0.2l0.8,0.7c0.1,0.1,0.4,0.1,0.5,0l0.7-0.6c0,0,0.1,0,0.1,0c0,0,0.1,0,0.1,0.1l-0.3,3.8 c0,0,0,0,0,0.1l-1.5,1.4c-0.1,0.1-0.2,0.4,0,0.5c0.1,0.1,0.4,0.1,0.5,0l1.4-1.5c0.2-0.2,0.4-0.5,0.4-0.9l0.1-0.8 C194.1,106.8,194.3,106.7,194.4,106.7z"></path> </g> <g> <path class="st3" d="M197.9,103.8C197.9,103.8,197.8,103.7,197.9,103.8l0.1-2.1c0.1-1.7-1.2-3.2-2.9-3.2c-1.7,0-3.3,1.4-3.4,3.2 l-0.1,2c0,0,0,0.1-0.1,0.1s-0.1,0-0.1-0.1l0.1-2c0.1-1.8,1.7-3.3,3.6-3.3c1.8,0,3.2,1.5,3.1,3.3L197.9,103.8 C198,103.7,198,103.8,197.9,103.8z"></path> </g> <g> <path class="st3" d="M194.7,102.6c-0.3,0-0.5-0.1-0.7-0.3c-0.1-0.2-0.2-0.4-0.1-0.7c0-0.3,0.1-0.5,0.3-0.7 c0.2-0.2,0.4-0.3,0.7-0.3c0.3,0,0.5,0.1,0.7,0.3c0.2,0.2,0.2,0.4,0.2,0.7C195.6,102,195.3,102.6,194.7,102.6 C194.7,102.6,194.7,102.6,194.7,102.6z M194.9,100.7C194.9,100.7,194.8,100.7,194.9,100.7c-0.2,0-0.4,0.1-0.6,0.3 c-0.1,0.2-0.2,0.4-0.2,0.6c0,0.3,0,0.5,0.1,0.6c0.1,0.2,0.3,0.2,0.6,0.2c0.4,0,0.7-0.5,0.7-0.9l0.1,0l-0.1,0c0-0.2,0-0.4-0.1-0.6 C195.3,100.8,195.1,100.7,194.9,100.7z"></path> </g> </g> <g> <path class="st22" d="M258.4,98.7l-0.1,1.3l-4.5,64.6c-0.2,2.4-2.2,4.3-4.6,4.3h-27.6c-2.4,0-4.2-1.9-4-4.3l4.5-64.6l0.1-1.3 c0.2-2.4,2.2-4.3,4.6-4.3h7.2c0.5,0,0.8,0.3,0.9,0.8l0,0.2c0.1,1.1,1,2,2.1,2h6.8c1.2,0,2.2-0.9,2.4-2l0-0.2c0.1-0.5,0.5-0.8,1-0.8 h7.2C256.7,94.4,258.5,96.3,258.4,98.7z"></path> <path class="st22" d="M258.4,98.7l-0.1,1.3l-4.5,64.6c-0.2,2.4-2.2,4.3-4.6,4.3h-27.6c-2.4,0-4.2-1.9-4-4.3l4.5-64.6l0.1-1.3 c0.2-2.4,2.2-4.3,4.6-4.3h7.2c0.5,0,0.8,0.3,0.9,0.8l0,0.2c0.1,1.1,1,2,2.1,2h6.8c1.2,0,2.2-0.9,2.4-2l0-0.2c0.1-0.5,0.5-0.8,1-0.8 h7.2C256.7,94.4,258.5,96.3,258.4,98.7z"></path> <path class="st20" d="M258.4,98.7l-0.1,1.3l-4.5,64.6c-0.2,2.4-2.2,4.3-4.6,4.3h-27.6c-2.4,0-4.2-1.9-4-4.3l4.5-64.6l0.1-1.3 c0.2-2.4,2.2-4.3,4.6-4.3h7.2c0.5,0,0.8,0.3,0.9,0.8l0,0.2c0.1,1.1,1,2,2.1,2h6.8c1.2,0,2.2-0.9,2.4-2l0-0.2c0.1-0.5,0.5-0.8,1-0.8 h7.2C256.7,94.4,258.5,96.3,258.4,98.7z"></path> <g> <g> <polygon class="st3" points="225.2,97.4 225.8,97.4 225.8,96.8 225.2,96.8 "></polygon> <polygon class="st3" points="226.4,96.8 226.4,97.4 226.9,97.4 227,96.8 227,96.2 226.4,96.2 "></polygon> <polygon class="st3" points="227.7,95.7 227.6,96.2 227.6,96.8 227.5,97.4 228.1,97.4 228.1,96.8 228.2,96.2 228.2,95.7 "></polygon> </g> <path class="st3" d="M252.6,95.7l0,0.4h-0.3l-0.1,0.9h0.3l0,0.4h2.6l0.1-1.7H252.6z M253.6,97h-0.9l0.1-0.9h0.9L253.6,97z"></path> </g> <g> <g> <g> <g> <path class="st3" d="M254.2,100.3c0,0.3-0.3,0.5-0.6,0.5c-0.3,0-0.5-0.2-0.5-0.5c0-0.3,0.3-0.5,0.6-0.5 C254,99.8,254.3,100,254.2,100.3z"></path> </g> </g> <g> <g> <path class="st3" d="M254.1,101.5c0,0.3-0.3,0.5-0.6,0.5c-0.3,0-0.5-0.2-0.5-0.5c0-0.3,0.3-0.5,0.6-0.5 C254,101,254.2,101.3,254.1,101.5z"></path> </g> </g> <g> <g> <path class="st3" d="M254.1,102.8c0,0.3-0.3,0.5-0.6,0.5c-0.3,0-0.5-0.2-0.5-0.5c0-0.3,0.3-0.5,0.6-0.5 C253.9,102.3,254.1,102.5,254.1,102.8z"></path> </g> </g> </g> </g> <g> <g> <g> <path class="st3" d="M227.4,101.7h-2.6c-0.1,0-0.2-0.1-0.2-0.2c0-0.1,0.1-0.2,0.2-0.2h2.6c0.1,0,0.2,0.1,0.2,0.2 S227.5,101.7,227.4,101.7z"></path> </g> </g> <g> <g> <path class="st3" d="M225.3,102.8c-0.1,0-0.1,0-0.2-0.1l-1.1-1.2l1.3-1.2c0.1-0.1,0.2-0.1,0.3,0c0.1,0.1,0.1,0.2,0,0.3l-1,0.9 l0.8,0.9c0.1,0.1,0.1,0.2,0,0.3C225.4,102.8,225.4,102.8,225.3,102.8z"></path> </g> </g> </g> </g> <polygon class="st5" points="256.3,128.4 220,128.4 221.1,113.2 257.3,113.2 "></polygon> <g> <polygon class="st3" points="236.3,114.5 235.4,127 221.7,127 222.5,114.5 "></polygon> </g> <polygon class="st5" points="255.1,145.5 218.8,145.5 219.9,130.3 256.1,130.3 "></polygon> <g> <polygon class="st3" points="235.1,131.6 234.2,144.2 220.5,144.2 221.3,131.6 "></polygon> </g> <g> <g> <path class="st23" d="M226.6,134.4c0,0-0.7,0.3-1,0.2c-0.3-0.1-0.6-1.1-0.6-1.1l-0.2-0.3c0,0,0-0.1,0-0.1l0.2-0.2 c0,0,0.1-0.1,0.1-0.1l0,0c0.1,0,0.1,0.1,0.1,0.1l0,0.3c0,0,0.5,0.8,0.7,0.8c0.2,0,0.5-0.2,0.5-0.2L226.6,134.4z"></path> <path class="st23" d="M227.3,133.9c0,0.1-0.3,0.5-1.2,0.7l0-0.5C226.1,134,227.3,133.3,227.3,133.9z"></path> <g> <path class="st5" d="M225.3,132.8c0.1,0.1,0.2,0.1,0.3,0.1c0.1-0.1,0.1-0.2,0-0.3c-0.1-0.1-0.2-0.1-0.3-0.1 C225.2,132.6,225.2,132.7,225.3,132.8z"></path> <path class="st13" d="M225.3,132.8c-0.1-0.1-0.1-0.2,0-0.3c0.1,0,0.2,0,0.3,0.1c0.1,0.1,0.1,0.2,0.1,0.2 C225.5,133,225.4,132.9,225.3,132.8z"></path> <path class="st5" d="M224.7,133.3c0,0,0.2,0,0.4-0.2c0.2-0.1,0.3-0.3,0.3-0.3c0,0-0.2,0-0.4,0.2 C224.8,133.1,224.7,133.2,224.7,133.3z"></path> <path class="st13" d="M225,133.2c-0.1,0.1-0.2,0.1-0.2,0.1c0,0,0-0.1,0.1-0.2C224.9,133.1,224.9,133.1,225,133.2 C224.9,133.1,225,133.2,225,133.2z"></path> <path class="st5" d="M224.5,133.4c0.1,0.1,0.2,0.1,0.3,0.1s0.1-0.2,0-0.3c-0.1-0.1-0.2-0.1-0.3-0.1 C224.5,133.2,224.5,133.3,224.5,133.4z"></path> </g> <path class="st9" d="M227,134.2c-0.1,0.1-0.2,0.2-0.4,0.2c0-0.6,0.3-0.6,0.3-0.6l0.1,0L227,134.2z"></path> </g> <path class="st23" d="M227.6,138.8l-0.4,1c0,0,0,0.4-0.1,0.9c-0.1,0.5-0.7,3.1-0.7,3.1l-0.3,0c0,0,0.3-3.3,0.4-4.1 c0.1-0.7,0.2-1.2,0.2-1.2L227.6,138.8z"></path> <path class="st12" d="M226.7,138.6l0.9,0.2l-0.3,0.7l-0.8-0.1C226.6,138.9,226.7,138.6,226.7,138.6z"></path> <path class="st23" d="M228.1,138c0,0,0.1,1.3,0.1,2c0.1,0.8,0.8,2.2,1.4,3.8l0.3-0.1c0,0-0.6-3.5-1-3.8l0-2L228.1,138z"></path> <path class="st12" d="M229.1,138.6l0.1,0.7l-0.8,0.1c-0.1-0.4-0.1-0.6-0.1-0.6L229.1,138.6z"></path> <path class="st10" d="M228.3,137.7c0,0-0.3,0.2-0.4,0.4c-0.1,0.2-0.8,3.6-1,4.5c0,0.1-0.2,0.2-0.3,0.2l-0.4-0.1 c-0.1,0-0.2-0.1-0.2-0.3c0.1-0.9,0.7-4.4,0.8-5c0.1-0.7,0.3-1.1,0.2-1.2l1.7-0.1C228.8,136.2,229,137.4,228.3,137.7z"></path> <path class="st12" d="M228,137l0.2,0.7c0,0-0.3,0.2-0.4,0.4c0,0-0.1,0.2-0.1,0.3c-0.1-0.7,0-1.5,0-1.5L228,137z"></path> <path class="st10" d="M227.9,136.4c0,0-0.3,0.6,0,1.8c0.1,0.2,0,0.6,0.3,1.7c0.2,0.7,0.7,2.1,0.8,2.5c0,0.2,0.2,0.3,0.4,0.2 l0.3-0.1c0.2,0,0.3-0.2,0.3-0.4l-0.7-2.4l-0.1-1.8c0,0,0.2-1.2-0.2-1.7L227.9,136.4z"></path> <path class="st5" d="M226.1,143.8l0.3,0c0,0,0,0,0,0l0.1,0.3c0,0,0,0.1,0,0.1c0,0,0,0,0,0c-0.1,0-0.3,0-0.4,0c-0.2,0-0.2,0-0.4,0 c-0.1,0-0.2-0.2-0.1-0.2C225.9,144,225.9,143.9,226.1,143.8C226,143.8,226.1,143.8,226.1,143.8z"></path> <path class="st5" d="M229.7,143.7l0.3-0.1c0,0,0,0,0,0l0.2,0.3c0,0,0,0.1,0,0.1c0,0,0,0,0,0c-0.1,0-0.3,0.1-0.4,0.1 c-0.2,0.1-0.1,0.1-0.4,0.1c-0.1,0-0.2-0.1-0.1-0.1C229.5,143.9,229.5,143.8,229.7,143.7C229.6,143.7,229.6,143.7,229.7,143.7z"></path> <path class="st5" d="M229,136.3c0,0-0.4,0-1.9,0.1c0,0-0.1-0.4-0.1-1.1c-0.1-0.8-0.2-1.5,0-1.7c0.2-0.2,1.2-0.2,1.7-0.2 c0.1,0,0.3,0.1,0.3,0.3L229,136.3z"></path> <path class="st23" d="M227.6,134.1c0,0-0.3-0.4-0.2-0.6c0.2,0,0.5,0,0.7,0C228.1,133.6,228.1,133.8,227.6,134.1z"></path> <path class="st23" d="M227.6,134l-0.2-0.3c0.2-0.1,0.1-0.2,0.1-0.4l0.4-0.5c0,0.2,0,0.6,0.2,0.7c0,0,0,0,0,0.1L227.6,134z"></path> <path class="st9" d="M227.6,133.4c0,0,0-0.1,0-0.1l0.2-0.3c0,0,0.1,0,0.1,0c0,0,0,0,0,0C227.9,133.2,227.7,133.3,227.6,133.4z"></path> <path class="st23" d="M228.1,132.4c0,0.4,0,0.5-0.2,0.7c-0.3,0.3-0.7,0.2-0.8-0.1c-0.1-0.3-0.1-0.9,0.3-1.1c0.3-0.1,0.6,0,0.7,0.2 C228.1,132.2,228.1,132.3,228.1,132.4z"></path> <path class="st23" d="M228.2,132.6c0,0.1-0.1,0.1-0.1,0.2c-0.1,0-0.1,0-0.1-0.1c0-0.1,0.1-0.2,0.2-0.2 C228.2,132.5,228.2,132.5,228.2,132.6C228.2,132.6,228.2,132.6,228.2,132.6z"></path> <path class="st10" d="M228.2,132"></path> <path class="st9" d="M228.9,134l0,0.6c-0.3-0.2-0.3-0.6-0.3-0.6l0.1,0L228.9,134z"></path> <g> <path class="st23" d="M229,134.2c0,0,0.8,0.1,1.1-0.1c0.3-0.2,0.5-1.2,0.5-1.2l0.2-0.4c0-0.1,0-0.1,0-0.2l-0.1-0.1 c0,0-0.1,0-0.1,0l-0.1,0c-0.1,0-0.1,0.1-0.1,0.2l0,0.4c0,0-0.3,0.8-0.5,0.8c-0.2,0-0.2,0-0.7,0L229,134.2z"></path> <path class="st23" d="M228.4,133.8c0.1,0.2,0.1,0.4,1,0.4l0.3-0.5C229.8,133.6,228.2,133.2,228.4,133.8z"></path> </g> <g> <path class="st5" d="M230.4,132.3c-0.1,0.1-0.2,0.2-0.3,0.1c-0.1,0-0.1-0.2,0-0.3c0.1-0.1,0.2-0.2,0.3-0.1 C230.4,132,230.4,132.2,230.4,132.3z"></path> <path class="st13" d="M230.4,132.3c0.1-0.1,0.1-0.2,0-0.3c-0.1,0-0.2,0.1-0.2,0.2c-0.1,0.1-0.1,0.2,0,0.3 C230.2,132.5,230.3,132.4,230.4,132.3z"></path> <path class="st5" d="M231,132.6c0,0.1-0.2,0-0.4-0.1c-0.2-0.1-0.3-0.2-0.3-0.3c0-0.1,0.2,0,0.4,0.1 C230.9,132.4,231,132.6,231,132.6z"></path> <path class="st13" d="M230.8,132.6c0.1,0,0.2,0,0.2,0c0,0,0-0.1-0.1-0.2c0,0,0,0-0.1,0.1C230.8,132.5,230.8,132.6,230.8,132.6z"></path> <path class="st5" d="M231.2,132.7c-0.1,0.1-0.2,0.2-0.3,0.1c-0.1,0-0.1-0.2,0-0.3c0.1-0.1,0.2-0.2,0.3-0.1 C231.3,132.4,231.3,132.6,231.2,132.7z"></path> </g> </g> <polygon class="st5" points="253.9,162.7 217.6,162.7 218.7,147.5 254.9,147.5 "></polygon> <g> <polygon class="st3" points="233.9,148.9 233,161.4 219.3,161.4 220.1,148.9 "></polygon> </g> <g> <g> <g> <g> <g> <g> <g> <g> <g> <g> <path class="st23" d="M229.3,118c-0.5,0-1.3,0.3-1.3,0.4l-0.8,1l-0.3,0.1c0,0,0.6-1.3,0.7-1.5c0.1-0.1,1-0.4,1.5-0.6 c0.2-0.1,0.4,0.1,0.4,0.2C229.6,117.6,229.7,117.9,229.3,118z"></path> </g> <path class="st23" d="M227.1,119.4l0,0.2c0,0.1,0,0.1-0.1,0.2l-0.2,0.2c0,0-0.1,0-0.1,0l-0.1-0.1c0,0,0-0.1,0-0.1l0.2-0.2 l0.2-0.2C227,119.3,227.2,119.3,227.1,119.4z"></path> </g> </g> </g> </g> <g> <g> <g> <path class="st23" d="M225.9,125l-1.1,0.4c0,0-0.2-0.4-0.2-0.4l1-0.4L225.9,125z"></path> <g> <path class="st5" d="M224.8,125.5C224.8,125.5,224.8,125.5,224.8,125.5C224.8,125.5,224.8,125.5,224.8,125.5 c0,0,0.2,0.1,0.2,0.2c0,0,0,0,0,0c0,0,0,0,0,0c0,0-0.1-0.1-0.1-0.1C224.8,125.6,224.8,125.5,224.8,125.5z M225,125.7 c0-0.1-0.1-0.1-0.1-0.1C224.9,125.6,224.9,125.7,225,125.7C224.9,125.7,225,125.7,225,125.7C225,125.7,225,125.7,225,125.7 C225,125.7,225,125.7,225,125.7L225,125.7z"></path> <path class="st5" d="M224.8,125.5C224.8,125.5,224.8,125.5,224.8,125.5c0,0,0.1-0.1,0.2,0c0,0,0,0,0,0.1c0,0,0,0,0,0.1 C225,125.6,224.8,125.5,224.8,125.5C224.8,125.5,224.8,125.5,224.8,125.5L224.8,125.5z M225,125.5c-0.1,0-0.1,0-0.2,0 C224.9,125.5,225,125.6,225,125.5C225,125.5,225,125.5,225,125.5L225,125.5C225,125.5,225,125.5,225,125.5z"></path> <path class="st5" d="M224.9,125.4L224.9,125.4c-0.1-0.1-0.2-0.2-0.2-0.3l0-0.1c0,0,0,0,0,0l-0.4,0.1c0,0-0.1,0.1-0.1,0.1 c0.1,0.3,0.3,0.9,0.3,1c0.1,0.2,0.3,0.1,0.3,0C224.7,125.8,224.8,125.6,224.9,125.4C224.9,125.4,224.9,125.4,224.9,125.4z"></path> </g> <g class="st13"> <path d="M225.2,124.7l0.3-0.2l0.3,0.4l-0.5,0.2l-0.1-0.1c0-0.1-0.1-0.1-0.1-0.2L225.2,124.7z"></path> </g> </g> <g> <path class="st10" d="M227.4,120.8c0,0.1-0.1,0.1-0.1,0.2c-0.1,0.4-0.3,2-0.5,2.5c0,0.1-0.1,0.2-0.2,0.3 c-0.3,0.1-0.5,0.2-1.3,0.8c0.1,0.2,0.1,0.3,0.2,0.5c0,0,1.4-0.5,1.7-0.8c0.5-0.4,1.2-2.4,1.4-2.9c0.1-0.3,0.2-0.6,0.1-0.9 C228.7,120.4,227.8,120,227.4,120.8z"></path> </g> <g> <g> <path class="st5" d="M229.4,117.5c0.1,0.1,0.1,0.2,0.1,0.5c-0.1,0.7-0.1,1.7-0.2,1.9c-0.1,0.2-1.4,0.3-1.7,0.1l-0.4-2 c0-0.3,0.2-0.6,0.4-0.6C227.9,117.3,229.2,117.1,229.4,117.5z"></path> </g> </g> <path class="st10" d="M229.3,119.9L229.3,119.9c0,0.2,0,0.5,0,0.7c-0.1,0.4,0,0.8,0.2,1.1v0c0,0-1.8-0.3-2.2-0.7l0.3-1 C227.7,119.9,228.4,120,229.3,119.9z"></path> <g> <path class="st10" d="M228.3,116.8C228.3,116.8,228.3,116.8,228.3,116.8C228.3,116.8,228.3,116.8,228.3,116.8 c-0.1-0.1-0.1-0.3-0.2-0.5c0,0,0-0.1,0-0.2c0-0.1,0-0.2,0-0.2c0,0,0-0.1,0.1-0.1c0,0.2,0,0.4,0,0.5 C228.3,116.5,228.3,116.6,228.3,116.8z"></path> <g> <path class="st23" d="M228.4,116.6c0,0.2,0,0.5-0.1,0.6c0,0.1-0.1,0.1,0,0.2c0.1,0.1,0.2,0.2,0.5,0.4 c0.1-0.1,0.1-0.2,0.2-0.3c0-0.1,0-0.2-0.1-0.2c-0.2-0.1-0.1-0.2-0.1-0.3L228.4,116.6z"></path> <path class="st9" d="M228.5,116.7l0.2,0.2c0,0,0,0.1,0,0.1c-0.1,0-0.2-0.1-0.2-0.2C228.5,116.8,228.5,116.8,228.5,116.7z"></path> <path class="st23" d="M229.2,116.6c0,0.3-0.3,0.4-0.5,0.4h0c-0.1,0-0.2,0-0.2-0.1c0,0-0.1,0-0.1-0.1c0,0,0,0,0,0 c0,0-0.1-0.1-0.1-0.1c0,0,0,0,0,0c-0.1-0.1-0.1-0.2-0.1-0.4c0,0,0-0.1,0-0.2c0-0.1,0-0.2,0-0.2c0,0,0-0.1,0.1-0.1 c0,0,0,0,0,0c0.1-0.2,0.4-0.3,0.6-0.2c0.2,0,0.3,0.2,0.3,0.4c0,0,0,0,0,0.1C229.2,116.2,229.2,116.4,229.2,116.6z"></path> </g> </g> <path class="st23" d="M228.1,116.5c0,0.1,0.1,0.1,0.1,0.1c0.1,0,0.1-0.1,0.1-0.1c0-0.1-0.1-0.2-0.2-0.2 C228.1,116.3,228,116.4,228.1,116.5C228,116.4,228,116.5,228.1,116.5z"></path> <g> <path class="st23" d="M231.6,125.5l0,1.2c0,0-0.4,0.2-0.4,0.1c0-0.3-0.1-1-0.1-1L231.6,125.5z"></path> <g> <path class="st5" d="M231.7,126.7C231.7,126.7,231.7,126.7,231.7,126.7C231.7,126.6,231.7,126.6,231.7,126.7 c0,0,0.2-0.1,0.2-0.1c0,0,0,0,0,0c0,0,0,0,0,0c0,0-0.1,0-0.1,0.1C231.9,126.7,231.8,126.7,231.7,126.7z M232,126.5 c-0.1,0-0.1,0.1-0.2,0.1C231.9,126.6,232,126.6,232,126.5C232,126.6,232,126.6,232,126.5C232,126.5,232,126.5,232,126.5 C232,126.5,232,126.5,232,126.5L232,126.5z"></path> <path class="st5" d="M231.7,126.7C231.7,126.7,231.7,126.7,231.7,126.7c0,0,0-0.1,0.1-0.2c0,0,0,0,0.1,0c0,0,0,0,0,0 C231.9,126.5,231.8,126.6,231.7,126.7C231.8,126.7,231.8,126.7,231.7,126.7L231.7,126.7z M231.8,126.5c0,0-0.1,0.1-0.1,0.2 C231.8,126.6,231.9,126.5,231.8,126.5C231.9,126.5,231.9,126.4,231.8,126.5L231.8,126.5 C231.8,126.4,231.8,126.5,231.8,126.5z"></path> <path class="st5" d="M231.7,126.6l-0.5,0.1c0,0,0,0,0,0l-0.1,0.4c0,0,0.1,0.1,0.1,0.1c0.3,0,0.9-0.1,1.1-0.1 c0.2,0,0.2-0.2,0.1-0.2C232,126.8,231.9,126.7,231.7,126.6C231.7,126.6,231.7,126.6,231.7,126.6z"></path> </g> <g class="st13"> <polygon points="231.2,126.1 231.1,125.7 231.6,125.5 231.6,126 "></polygon> </g> </g> <path class="st10" d="M228.5,121.2c0.2,0.4,1.3,1.4,1.9,2.3c0.1,0.2,0.4,1.9,0.7,2.3l0.6-0.1c0.2-0.4-0.1-2.5-0.1-2.5 c-0.1-0.9-1.1-2-2.1-3c-0.2-0.2-0.5-0.2-0.8-0.1C228.6,120.2,228.3,120.8,228.5,121.2z"></path> </g> </g> </g> <g> <g> <g> <g> <g> <path class="st23" d="M227.4,117.6c0.1-0.2,0.4-0.2,0.5-0.1c0.4,0.5,0.8,1,0.8,1l1.2-0.3l0.2,0.2c0,0-1.3,0.6-1.5,0.6 c-0.3,0-0.9-0.6-1.2-1C227.3,117.8,227.4,117.6,227.4,117.6z"></path> </g> <path class="st23" d="M230,118.3l0.2-0.1c0.1,0,0.1,0,0.2,0l0.2,0.1c0,0,0,0,0,0.1l0,0.2c0,0,0,0.1-0.1,0l-0.3,0l-0.3,0 C230,118.5,229.9,118.3,230,118.3z"></path> </g> </g> </g> </g> </g> </g> </g> </g> <g> <g> <g> <path class="st24" d="M229.8,153.1l0.4,0c0.1,0,0.2,0,0.2,0.1l0.1,0.1c0.1,0.1,0.1,0.2,0,0.2l0,0c-0.1,0.1-0.1,0.1-0.2,0.1 l-0.2-0.1l-0.3,0L229.8,153.1z"></path> </g> </g> <g> <path class="st24" d="M229.9,153.3c-0.1,0.1-0.1,0.1-0.1,0.1l0,0l-0.1,0l-0.2-0.1c-0.1,0-0.2-0.1-0.3-0.2 c-0.1-0.1-0.2-0.1-0.3-0.2c-0.1-0.1-0.2-0.1-0.3-0.2l0,0c0,0,0,0,0-0.1l-1-1.4c-0.1-0.1-0.1-0.4,0.1-0.5c0.2-0.1,0.4-0.1,0.5,0.1 c0,0,0,0,0,0l0.8,1.5l-0.1-0.1c0.1,0,0.2,0.1,0.3,0.2c0.1,0.1,0.2,0.1,0.3,0.2c0.1,0.1,0.2,0.1,0.3,0.2l0.1,0.1l0.1,0.1l0,0 C230,153.1,230,153.1,229.9,153.3C229.9,153.3,229.9,153.3,229.9,153.3z"></path> </g> <g> <path class="st5" d="M227.7,150.7c-0.5-0.1-1-0.1-1.5-0.1c-0.3,0-0.2,0.3-0.1,0.9c0.2,0.9,0.3,1.8,0.3,1.8l1.6,0 c0,0,0.3-1.8,0.1-2.3C228.1,150.8,227.9,150.7,227.7,150.7z"></path> </g> <g> <path class="st24" d="M227.4,151.1c-0.5,0-0.8-0.3-0.8-0.5c0.2,0,0.2-0.1,0.3-0.3c0,0,0,0,0,0c0-0.1,0-0.1,0-0.2l0.4,0.3 c0,0,0,0,0,0c0,0.1,0,0.1,0,0.2c0,0,0,0,0,0c0.1,0.1,0.2,0.1,0.3,0.1C227.6,150.8,227.7,151,227.4,151.1z"></path> </g> <g> <path class="st24" d="M226.8,149.5c0,0.4,0,0.6,0.2,0.7c0.4,0.3,0.6,0.1,0.8-0.2c0.1-0.3,0.1-0.8-0.2-1c-0.2-0.1-0.5,0-0.7,0.3 C226.8,149.4,226.8,149.5,226.8,149.5z"></path> </g> <g> <path class="st24" d="M226.6,149.9c0,0.1,0.1,0.1,0.2,0.2c0.1,0,0.1-0.1,0.1-0.2c0-0.1-0.1-0.2-0.2-0.2 C226.6,149.6,226.6,149.8,226.6,149.9z"></path> </g> <g> <g> <path class="st24" d="M224,152.9l-0.5,0.1c-0.1,0-0.2,0-0.2,0.1l-0.1,0.1c-0.1,0.1-0.1,0.2,0,0.2l0,0c0,0.1,0.1,0.1,0.2,0.1 l0.3,0l0.6-0.3L224,152.9z"></path> </g> </g> <g> <g> <polygon class="st24" points="227.4,159.7 226.8,159.6 226.7,160.6 227.1,160.6 "></polygon> </g> <g class="st9"> <polygon points="227.4,159.7 226.8,159.6 226.8,160 227.3,160 "></polygon> </g> <g> <path class="st10" d="M228,157.7c-0.1,0.4-0.5,2.1-0.5,2.1l-0.1,0l0,0l-0.5,0h-0.1c0,0,0-1.4,0.4-2.1c0,0-0.1-0.8-0.1-1.8l0,0 c0-0.6,0-1.1,0-1.2c0-0.4,0-0.8,0-0.9c0-0.1,0.1-0.2,0.2-0.2l0.8-0.1c0,0,0.1,0.2,0.1,0.9C228.1,155.5,228.1,157.2,228,157.7z"></path> </g> <g class="st9"> <path d="M227,156.1C227,156.1,227,156.1,227,156.1L227,156.1c0-0.6,0-1.1,0-1.3c0-0.4,0-0.8,0-0.9l0.1,0.2c0,0,0,0,0,0 C227.1,154.3,227.2,155.2,227,156.1z"></path> </g> <g> <g> <path class="st5" d="M227.4,160.6c0,0-0.1,0-0.1,0c0,0,0,0-0.1,0c0,0,0,0,0,0c0,0,0,0,0,0c0,0,0,0,0,0c0,0,0,0,0.1,0 c0,0,0,0,0,0C227.3,160.7,227.4,160.7,227.4,160.6C227.4,160.7,227.4,160.6,227.4,160.6C227.4,160.6,227.4,160.6,227.4,160.6z M227.4,160.6c0,0-0.1,0-0.2,0c0,0,0,0,0,0c0,0,0,0,0,0C227.3,160.6,227.3,160.6,227.4,160.6 C227.4,160.6,227.4,160.6,227.4,160.6C227.4,160.6,227.4,160.6,227.4,160.6C227.4,160.6,227.4,160.6,227.4,160.6z"></path> </g> <g> <path class="st5" d="M227.3,160.5C227.3,160.5,227.3,160.5,227.3,160.5c-0.1,0-0.1,0-0.2,0.1c0,0,0,0,0,0c0,0,0,0,0,0 c0,0,0,0,0,0c0,0,0,0,0,0c0,0,0,0,0,0c0,0,0,0,0.1,0C227.2,160.6,227.2,160.6,227.3,160.5C227.3,160.6,227.4,160.5,227.3,160.5 C227.4,160.5,227.4,160.5,227.3,160.5z M227.3,160.5c0,0-0.1,0-0.1,0.1c0,0,0,0,0,0c0,0,0,0,0,0 C227.2,160.5,227.3,160.5,227.3,160.5C227.3,160.5,227.3,160.5,227.3,160.5L227.3,160.5C227.3,160.5,227.3,160.5,227.3,160.5z"></path> </g> <g> <path class="st5" d="M227.1,160.5l-0.4-0.2c0,0,0,0,0,0l-0.3,0.3c0,0,0,0.1,0,0.1c0,0,0,0,0,0c0.1,0.1,0.3,0.1,0.4,0.2 c0.2,0.1,0.1,0.1,0.4,0.2c0.1,0.1,0.3-0.1,0.2-0.1C227.2,160.8,227.3,160.7,227.1,160.5C227.2,160.6,227.2,160.5,227.1,160.5z"></path> </g> </g> </g> <g> <g> <polygon class="st24" points="225.3,159.6 224.8,159.4 224.6,160.1 224.8,160.6 "></polygon> </g> <g class="st9"> <polygon points="225.3,159.6 224.8,159.4 224.7,159.8 225.1,160 "></polygon> </g> <g> <path class="st10" d="M227.5,153.7c0,0-0.9,3.8-1.1,4.2c-0.2,0.6-1.1,2-1.1,2l-0.1,0l-0.5-0.1h0c0,0,0.4-1.5,0.8-1.9 c0-0.9,0.2-3.3,0.8-4.1L227.5,153.7z"></path> </g> <g> <g> <path class="st5" d="M225.2,160.5c0,0-0.1-0.1-0.1-0.1c0,0,0,0-0.1,0c0,0,0,0,0,0c0,0,0,0,0,0c0,0,0,0,0,0c0,0,0,0,0,0 c0,0,0,0,0.1,0.1c0,0,0,0,0,0C225.1,160.6,225.1,160.6,225.2,160.5C225.1,160.6,225.2,160.6,225.2,160.5 C225.2,160.6,225.2,160.6,225.2,160.5z M225.1,160.6c0,0-0.1,0-0.1-0.1c0,0,0,0,0,0c0,0,0,0,0,0 C225,160.5,225.1,160.5,225.1,160.6C225.1,160.6,225.1,160.6,225.1,160.6C225.1,160.6,225.1,160.6,225.1,160.6 C225.1,160.6,225.1,160.6,225.1,160.6z"></path> </g> <g> <path class="st5" d="M225.1,160.4C225.1,160.4,225.1,160.4,225.1,160.4c-0.1,0-0.2,0-0.2,0c0,0,0,0,0,0c0,0,0,0,0,0c0,0,0,0,0,0 c0,0,0,0,0,0c0,0,0,0,0,0c0,0,0,0,0,0c0,0,0,0,0.1,0c0,0,0,0,0.1,0C225.1,160.5,225.1,160.5,225.1,160.4 C225.2,160.4,225.2,160.4,225.1,160.4z M225.1,160.4c0,0-0.1,0-0.2,0c0,0,0,0,0,0c0,0,0,0,0,0C225,160.4,225,160.4,225.1,160.4 C225.1,160.4,225.1,160.4,225.1,160.4L225.1,160.4C225.1,160.4,225.1,160.4,225.1,160.4z"></path> </g> <g> <path class="st5" d="M224.9,160.4l-0.4-0.3c0,0,0,0,0,0l-0.3,0.3c0,0,0,0.1,0,0.1c0,0,0,0,0,0c0.1,0.1,0.3,0.2,0.4,0.3 c0.2,0.2,0.1,0.1,0.3,0.3c0.1,0.1,0.3,0,0.2-0.1C225,160.8,225,160.7,224.9,160.4C225,160.5,225,160.4,224.9,160.4z"></path> </g> </g> </g> <g> <g> <g> <path class="st10" d="M223.3,153.4l-0.2,0.1c0,0,0,0,0,0c-0.1,0-0.1,0-0.1-0.1c0-0.1,0-0.1,0.1-0.2l0.2-0.1 C223.3,153.3,223.3,153.3,223.3,153.4z"></path> </g> <g> <path class="st10" d="M223,153.5L223,153.5c0-0.1,0-0.1,0-0.1l-0.2,0c0,0,0,0,0,0l0,0.1c0,0,0,0,0,0L223,153.5 C223,153.5,223,153.5,223,153.5z"></path> </g> </g> <g> <g> <g> <path class="st10" d="M230.3,153.4l0.2,0.1c0,0,0,0,0,0c0.1,0,0.1,0,0.1-0.1c0-0.1,0-0.1-0.1-0.2l-0.2-0.1 C230.3,153.2,230.2,153.3,230.3,153.4z"></path> <path class="st10" d="M230.5,153.5C230.5,153.5,230.4,153.5,230.5,153.5l-0.2-0.1l0,0c0-0.1,0-0.2,0.1-0.3l0,0l0.2,0.1 c0.1,0,0.1,0.1,0.1,0.2C230.6,153.5,230.5,153.5,230.5,153.5z M230.3,153.4l0.2,0.1c0.1,0,0.1,0,0.1-0.1c0-0.1,0-0.1-0.1-0.1 l-0.2-0.1C230.3,153.3,230.3,153.3,230.3,153.4z"></path> </g> <g> <path class="st10" d="M230.5,153.4L230.5,153.4c0-0.1,0.1-0.1,0.1-0.1l0.2,0c0,0,0,0,0,0l-0.1,0.1c0,0,0,0,0,0L230.5,153.4 C230.5,153.5,230.5,153.5,230.5,153.4z"></path> <path class="st10" d="M230.7,153.6C230.7,153.6,230.7,153.6,230.7,153.6l-0.2-0.1c0,0,0,0,0-0.1l0-0.1c0,0,0,0,0,0l0.2,0 c0,0,0,0,0,0c0,0,0,0,0,0.1L230.7,153.6C230.8,153.6,230.8,153.6,230.7,153.6C230.7,153.6,230.7,153.6,230.7,153.6z M230.6,153.5l0.2,0.1c0,0,0,0,0,0l0.1-0.1c0,0,0,0,0,0l-0.2,0c0,0,0,0,0,0L230.6,153.5C230.6,153.5,230.6,153.5,230.6,153.5z"></path> </g> </g> <g> <g> <path class="st10" d="M226.6,161.4h-0.5c-1,0-1.7-0.4-2.3-1.1c-0.9-1.1-1.2-2.9-1.2-4.3c0-1.4,0.1-2.6,0.1-2.6c0,0,0,0,0,0 c0,0,0,0,0,0c0,0-0.7,4.8,1.1,6.9c0.6,0.7,1.3,1,2.3,1.1L226.6,161.4c0.9,0,1.7-0.4,2.3-1c2-2.1,1.9-6.9,1.9-7c0,0,0,0,0,0 c0,0,0,0,0,0c0,0,0,1.2-0.2,2.7c-0.2,1.4-0.7,3.2-1.7,4.3C228.3,161.1,227.5,161.4,226.6,161.4z"></path> </g> </g> </g> </g> <g> <path class="st24" d="M224,153.1c-0.1-0.1,0-0.2,0-0.2l0,0l0.1-0.1l0.1-0.1c0.1-0.1,0.2-0.1,0.3-0.2c0.1-0.1,0.2-0.1,0.3-0.2 c0.1-0.1,0.2-0.1,0.3-0.2l-0.1,0.1l0.7-1.5c0.1-0.2,0.3-0.3,0.4-0.2c0.2,0.1,0.2,0.3,0.2,0.4c0,0,0,0,0,0l-0.9,1.4 c0,0,0,0.1-0.1,0.1l0,0c-0.1,0.1-0.2,0.1-0.3,0.2c-0.1,0.1-0.2,0.1-0.3,0.2c-0.1,0.1-0.2,0.1-0.3,0.2l-0.2,0.1l-0.1,0l0,0 C224.1,153.2,224.1,153.2,224,153.1C224,153.1,224,153.1,224,153.1z"></path> </g> <g> <polygon class="st10" points="228.1,154.3 227.1,155 226.1,154.1 226.4,153.3 228,153.3 "></polygon> </g> </g> <g> <g> <path class="st3" d="M245.7,121.8l0,0.7h-0.3l0-0.7c0-0.2-0.1-0.3-0.3-0.3c-0.2,0-0.3,0.1-0.3,0.4l0,0.6h-0.3l0-0.7 c0-0.2-0.1-0.3-0.3-0.3c-0.2,0-0.3,0.1-0.3,0.4l0,0.6h-0.3l0.1-1.2h0.3l0,0.2c0.1-0.1,0.2-0.2,0.4-0.2c0.2,0,0.3,0.1,0.4,0.2 c0.1-0.1,0.3-0.2,0.5-0.2C245.5,121.3,245.7,121.4,245.7,121.8z"></path> <path class="st3" d="M246.1,121.3h0.3l-0.1,1.2H246L246.1,121.3z M246.1,120.9c0-0.1,0.1-0.2,0.2-0.2c0.1,0,0.2,0.1,0.2,0.2 c0,0.1-0.1,0.2-0.2,0.2C246.2,121.1,246.1,121,246.1,120.9z"></path> <path class="st3" d="M247.9,121.8l0,0.7h-0.3l0-0.7c0-0.2-0.1-0.3-0.3-0.3c-0.2,0-0.3,0.1-0.4,0.4l0,0.6h-0.3l0.1-1.2h0.3l0,0.2 c0.1-0.1,0.3-0.2,0.4-0.2C247.8,121.3,248,121.4,247.9,121.8z"></path> <path class="st3" d="M249.5,121.3l-0.1,1.2h-0.3l0-0.2c-0.1,0.1-0.2,0.2-0.4,0.2c-0.3,0-0.5-0.2-0.5-0.5l0-0.7h0.3l0,0.7 c0,0.2,0.1,0.3,0.3,0.3c0.2,0,0.3-0.1,0.4-0.4l0-0.6H249.5z"></path> <path class="st3" d="M250.5,122.4c-0.1,0.1-0.2,0.1-0.3,0.1c-0.3,0-0.4-0.1-0.4-0.4l0-0.6h-0.2l0-0.2h0.2l0-0.3h0.3l0,0.3h0.3 l0,0.2h-0.3l0,0.6c0,0.1,0,0.2,0.2,0.2c0.1,0,0.1,0,0.2-0.1L250.5,122.4z"></path> <path class="st3" d="M251.9,122h-1c0,0.2,0.2,0.3,0.4,0.3c0.1,0,0.2,0,0.3-0.1l0.1,0.2c-0.1,0.1-0.3,0.2-0.5,0.2 c-0.4,0-0.7-0.3-0.6-0.6c0-0.4,0.3-0.6,0.7-0.6C251.7,121.3,251.9,121.5,251.9,122C251.9,121.9,251.9,122,251.9,122z M251,121.8 h0.7c0-0.2-0.1-0.3-0.3-0.3C251.1,121.5,251,121.6,251,121.8z"></path> <path class="st3" d="M252,122.4l0.1-0.2c0.1,0.1,0.3,0.1,0.4,0.1c0.2,0,0.3-0.1,0.3-0.1c0-0.2-0.8,0-0.7-0.5 c0-0.2,0.2-0.4,0.6-0.4c0.2,0,0.3,0,0.4,0.1l-0.1,0.2c-0.1-0.1-0.2-0.1-0.3-0.1c-0.2,0-0.3,0.1-0.3,0.1c0,0.2,0.8,0,0.7,0.5 c0,0.2-0.2,0.4-0.6,0.4C252.3,122.5,252.1,122.5,252,122.4z"></path> </g> <g> <g> <g> <path class="st3" d="M240.3,120.6l-0.1,1.6h-0.3l0.1-1.3h-0.3l0-0.2H240.3z"></path> <path class="st3" d="M240.6,121.4c0-0.5,0.3-0.8,0.7-0.8c0.4,0,0.6,0.3,0.6,0.8c0,0.5-0.3,0.8-0.7,0.8 C240.8,122.2,240.6,121.9,240.6,121.4z M241.6,121.4c0-0.4-0.1-0.6-0.3-0.6c-0.2,0-0.4,0.2-0.4,0.6c0,0.4,0.1,0.6,0.3,0.6 C241.5,122,241.6,121.8,241.6,121.4z"></path> </g> <g> <path class="st3" d="M240.7,123.5c-0.6,0-1.1-0.2-1.5-0.6c-0.4-0.4-0.6-1-0.5-1.5c0.1-1.2,1.1-2.1,2.3-2.1 c0.6,0,1.1,0.2,1.5,0.6c0.4,0.4,0.6,1,0.5,1.5v0C242.9,122.5,241.9,123.5,240.7,123.5z M241,119.6c-1,0-1.8,0.8-1.9,1.8 c0,0.5,0.1,0.9,0.4,1.2c0.3,0.3,0.7,0.5,1.2,0.5c1,0,1.8-0.8,1.9-1.8v0c0-0.5-0.1-0.9-0.4-1.2 C241.9,119.7,241.4,119.6,241,119.6z"></path> </g> <polygon class="st3" points="241.4,119.1 240.8,119.1 240.6,118.2 241.7,118.2 "></polygon> <polygon class="st3" points="242.3,119.5 242,119.3 242.2,119 242.5,119.2 "></polygon> </g> <polygon class="st3" points="241.3,119.3 240.9,119.3 240.9,118.9 241.3,118.9 "></polygon> </g> </g> <g> <g> <path class="st3" d="M244.5,138.9l0,0.7h-0.3l0-0.7c0-0.2-0.1-0.3-0.3-0.3c-0.2,0-0.3,0.1-0.3,0.4l0,0.6h-0.3l0-0.7 c0-0.2-0.1-0.3-0.3-0.3c-0.2,0-0.3,0.1-0.3,0.4l0,0.6h-0.3l0.1-1.2h0.3l0,0.2c0.1-0.1,0.2-0.2,0.4-0.2c0.2,0,0.3,0.1,0.4,0.2 c0.1-0.1,0.3-0.2,0.5-0.2C244.4,138.4,244.5,138.5,244.5,138.9z"></path> <path class="st3" d="M244.9,138.4h0.3l-0.1,1.2h-0.3L244.9,138.4z M244.9,138c0-0.1,0.1-0.2,0.2-0.2c0.1,0,0.2,0.1,0.2,0.2 c0,0.1-0.1,0.2-0.2,0.2C245,138.2,244.9,138.1,244.9,138z"></path> <path class="st3" d="M246.7,138.9l0,0.7h-0.3l0-0.7c0-0.2-0.1-0.3-0.3-0.3c-0.2,0-0.3,0.1-0.4,0.4l0,0.6h-0.3l0.1-1.2h0.3l0,0.2 c0.1-0.1,0.3-0.2,0.4-0.2C246.6,138.4,246.8,138.5,246.7,138.9z"></path> <path class="st3" d="M248.3,138.4l-0.1,1.2H248l0-0.2c-0.1,0.1-0.2,0.2-0.4,0.2c-0.3,0-0.5-0.2-0.5-0.5l0-0.7h0.3l0,0.7 c0,0.2,0.1,0.3,0.3,0.3c0.2,0,0.3-0.1,0.4-0.4l0-0.6H248.3z"></path> <path class="st3" d="M249.3,139.5c-0.1,0.1-0.2,0.1-0.3,0.1c-0.3,0-0.4-0.1-0.4-0.4l0-0.6h-0.2l0-0.2h0.2l0-0.3h0.3l0,0.3h0.3 l0,0.2H249l0,0.6c0,0.1,0,0.2,0.2,0.2c0.1,0,0.1,0,0.2,0L249.3,139.5z"></path> <path class="st3" d="M250.7,139.1h-1c0,0.2,0.2,0.3,0.4,0.3c0.1,0,0.2,0,0.3-0.1l0.1,0.2c-0.1,0.1-0.3,0.2-0.5,0.2 c-0.4,0-0.7-0.3-0.6-0.6c0-0.4,0.3-0.6,0.7-0.6C250.5,138.4,250.7,138.6,250.7,139.1C250.7,139,250.7,139.1,250.7,139.1z M249.8,138.9h0.7c0-0.2-0.1-0.3-0.3-0.3C249.9,138.6,249.8,138.7,249.8,138.9z"></path> <path class="st3" d="M250.8,139.5l0.1-0.2c0.1,0.1,0.3,0.1,0.4,0.1c0.2,0,0.3,0,0.3-0.1c0-0.2-0.8,0-0.7-0.5 c0-0.2,0.2-0.4,0.6-0.4c0.2,0,0.3,0,0.4,0.1l-0.1,0.2c-0.1-0.1-0.2-0.1-0.3-0.1c-0.2,0-0.3,0.1-0.3,0.1c0,0.2,0.8,0,0.7,0.5 c0,0.2-0.2,0.4-0.6,0.4C251.1,139.6,250.9,139.6,250.8,139.5z"></path> </g> <g> <g> <g> <path class="st3" d="M240.4,137.7l0,0.2l-0.7,1.4h-0.3l0.7-1.3h-0.6l0,0.3h-0.3l0-0.5H240.4z"></path> </g> <g> <path class="st3" d="M239.5,140.6c-0.6,0-1.1-0.2-1.5-0.6c-0.4-0.4-0.6-1-0.5-1.5c0.1-1.2,1.1-2.1,2.3-2.1 c0.6,0,1.1,0.2,1.5,0.6c0.4,0.4,0.6,1,0.5,1.5l0,0C241.7,139.6,240.7,140.6,239.5,140.6z M239.8,136.7c-1,0-1.8,0.8-1.9,1.8 c0,0.5,0.1,0.9,0.4,1.2c0.3,0.3,0.7,0.5,1.2,0.5c1,0,1.8-0.8,1.9-1.8l0,0c0-0.5-0.1-0.9-0.4-1.2 C240.7,136.9,240.2,136.7,239.8,136.7z"></path> </g> <polygon class="st3" points="240.2,136.2 239.6,136.2 239.4,135.3 240.5,135.3 "></polygon> <polygon class="st3" points="241.1,136.6 240.8,136.4 241,136.1 241.3,136.3 "></polygon> </g> <polygon class="st3" points="240.1,136.4 239.7,136.4 239.7,136 240.1,136 "></polygon> </g> </g> <g> <g> <path class="st3" d="M243.3,156l0,0.7H243l0-0.7c0-0.2-0.1-0.3-0.3-0.3c-0.2,0-0.3,0.1-0.3,0.4l0,0.6h-0.3l0-0.7 c0-0.2-0.1-0.3-0.3-0.3c-0.2,0-0.3,0.1-0.3,0.4l0,0.6h-0.3l0.1-1.2h0.3l0,0.2c0.1-0.1,0.2-0.2,0.4-0.2c0.2,0,0.3,0.1,0.4,0.2 c0.1-0.1,0.3-0.2,0.5-0.2C243.2,155.5,243.3,155.7,243.3,156z"></path> <path class="st3" d="M243.7,155.5h0.3l-0.1,1.2h-0.3L243.7,155.5z M243.7,155.1c0-0.1,0.1-0.2,0.2-0.2c0.1,0,0.2,0.1,0.2,0.2 c0,0.1-0.1,0.2-0.2,0.2C243.8,155.3,243.7,155.2,243.7,155.1z"></path> <path class="st3" d="M245.5,156l0,0.7h-0.3l0-0.7c0-0.2-0.1-0.3-0.3-0.3c-0.2,0-0.3,0.1-0.4,0.4l0,0.6h-0.3l0.1-1.2h0.3l0,0.2 c0.1-0.1,0.3-0.2,0.4-0.2C245.4,155.5,245.6,155.7,245.5,156z"></path> <path class="st3" d="M247.1,155.5l-0.1,1.2h-0.3l0-0.2c-0.1,0.1-0.2,0.2-0.4,0.2c-0.3,0-0.5-0.2-0.5-0.5l0-0.7h0.3l0,0.7 c0,0.2,0.1,0.3,0.3,0.3c0.2,0,0.3-0.1,0.4-0.4l0-0.6H247.1z"></path> <path class="st3" d="M248.1,156.7c-0.1,0.1-0.2,0.1-0.3,0.1c-0.3,0-0.4-0.1-0.4-0.4l0-0.6h-0.2l0-0.2h0.2l0-0.3h0.3l0,0.3h0.3 l0,0.2h-0.3l0,0.6c0,0.1,0,0.2,0.2,0.2c0.1,0,0.1,0,0.2,0L248.1,156.7z"></path> <path class="st3" d="M249.5,156.2h-1c0,0.2,0.2,0.3,0.4,0.3c0.1,0,0.2,0,0.3-0.1l0.1,0.2c-0.1,0.1-0.3,0.2-0.5,0.2 c-0.4,0-0.7-0.3-0.6-0.6c0-0.4,0.3-0.6,0.7-0.6C249.3,155.5,249.5,155.7,249.5,156.2C249.5,156.1,249.5,156.2,249.5,156.2z M248.6,156h0.7c0-0.2-0.1-0.3-0.3-0.3C248.7,155.7,248.6,155.8,248.6,156z"></path> <path class="st3" d="M249.6,156.6l0.1-0.2c0.1,0.1,0.3,0.1,0.4,0.1c0.2,0,0.3,0,0.3-0.1c0-0.2-0.8,0-0.7-0.5 c0-0.2,0.2-0.4,0.6-0.4c0.2,0,0.3,0,0.4,0.1l-0.1,0.2c-0.1-0.1-0.2-0.1-0.3-0.1c-0.2,0-0.3,0.1-0.3,0.1c0,0.2,0.8,0,0.7,0.5 c0,0.2-0.2,0.4-0.6,0.4C249.9,156.7,249.7,156.7,249.6,156.6z"></path> </g> <g> <g> <g> <path class="st3" d="M239.1,156c0,0.3-0.3,0.5-0.6,0.5c-0.4,0-0.7-0.3-0.6-0.8c0-0.5,0.4-0.8,0.8-0.8c0.2,0,0.3,0,0.4,0.1 l-0.1,0.2c-0.1-0.1-0.2-0.1-0.3-0.1c-0.3,0-0.5,0.2-0.5,0.5v0c0.1-0.1,0.3-0.2,0.4-0.2C238.9,155.5,239.1,155.7,239.1,156z M238.8,156c0-0.2-0.1-0.3-0.3-0.3c-0.2,0-0.3,0.1-0.3,0.3c0,0.2,0.1,0.3,0.3,0.3C238.7,156.2,238.8,156.1,238.8,156z"></path> </g> <g> <path class="st3" d="M238.3,157.7c-0.6,0-1.1-0.2-1.5-0.6c-0.4-0.4-0.6-1-0.5-1.5c0.1-1.2,1.1-2.1,2.3-2.1 c0.6,0,1.1,0.2,1.5,0.6c0.4,0.4,0.6,1,0.5,1.5l0,0C240.5,156.7,239.5,157.7,238.3,157.7z M238.6,153.8c-1,0-1.8,0.8-1.9,1.8 c0,0.5,0.1,0.9,0.4,1.2c0.3,0.3,0.7,0.5,1.2,0.5c1,0,1.8-0.8,1.9-1.8l0,0c0-0.5-0.1-0.9-0.4-1.2 C239.5,154,239,153.8,238.6,153.8z"></path> </g> <polygon class="st3" points="239,153.3 238.4,153.3 238.2,152.4 239.3,152.4 "></polygon> <polygon class="st3" points="239.9,153.8 239.6,153.6 239.8,153.3 240.1,153.5 "></polygon> </g> <polygon class="st3" points="238.9,153.6 238.5,153.6 238.5,153.2 238.9,153.2 "></polygon> </g> </g> <g> <path class="st3" d="M224.4,108.8c0,0.2-0.2,0.4-0.5,0.4h-0.7l0.1-1.3h0.6c0.3,0,0.5,0.1,0.5,0.3c0,0.1-0.1,0.2-0.2,0.3 C224.4,108.5,224.4,108.6,224.4,108.8z M224.2,108.7c0-0.1-0.1-0.2-0.3-0.2h-0.4l0,0.4h0.4C224.1,108.9,224.2,108.9,224.2,108.7z M223.6,108l0,0.4h0.3c0.2,0,0.3-0.1,0.3-0.2c0-0.1-0.1-0.2-0.3-0.2H223.6z"></path> <path class="st3" d="M225.7,108.9l0,0.2h-1l0.1-1.3h1l0,0.2H225l0,0.3h0.6l0,0.2H225l0,0.4H225.7z"></path> <path class="st3" d="M226.9,108.4h0.2l0,0.5c-0.1,0.1-0.3,0.2-0.5,0.2c-0.4,0-0.7-0.3-0.7-0.7c0-0.4,0.3-0.7,0.8-0.7 c0.2,0,0.4,0.1,0.5,0.2l-0.2,0.2c-0.1-0.1-0.2-0.2-0.4-0.2c-0.3,0-0.5,0.2-0.5,0.5c0,0.3,0.2,0.5,0.4,0.5c0.1,0,0.2,0,0.3-0.1 L226.9,108.4z"></path> <path class="st3" d="M227.5,107.8h0.2l-0.1,1.3h-0.2L227.5,107.8z"></path> <path class="st3" d="M229.2,107.8l-0.1,1.3H229l-0.7-0.9l-0.1,0.9H228l0.1-1.3h0.2l0.7,0.9l0.1-0.9H229.2z"></path> <path class="st3" d="M230.8,107.8l-0.1,1.3h-0.2l-0.7-0.9l-0.1,0.9h-0.2l0.1-1.3h0.2l0.7,0.9l0.1-0.9H230.8z"></path> <path class="st3" d="M232,108.9l0,0.2h-1l0.1-1.3h1l0,0.2h-0.7l0,0.3h0.6l0,0.2h-0.6l0,0.4H232z"></path> <path class="st3" d="M233.2,109.1l-0.2-0.4c0,0,0,0-0.1,0h-0.3l0,0.4h-0.2l0.1-1.3h0.5c0.3,0,0.5,0.2,0.5,0.5 c0,0.2-0.1,0.3-0.3,0.4l0.3,0.4H233.2z M232.9,108h-0.3l0,0.5h0.3c0.2,0,0.3-0.1,0.3-0.3C233.2,108.1,233.1,108,232.9,108z"></path> <path class="st3" d="M234.7,107.5h0.2l-0.7,1.8h-0.2L234.7,107.5z"></path> <path class="st3" d="M236.3,108.9l0,0.2h-1l0-0.2l0.6-0.5c0.1-0.1,0.2-0.2,0.2-0.3c0-0.1-0.1-0.2-0.2-0.2c-0.1,0-0.2,0-0.3,0.1 l-0.2-0.1c0.1-0.1,0.3-0.2,0.5-0.2c0.3,0,0.5,0.1,0.4,0.4c0,0.1-0.1,0.2-0.2,0.4l-0.4,0.3H236.3z"></path> <path class="st3" d="M237.4,108.7c0,0.2-0.2,0.4-0.5,0.4c-0.2,0-0.4-0.1-0.5-0.2l0.1-0.2c0.1,0.1,0.2,0.1,0.4,0.1 c0.2,0,0.3-0.1,0.3-0.2c0-0.1-0.1-0.2-0.3-0.2h-0.1l0-0.2l0.3-0.4h-0.6l0-0.2h0.9l0,0.2l-0.3,0.4 C237.3,108.4,237.4,108.5,237.4,108.7z"></path> <path class="st3" d="M238.8,109.1l0.1-0.9l-0.5,0.7h-0.1l-0.4-0.7l-0.1,0.9h-0.2l0.1-1.3h0.2l0.5,0.9l0.6-0.9h0.2l-0.1,1.3H238.8z"></path> <path class="st3" d="M239.5,107.8h0.2l-0.1,1.3h-0.2L239.5,107.8z"></path> <path class="st3" d="M241.3,107.8l-0.1,1.3H241l-0.7-0.9l-0.1,0.9H240l0.1-1.3h0.2l0.7,0.9l0.1-0.9H241.3z"></path> </g> <g> <g> <rect x="110.2" y="93.2" class="st2" width="4.4" height="12"></rect> <g> <rect x="108.3" y="94.4" class="st2" width="1.9" height="9.4"></rect> <polygon class="st0" points="110.2,103.9 109.7,103.9 109.3,94.4 110.2,94.4 "></polygon> </g> </g> <g> <rect x="126" y="93.2" transform="matrix(-1 -1.224647e-16 1.224647e-16 -1 256.4298 198.2857)" class="st2" width="4.4" height="12"></rect> <g> <rect x="130.4" y="94.4" transform="matrix(-1 -1.224647e-16 1.224647e-16 -1 262.7423 198.2857)" class="st2" width="1.9" height="9.4"></rect> <polygon class="st0" points="130.4,94.4 131,94.4 131.4,103.9 130.4,103.9 "></polygon> </g> </g> <g> <rect x="114.6" y="97.7" class="st2" width="11.4" height="2.8"></rect> <polygon class="st0" points="115.1,100.5 114.6,100.5 114.6,97.7 115.4,97.7 "></polygon> <polygon class="st0" points="125.5,97.7 126,97.7 126,100.5 125.2,100.5 "></polygon> </g> </g> <g> <g> <rect x="110.2" y="75.6" class="st2" width="4.4" height="12"></rect> <g> <rect x="108.3" y="76.9" class="st2" width="1.9" height="9.4"></rect> <polygon class="st0" points="110.2,86.3 109.7,86.3 109.3,76.9 110.2,76.9 "></polygon> </g> </g> <g> <rect x="126" y="75.6" transform="matrix(-1 -1.224647e-16 1.224647e-16 -1 256.4298 163.1951)" class="st2" width="4.4" height="12"></rect> <g> <rect x="130.4" y="76.9" transform="matrix(-1 -1.224647e-16 1.224647e-16 -1 262.7423 163.1951)" class="st2" width="1.9" height="9.4"></rect> <polygon class="st0" points="130.4,76.9 131,76.9 131.4,86.3 130.4,86.3 "></polygon> </g> </g> <g> <rect x="114.6" y="80.2" class="st2" width="11.4" height="2.8"></rect> <polygon class="st0" points="115.1,83 114.6,83 114.6,80.2 115.4,80.2 "></polygon> <polygon class="st0" points="125.5,80.2 126,80.2 126,83 125.2,83 "></polygon> </g> </g> </svg> 